M48
METRIC,LZ,000.000
;FILE_FORMAT=3:3
;TYPE=PLATED
;Layer: PTH_Through
;EasyEDA v6.5.44, 2024-09-01 09:52:19
;b4576de5f8ba4d03ab64208176f03f1d,a54f91b67bf74260adec70c9c35cfc8e,10
;Gerber Generator version 0.2
;Holesize 1 = 0.701 mm
T01C0.701
;Holesize 2 = 0.901 mm
T02C0.901
;Holesize 3 = 1.000 mm
T03C1.000
%
G05
G90
T01
X012865Y001905
X014135Y001905
X012865Y000635
X014135Y000635
X012865Y-000635
X014135Y-000635
X012865Y-001905
X014135Y-001905
X012865Y-003175
X014135Y-003175
X012865Y-004445
X014135Y-004445
X012865Y-005715
X014135Y-005715
X014135Y003175
X012865Y003175
X014135Y004445
X012865Y004445
X012865Y005715
X014135Y005715
X-014135Y001905
X-012865Y001905
X-014135Y000635
X-012865Y000635
X-014135Y-000635
X-012865Y-000635
X-014135Y-001905
X-012865Y-001905
X-014135Y-003175
X-012865Y-003175
X-014135Y-004445
X-012865Y-004445
X-014135Y-005715
X-012865Y-005715
X-012865Y003175
X-014135Y003175
X-012865Y004445
X-014135Y004445
X-014135Y005715
X-012865Y005715
T02
X-026670Y011430
X-024130Y011430
X-024130Y008890
X-026670Y008890
X-026670Y006350
X-024130Y006350
X-026670Y003810
X-024130Y003810
X-024130Y001270
X-026670Y001270
X-026670Y-001270
X-024130Y-001270
X-024130Y-003810
X-026670Y-003810
X-026670Y-006350
X-026670Y-008890
X-026670Y-011430
X-024130Y-011430
X-024130Y-008890
X-024130Y-006350
X024130Y011430
X026670Y011430
X024130Y008890
X026670Y008890
X026670Y006350
X024130Y006350
X024130Y003810
X026670Y003810
X026670Y001270
X024130Y001270
X024130Y-001270
X026670Y-001270
X024130Y-003810
X026670Y-003810
X024130Y-006350
X026670Y-006350
X024130Y-008890
X026670Y-008890
X024130Y-011430
X026670Y-011430
T03
X-022606Y022860
X-020066Y022860
X-022606Y020320
X-020066Y020320
X-022606Y-022860
X-022606Y-020320
X-020066Y-020320
X-020066Y-022860
X023114Y-020320
X020574Y022860
X023114Y022860
X023114Y020320
X020574Y020320
X020574Y-020320
X020574Y-022860
X-022606Y016764
X-020066Y016764
X023114Y-022860
M30
