G04 Layer: BottomLayer*
G04 EasyEDA v6.5.44, 2024-09-01 09:52:19*
G04 b4576de5f8ba4d03ab64208176f03f1d,a54f91b67bf74260adec70c9c35cfc8e,10*
G04 Gerber Generator version 0.2*
G04 Scale: 100 percent, Rotated: No, Reflected: No *
G04 Dimensions in millimeters *
G04 leading zeros omitted , absolute positions ,4 integer and 5 decimal *
%FSLAX45Y45*%
%MOMM*%

%ADD10C,0.2540*%
%ADD11C,0.2000*%
%ADD12C,1.0000*%
%ADD13C,1.5000*%
%ADD14C,1.7000*%
%ADD15C,0.0119*%

%LPD*%
D10*
X-2006600Y-2032000D02*
G01*
X2311394Y-2031997D01*
D11*
X-1286476Y63494D02*
G01*
X-1052951Y297022D01*
X-1052951Y674743D01*
X-1769435Y1391226D01*
X-2767962Y1391226D01*
X-2933948Y1225240D01*
X-2933948Y484880D01*
X-2703065Y253994D01*
X-2608653Y253994D01*
X-2481658Y127000D01*
X-2413000Y127000D01*
X-2667000Y127000D02*
G01*
X-2552700Y12700D01*
X-1464310Y12700D01*
X-1413510Y63500D01*
X-1409700Y-63500D02*
G01*
X-1447800Y-25400D01*
X-2561589Y-25400D01*
X-2663189Y-127000D01*
X-1282700Y-63500D02*
G01*
X-1052068Y-294131D01*
X-1052068Y-655828D01*
X-1805686Y-1409700D01*
X-2752852Y-1409700D01*
X-2895600Y-1267205D01*
X-2895600Y-467868D01*
X-2695955Y-268223D01*
X-2626613Y-268223D01*
X-2485389Y-127000D01*
X-2409189Y-127000D01*
X1286515Y-63505D02*
G01*
X1055832Y-294187D01*
X1055832Y-655909D01*
X1782526Y-1382603D01*
X2783895Y-1382603D01*
X2899313Y-1267185D01*
X2899313Y-467822D01*
X2699847Y-268356D01*
X2630505Y-268356D01*
X2489154Y-127005D01*
X2413005Y-127005D01*
X1413515Y-63505D02*
G01*
X1461140Y-15880D01*
X2555880Y-15880D01*
X2667005Y-127005D01*
X-1413479Y571494D02*
G01*
X-1857979Y1015994D01*
X-2540020Y1015994D01*
X-2666994Y1142969D01*
X-1286479Y571494D02*
G01*
X-1857979Y1142994D01*
X-2412994Y1142994D01*
X-1413479Y444494D02*
G01*
X-1730979Y761994D01*
X-2539994Y761994D01*
X-2666994Y888994D01*
X-1413479Y317494D02*
G01*
X-1603979Y507994D01*
X-2539994Y507994D01*
X-2666994Y634994D01*
X-1413479Y190494D02*
G01*
X-1496918Y273933D01*
X-2559933Y273933D01*
X-2666994Y380994D01*
X-1286479Y190494D02*
G01*
X-1100500Y376473D01*
X-1100500Y662528D01*
X-1786300Y1348328D01*
X-2746369Y1348328D01*
X-2893258Y1201440D01*
X-2893258Y715792D01*
X-2699811Y522345D01*
X-2630495Y522345D01*
X-2489144Y380994D01*
X-2412994Y380994D01*
X-1286479Y-190505D02*
G01*
X-1102050Y-374934D01*
X-1102050Y-629772D01*
X-1831207Y-1358930D01*
X-2672074Y-1358930D01*
X-2839283Y-1191722D01*
X-2839283Y-659643D01*
X-2687645Y-508005D01*
X-2607101Y-508005D01*
X-2480101Y-381005D01*
X-2412994Y-381005D01*
X-1413479Y-190505D02*
G01*
X-1476979Y-254005D01*
X-2539994Y-254005D01*
X-2666994Y-381005D01*
X-1413479Y-317505D02*
G01*
X-1628084Y-532109D01*
X-2564099Y-532109D01*
X-2666994Y-635005D01*
X-1413479Y-444505D02*
G01*
X-1714494Y-745520D01*
X-2523510Y-745520D01*
X-2666994Y-889005D01*
X-1413479Y-571505D02*
G01*
X-1628084Y-786109D01*
X-2460340Y-786109D01*
X-2556860Y-882629D01*
X-2556860Y-1032870D01*
X-2666994Y-1143005D01*
X-1286479Y-571505D02*
G01*
X-1857979Y-1143005D01*
X-2412994Y-1143005D01*
X-1286479Y-444505D02*
G01*
X-1198951Y-532033D01*
X-1198951Y-596981D01*
X-1859554Y-1257584D01*
X-2455489Y-1257584D01*
X-2516271Y-1196802D01*
X-2516271Y-992281D01*
X-2412994Y-889005D01*
X-2412994Y-635005D02*
G01*
X-2470398Y-635005D01*
X-2597398Y-762005D01*
X-2689931Y-762005D01*
X-2786679Y-858753D01*
X-2786679Y-1184788D01*
X-2666664Y-1304803D01*
X-1846905Y-1304803D01*
X-1156406Y-614304D01*
X-1156406Y-447578D01*
X-1286479Y-317505D01*
X1286515Y571494D02*
G01*
X1858015Y1142994D01*
X2413005Y1142994D01*
X1413515Y571494D02*
G01*
X1858015Y1015994D01*
X2540005Y1015994D01*
X2667005Y1142994D01*
X1286515Y444494D02*
G01*
X1187632Y543377D01*
X1187632Y593821D01*
X1851233Y1257421D01*
X2712318Y1257421D01*
X2774726Y1195014D01*
X2774726Y1100932D01*
X2713918Y1040124D01*
X2638633Y1040124D01*
X2487503Y888994D01*
X2413005Y888994D01*
X1413515Y444494D02*
G01*
X1751258Y782238D01*
X2560248Y782238D01*
X2667005Y888994D01*
X2667005Y634994D02*
G01*
X2560350Y741649D01*
X1837669Y741649D01*
X1413515Y317494D01*
X2413005Y634994D02*
G01*
X2523190Y524809D01*
X2714757Y524809D01*
X2826440Y636493D01*
X2826440Y1208907D01*
X2726364Y1308983D01*
X1838253Y1308983D01*
X1146154Y616884D01*
X1146154Y457855D01*
X1286515Y317494D01*
X1286515Y190494D02*
G01*
X1098047Y378962D01*
X1098047Y646678D01*
X1813692Y1362323D01*
X2737566Y1362323D01*
X2883870Y1216019D01*
X2883870Y619704D01*
X2748386Y484220D01*
X2516230Y484220D01*
X2413005Y380994D01*
X1413515Y190494D02*
G01*
X1496954Y273933D01*
X2559944Y273933D01*
X2667005Y380994D01*
X1413515Y63494D02*
G01*
X1583364Y233344D01*
X2560655Y233344D01*
X2667005Y126994D01*
X1286515Y63494D02*
G01*
X1053927Y296082D01*
X1053927Y682619D01*
X1789739Y1418432D01*
X2746964Y1418432D01*
X2932384Y1233012D01*
X2932384Y229763D01*
X2718516Y15895D01*
X2594310Y15895D01*
X2483210Y126994D01*
X2413005Y126994D01*
X1286515Y-190505D02*
G01*
X1099596Y-377423D01*
X1099596Y-641126D01*
X1800204Y-1341734D01*
X2753441Y-1341734D01*
X2858292Y-1236883D01*
X2858292Y-680801D01*
X2699847Y-522356D01*
X2630505Y-522356D01*
X2489154Y-381005D01*
X2413005Y-381005D01*
X1413515Y-190505D02*
G01*
X1477015Y-254005D01*
X2540005Y-254005D01*
X2667005Y-381005D01*
X1286515Y-317505D02*
G01*
X1155197Y-448823D01*
X1155197Y-636452D01*
X1813666Y-1294922D01*
X2741858Y-1294922D01*
X2817550Y-1219230D01*
X2817550Y-894059D01*
X2699847Y-776356D01*
X2630505Y-776356D01*
X2489154Y-635005D01*
X2413005Y-635005D01*
X1413515Y-317505D02*
G01*
X1604015Y-508005D01*
X2540005Y-508005D01*
X2667005Y-635005D01*
X1413515Y-444505D02*
G01*
X1731015Y-762005D01*
X2540005Y-762005D01*
X2667005Y-889005D01*
X1286515Y-571505D02*
G01*
X1858015Y-1143005D01*
X2413005Y-1143005D01*
X1413515Y-571505D02*
G01*
X1858015Y-1016005D01*
X2540005Y-1016005D01*
X2667005Y-1143005D01*
D10*
X-2260605Y-2031997D02*
G01*
X-2006605Y-2031997D01*
D11*
X-1286479Y317494D02*
G01*
X-1155161Y448812D01*
X-1155161Y631921D01*
X-1821936Y1298696D01*
X-2738114Y1298696D01*
X-2835092Y1201719D01*
X-2835092Y911626D01*
X-2699811Y776345D01*
X-2630495Y776345D01*
X-2489144Y634994D01*
X-2412994Y634994D01*
X1286515Y-444505D02*
G01*
X1201983Y-529036D01*
X1201983Y-603305D01*
X1846534Y-1247856D01*
X2723494Y-1247856D01*
X2770205Y-1201145D01*
X2770205Y-1100714D01*
X2699847Y-1030356D01*
X2630505Y-1030356D01*
X2489154Y-889005D01*
X2413005Y-889005D01*
X-1286479Y444494D02*
G01*
X-1201948Y529026D01*
X-1201948Y603295D01*
X-1848378Y1249725D01*
X-2711648Y1249725D01*
X-2776519Y1184854D01*
X-2776519Y1107028D01*
X-2699837Y1030345D01*
X-2630495Y1030345D01*
X-2489144Y888994D01*
X-2412994Y888994D01*
D10*
X-2006605Y2286002D02*
G01*
X2057394Y2286002D01*
X2057394Y2286002D02*
G01*
X2311394Y2286002D01*
X-2260600Y2286002D02*
G01*
X-2006605Y2286002D01*
X2703255Y-1198994D02*
G01*
X1866773Y-1198994D01*
X1866773Y-1198994D02*
G01*
X1250845Y-583066D01*
X1250845Y-583066D02*
G01*
X1250845Y-549275D01*
X1250845Y-549275D02*
G01*
X1268800Y-531320D01*
X1268800Y-531320D02*
G01*
X1273250Y-532336D01*
X1273250Y-532336D02*
G01*
X1286494Y-533328D01*
X1286494Y-533328D02*
G01*
X1299738Y-532336D01*
X1299738Y-532336D02*
G01*
X1312687Y-529380D01*
X1312687Y-529380D02*
G01*
X1325050Y-524528D01*
X1325050Y-524528D02*
G01*
X1336552Y-517888D01*
X1336552Y-517888D02*
G01*
X1346936Y-509607D01*
X1346936Y-509607D02*
G01*
X1349994Y-506310D01*
X1349994Y-506310D02*
G01*
X1353053Y-509607D01*
X1353053Y-509607D02*
G01*
X1363436Y-517888D01*
X1363436Y-517888D02*
G01*
X1374939Y-524528D01*
X1374939Y-524528D02*
G01*
X1387302Y-529380D01*
X1387302Y-529380D02*
G01*
X1400250Y-532336D01*
X1400250Y-532336D02*
G01*
X1413494Y-533328D01*
X1413494Y-533328D02*
G01*
X1426738Y-532336D01*
X1426738Y-532336D02*
G01*
X1431221Y-531313D01*
X1431221Y-531313D02*
G01*
X1696464Y-796555D01*
X1696464Y-796555D02*
G01*
X1703868Y-802632D01*
X1703868Y-802632D02*
G01*
X1712316Y-807147D01*
X1712316Y-807147D02*
G01*
X1721482Y-809928D01*
X1721482Y-809928D02*
G01*
X1731015Y-810867D01*
X1731015Y-810867D02*
G01*
X2330383Y-810867D01*
X2330383Y-810867D02*
G01*
X2322654Y-819680D01*
X2322654Y-819680D02*
G01*
X2314379Y-832063D01*
X2314379Y-832063D02*
G01*
X2307792Y-845421D01*
X2307792Y-845421D02*
G01*
X2303005Y-859525D01*
X2303005Y-859525D02*
G01*
X2300099Y-874132D01*
X2300099Y-874132D02*
G01*
X2299125Y-888994D01*
X2299125Y-888994D02*
G01*
X2300099Y-903856D01*
X2300099Y-903856D02*
G01*
X2303005Y-918464D01*
X2303005Y-918464D02*
G01*
X2307792Y-932567D01*
X2307792Y-932567D02*
G01*
X2314379Y-945925D01*
X2314379Y-945925D02*
G01*
X2322654Y-958309D01*
X2322654Y-958309D02*
G01*
X2332474Y-969507D01*
X2332474Y-969507D02*
G01*
X2343672Y-979327D01*
X2343672Y-979327D02*
G01*
X2356056Y-987602D01*
X2356056Y-987602D02*
G01*
X2369414Y-994189D01*
X2369414Y-994189D02*
G01*
X2383517Y-998976D01*
X2383517Y-998976D02*
G01*
X2398125Y-1001882D01*
X2398125Y-1001882D02*
G01*
X2412987Y-1002856D01*
X2412987Y-1002856D02*
G01*
X2427849Y-1001882D01*
X2427849Y-1001882D02*
G01*
X2442456Y-998976D01*
X2442456Y-998976D02*
G01*
X2456560Y-994189D01*
X2456560Y-994189D02*
G01*
X2469918Y-987602D01*
X2469918Y-987602D02*
G01*
X2482302Y-979327D01*
X2482302Y-979327D02*
G01*
X2493499Y-969507D01*
X2493499Y-969507D02*
G01*
X2496796Y-965748D01*
X2496796Y-965748D02*
G01*
X2595954Y-1064906D01*
X2595954Y-1064906D02*
G01*
X2603359Y-1070983D01*
X2603359Y-1070983D02*
G01*
X2611806Y-1075498D01*
X2611806Y-1075498D02*
G01*
X2620972Y-1078279D01*
X2620972Y-1078279D02*
G01*
X2630505Y-1079218D01*
X2630505Y-1079218D02*
G01*
X2679608Y-1079218D01*
X2679608Y-1079218D02*
G01*
X2721343Y-1120953D01*
X2721343Y-1120953D02*
G01*
X2721343Y-1180906D01*
X2721343Y-1180906D02*
G01*
X2703255Y-1198994D01*
X1250845Y-576996D02*
G01*
X1872843Y-1198994D01*
X1278414Y-532723D02*
G01*
X1944685Y-1198994D01*
X1335835Y-518301D02*
G01*
X2016527Y-1198994D01*
X1422062Y-532686D02*
G01*
X2088369Y-1198994D01*
X1772084Y-810867D02*
G01*
X2160211Y-1198994D01*
X1843926Y-810867D02*
G01*
X2232053Y-1198994D01*
X1915768Y-810867D02*
G01*
X2303896Y-1198994D01*
X1987610Y-810867D02*
G01*
X2375737Y-1198994D01*
X2059452Y-810867D02*
G01*
X2447580Y-1198994D01*
X2131294Y-810867D02*
G01*
X2519422Y-1198994D01*
X2203137Y-810867D02*
G01*
X2301086Y-908816D01*
X2393166Y-1000896D02*
G01*
X2591264Y-1198994D01*
X2274978Y-810867D02*
G01*
X2308367Y-844255D01*
X2457726Y-993614D02*
G01*
X2663106Y-1198994D01*
X2611046Y-1075092D02*
G01*
X2719101Y-1183147D01*
X2653205Y-1198994D02*
G01*
X2721343Y-1130856D01*
X2581363Y-1198994D02*
G01*
X2690373Y-1089983D01*
X2509521Y-1198994D02*
G01*
X2629405Y-1079109D01*
X2437679Y-1198994D02*
G01*
X2583860Y-1052812D01*
X2365837Y-1198994D02*
G01*
X2547939Y-1016891D01*
X2293995Y-1198994D02*
G01*
X2512018Y-980970D01*
X2222153Y-1198994D02*
G01*
X2418662Y-1002484D01*
X2150311Y-1198994D02*
G01*
X2359838Y-989467D01*
X2078469Y-1198994D02*
G01*
X2321252Y-956210D01*
X2006626Y-1198994D02*
G01*
X2300375Y-905245D01*
X1934784Y-1198994D02*
G01*
X2322912Y-810867D01*
X1864858Y-1197078D02*
G01*
X2251070Y-810867D01*
X1828937Y-1161157D02*
G01*
X2179228Y-810867D01*
X1793016Y-1125236D02*
G01*
X2107385Y-810867D01*
X1757095Y-1089315D02*
G01*
X2035544Y-810867D01*
X1721174Y-1053394D02*
G01*
X1963701Y-810867D01*
X1685253Y-1017473D02*
G01*
X1891859Y-810867D01*
X1649331Y-981552D02*
G01*
X1820017Y-810867D01*
X1613411Y-945631D02*
G01*
X1748175Y-810867D01*
X1577490Y-909710D02*
G01*
X1693554Y-793646D01*
X1541568Y-873789D02*
G01*
X1657633Y-757724D01*
X1505647Y-837868D02*
G01*
X1621712Y-721803D01*
X1469727Y-801947D02*
G01*
X1585791Y-685883D01*
X1433805Y-766026D02*
G01*
X1549870Y-649961D01*
X1397884Y-730105D02*
G01*
X1513949Y-614040D01*
X1361963Y-694184D02*
G01*
X1478028Y-578119D01*
X1326042Y-658263D02*
G01*
X1442107Y-542198D01*
X1290121Y-622342D02*
G01*
X1384272Y-528191D01*
X1254200Y-586421D02*
G01*
X1310813Y-529808D01*
X-1857979Y1064856D02*
G01*
X-2519781Y1064856D01*
X-2519781Y1064856D02*
G01*
X-2559909Y1104985D01*
X-2559909Y1104985D02*
G01*
X-2557010Y1113527D01*
X-2557010Y1113527D02*
G01*
X-2554104Y1128135D01*
X-2554104Y1128135D02*
G01*
X-2553130Y1142997D01*
X-2553130Y1142997D02*
G01*
X-2554104Y1157859D01*
X-2554104Y1157859D02*
G01*
X-2557010Y1172467D01*
X-2557010Y1172467D02*
G01*
X-2561797Y1186570D01*
X-2561797Y1186570D02*
G01*
X-2568385Y1199928D01*
X-2568385Y1199928D02*
G01*
X-2569010Y1200863D01*
X-2569010Y1200863D02*
G01*
X-1868617Y1200863D01*
X-1868617Y1200863D02*
G01*
X-1250810Y583056D01*
X-1250810Y583056D02*
G01*
X-1250810Y549265D01*
X-1250810Y549265D02*
G01*
X-1268737Y531338D01*
X-1268737Y531338D02*
G01*
X-1273255Y532369D01*
X-1273255Y532369D02*
G01*
X-1286499Y533361D01*
X-1286499Y533361D02*
G01*
X-1299743Y532369D01*
X-1299743Y532369D02*
G01*
X-1312692Y529413D01*
X-1312692Y529413D02*
G01*
X-1325055Y524561D01*
X-1325055Y524561D02*
G01*
X-1336557Y517921D01*
X-1336557Y517921D02*
G01*
X-1346941Y509640D01*
X-1346941Y509640D02*
G01*
X-1349999Y506343D01*
X-1349999Y506343D02*
G01*
X-1351536Y508000D01*
X-1351536Y508000D02*
G01*
X-1344024Y516095D01*
X-1344024Y516095D02*
G01*
X-1336543Y527069D01*
X-1336543Y527069D02*
G01*
X-1330780Y539034D01*
X-1330780Y539034D02*
G01*
X-1326865Y551726D01*
X-1326865Y551726D02*
G01*
X-1324886Y564859D01*
X-1324886Y564859D02*
G01*
X-1324886Y578140D01*
X-1324886Y578140D02*
G01*
X-1326865Y591273D01*
X-1326865Y591273D02*
G01*
X-1330780Y603965D01*
X-1330780Y603965D02*
G01*
X-1336543Y615930D01*
X-1336543Y615930D02*
G01*
X-1344024Y626904D01*
X-1344024Y626904D02*
G01*
X-1353058Y636640D01*
X-1353058Y636640D02*
G01*
X-1363442Y644921D01*
X-1363442Y644921D02*
G01*
X-1374944Y651561D01*
X-1374944Y651561D02*
G01*
X-1387307Y656413D01*
X-1387307Y656413D02*
G01*
X-1400255Y659369D01*
X-1400255Y659369D02*
G01*
X-1413499Y660361D01*
X-1413499Y660361D02*
G01*
X-1426743Y659369D01*
X-1426743Y659369D02*
G01*
X-1431229Y658345D01*
X-1431229Y658345D02*
G01*
X-1823428Y1050545D01*
X-1823428Y1050545D02*
G01*
X-1830833Y1056622D01*
X-1830833Y1056622D02*
G01*
X-1839280Y1061137D01*
X-1839280Y1061137D02*
G01*
X-1848446Y1063918D01*
X-1848446Y1063918D02*
G01*
X-1857979Y1064856D01*
X-2553169Y1143599D02*
G01*
X-2474426Y1064856D01*
X-2538591Y1200863D02*
G01*
X-2402584Y1064856D01*
X-2466749Y1200863D02*
G01*
X-2330742Y1064856D01*
X-2394907Y1200863D02*
G01*
X-2258900Y1064856D01*
X-2323065Y1200863D02*
G01*
X-2187058Y1064856D01*
X-2251223Y1200863D02*
G01*
X-2115216Y1064856D01*
X-2179381Y1200863D02*
G01*
X-2043374Y1064856D01*
X-2107539Y1200863D02*
G01*
X-1971532Y1064856D01*
X-2035697Y1200863D02*
G01*
X-1899690Y1064856D01*
X-1347347Y512514D02*
G01*
X-1345568Y510735D01*
X-1963855Y1200863D02*
G01*
X-1422666Y659674D01*
X-1325274Y562283D02*
G01*
X-1295666Y532674D01*
X-1892013Y1200863D02*
G01*
X-1250810Y559660D01*
X-1290240Y533081D02*
G01*
X-1250810Y572511D01*
X-1324886Y570277D02*
G01*
X-1281458Y613705D01*
X-1342434Y624571D02*
G01*
X-1317380Y649626D01*
X-1383807Y655040D02*
G01*
X-1353301Y685547D01*
X-1441786Y668903D02*
G01*
X-1389222Y721468D01*
X-1477707Y704824D02*
G01*
X-1425143Y757389D01*
X-1513628Y740745D02*
G01*
X-1461064Y793310D01*
X-1549549Y776666D02*
G01*
X-1496985Y829231D01*
X-1585471Y812587D02*
G01*
X-1532906Y865152D01*
X-1621391Y848508D02*
G01*
X-1568827Y901073D01*
X-1657312Y884429D02*
G01*
X-1604748Y936994D01*
X-1693234Y920350D02*
G01*
X-1640669Y972915D01*
X-1729155Y956271D02*
G01*
X-1676590Y1008836D01*
X-1765075Y992192D02*
G01*
X-1712511Y1044757D01*
X-1800997Y1028113D02*
G01*
X-1748432Y1080678D01*
X-1839691Y1061262D02*
G01*
X-1784353Y1116599D01*
X-1907938Y1064856D02*
G01*
X-1820274Y1152520D01*
X-1979780Y1064856D02*
G01*
X-1856195Y1188441D01*
X-2051622Y1064856D02*
G01*
X-1915615Y1200863D01*
X-2123464Y1064856D02*
G01*
X-1987457Y1200863D01*
X-2195306Y1064856D02*
G01*
X-2059299Y1200863D01*
X-2267148Y1064856D02*
G01*
X-2131141Y1200863D01*
X-2338990Y1064856D02*
G01*
X-2202983Y1200863D01*
X-2410832Y1064856D02*
G01*
X-2274825Y1200863D01*
X-2482674Y1064856D02*
G01*
X-2346667Y1200863D01*
X-2537148Y1082224D02*
G01*
X-2418509Y1200863D01*
X-2553475Y1137740D02*
G01*
X-2490351Y1200863D01*
X-2566649Y1196408D02*
G01*
X-2562193Y1200863D01*
X-3178054Y-2261605D02*
G01*
X-3193230Y-2243970D01*
X-3193230Y-2243970D02*
G01*
X-3207046Y-2225251D01*
X-3207046Y-2225251D02*
G01*
X-3219424Y-2205551D01*
X-3219424Y-2205551D02*
G01*
X-3230295Y-2184981D01*
X-3230295Y-2184981D02*
G01*
X-3239599Y-2163657D01*
X-3239599Y-2163657D02*
G01*
X-3247283Y-2141697D01*
X-3247283Y-2141697D02*
G01*
X-3253304Y-2119224D01*
X-3253304Y-2119224D02*
G01*
X-3257630Y-2096364D01*
X-3257630Y-2096364D02*
G01*
X-3260235Y-2073245D01*
X-3260235Y-2073245D02*
G01*
X-3261131Y-2049292D01*
X-3261131Y-2049292D02*
G01*
X-3261131Y2049292D01*
X-3261131Y2049292D02*
G01*
X-3260235Y2073245D01*
X-3260235Y2073245D02*
G01*
X-3257630Y2096364D01*
X-3257630Y2096364D02*
G01*
X-3253304Y2119224D01*
X-3253304Y2119224D02*
G01*
X-3247283Y2141697D01*
X-3247283Y2141697D02*
G01*
X-3239599Y2163657D01*
X-3239599Y2163657D02*
G01*
X-3230295Y2184981D01*
X-3230295Y2184981D02*
G01*
X-3219424Y2205551D01*
X-3219424Y2205551D02*
G01*
X-3207046Y2225251D01*
X-3207046Y2225251D02*
G01*
X-3193230Y2243970D01*
X-3193230Y2243970D02*
G01*
X-3178054Y2261605D01*
X-3178054Y2261605D02*
G01*
X-3161603Y2278056D01*
X-3161603Y2278056D02*
G01*
X-3143968Y2293232D01*
X-3143968Y2293232D02*
G01*
X-3125249Y2307047D01*
X-3125249Y2307047D02*
G01*
X-3105549Y2319425D01*
X-3105549Y2319425D02*
G01*
X-3084980Y2330297D01*
X-3084980Y2330297D02*
G01*
X-3063655Y2339600D01*
X-3063655Y2339600D02*
G01*
X-3041695Y2347285D01*
X-3041695Y2347285D02*
G01*
X-3019222Y2353306D01*
X-3019222Y2353306D02*
G01*
X-2996362Y2357632D01*
X-2996362Y2357632D02*
G01*
X-2973243Y2360237D01*
X-2973243Y2360237D02*
G01*
X-2949291Y2361133D01*
X-2949291Y2361133D02*
G01*
X-2358893Y2361133D01*
X-2358893Y2361133D02*
G01*
X-2360816Y2358809D01*
X-2360816Y2358809D02*
G01*
X-2369151Y2345676D01*
X-2369151Y2345676D02*
G01*
X-2375774Y2331601D01*
X-2375774Y2331601D02*
G01*
X-2380580Y2316808D01*
X-2380580Y2316808D02*
G01*
X-2383495Y2301529D01*
X-2383495Y2301529D02*
G01*
X-2384471Y2286005D01*
X-2384471Y2286005D02*
G01*
X-2383495Y2270481D01*
X-2383495Y2270481D02*
G01*
X-2380580Y2255201D01*
X-2380580Y2255201D02*
G01*
X-2375774Y2240408D01*
X-2375774Y2240408D02*
G01*
X-2369151Y2226334D01*
X-2369151Y2226334D02*
G01*
X-2360816Y2213200D01*
X-2360816Y2213200D02*
G01*
X-2350901Y2201215D01*
X-2350901Y2201215D02*
G01*
X-2339562Y2190567D01*
X-2339562Y2190567D02*
G01*
X-2326978Y2181425D01*
X-2326978Y2181425D02*
G01*
X-2313347Y2173931D01*
X-2313347Y2173931D02*
G01*
X-2298885Y2168205D01*
X-2298885Y2168205D02*
G01*
X-2283819Y2164337D01*
X-2283819Y2164337D02*
G01*
X-2268387Y2162387D01*
X-2268387Y2162387D02*
G01*
X-2252832Y2162387D01*
X-2252832Y2162387D02*
G01*
X-2237400Y2164337D01*
X-2237400Y2164337D02*
G01*
X-2222334Y2168205D01*
X-2222334Y2168205D02*
G01*
X-2207872Y2173931D01*
X-2207872Y2173931D02*
G01*
X-2194241Y2181425D01*
X-2194241Y2181425D02*
G01*
X-2181657Y2190567D01*
X-2181657Y2190567D02*
G01*
X-2170318Y2201215D01*
X-2170318Y2201215D02*
G01*
X-2160403Y2213200D01*
X-2160403Y2213200D02*
G01*
X-2152069Y2226334D01*
X-2152069Y2226334D02*
G01*
X-2148254Y2234440D01*
X-2148254Y2234440D02*
G01*
X-2118965Y2234440D01*
X-2118965Y2234440D02*
G01*
X-2115151Y2226334D01*
X-2115151Y2226334D02*
G01*
X-2106816Y2213200D01*
X-2106816Y2213200D02*
G01*
X-2096901Y2201215D01*
X-2096901Y2201215D02*
G01*
X-2085562Y2190567D01*
X-2085562Y2190567D02*
G01*
X-2072978Y2181425D01*
X-2072978Y2181425D02*
G01*
X-2059347Y2173931D01*
X-2059347Y2173931D02*
G01*
X-2044885Y2168205D01*
X-2044885Y2168205D02*
G01*
X-2029819Y2164337D01*
X-2029819Y2164337D02*
G01*
X-2014387Y2162387D01*
X-2014387Y2162387D02*
G01*
X-1998832Y2162387D01*
X-1998832Y2162387D02*
G01*
X-1983400Y2164337D01*
X-1983400Y2164337D02*
G01*
X-1968334Y2168205D01*
X-1968334Y2168205D02*
G01*
X-1953872Y2173931D01*
X-1953872Y2173931D02*
G01*
X-1940241Y2181425D01*
X-1940241Y2181425D02*
G01*
X-1927657Y2190567D01*
X-1927657Y2190567D02*
G01*
X-1916318Y2201215D01*
X-1916318Y2201215D02*
G01*
X-1906403Y2213200D01*
X-1906403Y2213200D02*
G01*
X-1898069Y2226334D01*
X-1898069Y2226334D02*
G01*
X-1894254Y2234440D01*
X-1894254Y2234440D02*
G01*
X1945034Y2234440D01*
X1945034Y2234440D02*
G01*
X1948848Y2226334D01*
X1948848Y2226334D02*
G01*
X1957183Y2213200D01*
X1957183Y2213200D02*
G01*
X1967098Y2201215D01*
X1967098Y2201215D02*
G01*
X1978437Y2190567D01*
X1978437Y2190567D02*
G01*
X1991021Y2181425D01*
X1991021Y2181425D02*
G01*
X2004652Y2173931D01*
X2004652Y2173931D02*
G01*
X2019114Y2168205D01*
X2019114Y2168205D02*
G01*
X2034180Y2164337D01*
X2034180Y2164337D02*
G01*
X2049612Y2162387D01*
X2049612Y2162387D02*
G01*
X2065167Y2162387D01*
X2065167Y2162387D02*
G01*
X2080599Y2164337D01*
X2080599Y2164337D02*
G01*
X2095665Y2168205D01*
X2095665Y2168205D02*
G01*
X2110127Y2173931D01*
X2110127Y2173931D02*
G01*
X2123758Y2181425D01*
X2123758Y2181425D02*
G01*
X2136342Y2190567D01*
X2136342Y2190567D02*
G01*
X2147681Y2201215D01*
X2147681Y2201215D02*
G01*
X2157596Y2213200D01*
X2157596Y2213200D02*
G01*
X2165930Y2226334D01*
X2165930Y2226334D02*
G01*
X2169745Y2234440D01*
X2169745Y2234440D02*
G01*
X2199034Y2234440D01*
X2199034Y2234440D02*
G01*
X2202848Y2226334D01*
X2202848Y2226334D02*
G01*
X2211183Y2213200D01*
X2211183Y2213200D02*
G01*
X2221098Y2201215D01*
X2221098Y2201215D02*
G01*
X2232437Y2190567D01*
X2232437Y2190567D02*
G01*
X2245021Y2181425D01*
X2245021Y2181425D02*
G01*
X2258652Y2173931D01*
X2258652Y2173931D02*
G01*
X2273114Y2168205D01*
X2273114Y2168205D02*
G01*
X2288180Y2164337D01*
X2288180Y2164337D02*
G01*
X2303612Y2162387D01*
X2303612Y2162387D02*
G01*
X2319167Y2162387D01*
X2319167Y2162387D02*
G01*
X2334599Y2164337D01*
X2334599Y2164337D02*
G01*
X2349665Y2168205D01*
X2349665Y2168205D02*
G01*
X2364127Y2173931D01*
X2364127Y2173931D02*
G01*
X2377758Y2181425D01*
X2377758Y2181425D02*
G01*
X2390342Y2190567D01*
X2390342Y2190567D02*
G01*
X2401681Y2201215D01*
X2401681Y2201215D02*
G01*
X2411596Y2213200D01*
X2411596Y2213200D02*
G01*
X2419930Y2226334D01*
X2419930Y2226334D02*
G01*
X2426553Y2240408D01*
X2426553Y2240408D02*
G01*
X2431360Y2255201D01*
X2431360Y2255201D02*
G01*
X2434275Y2270481D01*
X2434275Y2270481D02*
G01*
X2435251Y2286005D01*
X2435251Y2286005D02*
G01*
X2434275Y2301529D01*
X2434275Y2301529D02*
G01*
X2431360Y2316808D01*
X2431360Y2316808D02*
G01*
X2426553Y2331601D01*
X2426553Y2331601D02*
G01*
X2419930Y2345676D01*
X2419930Y2345676D02*
G01*
X2411596Y2358809D01*
X2411596Y2358809D02*
G01*
X2409673Y2361133D01*
X2409673Y2361133D02*
G01*
X2949291Y2361133D01*
X2949291Y2361133D02*
G01*
X2973243Y2360237D01*
X2973243Y2360237D02*
G01*
X2996362Y2357632D01*
X2996362Y2357632D02*
G01*
X3019222Y2353306D01*
X3019222Y2353306D02*
G01*
X3041695Y2347285D01*
X3041695Y2347285D02*
G01*
X3063655Y2339600D01*
X3063655Y2339600D02*
G01*
X3084980Y2330297D01*
X3084980Y2330297D02*
G01*
X3105549Y2319425D01*
X3105549Y2319425D02*
G01*
X3125249Y2307047D01*
X3125249Y2307047D02*
G01*
X3143968Y2293232D01*
X3143968Y2293232D02*
G01*
X3161603Y2278056D01*
X3161603Y2278056D02*
G01*
X3178054Y2261605D01*
X3178054Y2261605D02*
G01*
X3193230Y2243970D01*
X3193230Y2243970D02*
G01*
X3207046Y2225251D01*
X3207046Y2225251D02*
G01*
X3219424Y2205551D01*
X3219424Y2205551D02*
G01*
X3230295Y2184981D01*
X3230295Y2184981D02*
G01*
X3239599Y2163657D01*
X3239599Y2163657D02*
G01*
X3247283Y2141697D01*
X3247283Y2141697D02*
G01*
X3253304Y2119224D01*
X3253304Y2119224D02*
G01*
X3257630Y2096364D01*
X3257630Y2096364D02*
G01*
X3260235Y2073245D01*
X3260235Y2073245D02*
G01*
X3261131Y2049292D01*
X3261131Y2049292D02*
G01*
X3261131Y-2049292D01*
X3261131Y-2049292D02*
G01*
X3260235Y-2073245D01*
X3260235Y-2073245D02*
G01*
X3257630Y-2096364D01*
X3257630Y-2096364D02*
G01*
X3253304Y-2119224D01*
X3253304Y-2119224D02*
G01*
X3247283Y-2141697D01*
X3247283Y-2141697D02*
G01*
X3239599Y-2163657D01*
X3239599Y-2163657D02*
G01*
X3230295Y-2184981D01*
X3230295Y-2184981D02*
G01*
X3219424Y-2205551D01*
X3219424Y-2205551D02*
G01*
X3207046Y-2225251D01*
X3207046Y-2225251D02*
G01*
X3193230Y-2243970D01*
X3193230Y-2243970D02*
G01*
X3178054Y-2261605D01*
X3178054Y-2261605D02*
G01*
X3161603Y-2278056D01*
X3161603Y-2278056D02*
G01*
X3143968Y-2293232D01*
X3143968Y-2293232D02*
G01*
X3125249Y-2307047D01*
X3125249Y-2307047D02*
G01*
X3105549Y-2319425D01*
X3105549Y-2319425D02*
G01*
X3084980Y-2330297D01*
X3084980Y-2330297D02*
G01*
X3063655Y-2339600D01*
X3063655Y-2339600D02*
G01*
X3041695Y-2347285D01*
X3041695Y-2347285D02*
G01*
X3019222Y-2353306D01*
X3019222Y-2353306D02*
G01*
X2996362Y-2357632D01*
X2996362Y-2357632D02*
G01*
X2973243Y-2360237D01*
X2973243Y-2360237D02*
G01*
X2949291Y-2361133D01*
X2949291Y-2361133D02*
G01*
X-2949291Y-2361133D01*
X-2949291Y-2361133D02*
G01*
X-2973243Y-2360237D01*
X-2973243Y-2360237D02*
G01*
X-2996362Y-2357632D01*
X-2996362Y-2357632D02*
G01*
X-3019222Y-2353306D01*
X-3019222Y-2353306D02*
G01*
X-3041695Y-2347285D01*
X-3041695Y-2347285D02*
G01*
X-3063655Y-2339600D01*
X-3063655Y-2339600D02*
G01*
X-3084980Y-2330297D01*
X-3084980Y-2330297D02*
G01*
X-3105549Y-2319425D01*
X-3105549Y-2319425D02*
G01*
X-3125249Y-2307047D01*
X-3125249Y-2307047D02*
G01*
X-3143968Y-2293232D01*
X-3143968Y-2293232D02*
G01*
X-3161603Y-2278056D01*
X-3161603Y-2278056D02*
G01*
X-3178054Y-2261605D01*
X-2360816Y-2104799D02*
G01*
X-2350901Y-2116784D01*
X-2350901Y-2116784D02*
G01*
X-2339562Y-2127432D01*
X-2339562Y-2127432D02*
G01*
X-2326978Y-2136574D01*
X-2326978Y-2136574D02*
G01*
X-2313347Y-2144068D01*
X-2313347Y-2144068D02*
G01*
X-2298885Y-2149794D01*
X-2298885Y-2149794D02*
G01*
X-2283819Y-2153662D01*
X-2283819Y-2153662D02*
G01*
X-2268387Y-2155612D01*
X-2268387Y-2155612D02*
G01*
X-2252832Y-2155612D01*
X-2252832Y-2155612D02*
G01*
X-2237400Y-2153662D01*
X-2237400Y-2153662D02*
G01*
X-2222334Y-2149794D01*
X-2222334Y-2149794D02*
G01*
X-2207872Y-2144068D01*
X-2207872Y-2144068D02*
G01*
X-2194241Y-2136574D01*
X-2194241Y-2136574D02*
G01*
X-2181657Y-2127432D01*
X-2181657Y-2127432D02*
G01*
X-2170318Y-2116784D01*
X-2170318Y-2116784D02*
G01*
X-2160403Y-2104799D01*
X-2160403Y-2104799D02*
G01*
X-2152069Y-2091665D01*
X-2152069Y-2091665D02*
G01*
X-2148254Y-2083559D01*
X-2148254Y-2083559D02*
G01*
X-2118965Y-2083559D01*
X-2118965Y-2083559D02*
G01*
X-2115151Y-2091665D01*
X-2115151Y-2091665D02*
G01*
X-2106816Y-2104799D01*
X-2106816Y-2104799D02*
G01*
X-2096901Y-2116784D01*
X-2096901Y-2116784D02*
G01*
X-2085562Y-2127432D01*
X-2085562Y-2127432D02*
G01*
X-2072978Y-2136574D01*
X-2072978Y-2136574D02*
G01*
X-2059347Y-2144068D01*
X-2059347Y-2144068D02*
G01*
X-2044885Y-2149794D01*
X-2044885Y-2149794D02*
G01*
X-2029819Y-2153662D01*
X-2029819Y-2153662D02*
G01*
X-2014387Y-2155612D01*
X-2014387Y-2155612D02*
G01*
X-1998832Y-2155612D01*
X-1998832Y-2155612D02*
G01*
X-1983400Y-2153662D01*
X-1983400Y-2153662D02*
G01*
X-1968334Y-2149794D01*
X-1968334Y-2149794D02*
G01*
X-1953872Y-2144068D01*
X-1953872Y-2144068D02*
G01*
X-1940241Y-2136574D01*
X-1940241Y-2136574D02*
G01*
X-1927657Y-2127432D01*
X-1927657Y-2127432D02*
G01*
X-1916318Y-2116784D01*
X-1916318Y-2116784D02*
G01*
X-1906403Y-2104799D01*
X-1906403Y-2104799D02*
G01*
X-1898069Y-2091665D01*
X-1898069Y-2091665D02*
G01*
X-1894255Y-2083562D01*
X-1894255Y-2083562D02*
G01*
X1945034Y-2083559D01*
X1945034Y-2083559D02*
G01*
X1948848Y-2091665D01*
X1948848Y-2091665D02*
G01*
X1957183Y-2104799D01*
X1957183Y-2104799D02*
G01*
X1967098Y-2116784D01*
X1967098Y-2116784D02*
G01*
X1978437Y-2127432D01*
X1978437Y-2127432D02*
G01*
X1991021Y-2136574D01*
X1991021Y-2136574D02*
G01*
X2004652Y-2144068D01*
X2004652Y-2144068D02*
G01*
X2019114Y-2149794D01*
X2019114Y-2149794D02*
G01*
X2034180Y-2153662D01*
X2034180Y-2153662D02*
G01*
X2049612Y-2155612D01*
X2049612Y-2155612D02*
G01*
X2065167Y-2155612D01*
X2065167Y-2155612D02*
G01*
X2080599Y-2153662D01*
X2080599Y-2153662D02*
G01*
X2095665Y-2149794D01*
X2095665Y-2149794D02*
G01*
X2110127Y-2144068D01*
X2110127Y-2144068D02*
G01*
X2123758Y-2136574D01*
X2123758Y-2136574D02*
G01*
X2136342Y-2127432D01*
X2136342Y-2127432D02*
G01*
X2147681Y-2116784D01*
X2147681Y-2116784D02*
G01*
X2157596Y-2104799D01*
X2157596Y-2104799D02*
G01*
X2165930Y-2091665D01*
X2165930Y-2091665D02*
G01*
X2169745Y-2083559D01*
X2169745Y-2083559D02*
G01*
X2199034Y-2083559D01*
X2199034Y-2083559D02*
G01*
X2202848Y-2091665D01*
X2202848Y-2091665D02*
G01*
X2211183Y-2104799D01*
X2211183Y-2104799D02*
G01*
X2221098Y-2116784D01*
X2221098Y-2116784D02*
G01*
X2232437Y-2127432D01*
X2232437Y-2127432D02*
G01*
X2245021Y-2136574D01*
X2245021Y-2136574D02*
G01*
X2258652Y-2144068D01*
X2258652Y-2144068D02*
G01*
X2273114Y-2149794D01*
X2273114Y-2149794D02*
G01*
X2288180Y-2153662D01*
X2288180Y-2153662D02*
G01*
X2303612Y-2155612D01*
X2303612Y-2155612D02*
G01*
X2319167Y-2155612D01*
X2319167Y-2155612D02*
G01*
X2334599Y-2153662D01*
X2334599Y-2153662D02*
G01*
X2349665Y-2149794D01*
X2349665Y-2149794D02*
G01*
X2364127Y-2144068D01*
X2364127Y-2144068D02*
G01*
X2377758Y-2136574D01*
X2377758Y-2136574D02*
G01*
X2390342Y-2127432D01*
X2390342Y-2127432D02*
G01*
X2401681Y-2116784D01*
X2401681Y-2116784D02*
G01*
X2411596Y-2104799D01*
X2411596Y-2104799D02*
G01*
X2419930Y-2091665D01*
X2419930Y-2091665D02*
G01*
X2426553Y-2077591D01*
X2426553Y-2077591D02*
G01*
X2431360Y-2062798D01*
X2431360Y-2062798D02*
G01*
X2434275Y-2047518D01*
X2434275Y-2047518D02*
G01*
X2435251Y-2031994D01*
X2435251Y-2031994D02*
G01*
X2434275Y-2016470D01*
X2434275Y-2016470D02*
G01*
X2431360Y-2001191D01*
X2431360Y-2001191D02*
G01*
X2426553Y-1986398D01*
X2426553Y-1986398D02*
G01*
X2419930Y-1972323D01*
X2419930Y-1972323D02*
G01*
X2411596Y-1959190D01*
X2411596Y-1959190D02*
G01*
X2401681Y-1947205D01*
X2401681Y-1947205D02*
G01*
X2390342Y-1936557D01*
X2390342Y-1936557D02*
G01*
X2377758Y-1927414D01*
X2377758Y-1927414D02*
G01*
X2364127Y-1919921D01*
X2364127Y-1919921D02*
G01*
X2349665Y-1914195D01*
X2349665Y-1914195D02*
G01*
X2334599Y-1910327D01*
X2334599Y-1910327D02*
G01*
X2319167Y-1908377D01*
X2319167Y-1908377D02*
G01*
X2303612Y-1908377D01*
X2303612Y-1908377D02*
G01*
X2288180Y-1910327D01*
X2288180Y-1910327D02*
G01*
X2273114Y-1914195D01*
X2273114Y-1914195D02*
G01*
X2258652Y-1919921D01*
X2258652Y-1919921D02*
G01*
X2245021Y-1927414D01*
X2245021Y-1927414D02*
G01*
X2232437Y-1936557D01*
X2232437Y-1936557D02*
G01*
X2221098Y-1947205D01*
X2221098Y-1947205D02*
G01*
X2211183Y-1959190D01*
X2211183Y-1959190D02*
G01*
X2202848Y-1972323D01*
X2202848Y-1972323D02*
G01*
X2199031Y-1980435D01*
X2199031Y-1980435D02*
G01*
X2169747Y-1980435D01*
X2169747Y-1980435D02*
G01*
X2165930Y-1972323D01*
X2165930Y-1972323D02*
G01*
X2157596Y-1959190D01*
X2157596Y-1959190D02*
G01*
X2147681Y-1947205D01*
X2147681Y-1947205D02*
G01*
X2136342Y-1936557D01*
X2136342Y-1936557D02*
G01*
X2123758Y-1927414D01*
X2123758Y-1927414D02*
G01*
X2110127Y-1919921D01*
X2110127Y-1919921D02*
G01*
X2095665Y-1914195D01*
X2095665Y-1914195D02*
G01*
X2080599Y-1910327D01*
X2080599Y-1910327D02*
G01*
X2065167Y-1908377D01*
X2065167Y-1908377D02*
G01*
X2049612Y-1908377D01*
X2049612Y-1908377D02*
G01*
X2034180Y-1910327D01*
X2034180Y-1910327D02*
G01*
X2019114Y-1914195D01*
X2019114Y-1914195D02*
G01*
X2004652Y-1919921D01*
X2004652Y-1919921D02*
G01*
X1991021Y-1927414D01*
X1991021Y-1927414D02*
G01*
X1978437Y-1936557D01*
X1978437Y-1936557D02*
G01*
X1967098Y-1947205D01*
X1967098Y-1947205D02*
G01*
X1957183Y-1959190D01*
X1957183Y-1959190D02*
G01*
X1948848Y-1972323D01*
X1948848Y-1972323D02*
G01*
X1945031Y-1980435D01*
X1945031Y-1980435D02*
G01*
X-1894250Y-1980437D01*
X-1894250Y-1980437D02*
G01*
X-1898069Y-1972323D01*
X-1898069Y-1972323D02*
G01*
X-1906403Y-1959190D01*
X-1906403Y-1959190D02*
G01*
X-1916318Y-1947205D01*
X-1916318Y-1947205D02*
G01*
X-1927657Y-1936557D01*
X-1927657Y-1936557D02*
G01*
X-1940241Y-1927414D01*
X-1940241Y-1927414D02*
G01*
X-1953872Y-1919921D01*
X-1953872Y-1919921D02*
G01*
X-1968334Y-1914195D01*
X-1968334Y-1914195D02*
G01*
X-1983400Y-1910327D01*
X-1983400Y-1910327D02*
G01*
X-1998832Y-1908377D01*
X-1998832Y-1908377D02*
G01*
X-2014387Y-1908377D01*
X-2014387Y-1908377D02*
G01*
X-2029819Y-1910327D01*
X-2029819Y-1910327D02*
G01*
X-2044885Y-1914195D01*
X-2044885Y-1914195D02*
G01*
X-2059347Y-1919921D01*
X-2059347Y-1919921D02*
G01*
X-2072978Y-1927414D01*
X-2072978Y-1927414D02*
G01*
X-2085562Y-1936557D01*
X-2085562Y-1936557D02*
G01*
X-2096901Y-1947205D01*
X-2096901Y-1947205D02*
G01*
X-2106816Y-1959190D01*
X-2106816Y-1959190D02*
G01*
X-2115151Y-1972323D01*
X-2115151Y-1972323D02*
G01*
X-2118968Y-1980435D01*
X-2118968Y-1980435D02*
G01*
X-2148252Y-1980435D01*
X-2148252Y-1980435D02*
G01*
X-2152069Y-1972323D01*
X-2152069Y-1972323D02*
G01*
X-2160403Y-1959190D01*
X-2160403Y-1959190D02*
G01*
X-2170318Y-1947205D01*
X-2170318Y-1947205D02*
G01*
X-2181657Y-1936557D01*
X-2181657Y-1936557D02*
G01*
X-2194241Y-1927414D01*
X-2194241Y-1927414D02*
G01*
X-2207872Y-1919921D01*
X-2207872Y-1919921D02*
G01*
X-2222334Y-1914195D01*
X-2222334Y-1914195D02*
G01*
X-2237400Y-1910327D01*
X-2237400Y-1910327D02*
G01*
X-2252832Y-1908377D01*
X-2252832Y-1908377D02*
G01*
X-2268387Y-1908377D01*
X-2268387Y-1908377D02*
G01*
X-2283819Y-1910327D01*
X-2283819Y-1910327D02*
G01*
X-2298885Y-1914195D01*
X-2298885Y-1914195D02*
G01*
X-2313347Y-1919921D01*
X-2313347Y-1919921D02*
G01*
X-2326978Y-1927414D01*
X-2326978Y-1927414D02*
G01*
X-2339562Y-1936557D01*
X-2339562Y-1936557D02*
G01*
X-2350901Y-1947205D01*
X-2350901Y-1947205D02*
G01*
X-2360816Y-1959190D01*
X-2360816Y-1959190D02*
G01*
X-2369151Y-1972323D01*
X-2369151Y-1972323D02*
G01*
X-2375774Y-1986398D01*
X-2375774Y-1986398D02*
G01*
X-2380580Y-2001191D01*
X-2380580Y-2001191D02*
G01*
X-2383495Y-2016470D01*
X-2383495Y-2016470D02*
G01*
X-2384471Y-2031994D01*
X-2384471Y-2031994D02*
G01*
X-2383495Y-2047518D01*
X-2383495Y-2047518D02*
G01*
X-2380580Y-2062798D01*
X-2380580Y-2062798D02*
G01*
X-2375774Y-2077591D01*
X-2375774Y-2077591D02*
G01*
X-2369151Y-2091665D01*
X-2369151Y-2091665D02*
G01*
X-2360816Y-2104799D01*
X1747975Y-1417153D02*
G01*
X1755380Y-1423230D01*
X1755380Y-1423230D02*
G01*
X1763827Y-1427745D01*
X1763827Y-1427745D02*
G01*
X1772993Y-1430526D01*
X1772993Y-1430526D02*
G01*
X1782526Y-1431465D01*
X1782526Y-1431465D02*
G01*
X2783895Y-1431465D01*
X2783895Y-1431465D02*
G01*
X2793428Y-1430526D01*
X2793428Y-1430526D02*
G01*
X2802594Y-1427745D01*
X2802594Y-1427745D02*
G01*
X2811042Y-1423230D01*
X2811042Y-1423230D02*
G01*
X2818446Y-1417153D01*
X2818446Y-1417153D02*
G01*
X2933864Y-1301736D01*
X2933864Y-1301736D02*
G01*
X2939940Y-1294331D01*
X2939940Y-1294331D02*
G01*
X2944456Y-1285884D01*
X2944456Y-1285884D02*
G01*
X2947236Y-1276718D01*
X2947236Y-1276718D02*
G01*
X2948175Y-1267185D01*
X2948175Y-1267185D02*
G01*
X2948175Y-467822D01*
X2948175Y-467822D02*
G01*
X2947236Y-458289D01*
X2947236Y-458289D02*
G01*
X2944456Y-449123D01*
X2944456Y-449123D02*
G01*
X2939940Y-440676D01*
X2939940Y-440676D02*
G01*
X2933864Y-433271D01*
X2933864Y-433271D02*
G01*
X2734397Y-233805D01*
X2734397Y-233805D02*
G01*
X2726993Y-227728D01*
X2726993Y-227728D02*
G01*
X2723450Y-225835D01*
X2723450Y-225835D02*
G01*
X2736302Y-217330D01*
X2736302Y-217330D02*
G01*
X2747499Y-207509D01*
X2747499Y-207509D02*
G01*
X2757319Y-196312D01*
X2757319Y-196312D02*
G01*
X2765594Y-183928D01*
X2765594Y-183928D02*
G01*
X2772181Y-170570D01*
X2772181Y-170570D02*
G01*
X2776969Y-156467D01*
X2776969Y-156467D02*
G01*
X2779875Y-141859D01*
X2779875Y-141859D02*
G01*
X2780849Y-126997D01*
X2780849Y-126997D02*
G01*
X2779875Y-112135D01*
X2779875Y-112135D02*
G01*
X2776969Y-97527D01*
X2776969Y-97527D02*
G01*
X2772181Y-83424D01*
X2772181Y-83424D02*
G01*
X2765594Y-70066D01*
X2765594Y-70066D02*
G01*
X2757319Y-57682D01*
X2757319Y-57682D02*
G01*
X2747499Y-46485D01*
X2747499Y-46485D02*
G01*
X2736302Y-36664D01*
X2736302Y-36664D02*
G01*
X2728952Y-31753D01*
X2728952Y-31753D02*
G01*
X2737214Y-29247D01*
X2737214Y-29247D02*
G01*
X2745662Y-24731D01*
X2745662Y-24731D02*
G01*
X2753066Y-18655D01*
X2753066Y-18655D02*
G01*
X2966934Y195212D01*
X2966934Y195212D02*
G01*
X2973011Y202617D01*
X2973011Y202617D02*
G01*
X2977526Y211064D01*
X2977526Y211064D02*
G01*
X2980307Y220230D01*
X2980307Y220230D02*
G01*
X2981246Y229763D01*
X2981246Y229763D02*
G01*
X2981246Y1233012D01*
X2981246Y1233012D02*
G01*
X2980307Y1242545D01*
X2980307Y1242545D02*
G01*
X2977526Y1251711D01*
X2977526Y1251711D02*
G01*
X2973011Y1260158D01*
X2973011Y1260158D02*
G01*
X2966934Y1267563D01*
X2966934Y1267563D02*
G01*
X2781514Y1452983D01*
X2781514Y1452983D02*
G01*
X2774110Y1459059D01*
X2774110Y1459059D02*
G01*
X2765662Y1463575D01*
X2765662Y1463575D02*
G01*
X2756496Y1466355D01*
X2756496Y1466355D02*
G01*
X2746964Y1467294D01*
X2746964Y1467294D02*
G01*
X1789739Y1467294D01*
X1789739Y1467294D02*
G01*
X1780207Y1466355D01*
X1780207Y1466355D02*
G01*
X1771041Y1463575D01*
X1771041Y1463575D02*
G01*
X1762593Y1459059D01*
X1762593Y1459059D02*
G01*
X1755189Y1452983D01*
X1755189Y1452983D02*
G01*
X1019376Y717170D01*
X1019376Y717170D02*
G01*
X1013299Y709766D01*
X1013299Y709766D02*
G01*
X1008784Y701318D01*
X1008784Y701318D02*
G01*
X1006004Y692152D01*
X1006004Y692152D02*
G01*
X1005065Y682619D01*
X1005065Y682619D02*
G01*
X1005065Y296082D01*
X1005065Y296082D02*
G01*
X1006004Y286550D01*
X1006004Y286550D02*
G01*
X1008784Y277384D01*
X1008784Y277384D02*
G01*
X1013299Y268936D01*
X1013299Y268936D02*
G01*
X1019376Y261532D01*
X1019376Y261532D02*
G01*
X1199565Y81343D01*
X1199565Y81343D02*
G01*
X1197881Y70173D01*
X1197881Y70173D02*
G01*
X1197881Y56892D01*
X1197881Y56892D02*
G01*
X1199860Y43759D01*
X1199860Y43759D02*
G01*
X1203775Y31068D01*
X1203775Y31068D02*
G01*
X1209538Y19102D01*
X1209538Y19102D02*
G01*
X1217019Y8128D01*
X1217019Y8128D02*
G01*
X1224531Y33D01*
X1224531Y33D02*
G01*
X1217019Y-8062D01*
X1217019Y-8062D02*
G01*
X1209538Y-19036D01*
X1209538Y-19036D02*
G01*
X1203775Y-31001D01*
X1203775Y-31001D02*
G01*
X1199860Y-43693D01*
X1199860Y-43693D02*
G01*
X1197881Y-56826D01*
X1197881Y-56826D02*
G01*
X1197881Y-70107D01*
X1197881Y-70107D02*
G01*
X1199574Y-81344D01*
X1199574Y-81344D02*
G01*
X1021281Y-259637D01*
X1021281Y-259637D02*
G01*
X1015204Y-267041D01*
X1015204Y-267041D02*
G01*
X1010689Y-275489D01*
X1010689Y-275489D02*
G01*
X1007909Y-284655D01*
X1007909Y-284655D02*
G01*
X1006970Y-294187D01*
X1006970Y-294187D02*
G01*
X1006970Y-655909D01*
X1006970Y-655909D02*
G01*
X1007909Y-665441D01*
X1007909Y-665441D02*
G01*
X1010689Y-674607D01*
X1010689Y-674607D02*
G01*
X1015204Y-683055D01*
X1015204Y-683055D02*
G01*
X1021281Y-690459D01*
X1021281Y-690459D02*
G01*
X1747975Y-1417153D01*
X-2936227Y-1294352D02*
G01*
X-2930150Y-1301756D01*
X-2930150Y-1301756D02*
G01*
X-2787371Y-1444281D01*
X-2787371Y-1444281D02*
G01*
X-2779998Y-1450327D01*
X-2779998Y-1450327D02*
G01*
X-2771550Y-1454842D01*
X-2771550Y-1454842D02*
G01*
X-2762384Y-1457623D01*
X-2762384Y-1457623D02*
G01*
X-2752852Y-1458561D01*
X-2752852Y-1458561D02*
G01*
X-1805686Y-1458561D01*
X-1805686Y-1458561D02*
G01*
X-1796153Y-1457623D01*
X-1796153Y-1457623D02*
G01*
X-1786987Y-1454842D01*
X-1786987Y-1454842D02*
G01*
X-1778539Y-1450327D01*
X-1778539Y-1450327D02*
G01*
X-1771135Y-1444250D01*
X-1771135Y-1444250D02*
G01*
X-1017511Y-690372D01*
X-1017511Y-690372D02*
G01*
X-1011440Y-682974D01*
X-1011440Y-682974D02*
G01*
X-1006925Y-674526D01*
X-1006925Y-674526D02*
G01*
X-1004144Y-665360D01*
X-1004144Y-665360D02*
G01*
X-1003206Y-655828D01*
X-1003206Y-655828D02*
G01*
X-1003206Y-294131D01*
X-1003206Y-294131D02*
G01*
X-1004144Y-284599D01*
X-1004144Y-284599D02*
G01*
X-1006925Y-275433D01*
X-1006925Y-275433D02*
G01*
X-1011440Y-266985D01*
X-1011440Y-266985D02*
G01*
X-1017517Y-259581D01*
X-1017517Y-259581D02*
G01*
X-1199074Y-78023D01*
X-1199074Y-78023D02*
G01*
X-1197886Y-70140D01*
X-1197886Y-70140D02*
G01*
X-1197886Y-56859D01*
X-1197886Y-56859D02*
G01*
X-1199865Y-43726D01*
X-1199865Y-43726D02*
G01*
X-1203780Y-31034D01*
X-1203780Y-31034D02*
G01*
X-1209543Y-19069D01*
X-1209543Y-19069D02*
G01*
X-1217024Y-8095D01*
X-1217024Y-8095D02*
G01*
X-1224536Y0D01*
X-1224536Y0D02*
G01*
X-1217024Y8095D01*
X-1217024Y8095D02*
G01*
X-1209543Y19069D01*
X-1209543Y19069D02*
G01*
X-1203780Y31034D01*
X-1203780Y31034D02*
G01*
X-1199865Y43726D01*
X-1199865Y43726D02*
G01*
X-1197886Y56859D01*
X-1197886Y56859D02*
G01*
X-1197886Y70140D01*
X-1197886Y70140D02*
G01*
X-1199568Y81302D01*
X-1199568Y81302D02*
G01*
X-1018401Y262471D01*
X-1018401Y262471D02*
G01*
X-1012324Y269876D01*
X-1012324Y269876D02*
G01*
X-1007809Y278323D01*
X-1007809Y278323D02*
G01*
X-1005028Y287489D01*
X-1005028Y287489D02*
G01*
X-1004089Y297022D01*
X-1004089Y297022D02*
G01*
X-1004089Y674743D01*
X-1004089Y674743D02*
G01*
X-1005028Y684276D01*
X-1005028Y684276D02*
G01*
X-1007809Y693442D01*
X-1007809Y693442D02*
G01*
X-1012324Y701889D01*
X-1012324Y701889D02*
G01*
X-1018401Y709293D01*
X-1018401Y709293D02*
G01*
X-1734884Y1425777D01*
X-1734884Y1425777D02*
G01*
X-1742288Y1431853D01*
X-1742288Y1431853D02*
G01*
X-1750736Y1436369D01*
X-1750736Y1436369D02*
G01*
X-1759902Y1439149D01*
X-1759902Y1439149D02*
G01*
X-1769435Y1440088D01*
X-1769435Y1440088D02*
G01*
X-2767962Y1440088D01*
X-2767962Y1440088D02*
G01*
X-2777495Y1439149D01*
X-2777495Y1439149D02*
G01*
X-2786661Y1436369D01*
X-2786661Y1436369D02*
G01*
X-2795108Y1431853D01*
X-2795108Y1431853D02*
G01*
X-2802513Y1425777D01*
X-2802513Y1425777D02*
G01*
X-2968499Y1259790D01*
X-2968499Y1259790D02*
G01*
X-2974576Y1252386D01*
X-2974576Y1252386D02*
G01*
X-2979091Y1243938D01*
X-2979091Y1243938D02*
G01*
X-2981872Y1234772D01*
X-2981872Y1234772D02*
G01*
X-2982810Y1225240D01*
X-2982810Y1225240D02*
G01*
X-2982810Y484881D01*
X-2982810Y484881D02*
G01*
X-2981872Y475348D01*
X-2981872Y475348D02*
G01*
X-2979091Y466182D01*
X-2979091Y466182D02*
G01*
X-2974576Y457734D01*
X-2974576Y457734D02*
G01*
X-2968499Y450330D01*
X-2968499Y450330D02*
G01*
X-2737616Y219444D01*
X-2737616Y219444D02*
G01*
X-2735610Y217798D01*
X-2735610Y217798D02*
G01*
X-2736307Y217332D01*
X-2736307Y217332D02*
G01*
X-2747504Y207512D01*
X-2747504Y207512D02*
G01*
X-2757324Y196314D01*
X-2757324Y196314D02*
G01*
X-2765599Y183931D01*
X-2765599Y183931D02*
G01*
X-2772186Y170572D01*
X-2772186Y170572D02*
G01*
X-2776974Y156469D01*
X-2776974Y156469D02*
G01*
X-2779880Y141862D01*
X-2779880Y141862D02*
G01*
X-2780854Y127000D01*
X-2780854Y127000D02*
G01*
X-2779880Y112137D01*
X-2779880Y112137D02*
G01*
X-2776974Y97530D01*
X-2776974Y97530D02*
G01*
X-2772186Y83427D01*
X-2772186Y83427D02*
G01*
X-2765599Y70069D01*
X-2765599Y70069D02*
G01*
X-2757324Y57685D01*
X-2757324Y57685D02*
G01*
X-2747504Y46487D01*
X-2747504Y46487D02*
G01*
X-2736307Y36667D01*
X-2736307Y36667D02*
G01*
X-2723923Y28392D01*
X-2723923Y28392D02*
G01*
X-2710565Y21805D01*
X-2710565Y21805D02*
G01*
X-2696461Y17018D01*
X-2696461Y17018D02*
G01*
X-2681854Y14112D01*
X-2681854Y14112D02*
G01*
X-2666992Y13138D01*
X-2666992Y13138D02*
G01*
X-2652130Y14112D01*
X-2652130Y14112D02*
G01*
X-2637522Y17018D01*
X-2637522Y17018D02*
G01*
X-2629009Y19907D01*
X-2629009Y19907D02*
G01*
X-2607196Y-1904D01*
X-2607196Y-1904D02*
G01*
X-2626164Y-20873D01*
X-2626164Y-20873D02*
G01*
X-2637522Y-17018D01*
X-2637522Y-17018D02*
G01*
X-2652130Y-14112D01*
X-2652130Y-14112D02*
G01*
X-2666992Y-13138D01*
X-2666992Y-13138D02*
G01*
X-2681854Y-14112D01*
X-2681854Y-14112D02*
G01*
X-2696461Y-17018D01*
X-2696461Y-17018D02*
G01*
X-2710565Y-21805D01*
X-2710565Y-21805D02*
G01*
X-2723923Y-28392D01*
X-2723923Y-28392D02*
G01*
X-2736307Y-36667D01*
X-2736307Y-36667D02*
G01*
X-2747504Y-46487D01*
X-2747504Y-46487D02*
G01*
X-2757324Y-57685D01*
X-2757324Y-57685D02*
G01*
X-2765599Y-70068D01*
X-2765599Y-70068D02*
G01*
X-2772186Y-83427D01*
X-2772186Y-83427D02*
G01*
X-2776974Y-97530D01*
X-2776974Y-97530D02*
G01*
X-2779880Y-112137D01*
X-2779880Y-112137D02*
G01*
X-2780854Y-127000D01*
X-2780854Y-127000D02*
G01*
X-2779880Y-141862D01*
X-2779880Y-141862D02*
G01*
X-2776974Y-156469D01*
X-2776974Y-156469D02*
G01*
X-2772186Y-170572D01*
X-2772186Y-170572D02*
G01*
X-2765599Y-183931D01*
X-2765599Y-183931D02*
G01*
X-2757324Y-196314D01*
X-2757324Y-196314D02*
G01*
X-2747504Y-207512D01*
X-2747504Y-207512D02*
G01*
X-2736307Y-217332D01*
X-2736307Y-217332D02*
G01*
X-2723923Y-225607D01*
X-2723923Y-225607D02*
G01*
X-2721560Y-226772D01*
X-2721560Y-226772D02*
G01*
X-2723102Y-227596D01*
X-2723102Y-227596D02*
G01*
X-2730506Y-233673D01*
X-2730506Y-233673D02*
G01*
X-2930150Y-433317D01*
X-2930150Y-433317D02*
G01*
X-2936227Y-440721D01*
X-2936227Y-440721D02*
G01*
X-2940742Y-449169D01*
X-2940742Y-449169D02*
G01*
X-2943523Y-458335D01*
X-2943523Y-458335D02*
G01*
X-2944461Y-467868D01*
X-2944461Y-467868D02*
G01*
X-2944461Y-1267205D01*
X-2944461Y-1267205D02*
G01*
X-2943523Y-1276738D01*
X-2943523Y-1276738D02*
G01*
X-2940742Y-1285904D01*
X-2940742Y-1285904D02*
G01*
X-2936227Y-1294352D01*
X2773904Y1905722D02*
G01*
X2787434Y1891489D01*
X2787434Y1891489D02*
G01*
X2802335Y1878697D01*
X2802335Y1878697D02*
G01*
X2818453Y1867479D01*
X2818453Y1867479D02*
G01*
X2835623Y1857949D01*
X2835623Y1857949D02*
G01*
X2853670Y1850204D01*
X2853670Y1850204D02*
G01*
X2872407Y1844325D01*
X2872407Y1844325D02*
G01*
X2891643Y1840372D01*
X2891643Y1840372D02*
G01*
X2911181Y1838385D01*
X2911181Y1838385D02*
G01*
X2930818Y1838385D01*
X2930818Y1838385D02*
G01*
X2950356Y1840372D01*
X2950356Y1840372D02*
G01*
X2969592Y1844325D01*
X2969592Y1844325D02*
G01*
X2988329Y1850204D01*
X2988329Y1850204D02*
G01*
X3006376Y1857949D01*
X3006376Y1857949D02*
G01*
X3023546Y1867479D01*
X3023546Y1867479D02*
G01*
X3039664Y1878697D01*
X3039664Y1878697D02*
G01*
X3054565Y1891489D01*
X3054565Y1891489D02*
G01*
X3068095Y1905722D01*
X3068095Y1905722D02*
G01*
X3080115Y1921252D01*
X3080115Y1921252D02*
G01*
X3090503Y1937917D01*
X3090503Y1937917D02*
G01*
X3099151Y1955549D01*
X3099151Y1955549D02*
G01*
X3105972Y1973964D01*
X3105972Y1973964D02*
G01*
X3110894Y1992975D01*
X3110894Y1992975D02*
G01*
X3113868Y2012387D01*
X3113868Y2012387D02*
G01*
X3114862Y2032000D01*
X3114862Y2032000D02*
G01*
X3113868Y2051612D01*
X3113868Y2051612D02*
G01*
X3110894Y2071024D01*
X3110894Y2071024D02*
G01*
X3105972Y2090035D01*
X3105972Y2090035D02*
G01*
X3099151Y2108450D01*
X3099151Y2108450D02*
G01*
X3090503Y2126082D01*
X3090503Y2126082D02*
G01*
X3080115Y2142747D01*
X3080115Y2142747D02*
G01*
X3068095Y2158277D01*
X3068095Y2158277D02*
G01*
X3054565Y2172510D01*
X3054565Y2172510D02*
G01*
X3039664Y2185302D01*
X3039664Y2185302D02*
G01*
X3023546Y2196520D01*
X3023546Y2196520D02*
G01*
X3006376Y2206050D01*
X3006376Y2206050D02*
G01*
X2988329Y2213795D01*
X2988329Y2213795D02*
G01*
X2969592Y2219674D01*
X2969592Y2219674D02*
G01*
X2950356Y2223627D01*
X2950356Y2223627D02*
G01*
X2930818Y2225614D01*
X2930818Y2225614D02*
G01*
X2911181Y2225614D01*
X2911181Y2225614D02*
G01*
X2891643Y2223627D01*
X2891643Y2223627D02*
G01*
X2872407Y2219674D01*
X2872407Y2219674D02*
G01*
X2853670Y2213795D01*
X2853670Y2213795D02*
G01*
X2835623Y2206050D01*
X2835623Y2206050D02*
G01*
X2818453Y2196520D01*
X2818453Y2196520D02*
G01*
X2802335Y2185302D01*
X2802335Y2185302D02*
G01*
X2787434Y2172510D01*
X2787434Y2172510D02*
G01*
X2773904Y2158277D01*
X2773904Y2158277D02*
G01*
X2761884Y2142747D01*
X2761884Y2142747D02*
G01*
X2751496Y2126082D01*
X2751496Y2126082D02*
G01*
X2742848Y2108450D01*
X2742848Y2108450D02*
G01*
X2736027Y2090035D01*
X2736027Y2090035D02*
G01*
X2731105Y2071024D01*
X2731105Y2071024D02*
G01*
X2728131Y2051612D01*
X2728131Y2051612D02*
G01*
X2727137Y2032000D01*
X2727137Y2032000D02*
G01*
X2728131Y2012387D01*
X2728131Y2012387D02*
G01*
X2731105Y1992975D01*
X2731105Y1992975D02*
G01*
X2736027Y1973964D01*
X2736027Y1973964D02*
G01*
X2742848Y1955549D01*
X2742848Y1955549D02*
G01*
X2751496Y1937917D01*
X2751496Y1937917D02*
G01*
X2761884Y1921252D01*
X2761884Y1921252D02*
G01*
X2773904Y1905722D01*
X-3068095Y1905722D02*
G01*
X-3054565Y1891489D01*
X-3054565Y1891489D02*
G01*
X-3039664Y1878697D01*
X-3039664Y1878697D02*
G01*
X-3023546Y1867479D01*
X-3023546Y1867479D02*
G01*
X-3006376Y1857949D01*
X-3006376Y1857949D02*
G01*
X-2988329Y1850204D01*
X-2988329Y1850204D02*
G01*
X-2969592Y1844325D01*
X-2969592Y1844325D02*
G01*
X-2950356Y1840372D01*
X-2950356Y1840372D02*
G01*
X-2930818Y1838385D01*
X-2930818Y1838385D02*
G01*
X-2911181Y1838385D01*
X-2911181Y1838385D02*
G01*
X-2891643Y1840372D01*
X-2891643Y1840372D02*
G01*
X-2872407Y1844325D01*
X-2872407Y1844325D02*
G01*
X-2853670Y1850204D01*
X-2853670Y1850204D02*
G01*
X-2835623Y1857949D01*
X-2835623Y1857949D02*
G01*
X-2818453Y1867479D01*
X-2818453Y1867479D02*
G01*
X-2802335Y1878697D01*
X-2802335Y1878697D02*
G01*
X-2787434Y1891489D01*
X-2787434Y1891489D02*
G01*
X-2773904Y1905722D01*
X-2773904Y1905722D02*
G01*
X-2761884Y1921252D01*
X-2761884Y1921252D02*
G01*
X-2751496Y1937917D01*
X-2751496Y1937917D02*
G01*
X-2742848Y1955549D01*
X-2742848Y1955549D02*
G01*
X-2736027Y1973964D01*
X-2736027Y1973964D02*
G01*
X-2731105Y1992975D01*
X-2731105Y1992975D02*
G01*
X-2728131Y2012387D01*
X-2728131Y2012387D02*
G01*
X-2727137Y2032000D01*
X-2727137Y2032000D02*
G01*
X-2728131Y2051612D01*
X-2728131Y2051612D02*
G01*
X-2731105Y2071024D01*
X-2731105Y2071024D02*
G01*
X-2736027Y2090035D01*
X-2736027Y2090035D02*
G01*
X-2742848Y2108450D01*
X-2742848Y2108450D02*
G01*
X-2751496Y2126082D01*
X-2751496Y2126082D02*
G01*
X-2761884Y2142747D01*
X-2761884Y2142747D02*
G01*
X-2773904Y2158277D01*
X-2773904Y2158277D02*
G01*
X-2787434Y2172510D01*
X-2787434Y2172510D02*
G01*
X-2802335Y2185302D01*
X-2802335Y2185302D02*
G01*
X-2818453Y2196520D01*
X-2818453Y2196520D02*
G01*
X-2835623Y2206050D01*
X-2835623Y2206050D02*
G01*
X-2853670Y2213795D01*
X-2853670Y2213795D02*
G01*
X-2872407Y2219674D01*
X-2872407Y2219674D02*
G01*
X-2891643Y2223627D01*
X-2891643Y2223627D02*
G01*
X-2911181Y2225614D01*
X-2911181Y2225614D02*
G01*
X-2930818Y2225614D01*
X-2930818Y2225614D02*
G01*
X-2950356Y2223627D01*
X-2950356Y2223627D02*
G01*
X-2969592Y2219674D01*
X-2969592Y2219674D02*
G01*
X-2988329Y2213795D01*
X-2988329Y2213795D02*
G01*
X-3006376Y2206050D01*
X-3006376Y2206050D02*
G01*
X-3023546Y2196520D01*
X-3023546Y2196520D02*
G01*
X-3039664Y2185302D01*
X-3039664Y2185302D02*
G01*
X-3054565Y2172510D01*
X-3054565Y2172510D02*
G01*
X-3068095Y2158277D01*
X-3068095Y2158277D02*
G01*
X-3080115Y2142747D01*
X-3080115Y2142747D02*
G01*
X-3090503Y2126082D01*
X-3090503Y2126082D02*
G01*
X-3099151Y2108450D01*
X-3099151Y2108450D02*
G01*
X-3105972Y2090035D01*
X-3105972Y2090035D02*
G01*
X-3110894Y2071024D01*
X-3110894Y2071024D02*
G01*
X-3113868Y2051612D01*
X-3113868Y2051612D02*
G01*
X-3114862Y2032000D01*
X-3114862Y2032000D02*
G01*
X-3113868Y2012387D01*
X-3113868Y2012387D02*
G01*
X-3110894Y1992975D01*
X-3110894Y1992975D02*
G01*
X-3105972Y1973964D01*
X-3105972Y1973964D02*
G01*
X-3099151Y1955549D01*
X-3099151Y1955549D02*
G01*
X-3090503Y1937917D01*
X-3090503Y1937917D02*
G01*
X-3080115Y1921252D01*
X-3080115Y1921252D02*
G01*
X-3068095Y1905722D01*
X-3068095Y-2158277D02*
G01*
X-3054565Y-2172510D01*
X-3054565Y-2172510D02*
G01*
X-3039664Y-2185302D01*
X-3039664Y-2185302D02*
G01*
X-3023546Y-2196520D01*
X-3023546Y-2196520D02*
G01*
X-3006376Y-2206050D01*
X-3006376Y-2206050D02*
G01*
X-2988329Y-2213795D01*
X-2988329Y-2213795D02*
G01*
X-2969592Y-2219674D01*
X-2969592Y-2219674D02*
G01*
X-2950356Y-2223627D01*
X-2950356Y-2223627D02*
G01*
X-2930818Y-2225614D01*
X-2930818Y-2225614D02*
G01*
X-2911181Y-2225614D01*
X-2911181Y-2225614D02*
G01*
X-2891643Y-2223627D01*
X-2891643Y-2223627D02*
G01*
X-2872407Y-2219674D01*
X-2872407Y-2219674D02*
G01*
X-2853670Y-2213795D01*
X-2853670Y-2213795D02*
G01*
X-2835623Y-2206050D01*
X-2835623Y-2206050D02*
G01*
X-2818453Y-2196520D01*
X-2818453Y-2196520D02*
G01*
X-2802335Y-2185302D01*
X-2802335Y-2185302D02*
G01*
X-2787434Y-2172510D01*
X-2787434Y-2172510D02*
G01*
X-2773904Y-2158277D01*
X-2773904Y-2158277D02*
G01*
X-2761884Y-2142747D01*
X-2761884Y-2142747D02*
G01*
X-2751496Y-2126082D01*
X-2751496Y-2126082D02*
G01*
X-2742848Y-2108450D01*
X-2742848Y-2108450D02*
G01*
X-2736027Y-2090035D01*
X-2736027Y-2090035D02*
G01*
X-2731105Y-2071024D01*
X-2731105Y-2071024D02*
G01*
X-2728131Y-2051612D01*
X-2728131Y-2051612D02*
G01*
X-2727137Y-2032000D01*
X-2727137Y-2032000D02*
G01*
X-2728131Y-2012387D01*
X-2728131Y-2012387D02*
G01*
X-2731105Y-1992975D01*
X-2731105Y-1992975D02*
G01*
X-2736027Y-1973964D01*
X-2736027Y-1973964D02*
G01*
X-2742848Y-1955549D01*
X-2742848Y-1955549D02*
G01*
X-2751496Y-1937917D01*
X-2751496Y-1937917D02*
G01*
X-2761884Y-1921252D01*
X-2761884Y-1921252D02*
G01*
X-2773904Y-1905722D01*
X-2773904Y-1905722D02*
G01*
X-2787434Y-1891489D01*
X-2787434Y-1891489D02*
G01*
X-2802335Y-1878697D01*
X-2802335Y-1878697D02*
G01*
X-2818453Y-1867479D01*
X-2818453Y-1867479D02*
G01*
X-2835623Y-1857949D01*
X-2835623Y-1857949D02*
G01*
X-2853670Y-1850204D01*
X-2853670Y-1850204D02*
G01*
X-2872407Y-1844325D01*
X-2872407Y-1844325D02*
G01*
X-2891643Y-1840372D01*
X-2891643Y-1840372D02*
G01*
X-2911181Y-1838385D01*
X-2911181Y-1838385D02*
G01*
X-2930818Y-1838385D01*
X-2930818Y-1838385D02*
G01*
X-2950356Y-1840372D01*
X-2950356Y-1840372D02*
G01*
X-2969592Y-1844325D01*
X-2969592Y-1844325D02*
G01*
X-2988329Y-1850204D01*
X-2988329Y-1850204D02*
G01*
X-3006376Y-1857949D01*
X-3006376Y-1857949D02*
G01*
X-3023546Y-1867479D01*
X-3023546Y-1867479D02*
G01*
X-3039664Y-1878697D01*
X-3039664Y-1878697D02*
G01*
X-3054565Y-1891489D01*
X-3054565Y-1891489D02*
G01*
X-3068095Y-1905722D01*
X-3068095Y-1905722D02*
G01*
X-3080115Y-1921252D01*
X-3080115Y-1921252D02*
G01*
X-3090503Y-1937917D01*
X-3090503Y-1937917D02*
G01*
X-3099151Y-1955549D01*
X-3099151Y-1955549D02*
G01*
X-3105972Y-1973964D01*
X-3105972Y-1973964D02*
G01*
X-3110894Y-1992975D01*
X-3110894Y-1992975D02*
G01*
X-3113868Y-2012387D01*
X-3113868Y-2012387D02*
G01*
X-3114862Y-2032000D01*
X-3114862Y-2032000D02*
G01*
X-3113868Y-2051612D01*
X-3113868Y-2051612D02*
G01*
X-3110894Y-2071024D01*
X-3110894Y-2071024D02*
G01*
X-3105972Y-2090035D01*
X-3105972Y-2090035D02*
G01*
X-3099151Y-2108450D01*
X-3099151Y-2108450D02*
G01*
X-3090503Y-2126082D01*
X-3090503Y-2126082D02*
G01*
X-3080115Y-2142747D01*
X-3080115Y-2142747D02*
G01*
X-3068095Y-2158277D01*
X2773904Y-2158277D02*
G01*
X2787434Y-2172510D01*
X2787434Y-2172510D02*
G01*
X2802335Y-2185302D01*
X2802335Y-2185302D02*
G01*
X2818453Y-2196520D01*
X2818453Y-2196520D02*
G01*
X2835623Y-2206050D01*
X2835623Y-2206050D02*
G01*
X2853670Y-2213795D01*
X2853670Y-2213795D02*
G01*
X2872407Y-2219674D01*
X2872407Y-2219674D02*
G01*
X2891643Y-2223627D01*
X2891643Y-2223627D02*
G01*
X2911181Y-2225614D01*
X2911181Y-2225614D02*
G01*
X2930818Y-2225614D01*
X2930818Y-2225614D02*
G01*
X2950356Y-2223627D01*
X2950356Y-2223627D02*
G01*
X2969592Y-2219674D01*
X2969592Y-2219674D02*
G01*
X2988329Y-2213795D01*
X2988329Y-2213795D02*
G01*
X3006376Y-2206050D01*
X3006376Y-2206050D02*
G01*
X3023546Y-2196520D01*
X3023546Y-2196520D02*
G01*
X3039664Y-2185302D01*
X3039664Y-2185302D02*
G01*
X3054565Y-2172510D01*
X3054565Y-2172510D02*
G01*
X3068095Y-2158277D01*
X3068095Y-2158277D02*
G01*
X3080115Y-2142747D01*
X3080115Y-2142747D02*
G01*
X3090503Y-2126082D01*
X3090503Y-2126082D02*
G01*
X3099151Y-2108450D01*
X3099151Y-2108450D02*
G01*
X3105972Y-2090035D01*
X3105972Y-2090035D02*
G01*
X3110894Y-2071024D01*
X3110894Y-2071024D02*
G01*
X3113868Y-2051612D01*
X3113868Y-2051612D02*
G01*
X3114862Y-2032000D01*
X3114862Y-2032000D02*
G01*
X3113868Y-2012387D01*
X3113868Y-2012387D02*
G01*
X3110894Y-1992975D01*
X3110894Y-1992975D02*
G01*
X3105972Y-1973964D01*
X3105972Y-1973964D02*
G01*
X3099151Y-1955549D01*
X3099151Y-1955549D02*
G01*
X3090503Y-1937917D01*
X3090503Y-1937917D02*
G01*
X3080115Y-1921252D01*
X3080115Y-1921252D02*
G01*
X3068095Y-1905722D01*
X3068095Y-1905722D02*
G01*
X3054565Y-1891489D01*
X3054565Y-1891489D02*
G01*
X3039664Y-1878697D01*
X3039664Y-1878697D02*
G01*
X3023546Y-1867479D01*
X3023546Y-1867479D02*
G01*
X3006376Y-1857949D01*
X3006376Y-1857949D02*
G01*
X2988329Y-1850204D01*
X2988329Y-1850204D02*
G01*
X2969592Y-1844325D01*
X2969592Y-1844325D02*
G01*
X2950356Y-1840372D01*
X2950356Y-1840372D02*
G01*
X2930818Y-1838385D01*
X2930818Y-1838385D02*
G01*
X2911181Y-1838385D01*
X2911181Y-1838385D02*
G01*
X2891643Y-1840372D01*
X2891643Y-1840372D02*
G01*
X2872407Y-1844325D01*
X2872407Y-1844325D02*
G01*
X2853670Y-1850204D01*
X2853670Y-1850204D02*
G01*
X2835623Y-1857949D01*
X2835623Y-1857949D02*
G01*
X2818453Y-1867479D01*
X2818453Y-1867479D02*
G01*
X2802335Y-1878697D01*
X2802335Y-1878697D02*
G01*
X2787434Y-1891489D01*
X2787434Y-1891489D02*
G01*
X2773904Y-1905722D01*
X2773904Y-1905722D02*
G01*
X2761884Y-1921252D01*
X2761884Y-1921252D02*
G01*
X2751496Y-1937917D01*
X2751496Y-1937917D02*
G01*
X2742848Y-1955549D01*
X2742848Y-1955549D02*
G01*
X2736027Y-1973964D01*
X2736027Y-1973964D02*
G01*
X2731105Y-1992975D01*
X2731105Y-1992975D02*
G01*
X2728131Y-2012387D01*
X2728131Y-2012387D02*
G01*
X2727137Y-2032000D01*
X2727137Y-2032000D02*
G01*
X2728131Y-2051612D01*
X2728131Y-2051612D02*
G01*
X2731105Y-2071024D01*
X2731105Y-2071024D02*
G01*
X2736027Y-2090035D01*
X2736027Y-2090035D02*
G01*
X2742848Y-2108450D01*
X2742848Y-2108450D02*
G01*
X2751496Y-2126082D01*
X2751496Y-2126082D02*
G01*
X2761884Y-2142747D01*
X2761884Y-2142747D02*
G01*
X2773904Y-2158277D01*
X-2096896Y1591613D02*
G01*
X-2085557Y1580965D01*
X-2085557Y1580965D02*
G01*
X-2072973Y1571822D01*
X-2072973Y1571822D02*
G01*
X-2059342Y1564329D01*
X-2059342Y1564329D02*
G01*
X-2044880Y1558602D01*
X-2044880Y1558602D02*
G01*
X-2029814Y1554734D01*
X-2029814Y1554734D02*
G01*
X-2014382Y1552785D01*
X-2014382Y1552785D02*
G01*
X-1998827Y1552785D01*
X-1998827Y1552785D02*
G01*
X-1983395Y1554734D01*
X-1983395Y1554734D02*
G01*
X-1968329Y1558602D01*
X-1968329Y1558602D02*
G01*
X-1953867Y1564329D01*
X-1953867Y1564329D02*
G01*
X-1940236Y1571822D01*
X-1940236Y1571822D02*
G01*
X-1927652Y1580965D01*
X-1927652Y1580965D02*
G01*
X-1916313Y1591613D01*
X-1916313Y1591613D02*
G01*
X-1906398Y1603598D01*
X-1906398Y1603598D02*
G01*
X-1898064Y1616731D01*
X-1898064Y1616731D02*
G01*
X-1891441Y1630805D01*
X-1891441Y1630805D02*
G01*
X-1886634Y1645599D01*
X-1886634Y1645599D02*
G01*
X-1883719Y1660878D01*
X-1883719Y1660878D02*
G01*
X-1882743Y1676402D01*
X-1882743Y1676402D02*
G01*
X-1883719Y1691926D01*
X-1883719Y1691926D02*
G01*
X-1886634Y1707205D01*
X-1886634Y1707205D02*
G01*
X-1891441Y1721999D01*
X-1891441Y1721999D02*
G01*
X-1898064Y1736073D01*
X-1898064Y1736073D02*
G01*
X-1906398Y1749206D01*
X-1906398Y1749206D02*
G01*
X-1916313Y1761191D01*
X-1916313Y1761191D02*
G01*
X-1927652Y1771839D01*
X-1927652Y1771839D02*
G01*
X-1940236Y1780982D01*
X-1940236Y1780982D02*
G01*
X-1953867Y1788475D01*
X-1953867Y1788475D02*
G01*
X-1968329Y1794202D01*
X-1968329Y1794202D02*
G01*
X-1983395Y1798070D01*
X-1983395Y1798070D02*
G01*
X-1998827Y1800020D01*
X-1998827Y1800020D02*
G01*
X-2014382Y1800020D01*
X-2014382Y1800020D02*
G01*
X-2029814Y1798070D01*
X-2029814Y1798070D02*
G01*
X-2044880Y1794202D01*
X-2044880Y1794202D02*
G01*
X-2059342Y1788475D01*
X-2059342Y1788475D02*
G01*
X-2072973Y1780982D01*
X-2072973Y1780982D02*
G01*
X-2085557Y1771839D01*
X-2085557Y1771839D02*
G01*
X-2096896Y1761191D01*
X-2096896Y1761191D02*
G01*
X-2106811Y1749206D01*
X-2106811Y1749206D02*
G01*
X-2115146Y1736073D01*
X-2115146Y1736073D02*
G01*
X-2121768Y1721999D01*
X-2121768Y1721999D02*
G01*
X-2126575Y1707205D01*
X-2126575Y1707205D02*
G01*
X-2129490Y1691926D01*
X-2129490Y1691926D02*
G01*
X-2130466Y1676402D01*
X-2130466Y1676402D02*
G01*
X-2129490Y1660878D01*
X-2129490Y1660878D02*
G01*
X-2126575Y1645599D01*
X-2126575Y1645599D02*
G01*
X-2121768Y1630805D01*
X-2121768Y1630805D02*
G01*
X-2115146Y1616731D01*
X-2115146Y1616731D02*
G01*
X-2106811Y1603598D01*
X-2106811Y1603598D02*
G01*
X-2096896Y1591613D01*
X-2350896Y1591613D02*
G01*
X-2339557Y1580965D01*
X-2339557Y1580965D02*
G01*
X-2326973Y1571822D01*
X-2326973Y1571822D02*
G01*
X-2313342Y1564329D01*
X-2313342Y1564329D02*
G01*
X-2298880Y1558602D01*
X-2298880Y1558602D02*
G01*
X-2283814Y1554734D01*
X-2283814Y1554734D02*
G01*
X-2268382Y1552785D01*
X-2268382Y1552785D02*
G01*
X-2252827Y1552785D01*
X-2252827Y1552785D02*
G01*
X-2237395Y1554734D01*
X-2237395Y1554734D02*
G01*
X-2222329Y1558602D01*
X-2222329Y1558602D02*
G01*
X-2207867Y1564329D01*
X-2207867Y1564329D02*
G01*
X-2194236Y1571822D01*
X-2194236Y1571822D02*
G01*
X-2181652Y1580965D01*
X-2181652Y1580965D02*
G01*
X-2170313Y1591613D01*
X-2170313Y1591613D02*
G01*
X-2160398Y1603598D01*
X-2160398Y1603598D02*
G01*
X-2152064Y1616731D01*
X-2152064Y1616731D02*
G01*
X-2145441Y1630805D01*
X-2145441Y1630805D02*
G01*
X-2140634Y1645599D01*
X-2140634Y1645599D02*
G01*
X-2137719Y1660878D01*
X-2137719Y1660878D02*
G01*
X-2136743Y1676402D01*
X-2136743Y1676402D02*
G01*
X-2137719Y1691926D01*
X-2137719Y1691926D02*
G01*
X-2140634Y1707205D01*
X-2140634Y1707205D02*
G01*
X-2145441Y1721999D01*
X-2145441Y1721999D02*
G01*
X-2152064Y1736073D01*
X-2152064Y1736073D02*
G01*
X-2160398Y1749206D01*
X-2160398Y1749206D02*
G01*
X-2170313Y1761191D01*
X-2170313Y1761191D02*
G01*
X-2181652Y1771839D01*
X-2181652Y1771839D02*
G01*
X-2194236Y1780982D01*
X-2194236Y1780982D02*
G01*
X-2207867Y1788475D01*
X-2207867Y1788475D02*
G01*
X-2222329Y1794202D01*
X-2222329Y1794202D02*
G01*
X-2237395Y1798070D01*
X-2237395Y1798070D02*
G01*
X-2252827Y1800020D01*
X-2252827Y1800020D02*
G01*
X-2268382Y1800020D01*
X-2268382Y1800020D02*
G01*
X-2283814Y1798070D01*
X-2283814Y1798070D02*
G01*
X-2298880Y1794202D01*
X-2298880Y1794202D02*
G01*
X-2313342Y1788475D01*
X-2313342Y1788475D02*
G01*
X-2326973Y1780982D01*
X-2326973Y1780982D02*
G01*
X-2339557Y1771839D01*
X-2339557Y1771839D02*
G01*
X-2350896Y1761191D01*
X-2350896Y1761191D02*
G01*
X-2360811Y1749206D01*
X-2360811Y1749206D02*
G01*
X-2369146Y1736073D01*
X-2369146Y1736073D02*
G01*
X-2375768Y1721999D01*
X-2375768Y1721999D02*
G01*
X-2380575Y1707205D01*
X-2380575Y1707205D02*
G01*
X-2383490Y1691926D01*
X-2383490Y1691926D02*
G01*
X-2384466Y1676402D01*
X-2384466Y1676402D02*
G01*
X-2383490Y1660878D01*
X-2383490Y1660878D02*
G01*
X-2380575Y1645599D01*
X-2380575Y1645599D02*
G01*
X-2375768Y1630805D01*
X-2375768Y1630805D02*
G01*
X-2369146Y1616731D01*
X-2369146Y1616731D02*
G01*
X-2360811Y1603598D01*
X-2360811Y1603598D02*
G01*
X-2350896Y1591613D01*
X-3205840Y-2226883D02*
G01*
X-3126881Y-2305842D01*
X-3256022Y-2104859D02*
G01*
X-3004858Y-2356024D01*
X-3261131Y-2027909D02*
G01*
X-2927907Y-2361133D01*
X-3261131Y-1956067D02*
G01*
X-3089488Y-2127709D01*
X-3017099Y-2200098D02*
G01*
X-2856065Y-2361133D01*
X-3261131Y-1884225D02*
G01*
X-3114790Y-2030566D01*
X-2919742Y-2225614D02*
G01*
X-2784223Y-2361133D01*
X-3261131Y-1812383D02*
G01*
X-3104236Y-1969278D01*
X-2858274Y-2215239D02*
G01*
X-2712381Y-2361133D01*
X-3261131Y-1740541D02*
G01*
X-3080232Y-1921439D01*
X-2810610Y-2191061D02*
G01*
X-2640539Y-2361133D01*
X-3261131Y-1668698D02*
G01*
X-3045835Y-1883995D01*
X-2772878Y-2156951D02*
G01*
X-2568697Y-2361133D01*
X-3261131Y-1596856D02*
G01*
X-3001942Y-1856046D01*
X-2745049Y-2112938D02*
G01*
X-2496855Y-2361133D01*
X-3261131Y-1525014D02*
G01*
X-2946196Y-1839949D01*
X-2728982Y-2057164D02*
G01*
X-2425013Y-2361133D01*
X-3261131Y-1453172D02*
G01*
X-2868868Y-1845436D01*
X-2734521Y-1979782D02*
G01*
X-2353171Y-2361133D01*
X-3261131Y-1381330D02*
G01*
X-2281328Y-2361133D01*
X-3261131Y-1309488D02*
G01*
X-2209487Y-2361133D01*
X-3261131Y-1237646D02*
G01*
X-2137644Y-2361133D01*
X-3261131Y-1165804D02*
G01*
X-2383769Y-2043166D01*
X-2271748Y-2155187D02*
G01*
X-2065802Y-2361133D01*
X-3261131Y-1093962D02*
G01*
X-2373509Y-1981585D01*
X-2210131Y-2144962D02*
G01*
X-1993960Y-2361133D01*
X-3261131Y-1022120D02*
G01*
X-2343240Y-1940011D01*
X-2168575Y-2114676D02*
G01*
X-1922118Y-2361133D01*
X-3261131Y-950278D02*
G01*
X-2944461Y-1266947D01*
X-2752847Y-1458561D02*
G01*
X-2297555Y-1913853D01*
X-2127850Y-2083559D02*
G01*
X-2107173Y-2104236D01*
X-2079767Y-2131642D02*
G01*
X-1850276Y-2361133D01*
X-3261131Y-878436D02*
G01*
X-2944461Y-1195105D01*
X-2681005Y-1458561D02*
G01*
X-2226422Y-1913145D01*
X-1985624Y-2153943D02*
G01*
X-1778434Y-2361133D01*
X-3261131Y-806594D02*
G01*
X-2944461Y-1123263D01*
X-2609163Y-1458561D02*
G01*
X-2107483Y-1960242D01*
X-1934976Y-2132749D02*
G01*
X-1706592Y-2361133D01*
X-3261131Y-734752D02*
G01*
X-2944461Y-1051421D01*
X-2537321Y-1458561D02*
G01*
X-2070068Y-1925815D01*
X-1900456Y-2095427D02*
G01*
X-1634750Y-2361133D01*
X-3261131Y-662910D02*
G01*
X-2944461Y-979579D01*
X-2465479Y-1458561D02*
G01*
X-2015520Y-1908520D01*
X-1840479Y-2083562D02*
G01*
X-1562908Y-2361133D01*
X-3261131Y-591068D02*
G01*
X-2944461Y-907737D01*
X-2393637Y-1458561D02*
G01*
X-1871761Y-1980437D01*
X-1768637Y-2083561D02*
G01*
X-1491066Y-2361133D01*
X-3261131Y-519226D02*
G01*
X-2944461Y-835895D01*
X-2321795Y-1458561D02*
G01*
X-1799919Y-1980437D01*
X-1696795Y-2083561D02*
G01*
X-1419224Y-2361133D01*
X-3261131Y-447384D02*
G01*
X-2944461Y-764053D01*
X-2249953Y-1458561D02*
G01*
X-1728077Y-1980437D01*
X-1624953Y-2083561D02*
G01*
X-1347382Y-2361133D01*
X-3261131Y-375542D02*
G01*
X-2944461Y-692211D01*
X-2178111Y-1458561D02*
G01*
X-1656235Y-1980437D01*
X-1553111Y-2083561D02*
G01*
X-1275540Y-2361133D01*
X-3261131Y-303700D02*
G01*
X-2944461Y-620369D01*
X-2106269Y-1458561D02*
G01*
X-1584393Y-1980437D01*
X-1481269Y-2083561D02*
G01*
X-1203698Y-2361133D01*
X-3261131Y-231858D02*
G01*
X-2944461Y-548527D01*
X-2034427Y-1458561D02*
G01*
X-1512551Y-1980437D01*
X-1409427Y-2083561D02*
G01*
X-1131856Y-2361133D01*
X-3261131Y-160015D02*
G01*
X-2944461Y-476685D01*
X-1962585Y-1458561D02*
G01*
X-1440709Y-1980437D01*
X-1337585Y-2083561D02*
G01*
X-1060014Y-2361133D01*
X-3261131Y-88174D02*
G01*
X-2923069Y-426236D01*
X-1890743Y-1458561D02*
G01*
X-1368867Y-1980437D01*
X-1265743Y-2083561D02*
G01*
X-988172Y-2361133D01*
X-3261131Y-16331D02*
G01*
X-2887148Y-390314D01*
X-1818901Y-1458561D02*
G01*
X-1297025Y-1980437D01*
X-1193901Y-2083561D02*
G01*
X-916330Y-2361133D01*
X-3261131Y55510D02*
G01*
X-2851227Y-354394D01*
X-1766253Y-1439367D02*
G01*
X-1225183Y-1980437D01*
X-1122059Y-2083561D02*
G01*
X-844488Y-2361133D01*
X-3261131Y127352D02*
G01*
X-2815306Y-318473D01*
X-1730338Y-1403440D02*
G01*
X-1153341Y-1980437D01*
X-1050217Y-2083561D02*
G01*
X-772645Y-2361133D01*
X-3261131Y199194D02*
G01*
X-2779385Y-282551D01*
X-1694423Y-1367513D02*
G01*
X-1081499Y-1980437D01*
X-978375Y-2083561D02*
G01*
X-700804Y-2361133D01*
X-3261131Y271036D02*
G01*
X-2743464Y-246630D01*
X-1658509Y-1331586D02*
G01*
X-1009657Y-1980437D01*
X-906533Y-2083561D02*
G01*
X-628961Y-2361133D01*
X-3261131Y342878D02*
G01*
X-2780124Y-138128D01*
X-1622593Y-1295659D02*
G01*
X-937815Y-1980437D01*
X-834691Y-2083561D02*
G01*
X-557119Y-2361133D01*
X-3261131Y414720D02*
G01*
X-2769147Y-77263D01*
X-1586679Y-1259732D02*
G01*
X-865973Y-1980437D01*
X-762849Y-2083561D02*
G01*
X-485277Y-2361133D01*
X-3261131Y486562D02*
G01*
X-2737156Y-37412D01*
X-1550763Y-1223805D02*
G01*
X-794131Y-1980437D01*
X-691007Y-2083561D02*
G01*
X-413435Y-2361133D01*
X-3261131Y558404D02*
G01*
X-2687492Y-15233D01*
X-1514848Y-1187877D02*
G01*
X-722289Y-1980437D01*
X-619165Y-2083561D02*
G01*
X-341593Y-2361133D01*
X-3261131Y630246D02*
G01*
X-2778696Y147811D01*
X-2646180Y15295D02*
G01*
X-2618087Y-12796D01*
X-1478934Y-1151950D02*
G01*
X-650447Y-1980437D01*
X-547323Y-2083561D02*
G01*
X-269751Y-2361133D01*
X-3261131Y702088D02*
G01*
X-2756405Y197363D01*
X-1443018Y-1116023D02*
G01*
X-578605Y-1980437D01*
X-475481Y-2083560D02*
G01*
X-197909Y-2361133D01*
X-3261131Y773930D02*
G01*
X-2982810Y495610D01*
X-1407104Y-1080096D02*
G01*
X-506763Y-1980437D01*
X-403639Y-2083560D02*
G01*
X-126067Y-2361133D01*
X-3261131Y845772D02*
G01*
X-2982810Y567452D01*
X-1371189Y-1044169D02*
G01*
X-434921Y-1980436D01*
X-331797Y-2083560D02*
G01*
X-54225Y-2361133D01*
X-3261131Y917614D02*
G01*
X-2982810Y639294D01*
X-1335274Y-1008242D02*
G01*
X-363079Y-1980436D01*
X-259955Y-2083560D02*
G01*
X17616Y-2361133D01*
X-3261131Y989456D02*
G01*
X-2982810Y711136D01*
X-1299359Y-972315D02*
G01*
X-291237Y-1980436D01*
X-188113Y-2083560D02*
G01*
X89458Y-2361133D01*
X-3261131Y1061298D02*
G01*
X-2982810Y782978D01*
X-1263444Y-936388D02*
G01*
X-219395Y-1980436D01*
X-116271Y-2083560D02*
G01*
X161300Y-2361133D01*
X-3261131Y1133140D02*
G01*
X-2982810Y854820D01*
X-1227529Y-900461D02*
G01*
X-147553Y-1980436D01*
X-44429Y-2083560D02*
G01*
X233142Y-2361133D01*
X-3261131Y1204982D02*
G01*
X-2982810Y926662D01*
X-1191614Y-864534D02*
G01*
X-75711Y-1980436D01*
X27412Y-2083560D02*
G01*
X304984Y-2361133D01*
X-3261131Y1276824D02*
G01*
X-2982810Y998504D01*
X-1155699Y-828607D02*
G01*
X-3869Y-1980436D01*
X99254Y-2083560D02*
G01*
X376826Y-2361133D01*
X-3261131Y1348667D02*
G01*
X-2982810Y1070346D01*
X-1119784Y-792680D02*
G01*
X67972Y-1980436D01*
X171096Y-2083560D02*
G01*
X448668Y-2361133D01*
X-3261131Y1420508D02*
G01*
X-2982810Y1142188D01*
X-1083869Y-756752D02*
G01*
X139814Y-1980436D01*
X242938Y-2083560D02*
G01*
X520510Y-2361133D01*
X-3261131Y1492351D02*
G01*
X-2982810Y1214030D01*
X-1047954Y-720825D02*
G01*
X211656Y-1980436D01*
X314780Y-2083560D02*
G01*
X592352Y-2361133D01*
X-3261131Y1564193D02*
G01*
X-2962614Y1265676D01*
X-1012578Y-684360D02*
G01*
X283498Y-1980436D01*
X386622Y-2083560D02*
G01*
X664195Y-2361133D01*
X-3261131Y1636035D02*
G01*
X-2926693Y1301597D01*
X-1003206Y-621890D02*
G01*
X355340Y-1980436D01*
X458464Y-2083560D02*
G01*
X736037Y-2361133D01*
X-3261131Y1707877D02*
G01*
X-2890772Y1337518D01*
X-1003206Y-550048D02*
G01*
X427182Y-1980436D01*
X530306Y-2083560D02*
G01*
X807879Y-2361133D01*
X-3261131Y1779719D02*
G01*
X-2854851Y1373439D01*
X-1003206Y-478206D02*
G01*
X499024Y-1980436D01*
X602148Y-2083560D02*
G01*
X879721Y-2361133D01*
X-3261131Y1851561D02*
G01*
X-2818930Y1409360D01*
X-1003206Y-406363D02*
G01*
X570866Y-1980436D01*
X673990Y-2083560D02*
G01*
X951563Y-2361133D01*
X-3261131Y1923403D02*
G01*
X-2776932Y1439205D01*
X-1003206Y-334522D02*
G01*
X642708Y-1980436D01*
X745832Y-2083560D02*
G01*
X1023405Y-2361133D01*
X-3261131Y1995245D02*
G01*
X-2705974Y1440088D01*
X-1197886Y-67999D02*
G01*
X714550Y-1980436D01*
X817674Y-2083560D02*
G01*
X1095247Y-2361133D01*
X-3260489Y2066445D02*
G01*
X-2634132Y1440088D01*
X-1210990Y16946D02*
G01*
X786392Y-1980436D01*
X889516Y-2083560D02*
G01*
X1167089Y-2361133D01*
X-3250794Y2128592D02*
G01*
X-3109398Y1987196D01*
X-2965734Y1843533D02*
G01*
X-2562290Y1440088D01*
X-1198870Y76668D02*
G01*
X858234Y-1980436D01*
X961358Y-2083560D02*
G01*
X1238931Y-2361133D01*
X-3231828Y2181468D02*
G01*
X-3112288Y2061928D01*
X-2890887Y1840527D02*
G01*
X-2490448Y1440088D01*
X-1165615Y115255D02*
G01*
X930076Y-1980436D01*
X1033200Y-2083560D02*
G01*
X1310773Y-2361133D01*
X-3205654Y2227136D02*
G01*
X-3095142Y2116624D01*
X-2836213Y1857695D02*
G01*
X-2418606Y1440088D01*
X-1129694Y151176D02*
G01*
X1001918Y-1980436D01*
X1105042Y-2083560D02*
G01*
X1382615Y-2361133D01*
X-3173167Y2266492D02*
G01*
X-3066563Y2159887D01*
X-2793208Y1886532D02*
G01*
X-2346764Y1440088D01*
X-1093774Y187098D02*
G01*
X1073760Y-1980436D01*
X1176884Y-2083560D02*
G01*
X1454457Y-2361133D01*
X-3134818Y2299985D02*
G01*
X-3028150Y2193316D01*
X-2759657Y1924824D02*
G01*
X-2274922Y1440088D01*
X-1057853Y223019D02*
G01*
X1145602Y-1980436D01*
X1248726Y-2083559D02*
G01*
X1526299Y-2361133D01*
X-3090415Y2327424D02*
G01*
X-2979543Y2216552D01*
X-2736278Y1973287D02*
G01*
X-2203080Y1440088D01*
X-1021932Y258940D02*
G01*
X1217444Y-1980436D01*
X1320568Y-2083559D02*
G01*
X1598141Y-2361133D01*
X-3039123Y2347974D02*
G01*
X-2916763Y2225614D01*
X-2727350Y2036200D02*
G01*
X-2383423Y1692274D01*
X-2244932Y1553782D02*
G01*
X-2131238Y1440088D01*
X-1004089Y312940D02*
G01*
X1289286Y-1980435D01*
X1392410Y-2083559D02*
G01*
X1669983Y-2361133D01*
X-2978906Y2359598D02*
G01*
X-2809817Y2190509D01*
X-2761601Y2142294D02*
G01*
X-2363801Y1744494D01*
X-2192437Y1573129D02*
G01*
X-2059395Y1440088D01*
X-1004089Y384782D02*
G01*
X1361128Y-1980435D01*
X1464252Y-2083559D02*
G01*
X1741825Y-2361133D01*
X-2908598Y2361133D02*
G01*
X-2327827Y1780362D01*
X-2156774Y1609309D02*
G01*
X-1987554Y1440088D01*
X-1004089Y456624D02*
G01*
X1432970Y-1980435D01*
X1536094Y-2083559D02*
G01*
X1813667Y-2361133D01*
X-2836756Y2361133D02*
G01*
X-2274829Y1799205D01*
X-2137647Y1662024D02*
G01*
X-2127837Y1652213D01*
X-2030545Y1554922D02*
G01*
X-1915711Y1440088D01*
X-1004089Y528466D02*
G01*
X1504812Y-1980435D01*
X1607936Y-2083559D02*
G01*
X1885509Y-2361133D01*
X-2764914Y2361133D02*
G01*
X-2122752Y1718971D01*
X-1964070Y1560289D02*
G01*
X-1843869Y1440088D01*
X-1004089Y600308D02*
G01*
X1576654Y-1980435D01*
X1679778Y-2083559D02*
G01*
X1957351Y-2361133D01*
X-2693072Y2361133D02*
G01*
X-2094954Y1763015D01*
X-1920046Y1588107D02*
G01*
X-1772027Y1440088D01*
X-1004089Y672150D02*
G01*
X1648496Y-1980435D01*
X1751620Y-2083559D02*
G01*
X2029193Y-2361133D01*
X-2621230Y2361133D02*
G01*
X-2051627Y1791530D01*
X-1891309Y1631212D02*
G01*
X1720338Y-1980435D01*
X1823462Y-2083559D02*
G01*
X2101035Y-2361133D01*
X-2549388Y2361133D02*
G01*
X-1986749Y1798493D01*
X-1884554Y1696298D02*
G01*
X1792180Y-1980435D01*
X1895304Y-2083559D02*
G01*
X2172878Y-2361133D01*
X-2477546Y2361133D02*
G01*
X-2382693Y2266280D01*
X-2280306Y2163893D02*
G01*
X1864022Y-1980435D01*
X2037693Y-2154106D02*
G01*
X2244720Y-2361133D01*
X-2405704Y2361133D02*
G01*
X-2375871Y2331300D01*
X-2215487Y2170916D02*
G01*
X1935864Y-1980435D01*
X2102512Y-2147083D02*
G01*
X2316562Y-2361133D01*
X-2172188Y2199459D02*
G01*
X1970903Y-1943632D01*
X2145811Y-2118540D02*
G01*
X2388404Y-2361133D01*
X-2135327Y2234440D02*
G01*
X2014955Y-1915841D01*
X2182672Y-2083559D02*
G01*
X2460246Y-2361133D01*
X-1992262Y2163217D02*
G01*
X2081518Y-1910562D01*
X2325737Y-2154782D02*
G01*
X2532088Y-2361133D01*
X-1939307Y2182104D02*
G01*
X2207613Y-1964816D01*
X2378692Y-2135895D02*
G01*
X2603930Y-2361133D01*
X-1903359Y2217998D02*
G01*
X2243302Y-1928663D01*
X2414640Y-2100001D02*
G01*
X2675772Y-2361133D01*
X-1847959Y2234440D02*
G01*
X1006970Y-620488D01*
X1817946Y-1431465D02*
G01*
X2295840Y-1909359D01*
X2434230Y-2047749D02*
G01*
X2747614Y-2361133D01*
X-1776117Y2234440D02*
G01*
X1006970Y-548647D01*
X1889788Y-1431465D02*
G01*
X2819456Y-2361133D01*
X-1704275Y2234440D02*
G01*
X1006970Y-476804D01*
X1961630Y-1431465D02*
G01*
X2891298Y-2361133D01*
X-1632433Y2234440D02*
G01*
X1006970Y-404962D01*
X2033472Y-1431465D02*
G01*
X2962641Y-2360633D01*
X-1560591Y2234440D02*
G01*
X1006970Y-333120D01*
X2105314Y-1431465D02*
G01*
X2728614Y-2054765D01*
X2898137Y-2224287D02*
G01*
X3025479Y-2351630D01*
X-1488749Y2234440D02*
G01*
X1014343Y-268652D01*
X2177156Y-1431465D02*
G01*
X2732660Y-1986969D01*
X2966086Y-2220394D02*
G01*
X3078720Y-2333028D01*
X-1416906Y2234440D02*
G01*
X1049226Y-231692D01*
X2248998Y-1431465D02*
G01*
X2753015Y-1935481D01*
X3017442Y-2199908D02*
G01*
X3124839Y-2307305D01*
X-1345064Y2234440D02*
G01*
X1085147Y-195771D01*
X2320840Y-1431465D02*
G01*
X2784233Y-1894857D01*
X3058132Y-2168757D02*
G01*
X3164517Y-2275142D01*
X-1273223Y2234440D02*
G01*
X1121068Y-159850D01*
X2392682Y-1431465D02*
G01*
X2825040Y-1863823D01*
X3089273Y-2128055D02*
G01*
X3198308Y-2237090D01*
X-1201380Y2234440D02*
G01*
X1156989Y-123929D01*
X2464524Y-1431465D02*
G01*
X2876536Y-1843477D01*
X3109493Y-2076434D02*
G01*
X3226058Y-2192998D01*
X-1129538Y2234440D02*
G01*
X1192910Y-88008D01*
X2536367Y-1431465D02*
G01*
X2944698Y-1839797D01*
X3113249Y-2008347D02*
G01*
X3247106Y-2142204D01*
X-1057696Y2234440D02*
G01*
X1205066Y-28322D01*
X2608208Y-1431465D02*
G01*
X3259197Y-2082453D01*
X-985854Y2234440D02*
G01*
X1198979Y49606D01*
X2680051Y-1431465D02*
G01*
X3261131Y-2012545D01*
X-914012Y2234440D02*
G01*
X1005065Y315362D01*
X2751893Y-1431465D02*
G01*
X3261131Y-1940703D01*
X-842170Y2234440D02*
G01*
X1005065Y387204D01*
X2813490Y-1421220D02*
G01*
X3261131Y-1868861D01*
X-770328Y2234440D02*
G01*
X1005065Y459046D01*
X2849856Y-1385744D02*
G01*
X3261131Y-1797019D01*
X-698486Y2234440D02*
G01*
X1005065Y530888D01*
X2885777Y-1349823D02*
G01*
X3261131Y-1725177D01*
X-626644Y2234440D02*
G01*
X1005065Y602730D01*
X2921698Y-1313902D02*
G01*
X3261131Y-1653335D01*
X-554802Y2234440D02*
G01*
X1005065Y674572D01*
X2948054Y-1268416D02*
G01*
X3261131Y-1581493D01*
X-482960Y2234440D02*
G01*
X1026843Y724637D01*
X2948175Y-1196695D02*
G01*
X3261131Y-1509651D01*
X-411118Y2234440D02*
G01*
X1062764Y760558D01*
X2948175Y-1124853D02*
G01*
X3261131Y-1437809D01*
X-339276Y2234440D02*
G01*
X1098685Y796478D01*
X2948175Y-1053011D02*
G01*
X3261131Y-1365967D01*
X-267434Y2234440D02*
G01*
X1134606Y832400D01*
X2948175Y-981169D02*
G01*
X3261131Y-1294125D01*
X-195592Y2234440D02*
G01*
X1170527Y868321D01*
X2948175Y-909327D02*
G01*
X3261131Y-1222283D01*
X-123750Y2234440D02*
G01*
X1206448Y904242D01*
X2948175Y-837484D02*
G01*
X3261131Y-1150440D01*
X-51908Y2234440D02*
G01*
X1242369Y940163D01*
X2948175Y-765643D02*
G01*
X3261131Y-1078599D01*
X19933Y2234440D02*
G01*
X1278290Y976084D01*
X2948175Y-693801D02*
G01*
X3261131Y-1006756D01*
X91776Y2234440D02*
G01*
X1314211Y1012005D01*
X2948175Y-621958D02*
G01*
X3261131Y-934914D01*
X163617Y2234440D02*
G01*
X1350132Y1047926D01*
X2948175Y-550117D02*
G01*
X3261131Y-863072D01*
X235460Y2234440D02*
G01*
X1386053Y1083847D01*
X2948175Y-478274D02*
G01*
X3261131Y-791230D01*
X307302Y2234440D02*
G01*
X1421974Y1119768D01*
X2748318Y-206576D02*
G01*
X3261131Y-719388D01*
X379144Y2234440D02*
G01*
X1457895Y1155689D01*
X2775216Y-161631D02*
G01*
X3261131Y-647546D01*
X450986Y2234440D02*
G01*
X1493816Y1191610D01*
X2773893Y-88466D02*
G01*
X3261131Y-575704D01*
X522828Y2234440D02*
G01*
X1529737Y1227531D01*
X2764495Y-7226D02*
G01*
X3261131Y-503862D01*
X594670Y2234440D02*
G01*
X1565658Y1263452D01*
X2800416Y28694D02*
G01*
X3261131Y-432020D01*
X666512Y2234440D02*
G01*
X1601579Y1299373D01*
X2836337Y64615D02*
G01*
X3261131Y-360178D01*
X738354Y2234440D02*
G01*
X1637500Y1335294D01*
X2872258Y100536D02*
G01*
X3261131Y-288336D01*
X810196Y2234440D02*
G01*
X1673421Y1371215D01*
X2908179Y136457D02*
G01*
X3261131Y-216494D01*
X882038Y2234440D02*
G01*
X1709342Y1407136D01*
X2944100Y172378D02*
G01*
X3261131Y-144652D01*
X953880Y2234440D02*
G01*
X1745263Y1443057D01*
X2977432Y210888D02*
G01*
X3261131Y-72810D01*
X1025722Y2234440D02*
G01*
X1792868Y1467294D01*
X2981246Y278916D02*
G01*
X3261131Y-968D01*
X1097564Y2234440D02*
G01*
X1864710Y1467294D01*
X2981246Y350759D02*
G01*
X3261131Y70873D01*
X1169406Y2234440D02*
G01*
X1936552Y1467294D01*
X2981246Y422600D02*
G01*
X3261131Y142715D01*
X1241248Y2234440D02*
G01*
X2008394Y1467294D01*
X2981246Y494443D02*
G01*
X3261131Y214557D01*
X1313090Y2234440D02*
G01*
X2080236Y1467294D01*
X2981246Y566285D02*
G01*
X3261131Y286399D01*
X1384932Y2234440D02*
G01*
X2152079Y1467294D01*
X2981246Y638127D02*
G01*
X3261131Y358242D01*
X1456774Y2234440D02*
G01*
X2223920Y1467294D01*
X2981246Y709969D02*
G01*
X3261131Y430083D01*
X1528616Y2234440D02*
G01*
X2295762Y1467294D01*
X2981246Y781811D02*
G01*
X3261131Y501926D01*
X1600459Y2234440D02*
G01*
X2367605Y1467294D01*
X2981246Y853653D02*
G01*
X3261131Y573768D01*
X1672300Y2234440D02*
G01*
X2439446Y1467294D01*
X2981246Y925495D02*
G01*
X3261131Y645610D01*
X1744143Y2234440D02*
G01*
X2511289Y1467294D01*
X2981246Y997337D02*
G01*
X3261131Y717452D01*
X1815985Y2234440D02*
G01*
X2583131Y1467294D01*
X2981246Y1069179D02*
G01*
X3261131Y789294D01*
X1887827Y2234440D02*
G01*
X2654973Y1467294D01*
X2981246Y1141021D02*
G01*
X3261131Y861136D01*
X2028249Y2165859D02*
G01*
X2726815Y1467294D01*
X2981246Y1212863D02*
G01*
X3261131Y932978D01*
X2097156Y2168795D02*
G01*
X3261131Y1004820D01*
X2141955Y2195838D02*
G01*
X3261131Y1076662D01*
X2175195Y2234440D02*
G01*
X3261131Y1148504D01*
X2319090Y2162387D02*
G01*
X3261131Y1220346D01*
X2373974Y2179345D02*
G01*
X3261131Y1292188D01*
X2411737Y2213424D02*
G01*
X3261131Y1364030D01*
X2433033Y2263971D02*
G01*
X2744189Y1952814D01*
X2841634Y1855369D02*
G01*
X3261131Y1435872D01*
X2414304Y2354541D02*
G01*
X2727605Y2041240D01*
X2930460Y1838385D02*
G01*
X3261131Y1507714D01*
X2479555Y2361133D02*
G01*
X2739980Y2100707D01*
X2989836Y1850851D02*
G01*
X3261131Y1579556D01*
X2551396Y2361133D02*
G01*
X2765330Y2147199D01*
X3036225Y1876304D02*
G01*
X3261131Y1651398D01*
X2623239Y2361133D02*
G01*
X2800578Y2183793D01*
X3072700Y1911672D02*
G01*
X3261131Y1723240D01*
X2695081Y2361133D02*
G01*
X2845797Y2210416D01*
X3099560Y1956653D02*
G01*
X3261131Y1795083D01*
X2766923Y2361133D02*
G01*
X2903248Y2224807D01*
X3113955Y2014101D02*
G01*
X3261131Y1866925D01*
X2838765Y2361133D02*
G01*
X2985085Y2214813D01*
X3103683Y2096214D02*
G01*
X3261131Y1938767D01*
X2910607Y2361133D02*
G01*
X3261131Y2010609D01*
X2984628Y2358954D02*
G01*
X3258952Y2084630D01*
X3085292Y2330131D02*
G01*
X3230130Y2185294D01*
X3126881Y-2305842D02*
G01*
X3205840Y-2226883D01*
X3004858Y-2356024D02*
G01*
X3256022Y-2104859D01*
X2927907Y-2361133D02*
G01*
X3261131Y-2027909D01*
X2856065Y-2361133D02*
G01*
X3017099Y-2200098D01*
X3089488Y-2127709D02*
G01*
X3261131Y-1956067D01*
X2784223Y-2361133D02*
G01*
X2919742Y-2225614D01*
X3114790Y-2030566D02*
G01*
X3261131Y-1884225D01*
X2712381Y-2361133D02*
G01*
X2858274Y-2215239D01*
X3104236Y-1969278D02*
G01*
X3261131Y-1812383D01*
X2640539Y-2361133D02*
G01*
X2810610Y-2191061D01*
X3080232Y-1921439D02*
G01*
X3261131Y-1740541D01*
X2568697Y-2361133D02*
G01*
X2772878Y-2156951D01*
X3045835Y-1883995D02*
G01*
X3261131Y-1668698D01*
X2496855Y-2361133D02*
G01*
X2745049Y-2112938D01*
X3001942Y-1856046D02*
G01*
X3261131Y-1596856D01*
X2425013Y-2361133D02*
G01*
X2728982Y-2057164D01*
X2946196Y-1839949D02*
G01*
X3261131Y-1525014D01*
X2353171Y-2361133D02*
G01*
X2734521Y-1979782D01*
X2868868Y-1845436D02*
G01*
X3261131Y-1453172D01*
X2281328Y-2361133D02*
G01*
X3261131Y-1381330D01*
X2209487Y-2361133D02*
G01*
X3261131Y-1309488D01*
X2137644Y-2361133D02*
G01*
X2348748Y-2150029D01*
X2429136Y-2069641D02*
G01*
X3261131Y-1237646D01*
X2065802Y-2361133D02*
G01*
X2276318Y-2150617D01*
X2429982Y-1996953D02*
G01*
X3261131Y-1165804D01*
X1993960Y-2361133D02*
G01*
X2229974Y-2125119D01*
X2404491Y-1950602D02*
G01*
X3261131Y-1093962D01*
X1922118Y-2361133D02*
G01*
X2199245Y-2084007D01*
X2363556Y-1919695D02*
G01*
X3261131Y-1022120D01*
X1850276Y-2361133D02*
G01*
X2055797Y-2155612D01*
X2302948Y-1908461D02*
G01*
X2779944Y-1431465D01*
X2948175Y-1263234D02*
G01*
X3261131Y-950278D01*
X1778434Y-2361133D02*
G01*
X1998746Y-2140821D01*
X2166351Y-1973217D02*
G01*
X2708102Y-1431465D01*
X2948175Y-1191392D02*
G01*
X3261131Y-878436D01*
X1706592Y-2361133D02*
G01*
X1959783Y-2107942D01*
X2133345Y-1934380D02*
G01*
X2636260Y-1431465D01*
X2948175Y-1119550D02*
G01*
X3261131Y-806594D01*
X1634750Y-2361133D02*
G01*
X1912324Y-2083559D01*
X2084543Y-1911339D02*
G01*
X2564418Y-1431465D01*
X2948175Y-1047708D02*
G01*
X3261131Y-734752D01*
X1562908Y-2361133D02*
G01*
X1840481Y-2083559D01*
X1943605Y-1980435D02*
G01*
X1946299Y-1977742D01*
X2003471Y-1920570D02*
G01*
X2492576Y-1431465D01*
X2948175Y-975866D02*
G01*
X3261131Y-662910D01*
X1491066Y-2361133D02*
G01*
X1768639Y-2083559D01*
X1871763Y-1980435D02*
G01*
X2420734Y-1431465D01*
X2948175Y-904024D02*
G01*
X3261131Y-591068D01*
X1419224Y-2361133D02*
G01*
X1696797Y-2083559D01*
X1799921Y-1980435D02*
G01*
X2348892Y-1431465D01*
X2948175Y-832182D02*
G01*
X3261131Y-519226D01*
X1347382Y-2361133D02*
G01*
X1624955Y-2083559D01*
X1728079Y-1980435D02*
G01*
X2277050Y-1431465D01*
X2948175Y-760340D02*
G01*
X3261131Y-447384D01*
X1275540Y-2361133D02*
G01*
X1553113Y-2083559D01*
X1656237Y-1980435D02*
G01*
X2205208Y-1431465D01*
X2948175Y-688497D02*
G01*
X3261131Y-375542D01*
X1203698Y-2361133D02*
G01*
X1481271Y-2083559D01*
X1584395Y-1980435D02*
G01*
X2133366Y-1431465D01*
X2948175Y-616656D02*
G01*
X3261131Y-303700D01*
X1131856Y-2361133D02*
G01*
X1409429Y-2083559D01*
X1512553Y-1980435D02*
G01*
X2061524Y-1431465D01*
X2948175Y-544813D02*
G01*
X3261131Y-231858D01*
X1060014Y-2361133D02*
G01*
X1337587Y-2083559D01*
X1440711Y-1980435D02*
G01*
X1989682Y-1431465D01*
X2948175Y-472971D02*
G01*
X3261131Y-160015D01*
X988172Y-2361133D02*
G01*
X1265745Y-2083559D01*
X1368869Y-1980435D02*
G01*
X1917840Y-1431465D01*
X2924948Y-424356D02*
G01*
X3261131Y-88174D01*
X916330Y-2361133D02*
G01*
X1193903Y-2083560D01*
X1297027Y-1980435D02*
G01*
X1845998Y-1431465D01*
X2889028Y-388435D02*
G01*
X3261131Y-16331D01*
X844488Y-2361133D02*
G01*
X1122061Y-2083560D01*
X1225185Y-1980436D02*
G01*
X1774906Y-1430714D01*
X2853106Y-352514D02*
G01*
X3261131Y55510D01*
X772645Y-2361133D02*
G01*
X1050218Y-2083560D01*
X1153343Y-1980436D02*
G01*
X1732300Y-1401478D01*
X2817185Y-316593D02*
G01*
X3261131Y127352D01*
X700804Y-2361133D02*
G01*
X978377Y-2083560D01*
X1081501Y-1980436D02*
G01*
X1696379Y-1365557D01*
X2781264Y-280672D02*
G01*
X3261131Y199194D01*
X628961Y-2361133D02*
G01*
X906534Y-2083560D01*
X1009658Y-1980436D02*
G01*
X1660458Y-1329636D01*
X2745343Y-244751D02*
G01*
X3261131Y271036D01*
X557119Y-2361133D02*
G01*
X834692Y-2083560D01*
X937816Y-1980436D02*
G01*
X1624537Y-1293715D01*
X2780119Y-138133D02*
G01*
X3261131Y342878D01*
X485277Y-2361133D02*
G01*
X762850Y-2083560D01*
X865974Y-1980436D02*
G01*
X1588616Y-1257794D01*
X2769145Y-77266D02*
G01*
X3261131Y414720D01*
X413435Y-2361133D02*
G01*
X691008Y-2083560D01*
X794132Y-1980436D02*
G01*
X1552695Y-1221873D01*
X2737155Y-37413D02*
G01*
X3261131Y486562D01*
X341593Y-2361133D02*
G01*
X619166Y-2083560D01*
X722290Y-1980436D02*
G01*
X1516774Y-1185952D01*
X2981246Y278519D02*
G01*
X3261131Y558404D01*
X269751Y-2361133D02*
G01*
X547324Y-2083560D01*
X650448Y-1980436D02*
G01*
X1480853Y-1150031D01*
X2981246Y350361D02*
G01*
X3261131Y630246D01*
X197909Y-2361133D02*
G01*
X475482Y-2083560D01*
X578606Y-1980436D02*
G01*
X1444932Y-1114110D01*
X2981246Y422203D02*
G01*
X3261131Y702088D01*
X126067Y-2361133D02*
G01*
X403640Y-2083560D01*
X506764Y-1980436D02*
G01*
X1409011Y-1078189D01*
X2981246Y494045D02*
G01*
X3261131Y773930D01*
X54225Y-2361133D02*
G01*
X331798Y-2083560D01*
X434922Y-1980436D02*
G01*
X1373090Y-1042268D01*
X2981246Y565887D02*
G01*
X3261131Y845772D01*
X-17616Y-2361133D02*
G01*
X259956Y-2083560D01*
X363080Y-1980436D02*
G01*
X1337169Y-1006347D01*
X2981246Y637729D02*
G01*
X3261131Y917614D01*
X-89458Y-2361133D02*
G01*
X188113Y-2083560D01*
X291237Y-1980436D02*
G01*
X1301248Y-970426D01*
X2981246Y709571D02*
G01*
X3261131Y989456D01*
X-161300Y-2361133D02*
G01*
X116271Y-2083560D01*
X219395Y-1980436D02*
G01*
X1265327Y-934505D01*
X2981246Y781413D02*
G01*
X3261131Y1061298D01*
X-233142Y-2361133D02*
G01*
X44429Y-2083560D01*
X147553Y-1980436D02*
G01*
X1229406Y-898584D01*
X2981246Y853255D02*
G01*
X3261131Y1133140D01*
X-304984Y-2361133D02*
G01*
X-27412Y-2083560D01*
X75711Y-1980436D02*
G01*
X1193485Y-862663D01*
X2981246Y925097D02*
G01*
X3261131Y1204982D01*
X-376826Y-2361133D02*
G01*
X-99254Y-2083560D01*
X3869Y-1980436D02*
G01*
X1157564Y-826742D01*
X2981246Y996939D02*
G01*
X3261131Y1276824D01*
X-448668Y-2361133D02*
G01*
X-171096Y-2083560D01*
X-67972Y-1980436D02*
G01*
X1121642Y-790821D01*
X2981246Y1068781D02*
G01*
X3261131Y1348667D01*
X-520510Y-2361133D02*
G01*
X-242938Y-2083560D01*
X-139814Y-1980436D02*
G01*
X1085721Y-754900D01*
X2981246Y1140623D02*
G01*
X3261131Y1420508D01*
X-592352Y-2361133D02*
G01*
X-314780Y-2083560D01*
X-211656Y-1980436D02*
G01*
X1049801Y-718979D01*
X2981246Y1212465D02*
G01*
X3261131Y1492351D01*
X-664195Y-2361133D02*
G01*
X-386622Y-2083560D01*
X-283498Y-1980436D02*
G01*
X1014744Y-682193D01*
X2965718Y1268780D02*
G01*
X3261131Y1564193D01*
X-736037Y-2361133D02*
G01*
X-458464Y-2083560D01*
X-355340Y-1980436D02*
G01*
X1006970Y-618125D01*
X2929797Y1304700D02*
G01*
X3261131Y1636035D01*
X-807879Y-2361133D02*
G01*
X-530307Y-2083561D01*
X-427183Y-1980436D02*
G01*
X1006970Y-546283D01*
X2893876Y1340621D02*
G01*
X3261131Y1707877D01*
X-879721Y-2361133D02*
G01*
X-602149Y-2083561D01*
X-499025Y-1980437D02*
G01*
X1006970Y-474441D01*
X2857955Y1376543D02*
G01*
X3261131Y1779719D01*
X-951563Y-2361133D02*
G01*
X-673991Y-2083561D01*
X-570867Y-1980437D02*
G01*
X1006970Y-402599D01*
X2822033Y1412464D02*
G01*
X3261131Y1851561D01*
X-1023405Y-2361133D02*
G01*
X-745833Y-2083561D01*
X-642709Y-1980437D02*
G01*
X1006970Y-330757D01*
X2786113Y1448384D02*
G01*
X3261131Y1923403D01*
X-1095247Y-2361133D02*
G01*
X-817675Y-2083561D01*
X-714551Y-1980437D02*
G01*
X1197881Y-68004D01*
X2733180Y1467294D02*
G01*
X3261131Y1995245D01*
X-1167089Y-2361133D02*
G01*
X-889517Y-2083561D01*
X-786393Y-1980437D02*
G01*
X1211000Y16956D01*
X2661338Y1467294D02*
G01*
X3260489Y2066445D01*
X-1238931Y-2361133D02*
G01*
X-961359Y-2083561D01*
X-858235Y-1980437D02*
G01*
X1198858Y76656D01*
X2589496Y1467294D02*
G01*
X2965734Y1843533D01*
X3109398Y1987196D02*
G01*
X3250794Y2128592D01*
X-1310773Y-2361133D02*
G01*
X-1033201Y-2083561D01*
X-930077Y-1980437D02*
G01*
X1165634Y115274D01*
X2517654Y1467294D02*
G01*
X2890887Y1840527D01*
X3112288Y2061928D02*
G01*
X3231828Y2181468D01*
X-1382615Y-2361133D02*
G01*
X-1105043Y-2083561D01*
X-1001919Y-1980437D02*
G01*
X1129713Y151195D01*
X2445812Y1467294D02*
G01*
X2836213Y1857695D01*
X3095142Y2116624D02*
G01*
X3205654Y2227136D01*
X-1454457Y-2361133D02*
G01*
X-1176885Y-2083561D01*
X-1073761Y-1980437D02*
G01*
X1093792Y187116D01*
X2373970Y1467294D02*
G01*
X2793208Y1886532D01*
X3066563Y2159887D02*
G01*
X3173167Y2266492D01*
X-1526299Y-2361133D02*
G01*
X-1248728Y-2083561D01*
X-1145603Y-1980437D02*
G01*
X1057871Y223037D01*
X2302128Y1467294D02*
G01*
X2759657Y1924824D01*
X3028150Y2193316D02*
G01*
X3134818Y2299985D01*
X-1598141Y-2361133D02*
G01*
X-1320570Y-2083561D01*
X-1217445Y-1980437D02*
G01*
X1021950Y258958D01*
X2230286Y1467294D02*
G01*
X2736278Y1973287D01*
X2979543Y2216552D02*
G01*
X3090415Y2327424D01*
X-1669983Y-2361133D02*
G01*
X-1392411Y-2083561D01*
X-1289287Y-1980437D02*
G01*
X1005065Y313915D01*
X2158443Y1467294D02*
G01*
X2727350Y2036200D01*
X2916763Y2225614D02*
G01*
X3039123Y2347974D01*
X-1741825Y-2361133D02*
G01*
X-1464254Y-2083561D01*
X-1361130Y-1980437D02*
G01*
X1005065Y385757D01*
X2086601Y1467294D02*
G01*
X2761601Y2142294D01*
X2809817Y2190509D02*
G01*
X2978906Y2359598D01*
X-1813667Y-2361133D02*
G01*
X-1536096Y-2083561D01*
X-1432972Y-1980437D02*
G01*
X1005065Y457599D01*
X2014760Y1467294D02*
G01*
X2908598Y2361133D01*
X-1885509Y-2361133D02*
G01*
X-1607938Y-2083561D01*
X-1504814Y-1980437D02*
G01*
X1005065Y529441D01*
X1942917Y1467294D02*
G01*
X2836756Y2361133D01*
X-1957351Y-2361133D02*
G01*
X-1679780Y-2083561D01*
X-1576656Y-1980437D02*
G01*
X1005065Y601284D01*
X1871075Y1467294D02*
G01*
X2764914Y2361133D01*
X-2029193Y-2361133D02*
G01*
X-1751622Y-2083561D01*
X-1648498Y-1980437D02*
G01*
X1005065Y673125D01*
X1799233Y1467294D02*
G01*
X2693072Y2361133D01*
X-2101035Y-2361133D02*
G01*
X-1823464Y-2083562D01*
X-1720340Y-1980437D02*
G01*
X2621230Y2361133D01*
X-2172878Y-2361133D02*
G01*
X-1957085Y-2145340D01*
X-1792182Y-1980437D02*
G01*
X2360914Y2172659D01*
X2424678Y2236423D02*
G01*
X2549388Y2361133D01*
X-2244720Y-2361133D02*
G01*
X-2035731Y-2152144D01*
X-1864024Y-1980437D02*
G01*
X2282268Y2165855D01*
X2431658Y2315245D02*
G01*
X2477546Y2361133D01*
X-2316562Y-2361133D02*
G01*
X-2083997Y-2128569D01*
X-1910123Y-1954694D02*
G01*
X2234002Y2189430D01*
X-2388404Y-2361133D02*
G01*
X-2116362Y-2089091D01*
X-1949562Y-1922291D02*
G01*
X2201637Y2228908D01*
X-2460246Y-2361133D02*
G01*
X-2254725Y-2155612D01*
X-2007490Y-1908377D02*
G01*
X2063274Y2162387D01*
X-2532088Y-2361133D02*
G01*
X-2314429Y-2143473D01*
X-2149256Y-1978301D02*
G01*
X2003570Y2174526D01*
X-2603930Y-2361133D02*
G01*
X-2354831Y-2112034D01*
X-2180470Y-1937673D02*
G01*
X1963168Y2205965D01*
X-2675772Y-2361133D02*
G01*
X-2379809Y-2065170D01*
X-2227506Y-1912867D02*
G01*
X1919801Y2234440D01*
X-2747614Y-2361133D02*
G01*
X-2377167Y-1990685D01*
X-2301850Y-1915369D02*
G01*
X-1845043Y-1458561D01*
X-1003206Y-616724D02*
G01*
X1847959Y2234440D01*
X-2819456Y-2361133D02*
G01*
X-1916885Y-1458561D01*
X-1003206Y-544882D02*
G01*
X1776117Y2234440D01*
X-2891298Y-2361133D02*
G01*
X-1988727Y-1458561D01*
X-1003206Y-473040D02*
G01*
X1704275Y2234440D01*
X-2962641Y-2360633D02*
G01*
X-2060569Y-1458561D01*
X-1003206Y-401198D02*
G01*
X1632433Y2234440D01*
X-3025479Y-2351630D02*
G01*
X-2898137Y-2224287D01*
X-2728614Y-2054765D02*
G01*
X-2132411Y-1458561D01*
X-1003206Y-329356D02*
G01*
X1560591Y2234440D01*
X-3078720Y-2333028D02*
G01*
X-2966086Y-2220394D01*
X-2732660Y-1986969D02*
G01*
X-2204253Y-1458561D01*
X-1011997Y-266306D02*
G01*
X1488749Y2234440D01*
X-3124839Y-2307305D02*
G01*
X-3017442Y-2199908D01*
X-2753015Y-1935481D02*
G01*
X-2276095Y-1458561D01*
X-1047316Y-229782D02*
G01*
X1416906Y2234440D01*
X-3164517Y-2275142D02*
G01*
X-3058132Y-2168757D01*
X-2784233Y-1894857D02*
G01*
X-2347937Y-1458561D01*
X-1083237Y-193861D02*
G01*
X1345064Y2234440D01*
X-3198308Y-2237090D02*
G01*
X-3089273Y-2128055D01*
X-2825040Y-1863823D02*
G01*
X-2419779Y-1458561D01*
X-1119158Y-157940D02*
G01*
X1273223Y2234440D01*
X-3226058Y-2192998D02*
G01*
X-3109493Y-2076434D01*
X-2876536Y-1843477D02*
G01*
X-2491621Y-1458561D01*
X-1155079Y-122019D02*
G01*
X1201380Y2234440D01*
X-3247106Y-2142204D02*
G01*
X-3113249Y-2008347D01*
X-2944698Y-1839797D02*
G01*
X-2563463Y-1458561D01*
X-1191000Y-86098D02*
G01*
X1129538Y2234440D01*
X-3259197Y-2082453D02*
G01*
X-2635305Y-1458561D01*
X-1205080Y-28336D02*
G01*
X1057696Y2234440D01*
X-3261131Y-2012545D02*
G01*
X-2707147Y-1458561D01*
X-1198979Y49606D02*
G01*
X985854Y2234440D01*
X-3261131Y-1940703D02*
G01*
X-2773974Y-1453547D01*
X-1004089Y316337D02*
G01*
X914012Y2234440D01*
X-3261131Y-1868861D02*
G01*
X-2811983Y-1419713D01*
X-1004089Y388180D02*
G01*
X842170Y2234440D01*
X-3261131Y-1797019D02*
G01*
X-2847936Y-1383824D01*
X-1004089Y460021D02*
G01*
X770328Y2234440D01*
X-3261131Y-1725177D02*
G01*
X-2883889Y-1347935D01*
X-1004089Y531864D02*
G01*
X698486Y2234440D01*
X-3261131Y-1653335D02*
G01*
X-2919842Y-1312046D01*
X-1004089Y603706D02*
G01*
X626644Y2234440D01*
X-3261131Y-1581493D02*
G01*
X-2944461Y-1264823D01*
X-1004162Y675475D02*
G01*
X554802Y2234440D01*
X-3261131Y-1509651D02*
G01*
X-2944461Y-1192981D01*
X-1030293Y721186D02*
G01*
X482960Y2234440D01*
X-3261131Y-1437809D02*
G01*
X-2944461Y-1121139D01*
X-1066214Y757107D02*
G01*
X411118Y2234440D01*
X-3261131Y-1365967D02*
G01*
X-2944461Y-1049297D01*
X-1102135Y793028D02*
G01*
X339276Y2234440D01*
X-3261131Y-1294125D02*
G01*
X-2944461Y-977455D01*
X-1138056Y828949D02*
G01*
X267434Y2234440D01*
X-3261131Y-1222283D02*
G01*
X-2944461Y-905613D01*
X-1173977Y864870D02*
G01*
X195592Y2234440D01*
X-3261131Y-1150440D02*
G01*
X-2944461Y-833771D01*
X-1209898Y900791D02*
G01*
X123750Y2234440D01*
X-3261131Y-1078599D02*
G01*
X-2944461Y-761929D01*
X-1245819Y936712D02*
G01*
X51908Y2234440D01*
X-3261131Y-1006756D02*
G01*
X-2944461Y-690087D01*
X-1281740Y972633D02*
G01*
X-19933Y2234440D01*
X-3261131Y-934914D02*
G01*
X-2944461Y-618245D01*
X-1317661Y1008554D02*
G01*
X-91776Y2234440D01*
X-3261131Y-863072D02*
G01*
X-2944461Y-546403D01*
X-1353583Y1044475D02*
G01*
X-163617Y2234440D01*
X-3261131Y-791230D02*
G01*
X-2944461Y-474561D01*
X-1389503Y1080396D02*
G01*
X-235460Y2234440D01*
X-3261131Y-719388D02*
G01*
X-2748322Y-206579D01*
X-1425424Y1116317D02*
G01*
X-307302Y2234440D01*
X-3261131Y-647546D02*
G01*
X-2775220Y-161635D01*
X-2632356Y-18771D02*
G01*
X-2611343Y2241D01*
X-1461346Y1152238D02*
G01*
X-379144Y2234440D01*
X-3261131Y-575704D02*
G01*
X-2773899Y-88473D01*
X-2705519Y-20092D02*
G01*
X-2671962Y13464D01*
X-1497267Y1188159D02*
G01*
X-450986Y2234440D01*
X-3261131Y-503862D02*
G01*
X-2726892Y30376D01*
X-1533187Y1224080D02*
G01*
X-522828Y2234440D01*
X-3261131Y-432020D02*
G01*
X-2762972Y66138D01*
X-1569109Y1260001D02*
G01*
X-594670Y2234440D01*
X-3261131Y-360178D02*
G01*
X-2780429Y120523D01*
X-1605030Y1295922D02*
G01*
X-666512Y2234440D01*
X-3261131Y-288336D02*
G01*
X-2745483Y227311D01*
X-1640950Y1331843D02*
G01*
X-738354Y2234440D01*
X-3261131Y-216494D02*
G01*
X-2781404Y263232D01*
X-1676872Y1367764D02*
G01*
X-810196Y2234440D01*
X-3261131Y-144652D02*
G01*
X-2817325Y299154D01*
X-1712793Y1403685D02*
G01*
X-882038Y2234440D01*
X-3261131Y-72810D02*
G01*
X-2853245Y335075D01*
X-1751669Y1436651D02*
G01*
X-953880Y2234440D01*
X-3261131Y-968D02*
G01*
X-2889166Y370996D01*
X-1820074Y1440088D02*
G01*
X-1025722Y2234440D01*
X-3261131Y70873D02*
G01*
X-2925087Y406917D01*
X-1891916Y1440088D02*
G01*
X-1097564Y2234440D01*
X-3261131Y142715D02*
G01*
X-2961008Y442838D01*
X-1963758Y1440088D02*
G01*
X-1169406Y2234440D01*
X-3261131Y214557D02*
G01*
X-2982810Y492878D01*
X-2035600Y1440088D02*
G01*
X-1241248Y2234440D01*
X-3261131Y286399D02*
G01*
X-2982810Y564720D01*
X-2107442Y1440088D02*
G01*
X-1994156Y1553375D01*
X-1883523Y1664008D02*
G01*
X-1313090Y2234440D01*
X-3261131Y358242D02*
G01*
X-2982810Y636562D01*
X-2179284Y1440088D02*
G01*
X-2056263Y1563109D01*
X-1893339Y1726033D02*
G01*
X-1384932Y2234440D01*
X-3261131Y430083D02*
G01*
X-2982810Y708404D01*
X-2251126Y1440088D02*
G01*
X-2098121Y1593094D01*
X-1923384Y1767831D02*
G01*
X-1456774Y2234440D01*
X-3261131Y501926D02*
G01*
X-2982810Y780246D01*
X-2322968Y1440088D02*
G01*
X-2183260Y1579797D01*
X-2164899Y1598158D02*
G01*
X-2124339Y1638717D01*
X-1968747Y1794309D02*
G01*
X-1528616Y2234440D01*
X-3261131Y573768D02*
G01*
X-2982810Y852088D01*
X-2394811Y1440088D02*
G01*
X-2280574Y1554325D01*
X-2138561Y1696337D02*
G01*
X-2126037Y1708862D01*
X-2039252Y1795647D02*
G01*
X-1600459Y2234440D01*
X-3261131Y645610D02*
G01*
X-2982810Y923930D01*
X-2466652Y1440088D02*
G01*
X-2331575Y1575166D01*
X-2159287Y1747454D02*
G01*
X-1672300Y2234440D01*
X-3261131Y717452D02*
G01*
X-2982810Y995772D01*
X-2538495Y1440088D02*
G01*
X-2366314Y1612269D01*
X-2196407Y1782176D02*
G01*
X-1744143Y2234440D01*
X-3261131Y789294D02*
G01*
X-2982810Y1067614D01*
X-2610337Y1440088D02*
G01*
X-2383848Y1666577D01*
X-2250677Y1799748D02*
G01*
X-1815985Y2234440D01*
X-3261131Y861136D02*
G01*
X-2982810Y1139456D01*
X-2682179Y1440088D02*
G01*
X-1941576Y2180691D01*
X-1901778Y2220489D02*
G01*
X-1887827Y2234440D01*
X-3261131Y932978D02*
G01*
X-2982810Y1211298D01*
X-2754021Y1440088D02*
G01*
X-2029778Y2164331D01*
X-3261131Y1004820D02*
G01*
X-2079667Y2186284D01*
X-3261131Y1076662D02*
G01*
X-2113717Y2224075D01*
X-3261131Y1148504D02*
G01*
X-2246440Y2163195D01*
X-3261131Y1220346D02*
G01*
X-2309191Y2172285D01*
X-3261131Y1292188D02*
G01*
X-2351446Y2201873D01*
X-3261131Y1364030D02*
G01*
X-2377976Y2247186D01*
X-3261131Y1435872D02*
G01*
X-2841634Y1855369D01*
X-2744189Y1952814D02*
G01*
X-2380671Y2316332D01*
X-3261131Y1507714D02*
G01*
X-2930460Y1838385D01*
X-2727605Y2041240D02*
G01*
X-2407712Y2361133D01*
X-3261131Y1579556D02*
G01*
X-2989836Y1850851D01*
X-2739980Y2100707D02*
G01*
X-2479555Y2361133D01*
X-3261131Y1651398D02*
G01*
X-3036225Y1876304D01*
X-2765330Y2147199D02*
G01*
X-2551396Y2361133D01*
X-3261131Y1723240D02*
G01*
X-3072700Y1911672D01*
X-2800578Y2183793D02*
G01*
X-2623239Y2361133D01*
X-3261131Y1795083D02*
G01*
X-3099560Y1956653D01*
X-2845797Y2210416D02*
G01*
X-2695081Y2361133D01*
X-3261131Y1866925D02*
G01*
X-3113955Y2014101D01*
X-2903248Y2224807D02*
G01*
X-2766923Y2361133D01*
X-3261131Y1938767D02*
G01*
X-3103683Y2096214D01*
X-2985085Y2214813D02*
G01*
X-2838765Y2361133D01*
X-3261131Y2010609D02*
G01*
X-2910607Y2361133D01*
X-3258952Y2084630D02*
G01*
X-2984628Y2358954D01*
X-3230130Y2185294D02*
G01*
X-3085292Y2330131D01*
D12*
G01*
X1286510Y190500D03*
G01*
X1413510Y190500D03*
G01*
X1286510Y63500D03*
G01*
X1413510Y63500D03*
G01*
X1286510Y-63500D03*
G01*
X1413510Y-63500D03*
G01*
X1286510Y-190500D03*
G01*
X1413510Y-190500D03*
G01*
X1286510Y-317500D03*
G01*
X1413510Y-317500D03*
G01*
X1286510Y-444500D03*
G01*
X1413510Y-444500D03*
G01*
X1286510Y-571500D03*
G01*
X1413510Y-571500D03*
G01*
X1413510Y317500D03*
G01*
X1286510Y317500D03*
G01*
X1413510Y444500D03*
G01*
X1286510Y444500D03*
G01*
X1286510Y571500D03*
G01*
X1413510Y571500D03*
G01*
X-1413484Y190500D03*
G01*
X-1286484Y190500D03*
G01*
X-1413484Y63500D03*
G01*
X-1286484Y63500D03*
G01*
X-1413484Y-63500D03*
G01*
X-1286484Y-63500D03*
G01*
X-1413484Y-190500D03*
G01*
X-1286484Y-190500D03*
G01*
X-1413484Y-317500D03*
G01*
X-1286484Y-317500D03*
G01*
X-1413484Y-444500D03*
G01*
X-1286484Y-444500D03*
G01*
X-1413484Y-571500D03*
G01*
X-1286484Y-571500D03*
G01*
X-1286484Y317500D03*
G01*
X-1413484Y317500D03*
G01*
X-1286484Y444500D03*
G01*
X-1413484Y444500D03*
G01*
X-1413484Y571500D03*
G01*
X-1286484Y571500D03*
D13*
G01*
X-2667000Y1142974D03*
G01*
X-2413000Y1143000D03*
G01*
X-2413000Y889000D03*
G01*
X-2667000Y889000D03*
G01*
X-2667000Y635000D03*
G01*
X-2413000Y635000D03*
G01*
X-2667000Y381000D03*
G01*
X-2413000Y381000D03*
G01*
X-2413000Y127000D03*
G01*
X-2667000Y127000D03*
G01*
X-2667000Y-127000D03*
G01*
X-2413000Y-127000D03*
G01*
X-2413000Y-381000D03*
G01*
X-2667000Y-381000D03*
G01*
X-2667000Y-635000D03*
G01*
X-2667000Y-889000D03*
G01*
X-2667000Y-1143000D03*
G01*
X-2413000Y-1143000D03*
G01*
X-2413000Y-889000D03*
G01*
X-2413000Y-635000D03*
G01*
X2413000Y1143000D03*
G01*
X2667000Y1143000D03*
G01*
X2413000Y889000D03*
G01*
X2667000Y889000D03*
G01*
X2667000Y635000D03*
G01*
X2413000Y635000D03*
G01*
X2413000Y381000D03*
G01*
X2667000Y381000D03*
G01*
X2667000Y127000D03*
G01*
X2413000Y127000D03*
G01*
X2413000Y-127000D03*
G01*
X2667000Y-127000D03*
G01*
X2413000Y-381000D03*
G01*
X2667000Y-381000D03*
G01*
X2413000Y-635000D03*
G01*
X2667000Y-635000D03*
G01*
X2413000Y-889000D03*
G01*
X2667000Y-889000D03*
G01*
X2413000Y-1143000D03*
G01*
X2667000Y-1143000D03*
D14*
G01*
X-2260600Y2286000D03*
G01*
X-2006600Y2286000D03*
G01*
X-2260600Y2032000D03*
G01*
X-2006600Y2032000D03*
G01*
X-2260600Y-2286000D03*
G01*
X-2260600Y-2032000D03*
G01*
X-2006600Y-2032000D03*
G01*
X-2006600Y-2286000D03*
G01*
X2311400Y-2032000D03*
G01*
X2057400Y2286000D03*
G01*
X2311400Y2286000D03*
G01*
X2311400Y2032000D03*
G01*
X2057400Y2032000D03*
G01*
X2057400Y-2032000D03*
G01*
X2057400Y-2286000D03*
G01*
X-2260600Y1676400D03*
G01*
X-2006600Y1676400D03*
G01*
X2311400Y-2286000D03*
M02*
