G04 Layer: TopSilkscreenLayer*
G04 EasyEDA v6.5.44, 2024-09-01 09:52:19*
G04 b4576de5f8ba4d03ab64208176f03f1d,a54f91b67bf74260adec70c9c35cfc8e,10*
G04 Gerber Generator version 0.2*
G04 Scale: 100 percent, Rotated: No, Reflected: No *
G04 Dimensions in millimeters *
G04 leading zeros omitted , absolute positions ,4 integer and 5 decimal *
%FSLAX45Y45*%
%MOMM*%

%ADD10C,0.2540*%
%ADD11C,0.2000*%
%ADD12C,0.1000*%

%LPD*%
G36*
X-1306068Y-1804924D02*
G01*
X-1306068Y-1817624D01*
X-1268984Y-1817624D01*
X-1258519Y-1821434D01*
X-1255014Y-1832864D01*
X-1258519Y-1844852D01*
X-1268984Y-1848866D01*
X-1293114Y-1848866D01*
X-1293114Y-1817624D01*
X-1306068Y-1817624D01*
X-1306068Y-1861566D01*
X-1269238Y-1861566D01*
X-1258570Y-1865375D01*
X-1255014Y-1876806D01*
X-1258519Y-1888439D01*
X-1268984Y-1892300D01*
X-1293114Y-1892300D01*
X-1293114Y-1861566D01*
X-1306068Y-1861566D01*
X-1306068Y-1905000D01*
X-1268476Y-1905000D01*
X-1262989Y-1904542D01*
X-1258062Y-1903069D01*
X-1253591Y-1900732D01*
X-1249680Y-1897380D01*
X-1246428Y-1893417D01*
X-1244142Y-1888947D01*
X-1242771Y-1883918D01*
X-1242314Y-1878330D01*
X-1242415Y-1874266D01*
X-1242771Y-1870659D01*
X-1243330Y-1867509D01*
X-1244092Y-1864868D01*
X-1245158Y-1862429D01*
X-1246682Y-1860042D01*
X-1248613Y-1857603D01*
X-1250950Y-1855216D01*
X-1244447Y-1845919D01*
X-1242314Y-1833372D01*
X-1242771Y-1827326D01*
X-1244092Y-1821891D01*
X-1246327Y-1817014D01*
X-1249426Y-1812798D01*
X-1253134Y-1809343D01*
X-1257503Y-1806905D01*
X-1262430Y-1805432D01*
X-1267968Y-1804924D01*
G37*
G36*
X-1181100Y-1804924D02*
G01*
X-1186027Y-1805533D01*
X-1190244Y-1807311D01*
X-1193647Y-1810359D01*
X-1196340Y-1814575D01*
X-1210310Y-1842516D01*
X-1211529Y-1845360D01*
X-1212392Y-1848408D01*
X-1212900Y-1851609D01*
X-1213104Y-1854962D01*
X-1200404Y-1854962D01*
X-1200251Y-1852879D01*
X-1198981Y-1848307D01*
X-1185164Y-1820164D01*
X-1184452Y-1819148D01*
X-1183589Y-1818436D01*
X-1182522Y-1818030D01*
X-1181354Y-1817878D01*
X-1180185Y-1818030D01*
X-1179169Y-1818436D01*
X-1178407Y-1819148D01*
X-1163574Y-1848561D01*
X-1162862Y-1850745D01*
X-1162304Y-1854962D01*
X-1162659Y-1858822D01*
X-1163828Y-1862328D01*
X-1178255Y-1890623D01*
X-1179068Y-1891385D01*
X-1180033Y-1891893D01*
X-1181100Y-1892046D01*
X-1182420Y-1891842D01*
X-1183589Y-1891284D01*
X-1184554Y-1890318D01*
X-1185418Y-1888998D01*
X-1197864Y-1864106D01*
X-1198981Y-1861515D01*
X-1200251Y-1856943D01*
X-1200404Y-1854962D01*
X-1213104Y-1854962D01*
X-1212900Y-1858467D01*
X-1212291Y-1861921D01*
X-1211224Y-1865325D01*
X-1209802Y-1868678D01*
X-1196340Y-1895348D01*
X-1193546Y-1899564D01*
X-1190091Y-1902561D01*
X-1185926Y-1904390D01*
X-1181100Y-1905000D01*
X-1178814Y-1904847D01*
X-1176629Y-1904339D01*
X-1174496Y-1903577D01*
X-1172464Y-1902460D01*
X-1170432Y-1900986D01*
X-1168755Y-1899361D01*
X-1167384Y-1897532D01*
X-1153160Y-1869186D01*
X-1151585Y-1865630D01*
X-1150467Y-1862074D01*
X-1149807Y-1858518D01*
X-1149604Y-1854962D01*
X-1149756Y-1851507D01*
X-1150213Y-1848307D01*
X-1151026Y-1845310D01*
X-1152144Y-1842516D01*
X-1166368Y-1814068D01*
X-1167485Y-1812137D01*
X-1168908Y-1810359D01*
X-1170533Y-1808835D01*
X-1172464Y-1807464D01*
X-1174496Y-1806346D01*
X-1176629Y-1805533D01*
X-1178814Y-1805076D01*
G37*
G36*
X-1087882Y-1804924D02*
G01*
X-1092860Y-1805533D01*
X-1097076Y-1807311D01*
X-1100582Y-1810359D01*
X-1103376Y-1814575D01*
X-1117346Y-1842516D01*
X-1118565Y-1845360D01*
X-1119428Y-1848408D01*
X-1119936Y-1851609D01*
X-1120140Y-1854962D01*
X-1107440Y-1854962D01*
X-1107287Y-1852879D01*
X-1106017Y-1848307D01*
X-1091336Y-1819148D01*
X-1090523Y-1818436D01*
X-1089558Y-1818030D01*
X-1088390Y-1817878D01*
X-1087170Y-1818030D01*
X-1086154Y-1818436D01*
X-1085291Y-1819148D01*
X-1084580Y-1820164D01*
X-1070610Y-1848561D01*
X-1069898Y-1850745D01*
X-1069340Y-1854962D01*
X-1069695Y-1858822D01*
X-1070864Y-1862328D01*
X-1085291Y-1890623D01*
X-1086104Y-1891385D01*
X-1087069Y-1891893D01*
X-1088136Y-1892046D01*
X-1089456Y-1891842D01*
X-1090625Y-1891284D01*
X-1091590Y-1890318D01*
X-1092454Y-1888998D01*
X-1104900Y-1864106D01*
X-1106017Y-1861515D01*
X-1107287Y-1856943D01*
X-1107440Y-1854962D01*
X-1120140Y-1854962D01*
X-1119936Y-1858467D01*
X-1119327Y-1861921D01*
X-1118260Y-1865325D01*
X-1116838Y-1868678D01*
X-1103376Y-1895348D01*
X-1100582Y-1899564D01*
X-1097127Y-1902561D01*
X-1092962Y-1904390D01*
X-1088136Y-1905000D01*
X-1085850Y-1904847D01*
X-1083665Y-1904339D01*
X-1081532Y-1903577D01*
X-1079500Y-1902460D01*
X-1077468Y-1900986D01*
X-1075791Y-1899361D01*
X-1074420Y-1897532D01*
X-1058519Y-1865630D01*
X-1057351Y-1862074D01*
X-1056640Y-1858518D01*
X-1056386Y-1854962D01*
X-1056538Y-1851507D01*
X-1057097Y-1848307D01*
X-1057960Y-1845310D01*
X-1059180Y-1842516D01*
X-1073404Y-1814068D01*
X-1074521Y-1812137D01*
X-1075944Y-1810359D01*
X-1077569Y-1808835D01*
X-1079500Y-1807464D01*
X-1081532Y-1806346D01*
X-1083614Y-1805533D01*
X-1085748Y-1805076D01*
G37*
G36*
X-1027176Y-1804924D02*
G01*
X-1027176Y-1820164D01*
X-1026769Y-1823821D01*
X-1025499Y-1826463D01*
X-1023467Y-1828038D01*
X-1020571Y-1828546D01*
X-1017879Y-1828038D01*
X-1016000Y-1826463D01*
X-1014831Y-1823821D01*
X-1014476Y-1820164D01*
X-1014476Y-1817624D01*
X-1001776Y-1817624D01*
X-1001776Y-1896364D01*
X-1001369Y-1900021D01*
X-1000201Y-1902663D01*
X-998219Y-1904238D01*
X-995426Y-1904746D01*
X-992632Y-1904288D01*
X-990650Y-1903018D01*
X-989482Y-1900885D01*
X-989076Y-1897888D01*
X-989076Y-1817624D01*
X-976376Y-1817624D01*
X-976376Y-1820164D01*
X-975969Y-1823821D01*
X-974699Y-1826463D01*
X-972667Y-1828038D01*
X-969771Y-1828546D01*
X-966978Y-1828088D01*
X-964996Y-1826818D01*
X-963828Y-1824685D01*
X-963421Y-1821688D01*
X-963421Y-1804924D01*
G37*
G36*
X929132Y-1804924D02*
G01*
X929132Y-1817624D01*
X972058Y-1817624D01*
X975614Y-1818132D01*
X978153Y-1819656D01*
X979678Y-1822196D01*
X980186Y-1825752D01*
X980186Y-1830832D01*
X979678Y-1833930D01*
X978153Y-1836166D01*
X975614Y-1837486D01*
X972058Y-1837943D01*
X942086Y-1837943D01*
X942086Y-1817624D01*
X929132Y-1817624D01*
X929132Y-1897888D01*
X929538Y-1900986D01*
X930757Y-1903222D01*
X932840Y-1904542D01*
X935736Y-1905000D01*
X938530Y-1904441D01*
X940511Y-1902815D01*
X941679Y-1900123D01*
X942086Y-1896364D01*
X942086Y-1850643D01*
X944880Y-1850643D01*
X979932Y-1900682D01*
X981456Y-1902561D01*
X983030Y-1903933D01*
X984656Y-1904746D01*
X986282Y-1905000D01*
X987602Y-1904898D01*
X989888Y-1903984D01*
X991717Y-1902206D01*
X992378Y-1901139D01*
X992886Y-1898904D01*
X992733Y-1897786D01*
X991463Y-1895144D01*
X960628Y-1850643D01*
X972819Y-1850643D01*
X977036Y-1850288D01*
X980897Y-1849221D01*
X984300Y-1847494D01*
X987298Y-1845056D01*
X989736Y-1842160D01*
X991463Y-1838807D01*
X992530Y-1835048D01*
X992886Y-1830832D01*
X992886Y-1824989D01*
X992530Y-1820976D01*
X991463Y-1817217D01*
X989736Y-1813864D01*
X987298Y-1810766D01*
X984453Y-1808225D01*
X981252Y-1806397D01*
X977696Y-1805279D01*
X973836Y-1804924D01*
G37*
G36*
X1022096Y-1804924D02*
G01*
X1022096Y-1905000D01*
X1077214Y-1905000D01*
X1080871Y-1904593D01*
X1083513Y-1903425D01*
X1085088Y-1901443D01*
X1085596Y-1898650D01*
X1085088Y-1895856D01*
X1083513Y-1893874D01*
X1080871Y-1892706D01*
X1077214Y-1892300D01*
X1034796Y-1892300D01*
X1034796Y-1861566D01*
X1052068Y-1861566D01*
X1055725Y-1861159D01*
X1058367Y-1859889D01*
X1059942Y-1857857D01*
X1060450Y-1854962D01*
X1059942Y-1852269D01*
X1058367Y-1850389D01*
X1055725Y-1849221D01*
X1052068Y-1848866D01*
X1034796Y-1848866D01*
X1034796Y-1817624D01*
X1077214Y-1817624D01*
X1080871Y-1817217D01*
X1083513Y-1816049D01*
X1085088Y-1814068D01*
X1085596Y-1811274D01*
X1085088Y-1808480D01*
X1083513Y-1806498D01*
X1080871Y-1805330D01*
X1077214Y-1804924D01*
G37*
G36*
X1131062Y-1804924D02*
G01*
X1127658Y-1805178D01*
X1124661Y-1805939D01*
X1121968Y-1807210D01*
X1119632Y-1808988D01*
X1117650Y-1811172D01*
X1116177Y-1813610D01*
X1115364Y-1816354D01*
X1115060Y-1819402D01*
X1115263Y-1821891D01*
X1115872Y-1824278D01*
X1116888Y-1826564D01*
X1118362Y-1828800D01*
X1164996Y-1889048D01*
X1165860Y-1890775D01*
X1165656Y-1891436D01*
X1165148Y-1891893D01*
X1164285Y-1892198D01*
X1132078Y-1892300D01*
X1130503Y-1892096D01*
X1129284Y-1891487D01*
X1128471Y-1890420D01*
X1127252Y-1885746D01*
X1125982Y-1883460D01*
X1124204Y-1882089D01*
X1121918Y-1881632D01*
X1119022Y-1882089D01*
X1116939Y-1883460D01*
X1115720Y-1885746D01*
X1115314Y-1888998D01*
X1115618Y-1892096D01*
X1116584Y-1894941D01*
X1118158Y-1897684D01*
X1120394Y-1900174D01*
X1123035Y-1902256D01*
X1125982Y-1903780D01*
X1129131Y-1904695D01*
X1132586Y-1905000D01*
X1164082Y-1905000D01*
X1167028Y-1904746D01*
X1169720Y-1903933D01*
X1172210Y-1902561D01*
X1174496Y-1900682D01*
X1176375Y-1898497D01*
X1177747Y-1896110D01*
X1178560Y-1893417D01*
X1178814Y-1890522D01*
X1178560Y-1888134D01*
X1177848Y-1885746D01*
X1176680Y-1883410D01*
X1129030Y-1821688D01*
X1128268Y-1820468D01*
X1128014Y-1819402D01*
X1128166Y-1818639D01*
X1128725Y-1818081D01*
X1129588Y-1817725D01*
X1161034Y-1817624D01*
X1162964Y-1817878D01*
X1164386Y-1818639D01*
X1165352Y-1819910D01*
X1166520Y-1824786D01*
X1167841Y-1827022D01*
X1169720Y-1828342D01*
X1172210Y-1828800D01*
X1175004Y-1828342D01*
X1176985Y-1826971D01*
X1178153Y-1824634D01*
X1178560Y-1821434D01*
X1178255Y-1818335D01*
X1177290Y-1815388D01*
X1175715Y-1812594D01*
X1173480Y-1810004D01*
X1170736Y-1807768D01*
X1167841Y-1806193D01*
X1164742Y-1805228D01*
X1161542Y-1804924D01*
G37*
G36*
X1208024Y-1804924D02*
G01*
X1208024Y-1905000D01*
X1263142Y-1905000D01*
X1266901Y-1904593D01*
X1269593Y-1903425D01*
X1271219Y-1901443D01*
X1271778Y-1898650D01*
X1271219Y-1895856D01*
X1269593Y-1893874D01*
X1266901Y-1892706D01*
X1263142Y-1892300D01*
X1220724Y-1892300D01*
X1220724Y-1861566D01*
X1237996Y-1861566D01*
X1241653Y-1861159D01*
X1244295Y-1859889D01*
X1245870Y-1857857D01*
X1246378Y-1854962D01*
X1245870Y-1852269D01*
X1244295Y-1850389D01*
X1241653Y-1849221D01*
X1237996Y-1848866D01*
X1220724Y-1848866D01*
X1220724Y-1817624D01*
X1263142Y-1817624D01*
X1266901Y-1817217D01*
X1269593Y-1816049D01*
X1271219Y-1814068D01*
X1271778Y-1811274D01*
X1271219Y-1808480D01*
X1269593Y-1806498D01*
X1266901Y-1805330D01*
X1263142Y-1804924D01*
G37*
G36*
X1300988Y-1804924D02*
G01*
X1300988Y-1820164D01*
X1301394Y-1823821D01*
X1302613Y-1826463D01*
X1304696Y-1828038D01*
X1307592Y-1828546D01*
X1310386Y-1828038D01*
X1312367Y-1826463D01*
X1313535Y-1823821D01*
X1313942Y-1820164D01*
X1313942Y-1817624D01*
X1326388Y-1817624D01*
X1326388Y-1896364D01*
X1326794Y-1900021D01*
X1328013Y-1902663D01*
X1330096Y-1904238D01*
X1332992Y-1904746D01*
X1335633Y-1904288D01*
X1337564Y-1903018D01*
X1338681Y-1900885D01*
X1339088Y-1897888D01*
X1339088Y-1817624D01*
X1352042Y-1817624D01*
X1352042Y-1820164D01*
X1352448Y-1823821D01*
X1353616Y-1826463D01*
X1355598Y-1828038D01*
X1358392Y-1828546D01*
X1361186Y-1828088D01*
X1363167Y-1826818D01*
X1364335Y-1824685D01*
X1364742Y-1821688D01*
X1364742Y-1804924D01*
G37*
G36*
X-1860804Y2081275D02*
G01*
X-1862632Y2081022D01*
X-1864106Y2080260D01*
X-1865833Y2078786D01*
X-1868424Y2075942D01*
X-1880870Y2060193D01*
X-1883765Y2056028D01*
X-1885797Y2051761D01*
X-1887067Y2047290D01*
X-1887474Y2042668D01*
X-1887474Y2019807D01*
X-1887067Y2015185D01*
X-1885797Y2010714D01*
X-1883765Y2006447D01*
X-1880870Y2002282D01*
X-1867001Y1984908D01*
X-1864868Y1982774D01*
X-1863445Y1981758D01*
X-1861769Y1981250D01*
X-1859584Y1981301D01*
X-1857400Y1982216D01*
X-1855571Y1984044D01*
X-1854555Y1986330D01*
X-1854454Y1987550D01*
X-1855012Y1989785D01*
X-1858162Y1994204D01*
X-1872234Y2012696D01*
X-1873250Y2014270D01*
X-1873961Y2015998D01*
X-1874367Y2017826D01*
X-1874520Y2019807D01*
X-1874520Y2042668D01*
X-1874367Y2044649D01*
X-1873961Y2046478D01*
X-1873250Y2048205D01*
X-1872234Y2049780D01*
X-1855724Y2071522D01*
X-1854606Y2073960D01*
X-1854454Y2074925D01*
X-1854555Y2076145D01*
X-1855571Y2078329D01*
X-1857400Y2080107D01*
X-1858467Y2080768D01*
G37*
G36*
X-1695450Y2081275D02*
G01*
X-1697786Y2080768D01*
X-1698853Y2080158D01*
X-1700631Y2078329D01*
X-1701292Y2077262D01*
X-1701800Y2074925D01*
X-1701241Y2072843D01*
X-1699514Y2070100D01*
X-1698345Y2068830D01*
X-1697989Y2068068D01*
X-1684020Y2049780D01*
X-1683004Y2048205D01*
X-1682292Y2046478D01*
X-1681886Y2044649D01*
X-1681734Y2042668D01*
X-1681734Y2019807D01*
X-1681886Y2017826D01*
X-1682292Y2015998D01*
X-1683004Y2014270D01*
X-1684020Y2012696D01*
X-1700530Y1991106D01*
X-1701241Y1989886D01*
X-1701800Y1987550D01*
X-1701292Y1985162D01*
X-1699768Y1982978D01*
X-1697786Y1981657D01*
X-1696669Y1981301D01*
X-1694484Y1981250D01*
X-1692808Y1981758D01*
X-1691284Y1982774D01*
X-1689150Y1984908D01*
X-1675384Y2002282D01*
X-1672488Y2006447D01*
X-1670405Y2010714D01*
X-1669186Y2015185D01*
X-1668780Y2019807D01*
X-1668780Y2042668D01*
X-1669186Y2047290D01*
X-1670405Y2051761D01*
X-1672488Y2056028D01*
X-1675384Y2060193D01*
X-1689150Y2077567D01*
X-1691284Y2079701D01*
X-1692808Y2080717D01*
X-1694484Y2081225D01*
G37*
G36*
X-1784604Y2038096D02*
G01*
X-1788363Y2037689D01*
X-1791055Y2036419D01*
X-1792681Y2034387D01*
X-1793239Y2031492D01*
X-1792681Y2028698D01*
X-1791055Y2026716D01*
X-1788363Y2025548D01*
X-1784604Y2025142D01*
X-1771396Y2025142D01*
X-1767738Y2025548D01*
X-1765096Y2026716D01*
X-1763522Y2028698D01*
X-1763014Y2031492D01*
X-1763522Y2034387D01*
X-1765096Y2036419D01*
X-1767738Y2037689D01*
X-1771396Y2038096D01*
G37*
G36*
X-1860804Y2347976D02*
G01*
X-1862632Y2347722D01*
X-1864106Y2346960D01*
X-1865833Y2345486D01*
X-1868424Y2342642D01*
X-1880870Y2326894D01*
X-1883765Y2322728D01*
X-1885797Y2318461D01*
X-1887067Y2313990D01*
X-1887474Y2309368D01*
X-1887474Y2286508D01*
X-1887067Y2281885D01*
X-1885797Y2277414D01*
X-1883765Y2273147D01*
X-1880870Y2268982D01*
X-1867001Y2251608D01*
X-1864868Y2249474D01*
X-1863445Y2248458D01*
X-1861769Y2247950D01*
X-1859584Y2248001D01*
X-1857400Y2248916D01*
X-1855571Y2250744D01*
X-1854555Y2253030D01*
X-1854454Y2254250D01*
X-1855012Y2256485D01*
X-1858162Y2260904D01*
X-1872234Y2279396D01*
X-1873250Y2280970D01*
X-1873961Y2282698D01*
X-1874367Y2284526D01*
X-1874520Y2286508D01*
X-1874520Y2309368D01*
X-1874367Y2311349D01*
X-1873961Y2313178D01*
X-1873250Y2314905D01*
X-1872234Y2316480D01*
X-1855724Y2338222D01*
X-1854606Y2340660D01*
X-1854454Y2341626D01*
X-1854555Y2342845D01*
X-1855571Y2345029D01*
X-1857400Y2346807D01*
X-1858467Y2347468D01*
G37*
G36*
X-1695450Y2347976D02*
G01*
X-1697786Y2347468D01*
X-1698853Y2346858D01*
X-1700631Y2345029D01*
X-1701292Y2343962D01*
X-1701800Y2341626D01*
X-1701241Y2339543D01*
X-1699514Y2336800D01*
X-1698345Y2335530D01*
X-1697989Y2334768D01*
X-1684020Y2316480D01*
X-1683004Y2314905D01*
X-1682292Y2313178D01*
X-1681886Y2311349D01*
X-1681734Y2309368D01*
X-1681734Y2286508D01*
X-1681886Y2284526D01*
X-1682292Y2282698D01*
X-1683004Y2280970D01*
X-1684020Y2279396D01*
X-1700530Y2257806D01*
X-1701241Y2256586D01*
X-1701800Y2254250D01*
X-1701292Y2251862D01*
X-1699768Y2249678D01*
X-1697786Y2248357D01*
X-1696669Y2248001D01*
X-1694484Y2247950D01*
X-1692808Y2248458D01*
X-1691284Y2249474D01*
X-1689150Y2251608D01*
X-1675384Y2268982D01*
X-1672488Y2273147D01*
X-1670405Y2277414D01*
X-1669186Y2281885D01*
X-1668780Y2286508D01*
X-1668780Y2309368D01*
X-1669186Y2313990D01*
X-1670405Y2318461D01*
X-1672488Y2322728D01*
X-1675384Y2326894D01*
X-1689150Y2344267D01*
X-1691284Y2346401D01*
X-1692808Y2347417D01*
X-1694484Y2347925D01*
G37*
G36*
X-1778000Y2329434D02*
G01*
X-1780895Y2328875D01*
X-1782927Y2327300D01*
X-1784197Y2324557D01*
X-1784604Y2320798D01*
X-1784604Y2304034D01*
X-1801114Y2304034D01*
X-1804873Y2303627D01*
X-1807565Y2302459D01*
X-1809191Y2300478D01*
X-1809750Y2297684D01*
X-1809191Y2294890D01*
X-1807565Y2292908D01*
X-1804873Y2291740D01*
X-1801114Y2291334D01*
X-1784604Y2291334D01*
X-1784604Y2274570D01*
X-1784197Y2270810D01*
X-1782927Y2268118D01*
X-1780895Y2266492D01*
X-1778000Y2265934D01*
X-1775206Y2266492D01*
X-1773224Y2268118D01*
X-1772056Y2270810D01*
X-1771650Y2274570D01*
X-1771650Y2291334D01*
X-1754886Y2291334D01*
X-1751228Y2291740D01*
X-1748586Y2292908D01*
X-1747012Y2294890D01*
X-1746504Y2297684D01*
X-1747012Y2300478D01*
X-1748586Y2302459D01*
X-1751228Y2303627D01*
X-1754886Y2304034D01*
X-1771650Y2304034D01*
X-1771650Y2320798D01*
X-1772056Y2324557D01*
X-1773224Y2327300D01*
X-1775206Y2328875D01*
G37*
G36*
X-1860804Y-2236724D02*
G01*
X-1862632Y-2236978D01*
X-1864106Y-2237740D01*
X-1865833Y-2239213D01*
X-1868424Y-2242058D01*
X-1880870Y-2257806D01*
X-1883765Y-2261920D01*
X-1885797Y-2266238D01*
X-1887067Y-2270709D01*
X-1887474Y-2275332D01*
X-1887474Y-2298192D01*
X-1887067Y-2302814D01*
X-1885797Y-2307285D01*
X-1883765Y-2311552D01*
X-1880870Y-2315718D01*
X-1867001Y-2333040D01*
X-1864868Y-2335225D01*
X-1863445Y-2336241D01*
X-1861769Y-2336749D01*
X-1859584Y-2336698D01*
X-1857400Y-2335784D01*
X-1855571Y-2333955D01*
X-1854555Y-2331669D01*
X-1854454Y-2330450D01*
X-1855012Y-2328214D01*
X-1858162Y-2323795D01*
X-1872234Y-2305304D01*
X-1873250Y-2303729D01*
X-1873961Y-2302002D01*
X-1874367Y-2300173D01*
X-1874520Y-2298192D01*
X-1874520Y-2275332D01*
X-1874367Y-2273350D01*
X-1873961Y-2271522D01*
X-1873250Y-2269794D01*
X-1872234Y-2268220D01*
X-1855724Y-2246426D01*
X-1854606Y-2244039D01*
X-1854454Y-2243074D01*
X-1854555Y-2241854D01*
X-1855571Y-2239670D01*
X-1857400Y-2237841D01*
X-1859584Y-2236825D01*
G37*
G36*
X-1695450Y-2236724D02*
G01*
X-1696669Y-2236825D01*
X-1698853Y-2237841D01*
X-1700631Y-2239670D01*
X-1701292Y-2240737D01*
X-1701800Y-2243074D01*
X-1701241Y-2245156D01*
X-1699514Y-2247900D01*
X-1698345Y-2249170D01*
X-1697989Y-2249932D01*
X-1684020Y-2268220D01*
X-1683004Y-2269794D01*
X-1682292Y-2271522D01*
X-1681886Y-2273350D01*
X-1681734Y-2275332D01*
X-1681734Y-2298192D01*
X-1681886Y-2300173D01*
X-1682292Y-2302002D01*
X-1683004Y-2303729D01*
X-1684020Y-2305304D01*
X-1699107Y-2325217D01*
X-1700530Y-2326843D01*
X-1701647Y-2329281D01*
X-1701800Y-2330450D01*
X-1701292Y-2332837D01*
X-1699768Y-2335022D01*
X-1697786Y-2336342D01*
X-1696669Y-2336698D01*
X-1694484Y-2336749D01*
X-1692808Y-2336241D01*
X-1691284Y-2335225D01*
X-1689150Y-2333040D01*
X-1675384Y-2315718D01*
X-1672488Y-2311552D01*
X-1670405Y-2307285D01*
X-1669186Y-2302814D01*
X-1668780Y-2298192D01*
X-1668780Y-2275332D01*
X-1669186Y-2270709D01*
X-1670405Y-2266238D01*
X-1672488Y-2261920D01*
X-1675384Y-2257806D01*
X-1689150Y-2240432D01*
X-1691284Y-2238298D01*
X-1692808Y-2237282D01*
X-1694484Y-2236774D01*
G37*
G36*
X-1784604Y-2279904D02*
G01*
X-1788363Y-2280310D01*
X-1791055Y-2281529D01*
X-1792681Y-2283612D01*
X-1793239Y-2286508D01*
X-1792681Y-2289251D01*
X-1791055Y-2291283D01*
X-1788363Y-2292451D01*
X-1784604Y-2292858D01*
X-1771396Y-2292858D01*
X-1767738Y-2292451D01*
X-1765096Y-2291283D01*
X-1763522Y-2289251D01*
X-1763014Y-2286508D01*
X-1763522Y-2283612D01*
X-1765096Y-2281529D01*
X-1767738Y-2280310D01*
X-1771396Y-2279904D01*
G37*
G36*
X-1860804Y-1970024D02*
G01*
X-1862632Y-1970278D01*
X-1864106Y-1971039D01*
X-1865833Y-1972513D01*
X-1868424Y-1975357D01*
X-1880870Y-1991106D01*
X-1883765Y-1995220D01*
X-1885797Y-1999538D01*
X-1887067Y-2004009D01*
X-1887474Y-2008632D01*
X-1887474Y-2031492D01*
X-1887067Y-2036114D01*
X-1885797Y-2040585D01*
X-1883765Y-2044852D01*
X-1880870Y-2049018D01*
X-1867001Y-2066340D01*
X-1864868Y-2068525D01*
X-1863445Y-2069541D01*
X-1861769Y-2070049D01*
X-1859584Y-2069998D01*
X-1857400Y-2069084D01*
X-1855571Y-2067255D01*
X-1854555Y-2064969D01*
X-1854454Y-2063750D01*
X-1855012Y-2061514D01*
X-1858162Y-2057095D01*
X-1872234Y-2038604D01*
X-1873250Y-2037029D01*
X-1873961Y-2035302D01*
X-1874367Y-2033473D01*
X-1874520Y-2031492D01*
X-1874520Y-2008632D01*
X-1874367Y-2006650D01*
X-1873961Y-2004822D01*
X-1873250Y-2003094D01*
X-1872234Y-2001520D01*
X-1855724Y-1979726D01*
X-1854606Y-1977339D01*
X-1854454Y-1976374D01*
X-1854555Y-1975154D01*
X-1855571Y-1972970D01*
X-1857400Y-1971141D01*
X-1859584Y-1970125D01*
G37*
G36*
X-1695450Y-1970024D02*
G01*
X-1696669Y-1970125D01*
X-1698853Y-1971141D01*
X-1700631Y-1972970D01*
X-1701292Y-1974037D01*
X-1701800Y-1976374D01*
X-1701241Y-1978456D01*
X-1699514Y-1981200D01*
X-1698345Y-1982470D01*
X-1697989Y-1983232D01*
X-1684020Y-2001520D01*
X-1683004Y-2003094D01*
X-1682292Y-2004822D01*
X-1681886Y-2006650D01*
X-1681734Y-2008632D01*
X-1681734Y-2031492D01*
X-1681886Y-2033473D01*
X-1682292Y-2035302D01*
X-1683004Y-2037029D01*
X-1684020Y-2038604D01*
X-1699107Y-2058517D01*
X-1700530Y-2060143D01*
X-1701647Y-2062581D01*
X-1701800Y-2063750D01*
X-1701292Y-2066137D01*
X-1699768Y-2068322D01*
X-1697786Y-2069642D01*
X-1696669Y-2069998D01*
X-1694484Y-2070049D01*
X-1692808Y-2069541D01*
X-1691284Y-2068525D01*
X-1689150Y-2066340D01*
X-1675384Y-2049018D01*
X-1672488Y-2044852D01*
X-1670405Y-2040585D01*
X-1669186Y-2036114D01*
X-1668780Y-2031492D01*
X-1668780Y-2008632D01*
X-1669186Y-2004009D01*
X-1670405Y-1999538D01*
X-1672488Y-1995220D01*
X-1675384Y-1991106D01*
X-1689150Y-1973732D01*
X-1691284Y-1971598D01*
X-1692808Y-1970582D01*
X-1694484Y-1970074D01*
G37*
G36*
X-1778000Y-1988566D02*
G01*
X-1780895Y-1989074D01*
X-1782927Y-1990699D01*
X-1784197Y-1993392D01*
X-1784604Y-1997202D01*
X-1784604Y-2013966D01*
X-1801114Y-2013966D01*
X-1804873Y-2014372D01*
X-1807565Y-2015540D01*
X-1809191Y-2017522D01*
X-1809750Y-2020316D01*
X-1809191Y-2023059D01*
X-1807565Y-2025091D01*
X-1804873Y-2026259D01*
X-1801114Y-2026666D01*
X-1784604Y-2026666D01*
X-1784604Y-2043430D01*
X-1784197Y-2047189D01*
X-1782927Y-2049881D01*
X-1780895Y-2051507D01*
X-1778000Y-2052066D01*
X-1775206Y-2051507D01*
X-1773224Y-2049881D01*
X-1772056Y-2047189D01*
X-1771650Y-2043430D01*
X-1771650Y-2026666D01*
X-1754886Y-2026666D01*
X-1751228Y-2026259D01*
X-1748586Y-2025091D01*
X-1747012Y-2023059D01*
X-1746504Y-2020316D01*
X-1747012Y-2017522D01*
X-1748586Y-2015540D01*
X-1751228Y-2014372D01*
X-1754886Y-2013966D01*
X-1771650Y-2013966D01*
X-1771650Y-1997202D01*
X-1772056Y-1993392D01*
X-1773224Y-1990699D01*
X-1775206Y-1989074D01*
G37*
G36*
X2941828Y1279144D02*
G01*
X2937713Y1278382D01*
X2934766Y1276045D01*
X2932988Y1272133D01*
X2932430Y1266698D01*
X2932430Y1242568D01*
X2913126Y1259078D01*
X2910687Y1260957D01*
X2908503Y1262329D01*
X2906522Y1263142D01*
X2904744Y1263396D01*
X2902813Y1263243D01*
X2901035Y1262735D01*
X2899511Y1261973D01*
X2898140Y1260856D01*
X2896920Y1259382D01*
X2896057Y1257655D01*
X2895498Y1255826D01*
X2895346Y1253744D01*
X2895701Y1251864D01*
X2896717Y1249781D01*
X2898495Y1247546D01*
X2900934Y1245108D01*
X2927350Y1222248D01*
X2900934Y1199642D01*
X2898495Y1197254D01*
X2896717Y1195019D01*
X2895701Y1192834D01*
X2895346Y1190752D01*
X2895498Y1188821D01*
X2896057Y1186992D01*
X2896920Y1185367D01*
X2898140Y1183894D01*
X2899511Y1182674D01*
X2901035Y1181811D01*
X2902813Y1181252D01*
X2904744Y1181100D01*
X2906522Y1181354D01*
X2908503Y1182166D01*
X2910687Y1183538D01*
X2913126Y1185418D01*
X2932430Y1201928D01*
X2932430Y1177290D01*
X2932988Y1171854D01*
X2934766Y1167942D01*
X2937713Y1165606D01*
X2941828Y1164844D01*
X2945942Y1165606D01*
X2948889Y1167942D01*
X2950616Y1171854D01*
X2951226Y1177290D01*
X2951226Y1201928D01*
X2970530Y1185418D01*
X2972968Y1183538D01*
X2975152Y1182166D01*
X2977134Y1181354D01*
X2978912Y1181100D01*
X2980740Y1181252D01*
X2982468Y1181709D01*
X2984042Y1182522D01*
X2985516Y1183640D01*
X2986735Y1185113D01*
X2987598Y1186789D01*
X2988106Y1188669D01*
X2988310Y1190752D01*
X2987954Y1192834D01*
X2986887Y1195019D01*
X2985160Y1197254D01*
X2982722Y1199642D01*
X2956306Y1222248D01*
X2982722Y1245108D01*
X2985160Y1247546D01*
X2986887Y1249781D01*
X2987954Y1251864D01*
X2988310Y1253744D01*
X2988106Y1255826D01*
X2987598Y1257655D01*
X2986735Y1259382D01*
X2985516Y1260856D01*
X2984042Y1261973D01*
X2982468Y1262735D01*
X2980740Y1263243D01*
X2978912Y1263396D01*
X2977134Y1263142D01*
X2975152Y1262329D01*
X2972968Y1260957D01*
X2970530Y1259078D01*
X2951226Y1242568D01*
X2951226Y1266698D01*
X2950616Y1272133D01*
X2948889Y1276045D01*
X2945942Y1278382D01*
G37*
G36*
X2999232Y1192276D02*
G01*
X2999232Y1179576D01*
X3042412Y1179576D01*
X3045866Y1179118D01*
X3048304Y1177645D01*
X3049778Y1175308D01*
X3050286Y1171956D01*
X3050286Y1151128D01*
X3049828Y1147572D01*
X3048457Y1145032D01*
X3046120Y1143508D01*
X3042920Y1143000D01*
X3011932Y1143000D01*
X3011932Y1179576D01*
X2999232Y1179576D01*
X2999333Y1097635D01*
X2999689Y1096314D01*
X3001010Y1094232D01*
X3003042Y1092911D01*
X3004261Y1092555D01*
X3005582Y1092454D01*
X3008376Y1092962D01*
X3010357Y1094536D01*
X3011525Y1097178D01*
X3011932Y1100836D01*
X3011932Y1130046D01*
X3041904Y1130046D01*
X3046577Y1130401D01*
X3050743Y1131417D01*
X3054350Y1133195D01*
X3057398Y1135634D01*
X3059836Y1138682D01*
X3061563Y1142288D01*
X3062630Y1146454D01*
X3062986Y1151128D01*
X3062986Y1171956D01*
X3062630Y1176324D01*
X3061665Y1180185D01*
X3059988Y1183690D01*
X3057652Y1186688D01*
X3054756Y1189126D01*
X3051505Y1190853D01*
X3047796Y1191920D01*
X3043682Y1192276D01*
G37*
G36*
X3100832Y1192276D02*
G01*
X3097072Y1191869D01*
X3094329Y1190701D01*
X3092754Y1188720D01*
X3092196Y1185926D01*
X3092754Y1183132D01*
X3094329Y1181150D01*
X3097072Y1179982D01*
X3100832Y1179576D01*
X3142996Y1179576D01*
X3142996Y1148588D01*
X3105150Y1148588D01*
X3102457Y1148384D01*
X3100070Y1147673D01*
X3097885Y1146606D01*
X3096006Y1145032D01*
X3094329Y1143000D01*
X3093161Y1140764D01*
X3092450Y1138326D01*
X3092196Y1135634D01*
X3092196Y1092200D01*
X3147314Y1092200D01*
X3150971Y1092606D01*
X3153613Y1093774D01*
X3155188Y1095756D01*
X3155696Y1098550D01*
X3155188Y1101344D01*
X3153613Y1103325D01*
X3150971Y1104493D01*
X3147314Y1104900D01*
X3105150Y1104900D01*
X3105150Y1135634D01*
X3142996Y1135634D01*
X3145637Y1135888D01*
X3148076Y1136599D01*
X3150209Y1137767D01*
X3152140Y1139444D01*
X3153714Y1141323D01*
X3154781Y1143508D01*
X3155492Y1145895D01*
X3155696Y1148588D01*
X3155696Y1178814D01*
X3155492Y1181608D01*
X3154781Y1184148D01*
X3153714Y1186434D01*
X3152140Y1188466D01*
X3150209Y1190142D01*
X3148076Y1191310D01*
X3145637Y1192022D01*
X3142996Y1192276D01*
G37*
G36*
X3198114Y1192276D02*
G01*
X3195320Y1191717D01*
X3193338Y1190091D01*
X3192170Y1187399D01*
X3191764Y1183640D01*
X3191764Y1124966D01*
X3229864Y1124966D01*
X3229864Y1100836D01*
X3230270Y1097076D01*
X3231489Y1094333D01*
X3233572Y1092758D01*
X3236468Y1092200D01*
X3239109Y1092758D01*
X3241040Y1094333D01*
X3242157Y1097076D01*
X3242564Y1100836D01*
X3242564Y1124966D01*
X3244443Y1125067D01*
X3246475Y1125982D01*
X3247390Y1126744D01*
X3248710Y1128877D01*
X3249168Y1131316D01*
X3248761Y1133703D01*
X3247491Y1135583D01*
X3245459Y1136904D01*
X3242564Y1137666D01*
X3242564Y1172718D01*
X3242157Y1176375D01*
X3241040Y1179017D01*
X3239109Y1180592D01*
X3236468Y1181100D01*
X3233572Y1180592D01*
X3231489Y1179017D01*
X3230270Y1176375D01*
X3229864Y1172718D01*
X3229864Y1137666D01*
X3204464Y1137666D01*
X3204464Y1183640D01*
X3204057Y1187399D01*
X3202889Y1190091D01*
X3200908Y1191717D01*
G37*
G36*
X2999232Y938276D02*
G01*
X2999232Y925576D01*
X3042412Y925576D01*
X3045866Y925118D01*
X3048304Y923645D01*
X3049778Y921308D01*
X3050286Y917956D01*
X3050286Y897128D01*
X3049828Y893571D01*
X3048457Y891032D01*
X3046120Y889508D01*
X3042920Y889000D01*
X3011932Y889000D01*
X3011932Y925576D01*
X2999232Y925576D01*
X2999333Y843635D01*
X2999689Y842314D01*
X3001010Y840232D01*
X3003042Y838911D01*
X3004261Y838555D01*
X3005582Y838453D01*
X3008376Y838962D01*
X3010357Y840536D01*
X3011525Y843178D01*
X3011932Y846836D01*
X3011932Y876046D01*
X3041904Y876046D01*
X3046577Y876401D01*
X3050743Y877417D01*
X3054350Y879195D01*
X3057398Y881634D01*
X3059836Y884682D01*
X3061563Y888288D01*
X3062630Y892454D01*
X3062986Y897128D01*
X3062986Y917956D01*
X3062630Y922324D01*
X3061665Y926185D01*
X3059988Y929690D01*
X3057652Y932687D01*
X3054756Y935126D01*
X3051505Y936853D01*
X3047796Y937920D01*
X3043682Y938276D01*
G37*
G36*
X3100832Y938276D02*
G01*
X3097072Y937869D01*
X3094329Y936701D01*
X3092754Y934719D01*
X3092196Y931926D01*
X3092754Y929132D01*
X3094329Y927150D01*
X3097072Y925982D01*
X3100832Y925576D01*
X3142996Y925576D01*
X3142996Y894587D01*
X3105150Y894587D01*
X3102457Y894384D01*
X3100070Y893673D01*
X3097885Y892606D01*
X3096006Y891032D01*
X3094329Y889000D01*
X3093161Y886764D01*
X3092450Y884326D01*
X3092196Y881634D01*
X3092196Y838200D01*
X3147314Y838200D01*
X3150971Y838606D01*
X3153613Y839774D01*
X3155188Y841756D01*
X3155696Y844550D01*
X3155188Y847344D01*
X3153613Y849325D01*
X3150971Y850493D01*
X3147314Y850900D01*
X3105150Y850900D01*
X3105150Y881634D01*
X3142996Y881634D01*
X3145637Y881887D01*
X3148076Y882599D01*
X3150209Y883767D01*
X3152140Y885444D01*
X3153714Y887323D01*
X3154781Y889508D01*
X3155492Y891895D01*
X3155696Y894587D01*
X3155696Y924814D01*
X3155492Y927608D01*
X3154781Y930148D01*
X3153714Y932434D01*
X3152140Y934466D01*
X3150209Y936142D01*
X3148076Y937310D01*
X3145637Y938021D01*
X3142996Y938276D01*
G37*
G36*
X3197860Y938276D02*
G01*
X3197860Y881634D01*
X3235960Y881634D01*
X3235960Y850900D01*
X3206546Y850950D01*
X3204006Y851458D01*
X3196082Y854964D01*
X3193237Y855929D01*
X3191256Y856234D01*
X3188919Y855726D01*
X3186938Y854202D01*
X3185617Y852220D01*
X3185261Y851103D01*
X3185160Y849884D01*
X3185515Y847953D01*
X3186633Y846175D01*
X3188462Y844651D01*
X3198622Y839724D01*
X3202482Y838555D01*
X3206496Y838200D01*
X3235960Y838200D01*
X3238398Y838453D01*
X3240735Y839165D01*
X3242868Y840333D01*
X3244850Y842010D01*
X3246526Y843991D01*
X3247694Y846124D01*
X3248406Y848461D01*
X3248660Y850900D01*
X3248660Y881634D01*
X3248456Y884275D01*
X3247745Y886714D01*
X3246678Y888847D01*
X3245104Y890778D01*
X3243122Y892352D01*
X3240887Y893419D01*
X3238550Y894130D01*
X3235960Y894334D01*
X3210560Y894334D01*
X3210560Y925576D01*
X3240024Y925576D01*
X3243783Y925982D01*
X3246475Y927150D01*
X3248101Y929132D01*
X3248660Y931926D01*
X3248101Y934719D01*
X3246475Y936701D01*
X3243783Y937869D01*
X3240024Y938276D01*
G37*
G36*
X2941828Y1025144D02*
G01*
X2937713Y1024382D01*
X2934766Y1022045D01*
X2932988Y1018133D01*
X2932430Y1012698D01*
X2932430Y988568D01*
X2913126Y1005078D01*
X2910687Y1006957D01*
X2908503Y1008329D01*
X2906522Y1009142D01*
X2904744Y1009396D01*
X2902813Y1009243D01*
X2901035Y1008735D01*
X2899511Y1007973D01*
X2898140Y1006856D01*
X2896920Y1005382D01*
X2896057Y1003655D01*
X2895498Y1001826D01*
X2895346Y999744D01*
X2895701Y997864D01*
X2896717Y995781D01*
X2898495Y993546D01*
X2900934Y991108D01*
X2927350Y968248D01*
X2900934Y945642D01*
X2898495Y943254D01*
X2896717Y941019D01*
X2895701Y938834D01*
X2895346Y936752D01*
X2895498Y934821D01*
X2896057Y932992D01*
X2896920Y931367D01*
X2898140Y929894D01*
X2899511Y928674D01*
X2901035Y927811D01*
X2902813Y927252D01*
X2904744Y927100D01*
X2906522Y927353D01*
X2908503Y928166D01*
X2910687Y929538D01*
X2913126Y931418D01*
X2932430Y947928D01*
X2932430Y923290D01*
X2932988Y917854D01*
X2934766Y913942D01*
X2937713Y911606D01*
X2941828Y910844D01*
X2945942Y911606D01*
X2948889Y913942D01*
X2950616Y917854D01*
X2951226Y923290D01*
X2951226Y947928D01*
X2970530Y931418D01*
X2972968Y929538D01*
X2975152Y928166D01*
X2977134Y927353D01*
X2978912Y927100D01*
X2980740Y927252D01*
X2982468Y927709D01*
X2984042Y928522D01*
X2985516Y929640D01*
X2986735Y931113D01*
X2987598Y932789D01*
X2988106Y934669D01*
X2988310Y936752D01*
X2987954Y938834D01*
X2986887Y941019D01*
X2985160Y943254D01*
X2982722Y945642D01*
X2956306Y968248D01*
X2982722Y991108D01*
X2985160Y993546D01*
X2986887Y995781D01*
X2987954Y997864D01*
X2988310Y999744D01*
X2988106Y1001826D01*
X2987598Y1003655D01*
X2986735Y1005382D01*
X2985516Y1006856D01*
X2984042Y1007973D01*
X2982468Y1008735D01*
X2980740Y1009243D01*
X2978912Y1009396D01*
X2977134Y1009142D01*
X2975152Y1008329D01*
X2972968Y1006957D01*
X2970530Y1005078D01*
X2951226Y988568D01*
X2951226Y1012698D01*
X2950616Y1018133D01*
X2948889Y1022045D01*
X2945942Y1024382D01*
G37*
G36*
X2999232Y684276D02*
G01*
X2999232Y671576D01*
X3042412Y671576D01*
X3045866Y671118D01*
X3048304Y669645D01*
X3049778Y667308D01*
X3050286Y663956D01*
X3050286Y643128D01*
X3049828Y639572D01*
X3048457Y637032D01*
X3046120Y635508D01*
X3042920Y635000D01*
X3011932Y635000D01*
X3011932Y671576D01*
X2999232Y671576D01*
X2999333Y589635D01*
X2999689Y588314D01*
X3001010Y586232D01*
X3003042Y584911D01*
X3004261Y584555D01*
X3005582Y584454D01*
X3008376Y584962D01*
X3010357Y586536D01*
X3011525Y589178D01*
X3011932Y592836D01*
X3011932Y622046D01*
X3041904Y622046D01*
X3046577Y622401D01*
X3050743Y623417D01*
X3054350Y625195D01*
X3057398Y627634D01*
X3059836Y630682D01*
X3061563Y634288D01*
X3062630Y638454D01*
X3062986Y643128D01*
X3062986Y663956D01*
X3062630Y668324D01*
X3061665Y672185D01*
X3059988Y675690D01*
X3057652Y678688D01*
X3054756Y681126D01*
X3051505Y682853D01*
X3047796Y683920D01*
X3043682Y684276D01*
G37*
G36*
X3100832Y684276D02*
G01*
X3097072Y683869D01*
X3094329Y682701D01*
X3092754Y680720D01*
X3092196Y677926D01*
X3092754Y675132D01*
X3094329Y673150D01*
X3097072Y671982D01*
X3100832Y671576D01*
X3142996Y671576D01*
X3142996Y640588D01*
X3105150Y640588D01*
X3102457Y640384D01*
X3100070Y639673D01*
X3097885Y638606D01*
X3096006Y637032D01*
X3094329Y635000D01*
X3093161Y632764D01*
X3092450Y630326D01*
X3092196Y627634D01*
X3092196Y584200D01*
X3147314Y584200D01*
X3150971Y584606D01*
X3153613Y585774D01*
X3155188Y587756D01*
X3155696Y590550D01*
X3155188Y593344D01*
X3153613Y595325D01*
X3150971Y596493D01*
X3147314Y596900D01*
X3105150Y596900D01*
X3105150Y627634D01*
X3142996Y627634D01*
X3145637Y627888D01*
X3148076Y628599D01*
X3150209Y629767D01*
X3152140Y631444D01*
X3153714Y633323D01*
X3154781Y635508D01*
X3155492Y637895D01*
X3155696Y640588D01*
X3155696Y670814D01*
X3155492Y673608D01*
X3154781Y676148D01*
X3153714Y678434D01*
X3152140Y680466D01*
X3150209Y682142D01*
X3148076Y683310D01*
X3145637Y684022D01*
X3142996Y684276D01*
G37*
G36*
X3191256Y684276D02*
G01*
X3190036Y684174D01*
X3187852Y683260D01*
X3186176Y681583D01*
X3185261Y679399D01*
X3185160Y617220D01*
X3235960Y617220D01*
X3235960Y596900D01*
X3197860Y596900D01*
X3197860Y617220D01*
X3185160Y617220D01*
X3185261Y589432D01*
X3186277Y587044D01*
X3187192Y585978D01*
X3189325Y584657D01*
X3191764Y584200D01*
X3242056Y584200D01*
X3245053Y584606D01*
X3247186Y585825D01*
X3248456Y587908D01*
X3248914Y590804D01*
X3248914Y623062D01*
X3248507Y626059D01*
X3247339Y628192D01*
X3245358Y629513D01*
X3242564Y629920D01*
X3197860Y629920D01*
X3197860Y671576D01*
X3200755Y672236D01*
X3202787Y673557D01*
X3204057Y675436D01*
X3204464Y677926D01*
X3203956Y680313D01*
X3202432Y682498D01*
X3200400Y683818D01*
X3199180Y684174D01*
G37*
G36*
X2999232Y430276D02*
G01*
X2999232Y417576D01*
X3042412Y417576D01*
X3045866Y417118D01*
X3048304Y415645D01*
X3049778Y413308D01*
X3050286Y409956D01*
X3050286Y389128D01*
X3049828Y385572D01*
X3048457Y383032D01*
X3046120Y381508D01*
X3042920Y381000D01*
X3011932Y381000D01*
X3011932Y417576D01*
X2999232Y417576D01*
X2999333Y335635D01*
X2999689Y334314D01*
X3001010Y332232D01*
X3003042Y330911D01*
X3004261Y330555D01*
X3005582Y330454D01*
X3008376Y330962D01*
X3010357Y332536D01*
X3011525Y335178D01*
X3011932Y338836D01*
X3011932Y368046D01*
X3041904Y368046D01*
X3046577Y368401D01*
X3050743Y369417D01*
X3054350Y371195D01*
X3057398Y373634D01*
X3059836Y376682D01*
X3061563Y380288D01*
X3062630Y384454D01*
X3062986Y389128D01*
X3062986Y409956D01*
X3062630Y414324D01*
X3061665Y418185D01*
X3059988Y421690D01*
X3057652Y424688D01*
X3054756Y427126D01*
X3051505Y428853D01*
X3047796Y429920D01*
X3043682Y430276D01*
G37*
G36*
X3100832Y430276D02*
G01*
X3097072Y429869D01*
X3094329Y428701D01*
X3092754Y426720D01*
X3092196Y423926D01*
X3092754Y421132D01*
X3094329Y419150D01*
X3097072Y417982D01*
X3100832Y417576D01*
X3142996Y417576D01*
X3142996Y386588D01*
X3105150Y386588D01*
X3102457Y386384D01*
X3100070Y385673D01*
X3097885Y384606D01*
X3096006Y383032D01*
X3094329Y381000D01*
X3093161Y378764D01*
X3092450Y376326D01*
X3092196Y373634D01*
X3092196Y330200D01*
X3147314Y330200D01*
X3150971Y330606D01*
X3153613Y331774D01*
X3155188Y333756D01*
X3155696Y336550D01*
X3155188Y339344D01*
X3153613Y341325D01*
X3150971Y342493D01*
X3147314Y342900D01*
X3105150Y342900D01*
X3105150Y373634D01*
X3142996Y373634D01*
X3145637Y373888D01*
X3148076Y374599D01*
X3150209Y375767D01*
X3152140Y377444D01*
X3153714Y379323D01*
X3154781Y381508D01*
X3155492Y383895D01*
X3155696Y386588D01*
X3155696Y416814D01*
X3155492Y419608D01*
X3154781Y422148D01*
X3153714Y424434D01*
X3152140Y426466D01*
X3150209Y428142D01*
X3148076Y429310D01*
X3145637Y430022D01*
X3142996Y430276D01*
G37*
G36*
X3192018Y430276D02*
G01*
X3189020Y429818D01*
X3186887Y428447D01*
X3185566Y426110D01*
X3185160Y422909D01*
X3185160Y419100D01*
X3185566Y415848D01*
X3186785Y413562D01*
X3188868Y412191D01*
X3191764Y411734D01*
X3194050Y412089D01*
X3195828Y413207D01*
X3197098Y415035D01*
X3197860Y417576D01*
X3235960Y417576D01*
X3235960Y398272D01*
X3235756Y396341D01*
X3235248Y394563D01*
X3234385Y393039D01*
X3233166Y391668D01*
X3212846Y374142D01*
X3211931Y373176D01*
X3211322Y372059D01*
X3210915Y370738D01*
X3210814Y338836D01*
X3211220Y335178D01*
X3212439Y332536D01*
X3214522Y330962D01*
X3217418Y330454D01*
X3220059Y330962D01*
X3221990Y332536D01*
X3223107Y335178D01*
X3223514Y338836D01*
X3223514Y363220D01*
X3223666Y364693D01*
X3224123Y366064D01*
X3224936Y367385D01*
X3226054Y368554D01*
X3247491Y387197D01*
X3248253Y388518D01*
X3248761Y389991D01*
X3248914Y391668D01*
X3248914Y430276D01*
G37*
G36*
X2999232Y176276D02*
G01*
X2999232Y163576D01*
X3042412Y163576D01*
X3045866Y163118D01*
X3048304Y161645D01*
X3049778Y159308D01*
X3050286Y155956D01*
X3050286Y135128D01*
X3049828Y131572D01*
X3048457Y129032D01*
X3046120Y127508D01*
X3042920Y127000D01*
X3011932Y127000D01*
X3011932Y163576D01*
X2999232Y163576D01*
X2999333Y81635D01*
X2999689Y80314D01*
X3001010Y78232D01*
X3003042Y76911D01*
X3004261Y76555D01*
X3005582Y76454D01*
X3008376Y76962D01*
X3010357Y78536D01*
X3011525Y81178D01*
X3011932Y84836D01*
X3011932Y114046D01*
X3041904Y114046D01*
X3046577Y114401D01*
X3050743Y115417D01*
X3054350Y117195D01*
X3057398Y119633D01*
X3059836Y122682D01*
X3061563Y126288D01*
X3062630Y130454D01*
X3062986Y135128D01*
X3062986Y155956D01*
X3062630Y160324D01*
X3061665Y164185D01*
X3059988Y167690D01*
X3057652Y170688D01*
X3054756Y173126D01*
X3051505Y174853D01*
X3047796Y175920D01*
X3043682Y176276D01*
G37*
G36*
X3100832Y176276D02*
G01*
X3097072Y175869D01*
X3094329Y174701D01*
X3092754Y172720D01*
X3092196Y169926D01*
X3092754Y167132D01*
X3094329Y165150D01*
X3097072Y163982D01*
X3100832Y163576D01*
X3142996Y163576D01*
X3142996Y132588D01*
X3105150Y132588D01*
X3102457Y132384D01*
X3100070Y131673D01*
X3097885Y130606D01*
X3096006Y129032D01*
X3094329Y127000D01*
X3093161Y124764D01*
X3092450Y122326D01*
X3092196Y119633D01*
X3092196Y76200D01*
X3147314Y76200D01*
X3150971Y76606D01*
X3153613Y77774D01*
X3155188Y79756D01*
X3155696Y82550D01*
X3155188Y85344D01*
X3153613Y87325D01*
X3150971Y88493D01*
X3147314Y88900D01*
X3105150Y88900D01*
X3105150Y119633D01*
X3142996Y119633D01*
X3145637Y119887D01*
X3148076Y120599D01*
X3150209Y121767D01*
X3152140Y123444D01*
X3153714Y125323D01*
X3154781Y127508D01*
X3155492Y129895D01*
X3155696Y132588D01*
X3155696Y162814D01*
X3155492Y165608D01*
X3154781Y168148D01*
X3153714Y170434D01*
X3152140Y172466D01*
X3150209Y174142D01*
X3148076Y175310D01*
X3145637Y176022D01*
X3142996Y176276D01*
G37*
G36*
X3204464Y176276D02*
G01*
X3201568Y175818D01*
X3199485Y174548D01*
X3198266Y172415D01*
X3197860Y169418D01*
X3197860Y163576D01*
X3223260Y163576D01*
X3223260Y132334D01*
X3210814Y132334D01*
X3210814Y163576D01*
X3197860Y163576D01*
X3197860Y132334D01*
X3195269Y131978D01*
X3192881Y131267D01*
X3190697Y130098D01*
X3188716Y128524D01*
X3187141Y126644D01*
X3186023Y124510D01*
X3185363Y122174D01*
X3185160Y119633D01*
X3235960Y119633D01*
X3235960Y88900D01*
X3197860Y88900D01*
X3197860Y119633D01*
X3185160Y119633D01*
X3185160Y88138D01*
X3185414Y85902D01*
X3186125Y83769D01*
X3187293Y81686D01*
X3188970Y79756D01*
X3190951Y78181D01*
X3193034Y77063D01*
X3195269Y76403D01*
X3197606Y76200D01*
X3235960Y76200D01*
X3238550Y76454D01*
X3240887Y77165D01*
X3243122Y78333D01*
X3245104Y80010D01*
X3246780Y81991D01*
X3247948Y84124D01*
X3248660Y86461D01*
X3248914Y88900D01*
X3248914Y118872D01*
X3248101Y124307D01*
X3245662Y128320D01*
X3241598Y131013D01*
X3235960Y132334D01*
X3235858Y170840D01*
X3235502Y172161D01*
X3234182Y174244D01*
X3232150Y175768D01*
X3229610Y176276D01*
G37*
G36*
X2929128Y9144D02*
G01*
X2925013Y8382D01*
X2922066Y6045D01*
X2920288Y2133D01*
X2919730Y-3302D01*
X2919730Y-27432D01*
X2900426Y-10922D01*
X2897987Y-9042D01*
X2895803Y-7670D01*
X2893822Y-6858D01*
X2892044Y-6604D01*
X2890113Y-6756D01*
X2888335Y-7213D01*
X2886811Y-8026D01*
X2885440Y-9144D01*
X2884220Y-10617D01*
X2883357Y-12293D01*
X2882798Y-14173D01*
X2882646Y-16256D01*
X2883001Y-18135D01*
X2884017Y-20167D01*
X2885795Y-22453D01*
X2888234Y-24892D01*
X2914650Y-47752D01*
X2888234Y-70358D01*
X2885795Y-72745D01*
X2884017Y-74980D01*
X2883001Y-77165D01*
X2882646Y-79248D01*
X2882798Y-81178D01*
X2883357Y-83007D01*
X2884220Y-84632D01*
X2885440Y-86106D01*
X2886811Y-87325D01*
X2888335Y-88188D01*
X2890113Y-88747D01*
X2892044Y-88900D01*
X2893822Y-88646D01*
X2895803Y-87833D01*
X2897987Y-86461D01*
X2900426Y-84582D01*
X2919730Y-68072D01*
X2919730Y-92710D01*
X2920288Y-98145D01*
X2922066Y-102057D01*
X2925013Y-104394D01*
X2929128Y-105156D01*
X2933242Y-104394D01*
X2936189Y-102057D01*
X2937916Y-98145D01*
X2938526Y-92710D01*
X2938526Y-68072D01*
X2957830Y-84582D01*
X2960268Y-86461D01*
X2962452Y-87833D01*
X2964434Y-88646D01*
X2966212Y-88900D01*
X2968040Y-88747D01*
X2969768Y-88239D01*
X2971342Y-87477D01*
X2972816Y-86360D01*
X2974035Y-84886D01*
X2974898Y-83210D01*
X2975406Y-81330D01*
X2975610Y-79248D01*
X2975254Y-77165D01*
X2974187Y-74980D01*
X2972460Y-72745D01*
X2970022Y-70358D01*
X2943606Y-47752D01*
X2970022Y-24892D01*
X2972460Y-22453D01*
X2974187Y-20167D01*
X2975254Y-18135D01*
X2975610Y-16256D01*
X2975406Y-14173D01*
X2974898Y-12293D01*
X2974035Y-10617D01*
X2972816Y-9144D01*
X2971342Y-8026D01*
X2969768Y-7213D01*
X2968040Y-6756D01*
X2966212Y-6604D01*
X2964434Y-6858D01*
X2962452Y-7670D01*
X2960268Y-9042D01*
X2957830Y-10922D01*
X2938526Y-27432D01*
X2938526Y-3302D01*
X2937916Y2133D01*
X2936189Y6045D01*
X2933242Y8382D01*
G37*
G36*
X2999232Y-77724D02*
G01*
X2999232Y-90424D01*
X3042412Y-90424D01*
X3045866Y-90881D01*
X3048304Y-92354D01*
X3049778Y-94691D01*
X3050286Y-98044D01*
X3050286Y-118872D01*
X3049828Y-122428D01*
X3048457Y-124968D01*
X3046120Y-126492D01*
X3042920Y-127000D01*
X3011932Y-127000D01*
X3011932Y-90424D01*
X2999232Y-90424D01*
X2999333Y-172364D01*
X2999689Y-173685D01*
X3001010Y-175768D01*
X3003042Y-177088D01*
X3004261Y-177444D01*
X3005582Y-177546D01*
X3008376Y-177038D01*
X3010357Y-175463D01*
X3011525Y-172821D01*
X3011932Y-169164D01*
X3011932Y-139954D01*
X3041904Y-139954D01*
X3046577Y-139598D01*
X3050743Y-138582D01*
X3054350Y-136804D01*
X3057398Y-134366D01*
X3059836Y-131318D01*
X3061563Y-127711D01*
X3062630Y-123545D01*
X3062986Y-118872D01*
X3062986Y-98044D01*
X3062630Y-93675D01*
X3061665Y-89814D01*
X3059988Y-86309D01*
X3057652Y-83312D01*
X3054756Y-80873D01*
X3051505Y-79146D01*
X3047796Y-78079D01*
X3043682Y-77724D01*
G37*
G36*
X3100832Y-77724D02*
G01*
X3097072Y-78130D01*
X3094329Y-79298D01*
X3092754Y-81280D01*
X3092196Y-84074D01*
X3092754Y-86868D01*
X3094329Y-88849D01*
X3097072Y-90017D01*
X3100832Y-90424D01*
X3142996Y-90424D01*
X3142996Y-121412D01*
X3105150Y-121412D01*
X3102457Y-121615D01*
X3100070Y-122326D01*
X3097885Y-123393D01*
X3096006Y-124968D01*
X3094329Y-127000D01*
X3093161Y-129235D01*
X3092450Y-131673D01*
X3092196Y-134366D01*
X3092196Y-177800D01*
X3147314Y-177800D01*
X3150971Y-177393D01*
X3153613Y-176225D01*
X3155188Y-174244D01*
X3155696Y-171450D01*
X3155188Y-168656D01*
X3153613Y-166674D01*
X3150971Y-165506D01*
X3147314Y-165100D01*
X3105150Y-165100D01*
X3105150Y-134366D01*
X3142996Y-134366D01*
X3145637Y-134112D01*
X3148076Y-133400D01*
X3150209Y-132232D01*
X3152140Y-130556D01*
X3153714Y-128676D01*
X3154781Y-126492D01*
X3155492Y-124104D01*
X3155696Y-121412D01*
X3155696Y-91186D01*
X3155492Y-88392D01*
X3154781Y-85852D01*
X3153714Y-83566D01*
X3152140Y-81534D01*
X3150209Y-79857D01*
X3148076Y-78689D01*
X3145637Y-77978D01*
X3142996Y-77724D01*
G37*
G36*
X3192018Y-77724D02*
G01*
X3189020Y-78130D01*
X3186887Y-79400D01*
X3185566Y-81432D01*
X3185160Y-84328D01*
X3185160Y-90424D01*
X3235960Y-90424D01*
X3235960Y-110744D01*
X3197860Y-110744D01*
X3197860Y-90424D01*
X3185160Y-90424D01*
X3185160Y-116585D01*
X3185515Y-119583D01*
X3186684Y-121716D01*
X3188563Y-123037D01*
X3191256Y-123444D01*
X3235960Y-123444D01*
X3235960Y-165100D01*
X3233166Y-165760D01*
X3231184Y-167081D01*
X3230016Y-168960D01*
X3229610Y-171450D01*
X3230067Y-173888D01*
X3231388Y-176022D01*
X3233521Y-177342D01*
X3235960Y-177800D01*
X3243783Y-177698D01*
X3245916Y-176784D01*
X3247745Y-175107D01*
X3248406Y-174040D01*
X3248914Y-171704D01*
X3248914Y-84328D01*
X3248406Y-81737D01*
X3246882Y-79502D01*
X3244850Y-78181D01*
X3243630Y-77825D01*
G37*
G36*
X2999232Y-331724D02*
G01*
X2999232Y-344424D01*
X3042158Y-344424D01*
X3045714Y-344932D01*
X3048254Y-346456D01*
X3049778Y-348996D01*
X3050286Y-352552D01*
X3050286Y-357632D01*
X3049778Y-360730D01*
X3048254Y-362966D01*
X3045714Y-364286D01*
X3042158Y-364744D01*
X3012186Y-364744D01*
X3012186Y-344424D01*
X2999232Y-344424D01*
X2999232Y-424688D01*
X2999638Y-427786D01*
X3000857Y-430022D01*
X3002940Y-431342D01*
X3005836Y-431800D01*
X3008630Y-431241D01*
X3010611Y-429666D01*
X3011779Y-426923D01*
X3012186Y-423164D01*
X3012186Y-377444D01*
X3015234Y-377444D01*
X3050032Y-427482D01*
X3051556Y-429361D01*
X3053130Y-430733D01*
X3054756Y-431546D01*
X3056382Y-431800D01*
X3057702Y-431698D01*
X3059988Y-430784D01*
X3061817Y-429006D01*
X3062478Y-427939D01*
X3062986Y-425704D01*
X3062833Y-424586D01*
X3061563Y-421944D01*
X3030728Y-377444D01*
X3042920Y-377444D01*
X3047136Y-377088D01*
X3050997Y-376072D01*
X3054400Y-374294D01*
X3057398Y-371856D01*
X3059836Y-368960D01*
X3061563Y-365607D01*
X3062630Y-361848D01*
X3062986Y-357632D01*
X3062986Y-351790D01*
X3062630Y-347776D01*
X3061563Y-344068D01*
X3059836Y-340664D01*
X3057398Y-337566D01*
X3054553Y-335026D01*
X3051352Y-333197D01*
X3047796Y-332079D01*
X3043936Y-331724D01*
G37*
G36*
X3185160Y-331724D02*
G01*
X3185160Y-423164D01*
X3185566Y-426923D01*
X3186785Y-429666D01*
X3188868Y-431241D01*
X3191764Y-431800D01*
X3194405Y-431241D01*
X3196336Y-429666D01*
X3197453Y-426923D01*
X3197860Y-423164D01*
X3197860Y-354584D01*
X3231896Y-431800D01*
X3248914Y-431800D01*
X3248914Y-340360D01*
X3248507Y-336600D01*
X3247237Y-333908D01*
X3245205Y-332282D01*
X3242310Y-331724D01*
X3239516Y-332282D01*
X3237534Y-333908D01*
X3236366Y-336600D01*
X3235960Y-340360D01*
X3235960Y-409701D01*
X3202178Y-331724D01*
G37*
G36*
X3098546Y-331978D02*
G01*
X3095752Y-332486D01*
X3093770Y-334060D01*
X3092602Y-336702D01*
X3092196Y-340360D01*
X3092196Y-412242D01*
X3092551Y-416255D01*
X3093567Y-419912D01*
X3095345Y-423265D01*
X3097784Y-426212D01*
X3100628Y-428650D01*
X3103829Y-430428D01*
X3107334Y-431444D01*
X3111246Y-431800D01*
X3136392Y-431800D01*
X3140405Y-431444D01*
X3144062Y-430428D01*
X3147364Y-428650D01*
X3150362Y-426212D01*
X3152698Y-423113D01*
X3154375Y-419608D01*
X3155340Y-415747D01*
X3155696Y-411480D01*
X3155696Y-340360D01*
X3155289Y-336702D01*
X3154172Y-334060D01*
X3152241Y-332486D01*
X3149600Y-331978D01*
X3146704Y-332486D01*
X3144621Y-334060D01*
X3143402Y-336702D01*
X3142996Y-340360D01*
X3142996Y-412242D01*
X3142538Y-415239D01*
X3141167Y-417372D01*
X3138830Y-418693D01*
X3135630Y-419100D01*
X3112262Y-419100D01*
X3109010Y-418642D01*
X3106724Y-417220D01*
X3105353Y-414832D01*
X3104896Y-411480D01*
X3104896Y-340360D01*
X3104489Y-336702D01*
X3103321Y-334060D01*
X3101340Y-332486D01*
G37*
G36*
X2999232Y-585724D02*
G01*
X2999232Y-598424D01*
X3036316Y-598424D01*
X3046780Y-602234D01*
X3050286Y-613664D01*
X3046780Y-625652D01*
X3036316Y-629666D01*
X3012186Y-629666D01*
X3012186Y-598424D01*
X2999232Y-598424D01*
X2999232Y-642366D01*
X3036062Y-642366D01*
X3046730Y-646176D01*
X3050286Y-657606D01*
X3046780Y-669239D01*
X3036316Y-673100D01*
X3012186Y-673100D01*
X3012186Y-642366D01*
X2999232Y-642366D01*
X2999232Y-685800D01*
X3036824Y-685800D01*
X3042259Y-685342D01*
X3047238Y-683920D01*
X3051657Y-681532D01*
X3055620Y-678180D01*
X3058820Y-674217D01*
X3061157Y-669747D01*
X3062528Y-664718D01*
X3062986Y-659130D01*
X3062884Y-655066D01*
X3062528Y-651459D01*
X3061970Y-648309D01*
X3061208Y-645668D01*
X3060090Y-643280D01*
X3058617Y-640842D01*
X3056686Y-638454D01*
X3054350Y-636016D01*
X3060801Y-626770D01*
X3062986Y-614172D01*
X3062528Y-608126D01*
X3061208Y-602691D01*
X3058972Y-597814D01*
X3055874Y-593598D01*
X3052114Y-590143D01*
X3047796Y-587705D01*
X3042869Y-586232D01*
X3037332Y-585724D01*
G37*
G36*
X3124200Y-585724D02*
G01*
X3119221Y-586333D01*
X3115056Y-588162D01*
X3111601Y-591159D01*
X3108960Y-595376D01*
X3094990Y-623316D01*
X3093770Y-626211D01*
X3092907Y-629208D01*
X3092348Y-632409D01*
X3092196Y-635762D01*
X3104896Y-635762D01*
X3105048Y-633679D01*
X3105505Y-631444D01*
X3107436Y-626618D01*
X3120136Y-600964D01*
X3120847Y-599948D01*
X3121710Y-599236D01*
X3122726Y-598830D01*
X3123946Y-598678D01*
X3125114Y-598830D01*
X3126079Y-599236D01*
X3126892Y-599948D01*
X3140710Y-626872D01*
X3142437Y-631494D01*
X3142996Y-635762D01*
X3142589Y-639622D01*
X3141472Y-643128D01*
X3127044Y-671423D01*
X3126232Y-672185D01*
X3125266Y-672693D01*
X3124200Y-672846D01*
X3122879Y-672642D01*
X3121710Y-672084D01*
X3120694Y-671118D01*
X3119882Y-669798D01*
X3107436Y-644906D01*
X3105505Y-639927D01*
X3105048Y-637743D01*
X3104896Y-635762D01*
X3092196Y-635762D01*
X3092399Y-639267D01*
X3093008Y-642772D01*
X3094024Y-646125D01*
X3095498Y-649478D01*
X3108960Y-676148D01*
X3111703Y-680364D01*
X3115157Y-683412D01*
X3119323Y-685190D01*
X3124200Y-685800D01*
X3126435Y-685647D01*
X3128619Y-685190D01*
X3130753Y-684377D01*
X3132836Y-683260D01*
X3134817Y-681786D01*
X3136493Y-680161D01*
X3137865Y-678383D01*
X3152140Y-649986D01*
X3153714Y-646430D01*
X3154781Y-642874D01*
X3155492Y-639318D01*
X3155696Y-635762D01*
X3155543Y-632307D01*
X3155035Y-629107D01*
X3154273Y-626110D01*
X3153156Y-623316D01*
X3138932Y-594868D01*
X3137763Y-592937D01*
X3136392Y-591210D01*
X3134715Y-589635D01*
X3132836Y-588264D01*
X3130753Y-587146D01*
X3128619Y-586384D01*
X3126435Y-585876D01*
G37*
G36*
X3217418Y-585724D02*
G01*
X3212439Y-586333D01*
X3208223Y-588162D01*
X3204718Y-591159D01*
X3201924Y-595376D01*
X3187954Y-623316D01*
X3186734Y-626211D01*
X3185871Y-629208D01*
X3185312Y-632409D01*
X3185160Y-635762D01*
X3197860Y-635762D01*
X3198012Y-633679D01*
X3198469Y-631444D01*
X3200400Y-626618D01*
X3213963Y-599948D01*
X3214725Y-599236D01*
X3215741Y-598830D01*
X3216910Y-598678D01*
X3218078Y-598830D01*
X3219145Y-599236D01*
X3220008Y-599948D01*
X3220720Y-600964D01*
X3233674Y-626872D01*
X3235401Y-631494D01*
X3235960Y-635762D01*
X3235553Y-639622D01*
X3234436Y-643128D01*
X3220008Y-671423D01*
X3219196Y-672185D01*
X3218230Y-672693D01*
X3217164Y-672846D01*
X3215843Y-672642D01*
X3214674Y-672084D01*
X3213658Y-671118D01*
X3212846Y-669798D01*
X3200400Y-644906D01*
X3198469Y-639927D01*
X3198012Y-637743D01*
X3197860Y-635762D01*
X3185160Y-635762D01*
X3185363Y-639267D01*
X3185972Y-642772D01*
X3186988Y-646125D01*
X3188462Y-649478D01*
X3201924Y-676148D01*
X3204667Y-680364D01*
X3208121Y-683412D01*
X3212287Y-685190D01*
X3217164Y-685800D01*
X3219399Y-685647D01*
X3221583Y-685190D01*
X3223717Y-684377D01*
X3225800Y-683260D01*
X3227781Y-681786D01*
X3229457Y-680161D01*
X3230829Y-678383D01*
X3246780Y-646430D01*
X3247948Y-642874D01*
X3248660Y-639318D01*
X3248914Y-635762D01*
X3248710Y-632307D01*
X3248202Y-629107D01*
X3247339Y-626110D01*
X3246120Y-623316D01*
X3231896Y-594868D01*
X3230727Y-592937D01*
X3229356Y-591210D01*
X3227679Y-589635D01*
X3225800Y-588264D01*
X3223768Y-587146D01*
X3221685Y-586384D01*
X3219551Y-585876D01*
G37*
G36*
X3100578Y-839724D02*
G01*
X3096818Y-840130D01*
X3094075Y-841298D01*
X3092500Y-843280D01*
X3091942Y-846074D01*
X3092500Y-848868D01*
X3094075Y-850849D01*
X3096818Y-852017D01*
X3100578Y-852424D01*
X3121660Y-852424D01*
X3123793Y-852678D01*
X3125571Y-853440D01*
X3127095Y-854710D01*
X3128264Y-856487D01*
X3141573Y-883564D01*
X3142843Y-887882D01*
X3142894Y-891641D01*
X3141980Y-895350D01*
X3128518Y-923036D01*
X3127349Y-924814D01*
X3125825Y-926084D01*
X3124047Y-926846D01*
X3121914Y-927100D01*
X3117596Y-927100D01*
X3117596Y-852424D01*
X3104896Y-852424D01*
X3104896Y-927100D01*
X3100578Y-927100D01*
X3096818Y-927506D01*
X3094075Y-928674D01*
X3092500Y-930656D01*
X3091942Y-933450D01*
X3092500Y-936244D01*
X3094075Y-938225D01*
X3096818Y-939393D01*
X3100578Y-939800D01*
X3121406Y-939800D01*
X3127400Y-939139D01*
X3132429Y-937158D01*
X3136544Y-933805D01*
X3139694Y-929132D01*
X3152648Y-902969D01*
X3153968Y-899820D01*
X3154934Y-896569D01*
X3155492Y-893114D01*
X3155696Y-889508D01*
X3155492Y-886307D01*
X3154883Y-883107D01*
X3153816Y-879856D01*
X3152394Y-876553D01*
X3139948Y-850900D01*
X3136747Y-846023D01*
X3132836Y-842518D01*
X3128111Y-840435D01*
X3122676Y-839724D01*
G37*
G36*
X3218688Y-839724D02*
G01*
X3213100Y-840435D01*
X3208324Y-842467D01*
X3204362Y-845870D01*
X3201162Y-850646D01*
X3187954Y-877316D01*
X3186734Y-880211D01*
X3185871Y-883208D01*
X3185312Y-886409D01*
X3185160Y-889762D01*
X3185312Y-893114D01*
X3185871Y-896315D01*
X3186734Y-899312D01*
X3187954Y-902208D01*
X3201162Y-928878D01*
X3204311Y-933653D01*
X3208223Y-937056D01*
X3212846Y-939139D01*
X3218180Y-939800D01*
X3240532Y-939800D01*
X3244189Y-939393D01*
X3246831Y-938225D01*
X3248406Y-936244D01*
X3248914Y-933450D01*
X3248406Y-930656D01*
X3246831Y-928674D01*
X3244189Y-927506D01*
X3240532Y-927100D01*
X3219704Y-927100D01*
X3217316Y-926846D01*
X3215335Y-926033D01*
X3213658Y-924661D01*
X3212338Y-922782D01*
X3199231Y-895756D01*
X3198215Y-891946D01*
X3198215Y-887882D01*
X3199231Y-883666D01*
X3212592Y-856487D01*
X3213760Y-854710D01*
X3215233Y-853440D01*
X3217062Y-852678D01*
X3219196Y-852424D01*
X3240532Y-852424D01*
X3244189Y-852017D01*
X3246831Y-850849D01*
X3248406Y-848868D01*
X3248914Y-846074D01*
X3248406Y-843280D01*
X3246831Y-841298D01*
X3244189Y-840130D01*
X3240532Y-839724D01*
G37*
G36*
X3031236Y-839978D02*
G01*
X3029000Y-840282D01*
X3027222Y-841197D01*
X3025851Y-842670D01*
X3024886Y-844803D01*
X3007074Y-905510D01*
X3020568Y-905510D01*
X3030982Y-869187D01*
X3041650Y-905510D01*
X3007074Y-905510D01*
X2999638Y-930859D01*
X2999282Y-932891D01*
X2999333Y-934923D01*
X3000349Y-937107D01*
X3002178Y-938936D01*
X3004362Y-939952D01*
X3005582Y-940053D01*
X3007817Y-939647D01*
X3009696Y-938326D01*
X3011220Y-936193D01*
X3012440Y-933196D01*
X3016758Y-918210D01*
X3045206Y-918210D01*
X3049778Y-933196D01*
X3050946Y-936193D01*
X3052419Y-938326D01*
X3054248Y-939647D01*
X3056382Y-940053D01*
X3057601Y-939952D01*
X3059734Y-938936D01*
X3061563Y-937107D01*
X3062224Y-936040D01*
X3062732Y-933703D01*
X3062528Y-931926D01*
X3037332Y-844803D01*
X3036366Y-842670D01*
X3035046Y-841197D01*
X3033318Y-840282D01*
G37*
G36*
X3037840Y-1093724D02*
G01*
X3033115Y-1094181D01*
X3028950Y-1095654D01*
X3025241Y-1097991D01*
X3022092Y-1101344D01*
X3005328Y-1123188D01*
X3002635Y-1126947D01*
X3000756Y-1130858D01*
X2999587Y-1134973D01*
X2999232Y-1139190D01*
X2999232Y-1174496D01*
X2999587Y-1178407D01*
X3000603Y-1182014D01*
X3002381Y-1185265D01*
X3004820Y-1188212D01*
X3007766Y-1190650D01*
X3011017Y-1192428D01*
X3014624Y-1193444D01*
X3018536Y-1193800D01*
X3043936Y-1193800D01*
X3047593Y-1193444D01*
X3051048Y-1192428D01*
X3054197Y-1190650D01*
X3057144Y-1188212D01*
X3059684Y-1185316D01*
X3061512Y-1182166D01*
X3062630Y-1178814D01*
X3062986Y-1175258D01*
X3062986Y-1148588D01*
X3039618Y-1148588D01*
X3035858Y-1148994D01*
X3033115Y-1150162D01*
X3031540Y-1152144D01*
X3030982Y-1154938D01*
X3031540Y-1157732D01*
X3033115Y-1159713D01*
X3035858Y-1160881D01*
X3039618Y-1161288D01*
X3050286Y-1161288D01*
X3050286Y-1173480D01*
X3049828Y-1176832D01*
X3048508Y-1179220D01*
X3046272Y-1180642D01*
X3043174Y-1181100D01*
X3019552Y-1181100D01*
X3016351Y-1180642D01*
X3014014Y-1179220D01*
X3012643Y-1176832D01*
X3012186Y-1173480D01*
X3012186Y-1140968D01*
X3012389Y-1138174D01*
X3012948Y-1135583D01*
X3013913Y-1133195D01*
X3015234Y-1131062D01*
X3033217Y-1108049D01*
X3034538Y-1106932D01*
X3036265Y-1106576D01*
X3054350Y-1106424D01*
X3058007Y-1106017D01*
X3060649Y-1104849D01*
X3062224Y-1102868D01*
X3062732Y-1100074D01*
X3062224Y-1097280D01*
X3060649Y-1095298D01*
X3058007Y-1094130D01*
X3054350Y-1093724D01*
G37*
G36*
X3092196Y-1093724D02*
G01*
X3092196Y-1185164D01*
X3092602Y-1188923D01*
X3093770Y-1191666D01*
X3095752Y-1193241D01*
X3098546Y-1193800D01*
X3101340Y-1193241D01*
X3103321Y-1191666D01*
X3104489Y-1188923D01*
X3104896Y-1185164D01*
X3104896Y-1116584D01*
X3138932Y-1193800D01*
X3155696Y-1193800D01*
X3155696Y-1102360D01*
X3155289Y-1098600D01*
X3154121Y-1095908D01*
X3152140Y-1094282D01*
X3149346Y-1093724D01*
X3146552Y-1094282D01*
X3144570Y-1095908D01*
X3143402Y-1098600D01*
X3142996Y-1102360D01*
X3142996Y-1171702D01*
X3109214Y-1093724D01*
G37*
G36*
X3193542Y-1093724D02*
G01*
X3189884Y-1094130D01*
X3187242Y-1095298D01*
X3185668Y-1097280D01*
X3185160Y-1100074D01*
X3185668Y-1102868D01*
X3187242Y-1104849D01*
X3189884Y-1106017D01*
X3193542Y-1106424D01*
X3214624Y-1106424D01*
X3216757Y-1106678D01*
X3218535Y-1107440D01*
X3220059Y-1108710D01*
X3221228Y-1110488D01*
X3234537Y-1137564D01*
X3235807Y-1141882D01*
X3235858Y-1145641D01*
X3234944Y-1149350D01*
X3221482Y-1177036D01*
X3220313Y-1178814D01*
X3218789Y-1180084D01*
X3217011Y-1180846D01*
X3214878Y-1181100D01*
X3210560Y-1181100D01*
X3210560Y-1106424D01*
X3197860Y-1106424D01*
X3197860Y-1181100D01*
X3193542Y-1181100D01*
X3189884Y-1181506D01*
X3187242Y-1182674D01*
X3185668Y-1184656D01*
X3185160Y-1187450D01*
X3185668Y-1190244D01*
X3187242Y-1192225D01*
X3189884Y-1193393D01*
X3193542Y-1193800D01*
X3214370Y-1193800D01*
X3220364Y-1193139D01*
X3225393Y-1191158D01*
X3229508Y-1187805D01*
X3232658Y-1183132D01*
X3245612Y-1156970D01*
X3246932Y-1153820D01*
X3247898Y-1150569D01*
X3248456Y-1147114D01*
X3248660Y-1143508D01*
X3248456Y-1140307D01*
X3247898Y-1137107D01*
X3246932Y-1133856D01*
X3245612Y-1130554D01*
X3232912Y-1104900D01*
X3229711Y-1100023D01*
X3225800Y-1096518D01*
X3221075Y-1094435D01*
X3215640Y-1093724D01*
G37*
G36*
X1830832Y1192276D02*
G01*
X1830832Y1179576D01*
X1874012Y1179576D01*
X1877466Y1179118D01*
X1879904Y1177696D01*
X1881378Y1175308D01*
X1881886Y1171956D01*
X1881886Y1151128D01*
X1881428Y1147572D01*
X1880057Y1145032D01*
X1877720Y1143508D01*
X1874520Y1143000D01*
X1843532Y1143000D01*
X1843532Y1179576D01*
X1830832Y1179576D01*
X1830933Y1097635D01*
X1831289Y1096314D01*
X1832610Y1094232D01*
X1834642Y1092911D01*
X1835861Y1092555D01*
X1837182Y1092454D01*
X1839975Y1092962D01*
X1841957Y1094536D01*
X1843125Y1097178D01*
X1843532Y1100836D01*
X1843532Y1130046D01*
X1873504Y1130046D01*
X1878177Y1130401D01*
X1882343Y1131417D01*
X1885950Y1133195D01*
X1888998Y1135634D01*
X1891436Y1138682D01*
X1893163Y1142288D01*
X1894230Y1146454D01*
X1894586Y1151128D01*
X1894586Y1171956D01*
X1894230Y1176324D01*
X1893265Y1180185D01*
X1891588Y1183690D01*
X1889252Y1186688D01*
X1886356Y1189126D01*
X1883105Y1190853D01*
X1879396Y1191920D01*
X1875282Y1192276D01*
G37*
G36*
X1932432Y1192276D02*
G01*
X1928774Y1191869D01*
X1926132Y1190701D01*
X1924557Y1188720D01*
X1924050Y1185926D01*
X1924557Y1183132D01*
X1926132Y1181150D01*
X1928774Y1179982D01*
X1932432Y1179576D01*
X1949196Y1179576D01*
X1949196Y1104900D01*
X1932432Y1104900D01*
X1928774Y1104493D01*
X1926132Y1103325D01*
X1924557Y1101344D01*
X1924050Y1098550D01*
X1924557Y1095756D01*
X1926132Y1093774D01*
X1928774Y1092606D01*
X1932432Y1092200D01*
X1981454Y1092200D01*
X1984095Y1092606D01*
X1986025Y1093927D01*
X1987143Y1096060D01*
X1987550Y1099058D01*
X1987550Y1129030D01*
X1987143Y1132687D01*
X1985975Y1135329D01*
X1983993Y1136904D01*
X1981200Y1137412D01*
X1978406Y1136904D01*
X1976424Y1135329D01*
X1975256Y1132687D01*
X1974850Y1129030D01*
X1974850Y1104900D01*
X1962150Y1104900D01*
X1962150Y1192276D01*
G37*
G36*
X2022856Y1192276D02*
G01*
X2021636Y1192174D01*
X2019452Y1191260D01*
X2017775Y1189583D01*
X2016861Y1187399D01*
X2016760Y1125220D01*
X2067560Y1125220D01*
X2067560Y1104900D01*
X2029460Y1104900D01*
X2029460Y1125220D01*
X2016760Y1125220D01*
X2016861Y1097432D01*
X2017877Y1095044D01*
X2018792Y1093978D01*
X2020925Y1092657D01*
X2023364Y1092200D01*
X2073656Y1092200D01*
X2076653Y1092606D01*
X2078786Y1093825D01*
X2080107Y1095908D01*
X2080514Y1098804D01*
X2080514Y1131062D01*
X2080107Y1134059D01*
X2078939Y1136192D01*
X2076957Y1137513D01*
X2074164Y1137920D01*
X2029460Y1137920D01*
X2029460Y1179576D01*
X2032355Y1180236D01*
X2034387Y1181455D01*
X2035657Y1183284D01*
X2036064Y1185672D01*
X2035556Y1188262D01*
X2034032Y1190498D01*
X2032000Y1191818D01*
X2030780Y1192174D01*
G37*
G36*
X1830832Y938276D02*
G01*
X1830832Y925576D01*
X1874012Y925576D01*
X1877466Y925118D01*
X1879904Y923645D01*
X1881378Y921308D01*
X1881886Y917956D01*
X1881886Y897128D01*
X1881428Y893571D01*
X1880057Y891032D01*
X1877720Y889508D01*
X1874520Y889000D01*
X1843532Y889000D01*
X1843532Y925576D01*
X1830832Y925576D01*
X1830933Y843635D01*
X1831289Y842314D01*
X1832610Y840232D01*
X1834642Y838911D01*
X1835861Y838555D01*
X1837182Y838453D01*
X1839975Y838962D01*
X1841957Y840536D01*
X1843125Y843178D01*
X1843532Y846836D01*
X1843532Y876046D01*
X1873504Y876046D01*
X1878177Y876401D01*
X1882343Y877417D01*
X1885950Y879195D01*
X1888998Y881634D01*
X1891436Y884682D01*
X1893163Y888288D01*
X1894230Y892454D01*
X1894586Y897128D01*
X1894586Y917956D01*
X1894230Y922324D01*
X1893265Y926185D01*
X1891588Y929690D01*
X1889252Y932687D01*
X1886356Y935126D01*
X1883105Y936853D01*
X1879396Y937920D01*
X1875282Y938276D01*
G37*
G36*
X1932432Y938276D02*
G01*
X1928774Y937869D01*
X1926132Y936701D01*
X1924557Y934719D01*
X1924050Y931926D01*
X1924557Y929132D01*
X1926132Y927150D01*
X1928774Y925982D01*
X1932432Y925576D01*
X1949196Y925576D01*
X1949196Y850900D01*
X1932432Y850900D01*
X1928774Y850493D01*
X1926132Y849325D01*
X1924557Y847344D01*
X1924050Y844550D01*
X1924557Y841756D01*
X1926132Y839774D01*
X1928774Y838606D01*
X1932432Y838200D01*
X1981454Y838200D01*
X1984095Y838606D01*
X1986025Y839927D01*
X1987143Y842060D01*
X1987550Y845058D01*
X1987550Y875030D01*
X1987143Y878687D01*
X1985975Y881329D01*
X1983993Y882903D01*
X1981200Y883412D01*
X1978406Y882903D01*
X1976424Y881329D01*
X1975256Y878687D01*
X1974850Y875030D01*
X1974850Y850900D01*
X1962150Y850900D01*
X1962150Y938276D01*
G37*
G36*
X2023618Y938276D02*
G01*
X2020620Y937818D01*
X2018487Y936447D01*
X2017166Y934110D01*
X2016760Y930910D01*
X2016760Y927100D01*
X2017166Y923899D01*
X2018385Y921562D01*
X2020468Y920191D01*
X2023364Y919734D01*
X2025650Y920089D01*
X2027428Y921207D01*
X2028698Y923036D01*
X2029460Y925576D01*
X2067560Y925576D01*
X2067560Y906271D01*
X2067356Y904341D01*
X2066848Y902563D01*
X2065985Y901039D01*
X2064766Y899668D01*
X2044446Y882142D01*
X2043531Y881176D01*
X2042922Y880059D01*
X2042515Y878738D01*
X2042414Y846836D01*
X2042820Y843178D01*
X2044039Y840536D01*
X2046122Y838962D01*
X2049018Y838453D01*
X2051659Y838962D01*
X2053589Y840536D01*
X2054707Y843178D01*
X2055114Y846836D01*
X2055114Y871219D01*
X2055266Y872693D01*
X2055723Y874064D01*
X2056536Y875385D01*
X2057654Y876553D01*
X2079091Y895197D01*
X2079853Y896467D01*
X2080361Y897991D01*
X2080514Y899668D01*
X2080514Y938276D01*
G37*
G36*
X1830832Y684276D02*
G01*
X1830832Y671576D01*
X1874012Y671576D01*
X1877466Y671118D01*
X1879904Y669645D01*
X1881378Y667308D01*
X1881886Y663956D01*
X1881886Y643128D01*
X1881428Y639572D01*
X1880057Y637032D01*
X1877720Y635508D01*
X1874520Y635000D01*
X1843532Y635000D01*
X1843532Y671576D01*
X1830832Y671576D01*
X1830933Y589635D01*
X1831289Y588314D01*
X1832610Y586232D01*
X1834642Y584911D01*
X1835861Y584555D01*
X1837182Y584454D01*
X1839975Y584962D01*
X1841957Y586536D01*
X1843125Y589178D01*
X1843532Y592836D01*
X1843532Y622046D01*
X1873504Y622046D01*
X1878177Y622401D01*
X1882343Y623417D01*
X1885950Y625195D01*
X1888998Y627634D01*
X1891436Y630682D01*
X1893163Y634288D01*
X1894230Y638454D01*
X1894586Y643128D01*
X1894586Y663956D01*
X1894230Y668324D01*
X1893265Y672185D01*
X1891588Y675690D01*
X1889252Y678688D01*
X1886356Y681126D01*
X1883105Y682853D01*
X1879396Y683920D01*
X1875282Y684276D01*
G37*
G36*
X1932432Y684276D02*
G01*
X1928774Y683869D01*
X1926132Y682701D01*
X1924557Y680720D01*
X1924050Y677926D01*
X1924557Y675132D01*
X1926132Y673150D01*
X1928774Y671982D01*
X1932432Y671576D01*
X1949196Y671576D01*
X1949196Y596900D01*
X1932432Y596900D01*
X1928774Y596493D01*
X1926132Y595325D01*
X1924557Y593344D01*
X1924050Y590550D01*
X1924557Y587756D01*
X1926132Y585774D01*
X1928774Y584606D01*
X1932432Y584200D01*
X1981454Y584200D01*
X1984095Y584606D01*
X1986025Y585927D01*
X1987143Y588060D01*
X1987550Y591058D01*
X1987550Y621030D01*
X1987143Y624687D01*
X1985975Y627329D01*
X1983993Y628904D01*
X1981200Y629412D01*
X1978406Y628904D01*
X1976424Y627329D01*
X1975256Y624687D01*
X1974850Y621030D01*
X1974850Y596900D01*
X1962150Y596900D01*
X1962150Y684276D01*
G37*
G36*
X2036064Y684276D02*
G01*
X2033168Y683869D01*
X2031085Y682548D01*
X2029866Y680415D01*
X2029460Y677418D01*
X2029460Y671576D01*
X2054860Y671576D01*
X2054860Y640334D01*
X2042414Y640334D01*
X2042414Y671576D01*
X2029460Y671576D01*
X2029460Y640334D01*
X2026869Y639978D01*
X2024481Y639267D01*
X2022297Y638098D01*
X2020316Y636524D01*
X2018741Y634644D01*
X2017623Y632510D01*
X2016963Y630174D01*
X2016760Y627634D01*
X2067560Y627634D01*
X2067560Y596900D01*
X2029460Y596900D01*
X2029460Y627634D01*
X2016760Y627634D01*
X2016760Y596138D01*
X2017014Y593902D01*
X2017725Y591769D01*
X2018893Y589686D01*
X2020570Y587756D01*
X2022551Y586181D01*
X2024634Y585063D01*
X2026869Y584403D01*
X2029206Y584200D01*
X2067560Y584200D01*
X2070150Y584454D01*
X2072487Y585165D01*
X2074722Y586333D01*
X2076704Y588010D01*
X2078380Y589991D01*
X2079548Y592124D01*
X2080260Y594461D01*
X2080514Y596900D01*
X2080514Y626872D01*
X2079701Y632307D01*
X2077262Y636320D01*
X2073198Y639013D01*
X2067560Y640334D01*
X2067458Y678840D01*
X2067102Y680161D01*
X2065782Y682244D01*
X2063750Y683768D01*
X2061210Y684276D01*
G37*
G36*
X1830832Y430276D02*
G01*
X1830832Y417576D01*
X1874012Y417576D01*
X1877466Y417118D01*
X1879904Y415645D01*
X1881378Y413308D01*
X1881886Y409956D01*
X1881886Y389128D01*
X1881428Y385572D01*
X1880057Y383032D01*
X1877720Y381508D01*
X1874520Y381000D01*
X1843532Y381000D01*
X1843532Y417576D01*
X1830832Y417576D01*
X1830933Y335635D01*
X1831289Y334314D01*
X1832610Y332232D01*
X1834642Y330911D01*
X1835861Y330555D01*
X1837182Y330454D01*
X1839975Y330962D01*
X1841957Y332536D01*
X1843125Y335178D01*
X1843532Y338836D01*
X1843532Y368046D01*
X1873504Y368046D01*
X1878177Y368401D01*
X1882343Y369417D01*
X1885950Y371195D01*
X1888998Y373634D01*
X1891436Y376682D01*
X1893163Y380288D01*
X1894230Y384454D01*
X1894586Y389128D01*
X1894586Y409956D01*
X1894230Y414324D01*
X1893265Y418185D01*
X1891588Y421690D01*
X1889252Y424688D01*
X1886356Y427126D01*
X1883105Y428853D01*
X1879396Y429920D01*
X1875282Y430276D01*
G37*
G36*
X1932432Y430276D02*
G01*
X1928774Y429869D01*
X1926132Y428701D01*
X1924557Y426720D01*
X1924050Y423926D01*
X1924557Y421132D01*
X1926132Y419150D01*
X1928774Y417982D01*
X1932432Y417576D01*
X1949196Y417576D01*
X1949196Y342900D01*
X1932432Y342900D01*
X1928774Y342493D01*
X1926132Y341325D01*
X1924557Y339344D01*
X1924050Y336550D01*
X1924557Y333756D01*
X1926132Y331774D01*
X1928774Y330606D01*
X1932432Y330200D01*
X1981454Y330200D01*
X1984095Y330606D01*
X1986025Y331927D01*
X1987143Y334060D01*
X1987550Y337058D01*
X1987550Y367030D01*
X1987143Y370687D01*
X1985975Y373329D01*
X1983993Y374904D01*
X1981200Y375412D01*
X1978406Y374904D01*
X1976424Y373329D01*
X1975256Y370687D01*
X1974850Y367030D01*
X1974850Y342900D01*
X1962150Y342900D01*
X1962150Y430276D01*
G37*
G36*
X2023618Y430276D02*
G01*
X2020620Y429869D01*
X2018487Y428599D01*
X2017166Y426567D01*
X2016760Y423672D01*
X2016760Y417576D01*
X2067560Y417576D01*
X2067560Y397256D01*
X2029460Y397256D01*
X2029460Y417576D01*
X2016760Y417576D01*
X2016760Y391414D01*
X2017115Y388416D01*
X2018284Y386283D01*
X2020163Y384962D01*
X2022856Y384556D01*
X2067560Y384556D01*
X2067560Y342900D01*
X2064766Y342239D01*
X2062784Y340918D01*
X2061616Y339039D01*
X2061210Y336550D01*
X2061667Y334111D01*
X2062988Y331978D01*
X2065121Y330657D01*
X2067560Y330200D01*
X2075383Y330301D01*
X2077516Y331216D01*
X2079345Y332892D01*
X2080006Y333959D01*
X2080514Y336296D01*
X2080514Y423672D01*
X2080006Y426262D01*
X2078482Y428498D01*
X2076450Y429818D01*
X2075230Y430174D01*
G37*
G36*
X1830832Y176276D02*
G01*
X1830832Y163576D01*
X1874012Y163576D01*
X1877466Y163118D01*
X1879904Y161645D01*
X1881378Y159308D01*
X1881886Y155956D01*
X1881886Y135128D01*
X1881428Y131572D01*
X1880057Y129032D01*
X1877720Y127508D01*
X1874520Y127000D01*
X1843532Y127000D01*
X1843532Y163576D01*
X1830832Y163576D01*
X1830933Y81635D01*
X1831289Y80314D01*
X1832610Y78232D01*
X1834642Y76911D01*
X1835861Y76555D01*
X1837182Y76454D01*
X1839975Y76962D01*
X1841957Y78536D01*
X1843125Y81178D01*
X1843532Y84836D01*
X1843532Y114046D01*
X1873504Y114046D01*
X1878177Y114401D01*
X1882343Y115417D01*
X1885950Y117195D01*
X1888998Y119633D01*
X1891436Y122682D01*
X1893163Y126288D01*
X1894230Y130454D01*
X1894586Y135128D01*
X1894586Y155956D01*
X1894230Y160324D01*
X1893265Y164185D01*
X1891588Y167690D01*
X1889252Y170688D01*
X1886356Y173126D01*
X1883105Y174853D01*
X1879396Y175920D01*
X1875282Y176276D01*
G37*
G36*
X1932432Y176276D02*
G01*
X1928672Y175869D01*
X1925929Y174701D01*
X1924354Y172720D01*
X1923796Y169926D01*
X1924354Y167132D01*
X1925929Y165150D01*
X1928672Y163982D01*
X1932432Y163576D01*
X1974596Y163576D01*
X1974596Y132588D01*
X1936750Y132588D01*
X1934057Y132384D01*
X1931670Y131673D01*
X1929485Y130606D01*
X1927606Y129032D01*
X1925929Y127000D01*
X1924761Y124764D01*
X1924050Y122326D01*
X1923796Y119633D01*
X1923796Y76200D01*
X1978914Y76200D01*
X1982571Y76606D01*
X1985213Y77774D01*
X1986788Y79756D01*
X1987296Y82550D01*
X1986788Y85344D01*
X1985213Y87325D01*
X1982571Y88493D01*
X1978914Y88900D01*
X1936750Y88900D01*
X1936750Y119633D01*
X1974596Y119633D01*
X1977186Y119887D01*
X1979523Y120599D01*
X1981758Y121767D01*
X1983739Y123444D01*
X1985314Y125323D01*
X1986381Y127508D01*
X1987092Y129895D01*
X1987296Y132588D01*
X1987296Y162814D01*
X1987092Y165608D01*
X1986381Y168148D01*
X1985314Y170434D01*
X1983739Y172466D01*
X1981758Y174142D01*
X1979523Y175310D01*
X1977186Y176022D01*
X1974596Y176276D01*
G37*
G36*
X2029460Y176276D02*
G01*
X2026970Y176022D01*
X2024684Y175310D01*
X2022551Y174142D01*
X2020570Y172466D01*
X2018893Y170484D01*
X2017725Y168351D01*
X2017014Y166014D01*
X2016760Y163576D01*
X2067560Y163576D01*
X2067560Y88900D01*
X2029460Y88900D01*
X2029460Y163576D01*
X2016760Y163576D01*
X2016760Y88900D01*
X2017014Y86461D01*
X2017725Y84124D01*
X2018893Y81991D01*
X2020570Y80010D01*
X2022449Y78333D01*
X2024481Y77165D01*
X2026767Y76454D01*
X2029206Y76200D01*
X2067560Y76200D01*
X2070049Y76403D01*
X2072386Y77063D01*
X2074621Y78181D01*
X2076704Y79756D01*
X2078380Y81635D01*
X2079548Y83616D01*
X2080260Y85801D01*
X2080514Y88138D01*
X2080514Y162814D01*
X2080260Y165608D01*
X2079548Y168148D01*
X2078380Y170434D01*
X2076704Y172466D01*
X2074773Y174142D01*
X2072639Y175310D01*
X2070201Y176022D01*
X2067560Y176276D01*
G37*
G36*
X1830832Y-77724D02*
G01*
X1830832Y-90424D01*
X1874012Y-90424D01*
X1877466Y-90881D01*
X1879904Y-92354D01*
X1881378Y-94691D01*
X1881886Y-98044D01*
X1881886Y-118872D01*
X1881428Y-122428D01*
X1880057Y-124968D01*
X1877720Y-126492D01*
X1874520Y-127000D01*
X1843532Y-127000D01*
X1843532Y-90424D01*
X1830832Y-90424D01*
X1830933Y-172364D01*
X1831289Y-173685D01*
X1832610Y-175768D01*
X1834642Y-177088D01*
X1835861Y-177444D01*
X1837182Y-177546D01*
X1839975Y-177038D01*
X1841957Y-175463D01*
X1843125Y-172821D01*
X1843532Y-169164D01*
X1843532Y-139954D01*
X1873504Y-139954D01*
X1878177Y-139598D01*
X1882343Y-138582D01*
X1885950Y-136804D01*
X1888998Y-134366D01*
X1891436Y-131318D01*
X1893163Y-127711D01*
X1894230Y-123545D01*
X1894586Y-118872D01*
X1894586Y-98044D01*
X1894230Y-93675D01*
X1893265Y-89814D01*
X1891588Y-86309D01*
X1889252Y-83312D01*
X1886356Y-80873D01*
X1883105Y-79146D01*
X1879396Y-78079D01*
X1875282Y-77724D01*
G37*
G36*
X1932432Y-77724D02*
G01*
X1928672Y-78130D01*
X1925929Y-79298D01*
X1924354Y-81280D01*
X1923796Y-84074D01*
X1924354Y-86868D01*
X1925929Y-88849D01*
X1928672Y-90017D01*
X1932432Y-90424D01*
X1974596Y-90424D01*
X1974596Y-121412D01*
X1936750Y-121412D01*
X1934057Y-121615D01*
X1931670Y-122326D01*
X1929485Y-123393D01*
X1927606Y-124968D01*
X1925929Y-127000D01*
X1924761Y-129235D01*
X1924050Y-131673D01*
X1923796Y-134366D01*
X1923796Y-177800D01*
X1978914Y-177800D01*
X1982571Y-177393D01*
X1985213Y-176225D01*
X1986788Y-174244D01*
X1987296Y-171450D01*
X1986788Y-168656D01*
X1985213Y-166674D01*
X1982571Y-165506D01*
X1978914Y-165100D01*
X1936750Y-165100D01*
X1936750Y-134366D01*
X1974596Y-134366D01*
X1977186Y-134112D01*
X1979523Y-133400D01*
X1981758Y-132232D01*
X1983739Y-130556D01*
X1985314Y-128676D01*
X1986381Y-126492D01*
X1987092Y-124104D01*
X1987296Y-121412D01*
X1987296Y-91186D01*
X1987092Y-88392D01*
X1986381Y-85852D01*
X1985314Y-83566D01*
X1983739Y-81534D01*
X1981758Y-79857D01*
X1979523Y-78689D01*
X1977186Y-77978D01*
X1974596Y-77724D01*
G37*
G36*
X2029460Y-77724D02*
G01*
X2026970Y-77978D01*
X2024684Y-78689D01*
X2022551Y-79857D01*
X2020570Y-81534D01*
X2018893Y-83515D01*
X2017725Y-85648D01*
X2017014Y-87985D01*
X2016760Y-90424D01*
X2067560Y-90424D01*
X2067560Y-165100D01*
X2029460Y-165100D01*
X2029460Y-90424D01*
X2016760Y-90424D01*
X2016760Y-165100D01*
X2017014Y-167538D01*
X2017725Y-169875D01*
X2018893Y-172008D01*
X2020570Y-173990D01*
X2022449Y-175666D01*
X2024481Y-176834D01*
X2026767Y-177546D01*
X2029206Y-177800D01*
X2067560Y-177800D01*
X2070049Y-177596D01*
X2072386Y-176936D01*
X2074621Y-175818D01*
X2076704Y-174244D01*
X2078380Y-172364D01*
X2079548Y-170383D01*
X2080260Y-168198D01*
X2080514Y-165862D01*
X2080514Y-91186D01*
X2080260Y-88392D01*
X2079548Y-85852D01*
X2078380Y-83566D01*
X2076704Y-81534D01*
X2074773Y-79857D01*
X2072639Y-78689D01*
X2070201Y-77978D01*
X2067560Y-77724D01*
G37*
G36*
X1830832Y-331724D02*
G01*
X1830832Y-344424D01*
X1874012Y-344424D01*
X1877466Y-344881D01*
X1879904Y-346354D01*
X1881378Y-348691D01*
X1881886Y-352044D01*
X1881886Y-372872D01*
X1881428Y-376428D01*
X1880057Y-378968D01*
X1877720Y-380492D01*
X1874520Y-381000D01*
X1843532Y-381000D01*
X1843532Y-344424D01*
X1830832Y-344424D01*
X1830933Y-426364D01*
X1831289Y-427685D01*
X1832610Y-429768D01*
X1834642Y-431088D01*
X1835861Y-431444D01*
X1837182Y-431546D01*
X1839975Y-431038D01*
X1841957Y-429463D01*
X1843125Y-426821D01*
X1843532Y-423164D01*
X1843532Y-393954D01*
X1873504Y-393954D01*
X1878177Y-393598D01*
X1882343Y-392582D01*
X1885950Y-390804D01*
X1888998Y-388366D01*
X1891436Y-385318D01*
X1893163Y-381711D01*
X1894230Y-377545D01*
X1894586Y-372872D01*
X1894586Y-352044D01*
X1894230Y-347675D01*
X1893265Y-343814D01*
X1891588Y-340309D01*
X1889252Y-337312D01*
X1886356Y-334873D01*
X1883105Y-333146D01*
X1879396Y-332079D01*
X1875282Y-331724D01*
G37*
G36*
X1932432Y-331724D02*
G01*
X1928672Y-332130D01*
X1925929Y-333298D01*
X1924354Y-335280D01*
X1923796Y-338074D01*
X1924354Y-340868D01*
X1925929Y-342849D01*
X1928672Y-344017D01*
X1932432Y-344424D01*
X1974596Y-344424D01*
X1974596Y-375412D01*
X1936750Y-375412D01*
X1934057Y-375615D01*
X1931670Y-376326D01*
X1929485Y-377393D01*
X1927606Y-378968D01*
X1925929Y-381000D01*
X1924761Y-383235D01*
X1924050Y-385673D01*
X1923796Y-388366D01*
X1923796Y-431800D01*
X1978914Y-431800D01*
X1982571Y-431393D01*
X1985213Y-430225D01*
X1986788Y-428243D01*
X1987296Y-425450D01*
X1986788Y-422656D01*
X1985213Y-420674D01*
X1982571Y-419506D01*
X1978914Y-419100D01*
X1936750Y-419100D01*
X1936750Y-388366D01*
X1974596Y-388366D01*
X1977186Y-388112D01*
X1979523Y-387400D01*
X1981758Y-386232D01*
X1983739Y-384556D01*
X1985314Y-382676D01*
X1986381Y-380492D01*
X1987092Y-378104D01*
X1987296Y-375412D01*
X1987296Y-345186D01*
X1987092Y-342392D01*
X1986381Y-339852D01*
X1985314Y-337566D01*
X1983739Y-335534D01*
X1981758Y-333857D01*
X1979523Y-332689D01*
X1977186Y-331978D01*
X1974596Y-331724D01*
G37*
G36*
X2025396Y-331724D02*
G01*
X2021738Y-332130D01*
X2019096Y-333298D01*
X2017522Y-335280D01*
X2017014Y-338074D01*
X2017522Y-340868D01*
X2019096Y-342849D01*
X2021738Y-344017D01*
X2025396Y-344424D01*
X2042414Y-344424D01*
X2042414Y-419100D01*
X2025396Y-419100D01*
X2021738Y-419506D01*
X2019096Y-420674D01*
X2017522Y-422656D01*
X2017014Y-425450D01*
X2017522Y-428243D01*
X2019096Y-430225D01*
X2021738Y-431393D01*
X2025396Y-431800D01*
X2074672Y-431800D01*
X2077212Y-431393D01*
X2079040Y-430072D01*
X2080158Y-427939D01*
X2080514Y-424942D01*
X2080514Y-394970D01*
X2080107Y-391312D01*
X2078939Y-388670D01*
X2076957Y-387096D01*
X2074164Y-386588D01*
X2071370Y-387096D01*
X2069388Y-388670D01*
X2068220Y-391312D01*
X2067814Y-394970D01*
X2067814Y-419100D01*
X2055114Y-419100D01*
X2055114Y-331724D01*
G37*
G36*
X2141728Y-498856D02*
G01*
X2137613Y-499618D01*
X2134666Y-501954D01*
X2132888Y-505866D01*
X2132330Y-511301D01*
X2132330Y-535432D01*
X2113026Y-518922D01*
X2110587Y-517042D01*
X2108403Y-515670D01*
X2106422Y-514858D01*
X2104644Y-514604D01*
X2102713Y-514756D01*
X2100935Y-515213D01*
X2099411Y-516026D01*
X2098040Y-517143D01*
X2096820Y-518617D01*
X2095957Y-520293D01*
X2095398Y-522173D01*
X2095246Y-524256D01*
X2095601Y-526135D01*
X2096617Y-528167D01*
X2098395Y-530453D01*
X2100834Y-532892D01*
X2127250Y-555752D01*
X2100834Y-578358D01*
X2098395Y-580745D01*
X2096617Y-582980D01*
X2095601Y-585165D01*
X2095246Y-587248D01*
X2095398Y-589178D01*
X2095957Y-591007D01*
X2096820Y-592632D01*
X2098040Y-594106D01*
X2099411Y-595325D01*
X2100935Y-596188D01*
X2102713Y-596747D01*
X2104644Y-596900D01*
X2106422Y-596646D01*
X2108403Y-595833D01*
X2110587Y-594461D01*
X2113026Y-592582D01*
X2132330Y-576072D01*
X2132330Y-600710D01*
X2132888Y-606145D01*
X2134666Y-610057D01*
X2137613Y-612394D01*
X2141728Y-613156D01*
X2145842Y-612394D01*
X2148789Y-610057D01*
X2150516Y-606145D01*
X2151126Y-600710D01*
X2151126Y-576072D01*
X2170430Y-592582D01*
X2172868Y-594461D01*
X2175052Y-595833D01*
X2177034Y-596646D01*
X2178812Y-596900D01*
X2180640Y-596747D01*
X2182368Y-596239D01*
X2183942Y-595477D01*
X2185416Y-594360D01*
X2186635Y-592886D01*
X2187498Y-591159D01*
X2188006Y-589330D01*
X2188210Y-587248D01*
X2187854Y-585165D01*
X2186787Y-582980D01*
X2185060Y-580745D01*
X2182622Y-578358D01*
X2156206Y-555752D01*
X2182622Y-532892D01*
X2185060Y-530453D01*
X2186787Y-528167D01*
X2187854Y-526135D01*
X2188210Y-524256D01*
X2188006Y-522173D01*
X2187498Y-520293D01*
X2186635Y-518617D01*
X2185416Y-517143D01*
X2183942Y-516026D01*
X2182368Y-515213D01*
X2180640Y-514756D01*
X2178812Y-514604D01*
X2177034Y-514858D01*
X2175052Y-515670D01*
X2172868Y-517042D01*
X2170430Y-518922D01*
X2151126Y-535432D01*
X2151126Y-511301D01*
X2150516Y-505866D01*
X2148789Y-501954D01*
X2145842Y-499618D01*
G37*
G36*
X1830832Y-585724D02*
G01*
X1830832Y-598424D01*
X1874012Y-598424D01*
X1877466Y-598881D01*
X1879904Y-600354D01*
X1881378Y-602691D01*
X1881886Y-606044D01*
X1881886Y-626872D01*
X1881428Y-630428D01*
X1880057Y-632968D01*
X1877720Y-634492D01*
X1874520Y-635000D01*
X1843532Y-635000D01*
X1843532Y-598424D01*
X1830832Y-598424D01*
X1830933Y-680364D01*
X1831289Y-681685D01*
X1832610Y-683768D01*
X1834642Y-685088D01*
X1835861Y-685444D01*
X1837182Y-685546D01*
X1839975Y-685038D01*
X1841957Y-683463D01*
X1843125Y-680821D01*
X1843532Y-677164D01*
X1843532Y-647954D01*
X1873504Y-647954D01*
X1878177Y-647598D01*
X1882343Y-646582D01*
X1885950Y-644804D01*
X1888998Y-642366D01*
X1891436Y-639318D01*
X1893163Y-635711D01*
X1894230Y-631545D01*
X1894586Y-626872D01*
X1894586Y-606044D01*
X1894230Y-601675D01*
X1893265Y-597814D01*
X1891588Y-594309D01*
X1889252Y-591312D01*
X1886356Y-588873D01*
X1883105Y-587146D01*
X1879396Y-586079D01*
X1875282Y-585724D01*
G37*
G36*
X1932432Y-585724D02*
G01*
X1928672Y-586130D01*
X1925929Y-587298D01*
X1924354Y-589280D01*
X1923796Y-592074D01*
X1924354Y-594868D01*
X1925929Y-596849D01*
X1928672Y-598017D01*
X1932432Y-598424D01*
X1974596Y-598424D01*
X1974596Y-629412D01*
X1936750Y-629412D01*
X1934057Y-629615D01*
X1931670Y-630326D01*
X1929485Y-631393D01*
X1927606Y-632968D01*
X1925929Y-635000D01*
X1924761Y-637235D01*
X1924050Y-639673D01*
X1923796Y-642366D01*
X1923796Y-685800D01*
X1978914Y-685800D01*
X1982571Y-685393D01*
X1985213Y-684225D01*
X1986788Y-682244D01*
X1987296Y-679450D01*
X1986788Y-676656D01*
X1985213Y-674674D01*
X1982571Y-673506D01*
X1978914Y-673100D01*
X1936750Y-673100D01*
X1936750Y-642366D01*
X1974596Y-642366D01*
X1977186Y-642112D01*
X1979523Y-641400D01*
X1981758Y-640232D01*
X1983739Y-638556D01*
X1985314Y-636676D01*
X1986381Y-634492D01*
X1987092Y-632104D01*
X1987296Y-629412D01*
X1987296Y-599186D01*
X1987092Y-596392D01*
X1986381Y-593852D01*
X1985314Y-591566D01*
X1983739Y-589534D01*
X1981758Y-587857D01*
X1979523Y-586689D01*
X1977186Y-585978D01*
X1974596Y-585724D01*
G37*
G36*
X2025142Y-585724D02*
G01*
X2021484Y-586130D01*
X2018842Y-587298D01*
X2017268Y-589280D01*
X2016760Y-592074D01*
X2017268Y-594868D01*
X2018842Y-596849D01*
X2021484Y-598017D01*
X2025142Y-598424D01*
X2067052Y-598424D01*
X2067052Y-621538D01*
X2066645Y-625094D01*
X2065477Y-627634D01*
X2063496Y-629158D01*
X2060702Y-629666D01*
X2037842Y-629666D01*
X2034184Y-630072D01*
X2031542Y-631240D01*
X2029968Y-633222D01*
X2029460Y-636016D01*
X2029968Y-638810D01*
X2031542Y-640791D01*
X2034184Y-641959D01*
X2037842Y-642366D01*
X2060448Y-642366D01*
X2063445Y-642823D01*
X2065578Y-644296D01*
X2066899Y-646633D01*
X2067306Y-649986D01*
X2067306Y-673100D01*
X2025142Y-673100D01*
X2021484Y-673506D01*
X2018842Y-674674D01*
X2017268Y-676656D01*
X2016760Y-679450D01*
X2017268Y-682244D01*
X2018842Y-684225D01*
X2021484Y-685393D01*
X2025142Y-685800D01*
X2067306Y-685800D01*
X2069896Y-685596D01*
X2072233Y-684936D01*
X2074468Y-683818D01*
X2076450Y-682244D01*
X2078126Y-680262D01*
X2079294Y-678078D01*
X2080006Y-675690D01*
X2080260Y-673100D01*
X2080260Y-648970D01*
X2079955Y-645312D01*
X2078989Y-641858D01*
X2077415Y-638708D01*
X2075180Y-635762D01*
X2077262Y-633374D01*
X2078786Y-630732D01*
X2079701Y-627888D01*
X2080006Y-624840D01*
X2080006Y-596900D01*
X2079752Y-594715D01*
X2079040Y-592632D01*
X2077872Y-590753D01*
X2076196Y-589026D01*
X2074214Y-587603D01*
X2072081Y-586536D01*
X2069744Y-585927D01*
X2067306Y-585724D01*
G37*
G36*
X1837182Y-839724D02*
G01*
X1834388Y-840282D01*
X1832406Y-841908D01*
X1831238Y-844600D01*
X1830832Y-848360D01*
X1830882Y-867460D01*
X1831238Y-870000D01*
X1856486Y-935482D01*
X1857552Y-937361D01*
X1858975Y-938733D01*
X1860702Y-939546D01*
X1862836Y-939800D01*
X1864817Y-939546D01*
X1866442Y-938733D01*
X1867712Y-937361D01*
X1868678Y-935482D01*
X1893773Y-870712D01*
X1894281Y-867511D01*
X1894332Y-848106D01*
X1893925Y-844448D01*
X1892757Y-841806D01*
X1890775Y-840232D01*
X1887982Y-839724D01*
X1885188Y-840232D01*
X1883206Y-841806D01*
X1882038Y-844448D01*
X1881632Y-848106D01*
X1881632Y-866648D01*
X1862582Y-915924D01*
X1843532Y-866648D01*
X1843532Y-848360D01*
X1843125Y-844600D01*
X1841957Y-841908D01*
X1839975Y-840282D01*
G37*
G36*
X1957324Y-839724D02*
G01*
X1951634Y-840384D01*
X1946859Y-842467D01*
X1942896Y-845870D01*
X1939798Y-850646D01*
X1926589Y-877316D01*
X1925370Y-880211D01*
X1924507Y-883208D01*
X1923948Y-886409D01*
X1923796Y-889762D01*
X1923948Y-893114D01*
X1924507Y-896315D01*
X1925370Y-899312D01*
X1926589Y-902208D01*
X1939798Y-928878D01*
X1942846Y-933653D01*
X1946656Y-937056D01*
X1951228Y-939139D01*
X1956562Y-939800D01*
X1978914Y-939800D01*
X1982571Y-939393D01*
X1985213Y-938225D01*
X1986788Y-936244D01*
X1987296Y-933450D01*
X1986788Y-930656D01*
X1985213Y-928674D01*
X1982571Y-927506D01*
X1978914Y-927100D01*
X1958339Y-927100D01*
X1955952Y-926846D01*
X1953971Y-926033D01*
X1952294Y-924661D01*
X1950974Y-922782D01*
X1938528Y-897636D01*
X1937207Y-893826D01*
X1936851Y-891946D01*
X1936851Y-887882D01*
X1937766Y-883666D01*
X1938528Y-881634D01*
X1951228Y-856487D01*
X1952396Y-854710D01*
X1953869Y-853440D01*
X1955698Y-852678D01*
X1957832Y-852424D01*
X1978914Y-852424D01*
X1982571Y-852017D01*
X1985213Y-850849D01*
X1986788Y-848868D01*
X1987296Y-846074D01*
X1986788Y-843280D01*
X1985213Y-841298D01*
X1982571Y-840130D01*
X1978914Y-839724D01*
G37*
G36*
X2050288Y-839724D02*
G01*
X2044700Y-840384D01*
X2039924Y-842467D01*
X2035962Y-845870D01*
X2032762Y-850646D01*
X2019554Y-877316D01*
X2018334Y-880211D01*
X2017471Y-883208D01*
X2016912Y-886409D01*
X2016760Y-889762D01*
X2016912Y-893114D01*
X2017471Y-896315D01*
X2018334Y-899312D01*
X2019554Y-902208D01*
X2032762Y-928878D01*
X2035911Y-933653D01*
X2039823Y-937056D01*
X2044446Y-939139D01*
X2049780Y-939800D01*
X2071878Y-939800D01*
X2075637Y-939393D01*
X2078329Y-938225D01*
X2079955Y-936244D01*
X2080514Y-933450D01*
X2079955Y-930656D01*
X2078329Y-928674D01*
X2075637Y-927506D01*
X2071878Y-927100D01*
X2051304Y-927100D01*
X2048916Y-926846D01*
X2046935Y-926033D01*
X2045258Y-924661D01*
X2043938Y-922782D01*
X2030831Y-895756D01*
X2029815Y-891946D01*
X2029815Y-887882D01*
X2030831Y-883666D01*
X2044192Y-856487D01*
X2045360Y-854710D01*
X2046833Y-853440D01*
X2048662Y-852678D01*
X2050796Y-852424D01*
X2071878Y-852424D01*
X2075637Y-852017D01*
X2078329Y-850849D01*
X2079955Y-848868D01*
X2080514Y-846074D01*
X2079955Y-843280D01*
X2078329Y-841298D01*
X2075637Y-840130D01*
X2071878Y-839724D01*
G37*
G36*
X1869439Y-1093724D02*
G01*
X1864715Y-1094181D01*
X1860550Y-1095654D01*
X1856841Y-1097991D01*
X1853692Y-1101344D01*
X1836928Y-1123188D01*
X1834235Y-1126947D01*
X1832356Y-1130858D01*
X1831187Y-1134973D01*
X1830832Y-1139190D01*
X1830832Y-1174496D01*
X1831187Y-1178407D01*
X1832203Y-1182014D01*
X1833981Y-1185265D01*
X1836420Y-1188212D01*
X1839366Y-1190650D01*
X1842617Y-1192428D01*
X1846224Y-1193444D01*
X1850136Y-1193800D01*
X1875536Y-1193800D01*
X1879193Y-1193444D01*
X1882648Y-1192428D01*
X1885797Y-1190650D01*
X1888743Y-1188212D01*
X1891284Y-1185316D01*
X1893112Y-1182166D01*
X1894230Y-1178814D01*
X1894586Y-1175258D01*
X1894586Y-1148588D01*
X1871218Y-1148588D01*
X1867458Y-1148994D01*
X1864715Y-1150162D01*
X1863140Y-1152144D01*
X1862582Y-1154938D01*
X1863140Y-1157732D01*
X1864715Y-1159713D01*
X1867458Y-1160881D01*
X1871218Y-1161288D01*
X1881886Y-1161288D01*
X1881886Y-1173480D01*
X1881428Y-1176832D01*
X1880107Y-1179220D01*
X1877872Y-1180642D01*
X1874774Y-1181100D01*
X1851152Y-1181100D01*
X1847900Y-1180642D01*
X1845614Y-1179220D01*
X1844243Y-1176832D01*
X1843786Y-1173480D01*
X1843786Y-1140968D01*
X1843989Y-1138174D01*
X1844548Y-1135583D01*
X1845513Y-1133195D01*
X1846834Y-1131062D01*
X1864817Y-1108100D01*
X1866138Y-1106932D01*
X1867865Y-1106576D01*
X1885950Y-1106424D01*
X1889607Y-1106017D01*
X1892249Y-1104849D01*
X1893824Y-1102868D01*
X1894332Y-1100074D01*
X1893824Y-1097280D01*
X1892249Y-1095298D01*
X1889607Y-1094130D01*
X1885950Y-1093724D01*
G37*
G36*
X1923796Y-1093724D02*
G01*
X1923796Y-1185164D01*
X1924202Y-1188923D01*
X1925370Y-1191666D01*
X1927352Y-1193241D01*
X1930146Y-1193800D01*
X1932939Y-1193241D01*
X1934921Y-1191666D01*
X1936089Y-1188923D01*
X1936496Y-1185164D01*
X1936496Y-1116584D01*
X1970532Y-1193800D01*
X1987296Y-1193800D01*
X1987296Y-1102360D01*
X1986889Y-1098600D01*
X1985721Y-1095908D01*
X1983739Y-1094282D01*
X1980946Y-1093724D01*
X1978152Y-1094282D01*
X1976170Y-1095908D01*
X1975002Y-1098600D01*
X1974596Y-1102360D01*
X1974596Y-1171702D01*
X1940814Y-1093724D01*
G37*
G36*
X2025142Y-1093724D02*
G01*
X2021484Y-1094130D01*
X2018842Y-1095298D01*
X2017268Y-1097280D01*
X2016760Y-1100074D01*
X2017268Y-1102868D01*
X2018842Y-1104849D01*
X2021484Y-1106017D01*
X2025142Y-1106424D01*
X2046224Y-1106424D01*
X2048357Y-1106678D01*
X2050135Y-1107440D01*
X2051659Y-1108710D01*
X2052828Y-1110488D01*
X2066137Y-1137564D01*
X2067407Y-1141882D01*
X2067458Y-1145641D01*
X2066543Y-1149350D01*
X2053082Y-1177036D01*
X2051913Y-1178814D01*
X2050389Y-1180084D01*
X2048611Y-1180846D01*
X2046478Y-1181100D01*
X2042160Y-1181100D01*
X2042160Y-1106424D01*
X2029460Y-1106424D01*
X2029460Y-1181100D01*
X2025142Y-1181100D01*
X2021484Y-1181506D01*
X2018842Y-1182674D01*
X2017268Y-1184656D01*
X2016760Y-1187450D01*
X2017268Y-1190244D01*
X2018842Y-1192225D01*
X2021484Y-1193393D01*
X2025142Y-1193800D01*
X2045970Y-1193800D01*
X2051964Y-1193139D01*
X2056993Y-1191158D01*
X2061108Y-1187805D01*
X2064257Y-1183132D01*
X2077212Y-1156970D01*
X2078532Y-1153820D01*
X2079498Y-1150569D01*
X2080056Y-1147114D01*
X2080260Y-1143508D01*
X2080056Y-1140307D01*
X2079498Y-1137107D01*
X2078532Y-1133856D01*
X2077212Y-1130554D01*
X2064512Y-1104900D01*
X2061311Y-1100023D01*
X2057400Y-1096518D01*
X2052675Y-1094435D01*
X2047239Y-1093724D01*
G37*
G36*
X-3249168Y-1081024D02*
G01*
X-3249168Y-1093724D01*
X-3205988Y-1093724D01*
X-3202533Y-1094181D01*
X-3200095Y-1095603D01*
X-3198622Y-1097991D01*
X-3198114Y-1101344D01*
X-3198114Y-1122172D01*
X-3198571Y-1125728D01*
X-3199942Y-1128268D01*
X-3202279Y-1129792D01*
X-3205480Y-1130300D01*
X-3236468Y-1130300D01*
X-3236468Y-1093724D01*
X-3249168Y-1093724D01*
X-3249066Y-1175664D01*
X-3248710Y-1176985D01*
X-3247390Y-1179068D01*
X-3245358Y-1180388D01*
X-3244138Y-1180744D01*
X-3242818Y-1180846D01*
X-3240024Y-1180338D01*
X-3238042Y-1178763D01*
X-3236874Y-1176121D01*
X-3236468Y-1172464D01*
X-3236468Y-1143254D01*
X-3206496Y-1143254D01*
X-3201822Y-1142898D01*
X-3197656Y-1141882D01*
X-3194050Y-1140104D01*
X-3191002Y-1137666D01*
X-3188563Y-1134618D01*
X-3186836Y-1131011D01*
X-3185769Y-1126845D01*
X-3185414Y-1122172D01*
X-3185414Y-1101344D01*
X-3185769Y-1096975D01*
X-3186734Y-1093114D01*
X-3188411Y-1089609D01*
X-3190748Y-1086612D01*
X-3193643Y-1084173D01*
X-3196894Y-1082446D01*
X-3200603Y-1081379D01*
X-3204718Y-1081024D01*
G37*
G36*
X-3143504Y-1081024D02*
G01*
X-3145942Y-1081278D01*
X-3148279Y-1081989D01*
X-3150412Y-1083157D01*
X-3152394Y-1084834D01*
X-3154070Y-1086815D01*
X-3155238Y-1088948D01*
X-3155950Y-1091285D01*
X-3156204Y-1093724D01*
X-3105404Y-1093724D01*
X-3105404Y-1168400D01*
X-3143504Y-1168400D01*
X-3143504Y-1093724D01*
X-3156204Y-1093724D01*
X-3156204Y-1168400D01*
X-3155950Y-1170838D01*
X-3155238Y-1173175D01*
X-3154070Y-1175308D01*
X-3152394Y-1177290D01*
X-3150514Y-1178966D01*
X-3148533Y-1180134D01*
X-3146348Y-1180846D01*
X-3144012Y-1181100D01*
X-3105404Y-1181100D01*
X-3102965Y-1180896D01*
X-3100628Y-1180236D01*
X-3098495Y-1179118D01*
X-3096514Y-1177544D01*
X-3094837Y-1175664D01*
X-3093669Y-1173683D01*
X-3092958Y-1171498D01*
X-3092704Y-1169162D01*
X-3092704Y-1094486D01*
X-3092907Y-1091692D01*
X-3093618Y-1089152D01*
X-3094685Y-1086866D01*
X-3096260Y-1084834D01*
X-3098139Y-1083157D01*
X-3100324Y-1081989D01*
X-3102762Y-1081278D01*
X-3105404Y-1081024D01*
G37*
G36*
X-3043936Y-1081024D02*
G01*
X-3046831Y-1081430D01*
X-3048863Y-1082751D01*
X-3050133Y-1084884D01*
X-3050540Y-1087882D01*
X-3050540Y-1093724D01*
X-3025140Y-1093724D01*
X-3025140Y-1124966D01*
X-3037586Y-1124966D01*
X-3037586Y-1093724D01*
X-3050540Y-1093724D01*
X-3050540Y-1124966D01*
X-3053130Y-1125321D01*
X-3055518Y-1126032D01*
X-3057702Y-1127201D01*
X-3059684Y-1128776D01*
X-3061258Y-1130655D01*
X-3062325Y-1132789D01*
X-3063036Y-1135126D01*
X-3063240Y-1137666D01*
X-3012440Y-1137666D01*
X-3012440Y-1168400D01*
X-3050540Y-1168400D01*
X-3050540Y-1137666D01*
X-3063240Y-1137666D01*
X-3063240Y-1169162D01*
X-3062986Y-1171397D01*
X-3062274Y-1173530D01*
X-3061106Y-1175613D01*
X-3059430Y-1177544D01*
X-3057448Y-1179118D01*
X-3055366Y-1180236D01*
X-3053130Y-1180896D01*
X-3050794Y-1181100D01*
X-3012440Y-1181100D01*
X-3009849Y-1180846D01*
X-3007512Y-1180134D01*
X-3005277Y-1178966D01*
X-3003296Y-1177290D01*
X-3001619Y-1175308D01*
X-3000451Y-1173175D01*
X-2999740Y-1170838D01*
X-2999486Y-1168400D01*
X-2999486Y-1138428D01*
X-3000298Y-1132992D01*
X-3002737Y-1128979D01*
X-3006750Y-1126286D01*
X-3012440Y-1124966D01*
X-3012541Y-1086459D01*
X-3012897Y-1085138D01*
X-3014218Y-1083056D01*
X-3016250Y-1081532D01*
X-3018790Y-1081024D01*
G37*
G36*
X-3240786Y1192276D02*
G01*
X-3244545Y1191869D01*
X-3247237Y1190701D01*
X-3248863Y1188720D01*
X-3249422Y1185926D01*
X-3248863Y1183132D01*
X-3247237Y1181150D01*
X-3244545Y1179982D01*
X-3240786Y1179576D01*
X-3219704Y1179576D01*
X-3217570Y1179322D01*
X-3215741Y1178560D01*
X-3214268Y1177290D01*
X-3213100Y1175512D01*
X-3200044Y1148435D01*
X-3199231Y1146149D01*
X-3198774Y1144117D01*
X-3198723Y1140358D01*
X-3199638Y1136650D01*
X-3212846Y1108964D01*
X-3214014Y1107186D01*
X-3215487Y1105916D01*
X-3217316Y1105154D01*
X-3219450Y1104900D01*
X-3223768Y1104900D01*
X-3223768Y1179576D01*
X-3236468Y1179576D01*
X-3236468Y1104900D01*
X-3240786Y1104900D01*
X-3244545Y1104493D01*
X-3247237Y1103325D01*
X-3248863Y1101344D01*
X-3249422Y1098550D01*
X-3248863Y1095756D01*
X-3247237Y1093774D01*
X-3244545Y1092606D01*
X-3240786Y1092200D01*
X-3219958Y1092200D01*
X-3213963Y1092860D01*
X-3208883Y1094841D01*
X-3204819Y1098194D01*
X-3201670Y1102868D01*
X-3188716Y1129030D01*
X-3187395Y1132128D01*
X-3186430Y1135430D01*
X-3185871Y1138885D01*
X-3185668Y1142492D01*
X-3185871Y1145692D01*
X-3186480Y1148892D01*
X-3187547Y1152144D01*
X-3188970Y1155446D01*
X-3201416Y1181100D01*
X-3204565Y1185976D01*
X-3208528Y1189482D01*
X-3213201Y1191564D01*
X-3218688Y1192276D01*
G37*
G36*
X-3147568Y1192276D02*
G01*
X-3151327Y1191869D01*
X-3154019Y1190701D01*
X-3155645Y1188720D01*
X-3156204Y1185926D01*
X-3155645Y1183132D01*
X-3154019Y1181150D01*
X-3151327Y1179982D01*
X-3147568Y1179576D01*
X-3130804Y1179576D01*
X-3130804Y1104900D01*
X-3147314Y1104900D01*
X-3151073Y1104493D01*
X-3153765Y1103325D01*
X-3155391Y1101344D01*
X-3155950Y1098550D01*
X-3155391Y1095756D01*
X-3153765Y1093774D01*
X-3151073Y1092606D01*
X-3147314Y1092200D01*
X-3101086Y1092200D01*
X-3097428Y1092606D01*
X-3094786Y1093774D01*
X-3093212Y1095756D01*
X-3092704Y1098550D01*
X-3093212Y1101344D01*
X-3094786Y1103325D01*
X-3097428Y1104493D01*
X-3101086Y1104900D01*
X-3117850Y1104900D01*
X-3117850Y1179576D01*
X-3101086Y1179576D01*
X-3097428Y1179982D01*
X-3094786Y1181150D01*
X-3093212Y1183132D01*
X-3092704Y1185926D01*
X-3093212Y1188720D01*
X-3094786Y1190701D01*
X-3097428Y1191869D01*
X-3101086Y1192276D01*
G37*
G36*
X-3030982Y1192276D02*
G01*
X-3035960Y1191666D01*
X-3040176Y1189837D01*
X-3043682Y1186840D01*
X-3046476Y1182624D01*
X-3060446Y1154684D01*
X-3061665Y1151788D01*
X-3062528Y1148791D01*
X-3063087Y1145590D01*
X-3063240Y1142238D01*
X-3050540Y1142238D01*
X-3050387Y1144320D01*
X-3049117Y1148892D01*
X-3034436Y1178052D01*
X-3033623Y1178763D01*
X-3032658Y1179169D01*
X-3031490Y1179322D01*
X-3030321Y1179169D01*
X-3029254Y1178763D01*
X-3028391Y1178052D01*
X-3027680Y1177036D01*
X-3014726Y1151128D01*
X-3012998Y1146505D01*
X-3012440Y1142238D01*
X-3012795Y1138377D01*
X-3013964Y1134872D01*
X-3028391Y1106576D01*
X-3029204Y1105763D01*
X-3030169Y1105306D01*
X-3031236Y1105154D01*
X-3032556Y1105357D01*
X-3033725Y1105916D01*
X-3034690Y1106881D01*
X-3035554Y1108202D01*
X-3048000Y1133094D01*
X-3049879Y1138021D01*
X-3050387Y1140256D01*
X-3050540Y1142238D01*
X-3063240Y1142238D01*
X-3063036Y1138732D01*
X-3062427Y1135227D01*
X-3061360Y1131874D01*
X-3059938Y1128522D01*
X-3046476Y1101852D01*
X-3043732Y1097635D01*
X-3040227Y1094587D01*
X-3036112Y1092809D01*
X-3031236Y1092200D01*
X-3029000Y1092352D01*
X-3026765Y1092809D01*
X-3024682Y1093622D01*
X-3022600Y1094740D01*
X-3020618Y1096213D01*
X-3018891Y1097838D01*
X-3017570Y1099616D01*
X-3001619Y1131570D01*
X-3000451Y1135126D01*
X-2999740Y1138682D01*
X-2999486Y1142238D01*
X-2999638Y1145692D01*
X-3000197Y1148892D01*
X-3001060Y1151890D01*
X-3002280Y1154684D01*
X-3016504Y1183132D01*
X-3017621Y1185062D01*
X-3020669Y1188364D01*
X-3022600Y1189736D01*
X-3024632Y1190853D01*
X-3026714Y1191615D01*
X-3028848Y1192123D01*
G37*
G36*
X-3215640Y938276D02*
G01*
X-3221329Y937615D01*
X-3226104Y935532D01*
X-3230067Y932129D01*
X-3233166Y927353D01*
X-3246374Y900684D01*
X-3247593Y897788D01*
X-3248456Y894791D01*
X-3249015Y891590D01*
X-3249168Y888237D01*
X-3249015Y884885D01*
X-3248456Y881684D01*
X-3247593Y878687D01*
X-3246374Y875792D01*
X-3233166Y849121D01*
X-3230118Y844346D01*
X-3226308Y840943D01*
X-3221736Y838860D01*
X-3216402Y838200D01*
X-3194050Y838200D01*
X-3190392Y838606D01*
X-3187750Y839774D01*
X-3186176Y841756D01*
X-3185668Y844550D01*
X-3186176Y847344D01*
X-3187750Y849325D01*
X-3190392Y850493D01*
X-3194050Y850900D01*
X-3214624Y850900D01*
X-3217011Y851153D01*
X-3218992Y851966D01*
X-3220669Y853338D01*
X-3221990Y855218D01*
X-3234436Y880364D01*
X-3235756Y884174D01*
X-3236214Y887984D01*
X-3235756Y892251D01*
X-3234436Y896366D01*
X-3221736Y921512D01*
X-3220567Y923290D01*
X-3219094Y924560D01*
X-3217265Y925321D01*
X-3215132Y925576D01*
X-3194050Y925576D01*
X-3190392Y925982D01*
X-3187750Y927150D01*
X-3186176Y929132D01*
X-3185668Y931926D01*
X-3186176Y934719D01*
X-3187750Y936701D01*
X-3190392Y937869D01*
X-3194050Y938276D01*
G37*
G36*
X-3056636Y938276D02*
G01*
X-3059430Y937717D01*
X-3061411Y936142D01*
X-3062579Y933399D01*
X-3062986Y929640D01*
X-3062986Y846836D01*
X-3062579Y843076D01*
X-3061411Y840384D01*
X-3059430Y838758D01*
X-3056636Y838200D01*
X-3053842Y838758D01*
X-3051860Y840384D01*
X-3050692Y843076D01*
X-3050286Y846836D01*
X-3050286Y874268D01*
X-3009900Y839825D01*
X-3008325Y838758D01*
X-3006953Y838149D01*
X-3005836Y837946D01*
X-3004515Y838047D01*
X-3002229Y839063D01*
X-3000349Y841044D01*
X-2999740Y842111D01*
X-2999232Y844550D01*
X-2999486Y846074D01*
X-3000248Y847648D01*
X-3001518Y849274D01*
X-3046730Y888237D01*
X-3001518Y927201D01*
X-3000248Y928776D01*
X-2999486Y930249D01*
X-2999232Y931671D01*
X-2999740Y934262D01*
X-3000349Y935431D01*
X-3002229Y937260D01*
X-3004515Y938174D01*
X-3005836Y938276D01*
X-3006852Y938072D01*
X-3009646Y936548D01*
X-3011424Y935228D01*
X-3050286Y902208D01*
X-3050286Y929640D01*
X-3050692Y933399D01*
X-3051860Y936142D01*
X-3053842Y937717D01*
G37*
G36*
X-3149854Y938021D02*
G01*
X-3152546Y937514D01*
X-3154426Y935939D01*
X-3155594Y933297D01*
X-3155950Y929640D01*
X-3155950Y838200D01*
X-3101340Y838200D01*
X-3097580Y838606D01*
X-3094888Y839774D01*
X-3093262Y841756D01*
X-3092704Y844550D01*
X-3093262Y847344D01*
X-3094888Y849325D01*
X-3097580Y850493D01*
X-3101340Y850900D01*
X-3143250Y850900D01*
X-3143250Y929640D01*
X-3143656Y933297D01*
X-3144926Y935939D01*
X-3146958Y937514D01*
G37*
G36*
X-2068068Y-1093724D02*
G01*
X-2068068Y-1106424D01*
X-2024888Y-1106424D01*
X-2021433Y-1106881D01*
X-2018995Y-1108303D01*
X-2017522Y-1110691D01*
X-2017014Y-1114044D01*
X-2017014Y-1134872D01*
X-2017471Y-1138428D01*
X-2018842Y-1140968D01*
X-2021128Y-1142492D01*
X-2024380Y-1143000D01*
X-2055368Y-1143000D01*
X-2055368Y-1106424D01*
X-2068068Y-1106424D01*
X-2067966Y-1188364D01*
X-2067610Y-1189685D01*
X-2066289Y-1191768D01*
X-2064257Y-1193088D01*
X-2063038Y-1193444D01*
X-2061718Y-1193546D01*
X-2058924Y-1193038D01*
X-2056942Y-1191463D01*
X-2055774Y-1188821D01*
X-2055368Y-1185164D01*
X-2055368Y-1155954D01*
X-2025396Y-1155954D01*
X-2020722Y-1155598D01*
X-2016556Y-1154531D01*
X-2012950Y-1152804D01*
X-2009902Y-1150366D01*
X-2007463Y-1147318D01*
X-2005685Y-1143711D01*
X-2004669Y-1139545D01*
X-2004314Y-1134872D01*
X-2004314Y-1114044D01*
X-2004618Y-1109675D01*
X-2005634Y-1105763D01*
X-2007311Y-1102309D01*
X-2009648Y-1099312D01*
X-2012492Y-1096873D01*
X-2015794Y-1095095D01*
X-2019503Y-1094079D01*
X-2023618Y-1093724D01*
G37*
G36*
X-1962404Y-1093724D02*
G01*
X-1964842Y-1093978D01*
X-1967179Y-1094689D01*
X-1969312Y-1095857D01*
X-1971293Y-1097534D01*
X-1972970Y-1099515D01*
X-1974138Y-1101648D01*
X-1974850Y-1103985D01*
X-1975104Y-1106424D01*
X-1924304Y-1106424D01*
X-1924304Y-1181100D01*
X-1962404Y-1181100D01*
X-1962404Y-1106424D01*
X-1975104Y-1106424D01*
X-1975104Y-1181100D01*
X-1974900Y-1183538D01*
X-1974189Y-1185875D01*
X-1973122Y-1188008D01*
X-1971548Y-1189990D01*
X-1969566Y-1191666D01*
X-1967484Y-1192834D01*
X-1965248Y-1193546D01*
X-1962912Y-1193800D01*
X-1924304Y-1193800D01*
X-1921814Y-1193596D01*
X-1919528Y-1192885D01*
X-1917395Y-1191818D01*
X-1915414Y-1190244D01*
X-1913737Y-1188364D01*
X-1912569Y-1186383D01*
X-1911857Y-1184198D01*
X-1911604Y-1181862D01*
X-1911604Y-1107186D01*
X-1911807Y-1104392D01*
X-1912467Y-1101852D01*
X-1913585Y-1099566D01*
X-1915160Y-1097534D01*
X-1917141Y-1095857D01*
X-1919325Y-1094689D01*
X-1921713Y-1093978D01*
X-1924304Y-1093724D01*
G37*
G36*
X-1869439Y-1093724D02*
G01*
X-1871878Y-1093978D01*
X-1874215Y-1094689D01*
X-1876348Y-1095857D01*
X-1878330Y-1097534D01*
X-1880006Y-1099515D01*
X-1881174Y-1101648D01*
X-1881886Y-1103985D01*
X-1882139Y-1106424D01*
X-1831339Y-1106424D01*
X-1831339Y-1181100D01*
X-1869439Y-1181100D01*
X-1869439Y-1106424D01*
X-1882139Y-1106424D01*
X-1882139Y-1181100D01*
X-1881886Y-1183538D01*
X-1881174Y-1185875D01*
X-1880006Y-1188008D01*
X-1878330Y-1189990D01*
X-1876450Y-1191666D01*
X-1874367Y-1192834D01*
X-1872132Y-1193546D01*
X-1869693Y-1193800D01*
X-1831339Y-1193800D01*
X-1828850Y-1193596D01*
X-1826564Y-1192885D01*
X-1824431Y-1191818D01*
X-1822450Y-1190244D01*
X-1820672Y-1188364D01*
X-1819402Y-1186383D01*
X-1818639Y-1184198D01*
X-1818386Y-1181862D01*
X-1818386Y-1107186D01*
X-1818639Y-1104392D01*
X-1819351Y-1101852D01*
X-1820519Y-1099566D01*
X-1822196Y-1097534D01*
X-1824075Y-1095857D01*
X-1826260Y-1094689D01*
X-1828647Y-1093978D01*
X-1831339Y-1093724D01*
G37*
G36*
X-2068068Y-839724D02*
G01*
X-2068068Y-852424D01*
X-2024888Y-852424D01*
X-2021433Y-852881D01*
X-2018995Y-854303D01*
X-2017522Y-856691D01*
X-2017014Y-860044D01*
X-2017014Y-880871D01*
X-2017471Y-884428D01*
X-2018842Y-886968D01*
X-2021128Y-888492D01*
X-2024380Y-889000D01*
X-2055368Y-889000D01*
X-2055368Y-852424D01*
X-2068068Y-852424D01*
X-2067966Y-934364D01*
X-2067610Y-935685D01*
X-2066289Y-937768D01*
X-2064257Y-939088D01*
X-2063038Y-939444D01*
X-2061718Y-939546D01*
X-2058924Y-939037D01*
X-2056942Y-937463D01*
X-2055774Y-934821D01*
X-2055368Y-931164D01*
X-2055368Y-901953D01*
X-2025396Y-901953D01*
X-2020722Y-901598D01*
X-2016556Y-900531D01*
X-2012950Y-898804D01*
X-2009902Y-896366D01*
X-2007463Y-893318D01*
X-2005685Y-889711D01*
X-2004669Y-885545D01*
X-2004314Y-880871D01*
X-2004314Y-860044D01*
X-2004618Y-855675D01*
X-2005634Y-851763D01*
X-2007311Y-848309D01*
X-2009648Y-845312D01*
X-2012492Y-842873D01*
X-2015794Y-841095D01*
X-2019503Y-840079D01*
X-2023618Y-839724D01*
G37*
G36*
X-1962404Y-839724D02*
G01*
X-1964842Y-839978D01*
X-1967179Y-840689D01*
X-1969312Y-841857D01*
X-1971293Y-843534D01*
X-1972970Y-845515D01*
X-1974138Y-847648D01*
X-1974850Y-849985D01*
X-1975104Y-852424D01*
X-1924304Y-852424D01*
X-1924304Y-927100D01*
X-1962404Y-927100D01*
X-1962404Y-852424D01*
X-1975104Y-852424D01*
X-1975104Y-927100D01*
X-1974900Y-929538D01*
X-1974189Y-931875D01*
X-1973122Y-934008D01*
X-1971548Y-935990D01*
X-1969566Y-937666D01*
X-1967484Y-938834D01*
X-1965248Y-939546D01*
X-1962912Y-939800D01*
X-1924304Y-939800D01*
X-1921814Y-939596D01*
X-1919528Y-938885D01*
X-1917395Y-937818D01*
X-1915414Y-936244D01*
X-1913737Y-934364D01*
X-1912569Y-932383D01*
X-1911857Y-930198D01*
X-1911604Y-927862D01*
X-1911604Y-853186D01*
X-1911807Y-850392D01*
X-1912467Y-847852D01*
X-1913585Y-845566D01*
X-1915160Y-843534D01*
X-1917141Y-841857D01*
X-1919325Y-840689D01*
X-1921713Y-839978D01*
X-1924304Y-839724D01*
G37*
G36*
X-1873504Y-839724D02*
G01*
X-1877161Y-840130D01*
X-1879803Y-841298D01*
X-1881378Y-843280D01*
X-1881886Y-846074D01*
X-1881378Y-848868D01*
X-1879803Y-850849D01*
X-1877161Y-852017D01*
X-1873504Y-852424D01*
X-1856486Y-852424D01*
X-1856486Y-927100D01*
X-1873504Y-927100D01*
X-1877161Y-927506D01*
X-1879803Y-928674D01*
X-1881378Y-930656D01*
X-1881886Y-933450D01*
X-1881378Y-936244D01*
X-1879803Y-938225D01*
X-1877161Y-939393D01*
X-1873504Y-939800D01*
X-1824228Y-939800D01*
X-1821688Y-939393D01*
X-1819859Y-938072D01*
X-1818741Y-935939D01*
X-1818386Y-932942D01*
X-1818386Y-902969D01*
X-1818792Y-899312D01*
X-1819960Y-896670D01*
X-1821942Y-895096D01*
X-1824736Y-894587D01*
X-1827530Y-895096D01*
X-1829511Y-896670D01*
X-1830679Y-899312D01*
X-1831086Y-902969D01*
X-1831086Y-927100D01*
X-1843786Y-927100D01*
X-1843786Y-839724D01*
G37*
G36*
X-2068068Y-585724D02*
G01*
X-2068068Y-598424D01*
X-2024888Y-598424D01*
X-2021433Y-598881D01*
X-2018995Y-600303D01*
X-2017522Y-602691D01*
X-2017014Y-606044D01*
X-2017014Y-626872D01*
X-2017471Y-630428D01*
X-2018842Y-632968D01*
X-2021128Y-634492D01*
X-2024380Y-635000D01*
X-2055368Y-635000D01*
X-2055368Y-598424D01*
X-2068068Y-598424D01*
X-2067966Y-680364D01*
X-2067610Y-681685D01*
X-2066289Y-683768D01*
X-2064257Y-685088D01*
X-2063038Y-685444D01*
X-2061718Y-685546D01*
X-2058924Y-685038D01*
X-2056942Y-683463D01*
X-2055774Y-680821D01*
X-2055368Y-677164D01*
X-2055368Y-647954D01*
X-2025396Y-647954D01*
X-2020722Y-647598D01*
X-2016556Y-646531D01*
X-2012950Y-644804D01*
X-2009902Y-642366D01*
X-2007463Y-639318D01*
X-2005685Y-635711D01*
X-2004669Y-631545D01*
X-2004314Y-626872D01*
X-2004314Y-606044D01*
X-2004618Y-601675D01*
X-2005634Y-597763D01*
X-2007311Y-594309D01*
X-2009648Y-591312D01*
X-2012492Y-588873D01*
X-2015794Y-587095D01*
X-2019503Y-586079D01*
X-2023618Y-585724D01*
G37*
G36*
X-1962404Y-585724D02*
G01*
X-1964842Y-585978D01*
X-1967179Y-586689D01*
X-1969312Y-587857D01*
X-1971293Y-589534D01*
X-1972970Y-591515D01*
X-1974138Y-593648D01*
X-1974850Y-595985D01*
X-1975104Y-598424D01*
X-1924304Y-598424D01*
X-1924304Y-673100D01*
X-1962404Y-673100D01*
X-1962404Y-598424D01*
X-1975104Y-598424D01*
X-1975104Y-673100D01*
X-1974900Y-675538D01*
X-1974189Y-677875D01*
X-1973122Y-680008D01*
X-1971548Y-681990D01*
X-1969566Y-683666D01*
X-1967484Y-684834D01*
X-1965248Y-685546D01*
X-1962912Y-685800D01*
X-1924304Y-685800D01*
X-1921814Y-685596D01*
X-1919528Y-684885D01*
X-1917395Y-683818D01*
X-1915414Y-682244D01*
X-1913737Y-680364D01*
X-1912569Y-678383D01*
X-1911857Y-676198D01*
X-1911604Y-673862D01*
X-1911604Y-599186D01*
X-1911807Y-596392D01*
X-1912467Y-593852D01*
X-1913585Y-591566D01*
X-1915160Y-589534D01*
X-1917141Y-587857D01*
X-1919325Y-586689D01*
X-1921713Y-585978D01*
X-1924304Y-585724D01*
G37*
G36*
X-1873504Y-585724D02*
G01*
X-1877263Y-586130D01*
X-1879955Y-587298D01*
X-1881581Y-589280D01*
X-1882139Y-592074D01*
X-1881581Y-594868D01*
X-1879955Y-596849D01*
X-1877263Y-598017D01*
X-1873504Y-598424D01*
X-1831339Y-598424D01*
X-1831339Y-629412D01*
X-1869186Y-629412D01*
X-1871827Y-629615D01*
X-1874266Y-630275D01*
X-1876399Y-631393D01*
X-1878330Y-632968D01*
X-1880006Y-635000D01*
X-1881174Y-637235D01*
X-1881886Y-639673D01*
X-1882139Y-642366D01*
X-1882139Y-685800D01*
X-1827022Y-685800D01*
X-1823212Y-685393D01*
X-1820519Y-684225D01*
X-1818944Y-682244D01*
X-1818386Y-679450D01*
X-1818944Y-676656D01*
X-1820519Y-674674D01*
X-1823212Y-673506D01*
X-1827022Y-673100D01*
X-1869186Y-673100D01*
X-1869186Y-642366D01*
X-1831339Y-642366D01*
X-1828647Y-642112D01*
X-1826260Y-641400D01*
X-1824075Y-640232D01*
X-1822196Y-638556D01*
X-1820519Y-636625D01*
X-1819351Y-634492D01*
X-1818639Y-632053D01*
X-1818386Y-629412D01*
X-1818386Y-599186D01*
X-1818639Y-596392D01*
X-1819351Y-593852D01*
X-1820519Y-591566D01*
X-1822196Y-589534D01*
X-1824075Y-587857D01*
X-1826260Y-586689D01*
X-1828647Y-585978D01*
X-1831339Y-585724D01*
G37*
G36*
X-2080768Y-331724D02*
G01*
X-2080768Y-344424D01*
X-2037588Y-344424D01*
X-2034133Y-344881D01*
X-2031695Y-346303D01*
X-2030222Y-348691D01*
X-2029714Y-352044D01*
X-2029714Y-372872D01*
X-2030171Y-376428D01*
X-2031542Y-378968D01*
X-2033828Y-380492D01*
X-2037080Y-381000D01*
X-2068068Y-381000D01*
X-2068068Y-344424D01*
X-2080768Y-344424D01*
X-2080666Y-426364D01*
X-2080310Y-427685D01*
X-2078989Y-429768D01*
X-2076957Y-431088D01*
X-2075738Y-431444D01*
X-2074418Y-431546D01*
X-2071624Y-431038D01*
X-2069642Y-429463D01*
X-2068474Y-426821D01*
X-2068068Y-423164D01*
X-2068068Y-393954D01*
X-2038096Y-393954D01*
X-2033422Y-393598D01*
X-2029256Y-392582D01*
X-2025650Y-390804D01*
X-2022602Y-388366D01*
X-2020163Y-385318D01*
X-2018385Y-381711D01*
X-2017369Y-377545D01*
X-2017014Y-372872D01*
X-2017014Y-352044D01*
X-2017318Y-347675D01*
X-2018334Y-343814D01*
X-2020011Y-340309D01*
X-2022348Y-337312D01*
X-2025192Y-334873D01*
X-2028494Y-333146D01*
X-2032203Y-332079D01*
X-2036318Y-331724D01*
G37*
G36*
X-1975104Y-331724D02*
G01*
X-1977542Y-331978D01*
X-1979879Y-332689D01*
X-1982012Y-333857D01*
X-1983993Y-335534D01*
X-1985670Y-337515D01*
X-1986838Y-339648D01*
X-1987550Y-341985D01*
X-1987804Y-344424D01*
X-1937004Y-344424D01*
X-1937004Y-419100D01*
X-1975104Y-419100D01*
X-1975104Y-344424D01*
X-1987804Y-344424D01*
X-1987804Y-419100D01*
X-1987600Y-421538D01*
X-1986889Y-423875D01*
X-1985822Y-426008D01*
X-1984248Y-427990D01*
X-1982266Y-429666D01*
X-1980184Y-430834D01*
X-1977948Y-431546D01*
X-1975612Y-431800D01*
X-1937004Y-431800D01*
X-1934514Y-431596D01*
X-1932228Y-430936D01*
X-1930095Y-429818D01*
X-1928114Y-428243D01*
X-1926437Y-426364D01*
X-1925269Y-424383D01*
X-1924557Y-422198D01*
X-1924304Y-419862D01*
X-1924304Y-345186D01*
X-1924507Y-342392D01*
X-1925167Y-339852D01*
X-1926285Y-337566D01*
X-1927860Y-335534D01*
X-1929841Y-333857D01*
X-1932025Y-332689D01*
X-1934413Y-331978D01*
X-1937004Y-331724D01*
G37*
G36*
X-1886457Y-331724D02*
G01*
X-1890115Y-332130D01*
X-1892757Y-333298D01*
X-1894332Y-335280D01*
X-1894839Y-338074D01*
X-1894332Y-340868D01*
X-1892757Y-342849D01*
X-1890115Y-344017D01*
X-1886457Y-344424D01*
X-1844548Y-344424D01*
X-1844548Y-367538D01*
X-1844954Y-371094D01*
X-1846122Y-373634D01*
X-1848104Y-375158D01*
X-1850898Y-375666D01*
X-1873757Y-375666D01*
X-1877415Y-376072D01*
X-1880057Y-377240D01*
X-1881632Y-379222D01*
X-1882139Y-382016D01*
X-1881632Y-384810D01*
X-1880057Y-386791D01*
X-1877415Y-387959D01*
X-1873757Y-388366D01*
X-1851152Y-388366D01*
X-1848154Y-388823D01*
X-1846021Y-390245D01*
X-1844700Y-392633D01*
X-1844293Y-395986D01*
X-1844293Y-419100D01*
X-1886457Y-419100D01*
X-1890115Y-419506D01*
X-1892757Y-420674D01*
X-1894332Y-422656D01*
X-1894839Y-425450D01*
X-1894332Y-428243D01*
X-1892757Y-430225D01*
X-1890115Y-431393D01*
X-1886457Y-431800D01*
X-1844293Y-431800D01*
X-1841703Y-431596D01*
X-1839315Y-430936D01*
X-1837131Y-429818D01*
X-1835150Y-428243D01*
X-1833473Y-426262D01*
X-1832305Y-424078D01*
X-1831593Y-421690D01*
X-1831339Y-419100D01*
X-1831339Y-394970D01*
X-1831644Y-391261D01*
X-1832610Y-387858D01*
X-1834184Y-384708D01*
X-1836420Y-381762D01*
X-1834286Y-379374D01*
X-1832813Y-376732D01*
X-1831898Y-373888D01*
X-1831593Y-370840D01*
X-1831593Y-342900D01*
X-1831797Y-340715D01*
X-1832559Y-338632D01*
X-1833727Y-336753D01*
X-1835404Y-335026D01*
X-1837385Y-333603D01*
X-1839518Y-332536D01*
X-1841804Y-331927D01*
X-1844293Y-331724D01*
G37*
G36*
X-2068068Y-77724D02*
G01*
X-2068068Y-90424D01*
X-2024888Y-90424D01*
X-2021433Y-90881D01*
X-2018995Y-92303D01*
X-2017522Y-94691D01*
X-2017014Y-98044D01*
X-2017014Y-118872D01*
X-2017471Y-122428D01*
X-2018842Y-124968D01*
X-2021128Y-126492D01*
X-2024380Y-127000D01*
X-2055368Y-127000D01*
X-2055368Y-90424D01*
X-2068068Y-90424D01*
X-2067966Y-172364D01*
X-2067610Y-173685D01*
X-2066289Y-175768D01*
X-2064257Y-177088D01*
X-2063038Y-177444D01*
X-2061718Y-177546D01*
X-2058924Y-177038D01*
X-2056942Y-175463D01*
X-2055774Y-172821D01*
X-2055368Y-169164D01*
X-2055368Y-139954D01*
X-2025396Y-139954D01*
X-2020722Y-139598D01*
X-2016556Y-138582D01*
X-2012950Y-136804D01*
X-2009902Y-134366D01*
X-2007463Y-131318D01*
X-2005685Y-127711D01*
X-2004669Y-123545D01*
X-2004314Y-118872D01*
X-2004314Y-98044D01*
X-2004618Y-93675D01*
X-2005634Y-89814D01*
X-2007311Y-86309D01*
X-2009648Y-83312D01*
X-2012492Y-80873D01*
X-2015794Y-79146D01*
X-2019503Y-78079D01*
X-2023618Y-77724D01*
G37*
G36*
X-1962404Y-77724D02*
G01*
X-1964842Y-77978D01*
X-1967179Y-78689D01*
X-1969312Y-79857D01*
X-1971293Y-81534D01*
X-1972970Y-83515D01*
X-1974138Y-85648D01*
X-1974850Y-87985D01*
X-1975104Y-90424D01*
X-1924304Y-90424D01*
X-1924304Y-165100D01*
X-1962404Y-165100D01*
X-1962404Y-90424D01*
X-1975104Y-90424D01*
X-1975104Y-165100D01*
X-1974900Y-167538D01*
X-1974189Y-169875D01*
X-1973122Y-172008D01*
X-1971548Y-173990D01*
X-1969566Y-175666D01*
X-1967484Y-176834D01*
X-1965248Y-177546D01*
X-1962912Y-177800D01*
X-1924304Y-177800D01*
X-1921814Y-177596D01*
X-1919528Y-176936D01*
X-1917395Y-175818D01*
X-1915414Y-174244D01*
X-1913737Y-172364D01*
X-1912569Y-170383D01*
X-1911857Y-168198D01*
X-1911604Y-165862D01*
X-1911604Y-91186D01*
X-1911807Y-88392D01*
X-1912467Y-85852D01*
X-1913585Y-83566D01*
X-1915160Y-81534D01*
X-1917141Y-79857D01*
X-1919325Y-78689D01*
X-1921713Y-77978D01*
X-1924304Y-77724D01*
G37*
G36*
X-1869186Y-77724D02*
G01*
X-1871980Y-78282D01*
X-1873961Y-79857D01*
X-1875129Y-82600D01*
X-1875536Y-86360D01*
X-1875536Y-145034D01*
X-1837436Y-145034D01*
X-1837436Y-169164D01*
X-1837029Y-172923D01*
X-1835759Y-175615D01*
X-1833727Y-177241D01*
X-1830832Y-177800D01*
X-1828139Y-177241D01*
X-1826260Y-175615D01*
X-1825091Y-172923D01*
X-1824736Y-169164D01*
X-1824736Y-145034D01*
X-1822856Y-144932D01*
X-1820824Y-144018D01*
X-1819910Y-143256D01*
X-1818589Y-141071D01*
X-1818233Y-139903D01*
X-1818132Y-138684D01*
X-1818538Y-136296D01*
X-1819757Y-134416D01*
X-1821840Y-133096D01*
X-1824736Y-132334D01*
X-1824736Y-97282D01*
X-1825091Y-93624D01*
X-1826260Y-90982D01*
X-1828139Y-89408D01*
X-1830832Y-88900D01*
X-1833727Y-89408D01*
X-1835759Y-90982D01*
X-1837029Y-93624D01*
X-1837436Y-97282D01*
X-1837436Y-132334D01*
X-1862836Y-132334D01*
X-1862836Y-86360D01*
X-1863242Y-82600D01*
X-1864410Y-79857D01*
X-1866392Y-78282D01*
G37*
G36*
X-2068068Y176276D02*
G01*
X-2068068Y163576D01*
X-2024888Y163576D01*
X-2021433Y163118D01*
X-2018995Y161696D01*
X-2017522Y159308D01*
X-2017014Y155956D01*
X-2017014Y135128D01*
X-2017471Y131572D01*
X-2018842Y129032D01*
X-2021128Y127508D01*
X-2024380Y127000D01*
X-2055368Y127000D01*
X-2055368Y163576D01*
X-2068068Y163576D01*
X-2067966Y81635D01*
X-2067610Y80314D01*
X-2066289Y78232D01*
X-2064257Y76911D01*
X-2063038Y76555D01*
X-2061718Y76454D01*
X-2058924Y76962D01*
X-2056942Y78536D01*
X-2055774Y81178D01*
X-2055368Y84836D01*
X-2055368Y114046D01*
X-2025396Y114046D01*
X-2020722Y114401D01*
X-2016556Y115417D01*
X-2012950Y117195D01*
X-2009902Y119633D01*
X-2007463Y122682D01*
X-2005685Y126288D01*
X-2004669Y130454D01*
X-2004314Y135128D01*
X-2004314Y155956D01*
X-2004618Y160324D01*
X-2005634Y164185D01*
X-2007311Y167690D01*
X-2009648Y170688D01*
X-2012492Y173126D01*
X-2015794Y174853D01*
X-2019503Y175920D01*
X-2023618Y176276D01*
G37*
G36*
X-1962404Y176276D02*
G01*
X-1964842Y176022D01*
X-1967179Y175310D01*
X-1969312Y174142D01*
X-1971293Y172466D01*
X-1972970Y170484D01*
X-1974138Y168351D01*
X-1974850Y166014D01*
X-1975104Y163576D01*
X-1924304Y163576D01*
X-1924304Y88900D01*
X-1962404Y88900D01*
X-1962404Y163576D01*
X-1975104Y163576D01*
X-1975104Y88900D01*
X-1974900Y86461D01*
X-1974189Y84124D01*
X-1973122Y81991D01*
X-1971548Y80010D01*
X-1969566Y78333D01*
X-1967484Y77165D01*
X-1965248Y76454D01*
X-1962912Y76200D01*
X-1924304Y76200D01*
X-1921814Y76403D01*
X-1919528Y77063D01*
X-1917395Y78181D01*
X-1915414Y79756D01*
X-1913737Y81635D01*
X-1912569Y83616D01*
X-1911857Y85801D01*
X-1911604Y88138D01*
X-1911604Y162814D01*
X-1911807Y165608D01*
X-1912467Y168148D01*
X-1913585Y170434D01*
X-1915160Y172466D01*
X-1917141Y174142D01*
X-1919325Y175310D01*
X-1921713Y176022D01*
X-1924304Y176276D01*
G37*
G36*
X-1869439Y176276D02*
G01*
X-1869439Y119633D01*
X-1831339Y119633D01*
X-1831339Y88900D01*
X-1860753Y88950D01*
X-1863293Y89458D01*
X-1871218Y92964D01*
X-1874062Y93929D01*
X-1876043Y94234D01*
X-1878380Y93726D01*
X-1879396Y93116D01*
X-1881124Y91287D01*
X-1882038Y89103D01*
X-1882139Y87884D01*
X-1881784Y85953D01*
X-1880666Y84175D01*
X-1878838Y82651D01*
X-1868678Y77724D01*
X-1864817Y76555D01*
X-1860804Y76200D01*
X-1831339Y76200D01*
X-1828850Y76454D01*
X-1826564Y77165D01*
X-1824431Y78333D01*
X-1822450Y80010D01*
X-1820773Y81991D01*
X-1819605Y84124D01*
X-1818893Y86461D01*
X-1818639Y88900D01*
X-1818639Y119633D01*
X-1818893Y122275D01*
X-1819605Y124714D01*
X-1820773Y126847D01*
X-1822450Y128778D01*
X-1824329Y130352D01*
X-1826463Y131470D01*
X-1828800Y132130D01*
X-1831339Y132334D01*
X-1856739Y132334D01*
X-1856739Y163576D01*
X-1827275Y163576D01*
X-1823466Y163982D01*
X-1820773Y165150D01*
X-1819148Y167132D01*
X-1818639Y169926D01*
X-1819148Y172720D01*
X-1820773Y174701D01*
X-1823466Y175869D01*
X-1827275Y176276D01*
G37*
G36*
X-2068068Y430276D02*
G01*
X-2068068Y417576D01*
X-2024888Y417576D01*
X-2021433Y417118D01*
X-2018995Y415696D01*
X-2017522Y413308D01*
X-2017014Y409956D01*
X-2017014Y389128D01*
X-2017471Y385572D01*
X-2018842Y383032D01*
X-2021128Y381508D01*
X-2024380Y381000D01*
X-2055368Y381000D01*
X-2055368Y417576D01*
X-2068068Y417576D01*
X-2067966Y335635D01*
X-2067610Y334314D01*
X-2066289Y332232D01*
X-2064257Y330911D01*
X-2063038Y330555D01*
X-2061718Y330454D01*
X-2058924Y330962D01*
X-2056942Y332536D01*
X-2055774Y335178D01*
X-2055368Y338836D01*
X-2055368Y368046D01*
X-2025396Y368046D01*
X-2020722Y368401D01*
X-2016556Y369417D01*
X-2012950Y371195D01*
X-2009902Y373634D01*
X-2007463Y376682D01*
X-2005685Y380288D01*
X-2004669Y384454D01*
X-2004314Y389128D01*
X-2004314Y409956D01*
X-2004618Y414324D01*
X-2005634Y418185D01*
X-2007311Y421690D01*
X-2009648Y424688D01*
X-2012492Y427126D01*
X-2015794Y428853D01*
X-2019503Y429920D01*
X-2023618Y430276D01*
G37*
G36*
X-1962404Y430276D02*
G01*
X-1964842Y430022D01*
X-1967179Y429310D01*
X-1969312Y428142D01*
X-1971293Y426466D01*
X-1972970Y424484D01*
X-1974138Y422351D01*
X-1974850Y420014D01*
X-1975104Y417576D01*
X-1924304Y417576D01*
X-1924304Y342900D01*
X-1962404Y342900D01*
X-1962404Y417576D01*
X-1975104Y417576D01*
X-1975104Y342900D01*
X-1974900Y340461D01*
X-1974189Y338124D01*
X-1973122Y335991D01*
X-1971548Y334010D01*
X-1969566Y332333D01*
X-1967484Y331165D01*
X-1965248Y330454D01*
X-1962912Y330200D01*
X-1924304Y330200D01*
X-1921814Y330403D01*
X-1919528Y331063D01*
X-1917395Y332181D01*
X-1915414Y333756D01*
X-1913737Y335635D01*
X-1912569Y337616D01*
X-1911857Y339801D01*
X-1911604Y342138D01*
X-1911604Y416814D01*
X-1911807Y419608D01*
X-1912467Y422148D01*
X-1913585Y424434D01*
X-1915160Y426466D01*
X-1917141Y428142D01*
X-1919325Y429310D01*
X-1921713Y430022D01*
X-1924304Y430276D01*
G37*
G36*
X-1876043Y430276D02*
G01*
X-1877263Y430174D01*
X-1879396Y429259D01*
X-1881124Y427583D01*
X-1882038Y425399D01*
X-1882139Y363220D01*
X-1831339Y363220D01*
X-1831339Y342900D01*
X-1869439Y342900D01*
X-1869439Y363220D01*
X-1882139Y363220D01*
X-1882139Y336804D01*
X-1881632Y334213D01*
X-1880107Y331978D01*
X-1877923Y330657D01*
X-1876755Y330301D01*
X-1825243Y330200D01*
X-1822246Y330606D01*
X-1820113Y331876D01*
X-1818792Y333908D01*
X-1818386Y336804D01*
X-1818386Y369062D01*
X-1818792Y372059D01*
X-1819960Y374192D01*
X-1821942Y375513D01*
X-1824736Y375920D01*
X-1869439Y375920D01*
X-1869439Y417576D01*
X-1866544Y418236D01*
X-1864461Y419557D01*
X-1863242Y421436D01*
X-1862836Y423926D01*
X-1862937Y425145D01*
X-1863953Y427431D01*
X-1865833Y429259D01*
X-1868119Y430174D01*
G37*
G36*
X-2112772Y745744D02*
G01*
X-2116886Y744982D01*
X-2119833Y742645D01*
X-2121611Y738733D01*
X-2122170Y733298D01*
X-2122170Y709168D01*
X-2141474Y725678D01*
X-2143912Y727557D01*
X-2146096Y728929D01*
X-2148078Y729742D01*
X-2149856Y729996D01*
X-2151786Y729843D01*
X-2153564Y729335D01*
X-2155088Y728573D01*
X-2156460Y727456D01*
X-2157679Y725982D01*
X-2158542Y724255D01*
X-2159101Y722426D01*
X-2159254Y720344D01*
X-2158898Y718464D01*
X-2157882Y716381D01*
X-2156104Y714146D01*
X-2153666Y711708D01*
X-2127250Y688848D01*
X-2153666Y666242D01*
X-2156104Y663854D01*
X-2157882Y661619D01*
X-2158898Y659434D01*
X-2159254Y657352D01*
X-2159101Y655421D01*
X-2158542Y653592D01*
X-2157679Y651967D01*
X-2156460Y650494D01*
X-2155088Y649274D01*
X-2153564Y648411D01*
X-2151786Y647852D01*
X-2149856Y647700D01*
X-2148078Y647954D01*
X-2146096Y648766D01*
X-2143912Y650138D01*
X-2141474Y652018D01*
X-2122170Y668528D01*
X-2122170Y643890D01*
X-2121611Y638454D01*
X-2119833Y634542D01*
X-2116886Y632206D01*
X-2112772Y631444D01*
X-2108657Y632206D01*
X-2105710Y634542D01*
X-2103983Y638454D01*
X-2103374Y643890D01*
X-2103374Y668528D01*
X-2084070Y652018D01*
X-2081631Y650138D01*
X-2079447Y648766D01*
X-2077466Y647954D01*
X-2075688Y647700D01*
X-2073859Y647852D01*
X-2072132Y648360D01*
X-2070557Y649122D01*
X-2069084Y650240D01*
X-2067864Y651713D01*
X-2067001Y653389D01*
X-2066442Y655269D01*
X-2066289Y657352D01*
X-2066645Y659434D01*
X-2067712Y661619D01*
X-2069439Y663854D01*
X-2071878Y666242D01*
X-2098294Y688848D01*
X-2071878Y711708D01*
X-2069439Y714146D01*
X-2067712Y716381D01*
X-2066645Y718464D01*
X-2066289Y720344D01*
X-2066442Y722426D01*
X-2067001Y724306D01*
X-2067864Y725982D01*
X-2069084Y727456D01*
X-2070557Y728573D01*
X-2072132Y729335D01*
X-2073859Y729843D01*
X-2075688Y729996D01*
X-2077466Y729742D01*
X-2079447Y728929D01*
X-2081631Y727557D01*
X-2084070Y725678D01*
X-2103374Y709168D01*
X-2103374Y733298D01*
X-2103983Y738733D01*
X-2105710Y742645D01*
X-2108657Y744982D01*
G37*
G36*
X-2068068Y684276D02*
G01*
X-2068068Y671576D01*
X-2024888Y671576D01*
X-2021433Y671118D01*
X-2018995Y669696D01*
X-2017522Y667308D01*
X-2017014Y663956D01*
X-2017014Y643128D01*
X-2017471Y639572D01*
X-2018842Y637032D01*
X-2021128Y635508D01*
X-2024380Y635000D01*
X-2055368Y635000D01*
X-2055368Y671576D01*
X-2068068Y671576D01*
X-2067966Y589635D01*
X-2067610Y588314D01*
X-2066289Y586232D01*
X-2064257Y584911D01*
X-2063038Y584555D01*
X-2061718Y584454D01*
X-2058924Y584962D01*
X-2056942Y586536D01*
X-2055774Y589178D01*
X-2055368Y592836D01*
X-2055368Y622046D01*
X-2025396Y622046D01*
X-2020722Y622401D01*
X-2016556Y623417D01*
X-2012950Y625195D01*
X-2009902Y627634D01*
X-2007463Y630682D01*
X-2005685Y634288D01*
X-2004669Y638454D01*
X-2004314Y643128D01*
X-2004314Y663956D01*
X-2004618Y668324D01*
X-2005634Y672185D01*
X-2007311Y675690D01*
X-2009648Y678688D01*
X-2012492Y681126D01*
X-2015794Y682853D01*
X-2019503Y683920D01*
X-2023618Y684276D01*
G37*
G36*
X-1962404Y684276D02*
G01*
X-1964842Y684022D01*
X-1967179Y683310D01*
X-1969312Y682142D01*
X-1971293Y680466D01*
X-1972970Y678484D01*
X-1974138Y676351D01*
X-1974850Y674014D01*
X-1975104Y671576D01*
X-1924304Y671576D01*
X-1924304Y596900D01*
X-1962404Y596900D01*
X-1962404Y671576D01*
X-1975104Y671576D01*
X-1975104Y596900D01*
X-1974900Y594461D01*
X-1974189Y592124D01*
X-1973122Y589991D01*
X-1971548Y588010D01*
X-1969566Y586333D01*
X-1967484Y585165D01*
X-1965248Y584454D01*
X-1962912Y584200D01*
X-1924304Y584200D01*
X-1921814Y584403D01*
X-1919528Y585063D01*
X-1917395Y586181D01*
X-1915414Y587756D01*
X-1913737Y589635D01*
X-1912569Y591616D01*
X-1911857Y593801D01*
X-1911604Y596138D01*
X-1911604Y670814D01*
X-1911807Y673608D01*
X-1912467Y676148D01*
X-1913585Y678434D01*
X-1915160Y680466D01*
X-1917141Y682142D01*
X-1919325Y683310D01*
X-1921713Y684022D01*
X-1924304Y684276D01*
G37*
G36*
X-1875282Y684276D02*
G01*
X-1878279Y683818D01*
X-1880412Y682447D01*
X-1881682Y680110D01*
X-1882139Y676910D01*
X-1882139Y673100D01*
X-1881733Y669899D01*
X-1880463Y667562D01*
X-1878431Y666191D01*
X-1875536Y665734D01*
X-1873250Y666089D01*
X-1871472Y667207D01*
X-1870202Y669036D01*
X-1869439Y671576D01*
X-1831339Y671576D01*
X-1831339Y652272D01*
X-1831492Y650341D01*
X-1832051Y648563D01*
X-1832914Y647039D01*
X-1834134Y645668D01*
X-1854454Y628142D01*
X-1855978Y626059D01*
X-1856486Y623316D01*
X-1856486Y592836D01*
X-1856079Y589178D01*
X-1854809Y586536D01*
X-1852777Y584962D01*
X-1849882Y584454D01*
X-1847189Y584962D01*
X-1845310Y586536D01*
X-1844141Y589178D01*
X-1843786Y592836D01*
X-1843786Y617220D01*
X-1843633Y618693D01*
X-1842363Y621385D01*
X-1841246Y622554D01*
X-1819808Y641197D01*
X-1818995Y642518D01*
X-1818538Y643991D01*
X-1818386Y645668D01*
X-1818386Y684276D01*
G37*
G36*
X-2112772Y491743D02*
G01*
X-2116886Y490982D01*
X-2119833Y488645D01*
X-2121611Y484733D01*
X-2122170Y479298D01*
X-2122170Y455168D01*
X-2141474Y471678D01*
X-2143912Y473557D01*
X-2146096Y474929D01*
X-2148078Y475742D01*
X-2149856Y475996D01*
X-2151786Y475843D01*
X-2153564Y475335D01*
X-2155088Y474573D01*
X-2156460Y473456D01*
X-2157679Y471982D01*
X-2158542Y470255D01*
X-2159101Y468426D01*
X-2159254Y466343D01*
X-2158898Y464464D01*
X-2157882Y462381D01*
X-2156104Y460146D01*
X-2153666Y457708D01*
X-2127250Y434848D01*
X-2153666Y412242D01*
X-2156104Y409854D01*
X-2157882Y407619D01*
X-2158898Y405434D01*
X-2159254Y403352D01*
X-2159101Y401421D01*
X-2158542Y399592D01*
X-2157679Y397967D01*
X-2156460Y396494D01*
X-2155088Y395274D01*
X-2153564Y394411D01*
X-2151786Y393852D01*
X-2149856Y393700D01*
X-2148078Y393954D01*
X-2146096Y394766D01*
X-2143912Y396138D01*
X-2141474Y398018D01*
X-2122170Y414528D01*
X-2122170Y389890D01*
X-2121611Y384454D01*
X-2119833Y380542D01*
X-2116886Y378206D01*
X-2112772Y377444D01*
X-2108657Y378206D01*
X-2105710Y380542D01*
X-2103983Y384454D01*
X-2103374Y389890D01*
X-2103374Y414528D01*
X-2084070Y398018D01*
X-2081631Y396138D01*
X-2079447Y394766D01*
X-2077466Y393954D01*
X-2075688Y393700D01*
X-2073859Y393852D01*
X-2072132Y394360D01*
X-2070557Y395122D01*
X-2069084Y396240D01*
X-2067864Y397713D01*
X-2067001Y399389D01*
X-2066442Y401269D01*
X-2066289Y403352D01*
X-2066645Y405434D01*
X-2067712Y407619D01*
X-2069439Y409854D01*
X-2071878Y412242D01*
X-2098294Y434848D01*
X-2071878Y457708D01*
X-2069439Y460146D01*
X-2067712Y462381D01*
X-2066645Y464464D01*
X-2066289Y466343D01*
X-2066442Y468426D01*
X-2067001Y470306D01*
X-2067864Y471982D01*
X-2069084Y473456D01*
X-2070557Y474573D01*
X-2072132Y475335D01*
X-2073859Y475843D01*
X-2075688Y475996D01*
X-2077466Y475742D01*
X-2079447Y474929D01*
X-2081631Y473557D01*
X-2084070Y471678D01*
X-2103374Y455168D01*
X-2103374Y479298D01*
X-2103983Y484733D01*
X-2105710Y488645D01*
X-2108657Y490982D01*
G37*
G36*
X-2061718Y938276D02*
G01*
X-2064512Y937717D01*
X-2066493Y936091D01*
X-2067661Y933399D01*
X-2068068Y929640D01*
X-2068017Y910539D01*
X-2067255Y906780D01*
X-2042414Y842518D01*
X-2041347Y840638D01*
X-2039924Y839266D01*
X-2038146Y838453D01*
X-2036064Y838200D01*
X-2034082Y838453D01*
X-2032457Y839266D01*
X-2031136Y840638D01*
X-2030222Y842518D01*
X-2005126Y907287D01*
X-2004618Y910488D01*
X-2004568Y929894D01*
X-2004974Y933551D01*
X-2006142Y936193D01*
X-2008124Y937768D01*
X-2010918Y938276D01*
X-2013712Y937768D01*
X-2015693Y936193D01*
X-2016861Y933551D01*
X-2017268Y929894D01*
X-2017268Y911352D01*
X-2036318Y862076D01*
X-2055368Y911352D01*
X-2055368Y929640D01*
X-2055774Y933399D01*
X-2056942Y936091D01*
X-2058924Y937717D01*
G37*
G36*
X-1941575Y938276D02*
G01*
X-1947214Y937615D01*
X-1952040Y935532D01*
X-1956003Y932129D01*
X-1959102Y927353D01*
X-1972310Y900684D01*
X-1973529Y897788D01*
X-1974392Y894791D01*
X-1974900Y891590D01*
X-1975104Y888237D01*
X-1974900Y884885D01*
X-1974392Y881684D01*
X-1973529Y878687D01*
X-1972310Y875792D01*
X-1959102Y849121D01*
X-1956054Y844346D01*
X-1952243Y840943D01*
X-1947672Y838860D01*
X-1942338Y838200D01*
X-1919986Y838200D01*
X-1916328Y838606D01*
X-1913686Y839774D01*
X-1912112Y841756D01*
X-1911604Y844550D01*
X-1912112Y847344D01*
X-1913686Y849325D01*
X-1916328Y850493D01*
X-1919986Y850900D01*
X-1940560Y850900D01*
X-1942896Y851153D01*
X-1944928Y851966D01*
X-1946605Y853338D01*
X-1947925Y855218D01*
X-1960372Y880364D01*
X-1961692Y884174D01*
X-1962048Y886053D01*
X-1962048Y890117D01*
X-1961134Y894334D01*
X-1960372Y896366D01*
X-1947672Y921512D01*
X-1946503Y923290D01*
X-1944979Y924560D01*
X-1943201Y925321D01*
X-1941068Y925576D01*
X-1919986Y925576D01*
X-1916328Y925982D01*
X-1913686Y927150D01*
X-1912112Y929132D01*
X-1911604Y931926D01*
X-1912112Y934719D01*
X-1913686Y936701D01*
X-1916328Y937869D01*
X-1919986Y938276D01*
G37*
G36*
X-1848612Y938276D02*
G01*
X-1854200Y937615D01*
X-1858975Y935532D01*
X-1862937Y932129D01*
X-1866138Y927353D01*
X-1879346Y900684D01*
X-1880565Y897788D01*
X-1881428Y894791D01*
X-1881936Y891590D01*
X-1882139Y888237D01*
X-1881936Y884885D01*
X-1881428Y881684D01*
X-1880565Y878687D01*
X-1879346Y875792D01*
X-1866138Y849121D01*
X-1862988Y844346D01*
X-1859127Y840943D01*
X-1854606Y838860D01*
X-1849374Y838200D01*
X-1827022Y838200D01*
X-1823212Y838606D01*
X-1820519Y839774D01*
X-1818944Y841756D01*
X-1818386Y844550D01*
X-1818944Y847344D01*
X-1820519Y849325D01*
X-1823212Y850493D01*
X-1827022Y850900D01*
X-1847596Y850900D01*
X-1849932Y851153D01*
X-1851964Y851966D01*
X-1853641Y853338D01*
X-1854962Y855218D01*
X-1868017Y882243D01*
X-1868678Y884174D01*
X-1869186Y887984D01*
X-1868678Y892251D01*
X-1867154Y896366D01*
X-1854707Y921512D01*
X-1853539Y923290D01*
X-1852015Y924560D01*
X-1850237Y925321D01*
X-1848104Y925576D01*
X-1827022Y925576D01*
X-1823212Y925982D01*
X-1820519Y927150D01*
X-1818944Y929132D01*
X-1818386Y931926D01*
X-1818944Y934719D01*
X-1820519Y936701D01*
X-1823212Y937869D01*
X-1827022Y938276D01*
G37*
G36*
X-2029460Y1192276D02*
G01*
X-2034184Y1191768D01*
X-2038350Y1190345D01*
X-2042058Y1187958D01*
X-2045207Y1184656D01*
X-2061972Y1162812D01*
X-2064664Y1159052D01*
X-2066543Y1155141D01*
X-2067661Y1151026D01*
X-2068068Y1146810D01*
X-2068068Y1111504D01*
X-2067712Y1107592D01*
X-2066645Y1103985D01*
X-2064918Y1100734D01*
X-2062480Y1097788D01*
X-2059533Y1095349D01*
X-2056282Y1093571D01*
X-2052675Y1092555D01*
X-2048764Y1092200D01*
X-2023364Y1092200D01*
X-2019655Y1092555D01*
X-2016252Y1093571D01*
X-2013102Y1095349D01*
X-2010156Y1097788D01*
X-2007616Y1100683D01*
X-2005787Y1103833D01*
X-2004669Y1107186D01*
X-2004314Y1110742D01*
X-2004314Y1137412D01*
X-2027682Y1137412D01*
X-2031441Y1137005D01*
X-2034133Y1135837D01*
X-2035759Y1133856D01*
X-2036318Y1131062D01*
X-2035759Y1128268D01*
X-2034133Y1126286D01*
X-2031441Y1125118D01*
X-2027682Y1124712D01*
X-2017014Y1124712D01*
X-2017014Y1112520D01*
X-2017471Y1109167D01*
X-2018792Y1106779D01*
X-2021027Y1105357D01*
X-2024125Y1104900D01*
X-2047748Y1104900D01*
X-2050948Y1105357D01*
X-2053285Y1106779D01*
X-2054656Y1109167D01*
X-2055114Y1112520D01*
X-2055114Y1145032D01*
X-2054910Y1147826D01*
X-2054352Y1150416D01*
X-2053386Y1152804D01*
X-2052066Y1154938D01*
X-2034082Y1177899D01*
X-2032762Y1179068D01*
X-2031034Y1179423D01*
X-2012950Y1179576D01*
X-2009292Y1179982D01*
X-2006650Y1181150D01*
X-2005075Y1183132D01*
X-2004568Y1185926D01*
X-2005075Y1188720D01*
X-2006650Y1190701D01*
X-2009292Y1191869D01*
X-2012950Y1192276D01*
G37*
G36*
X-1975104Y1192276D02*
G01*
X-1975104Y1100836D01*
X-1974697Y1097026D01*
X-1973529Y1094333D01*
X-1971548Y1092708D01*
X-1968754Y1092200D01*
X-1965960Y1092708D01*
X-1963978Y1094333D01*
X-1962810Y1097026D01*
X-1962404Y1100836D01*
X-1962404Y1169416D01*
X-1928368Y1092200D01*
X-1911604Y1092200D01*
X-1911604Y1183640D01*
X-1912010Y1187399D01*
X-1913178Y1190091D01*
X-1915160Y1191717D01*
X-1917954Y1192276D01*
X-1920748Y1191717D01*
X-1922729Y1190091D01*
X-1923897Y1187399D01*
X-1924304Y1183640D01*
X-1924304Y1114298D01*
X-1958086Y1192276D01*
G37*
G36*
X-1873757Y1192276D02*
G01*
X-1877415Y1191869D01*
X-1880057Y1190701D01*
X-1881632Y1188720D01*
X-1882139Y1185926D01*
X-1881632Y1183132D01*
X-1880057Y1181150D01*
X-1877415Y1179982D01*
X-1873757Y1179576D01*
X-1852675Y1179576D01*
X-1850542Y1179322D01*
X-1848764Y1178560D01*
X-1847240Y1177290D01*
X-1846072Y1175512D01*
X-1832762Y1148435D01*
X-1831492Y1144117D01*
X-1831441Y1140358D01*
X-1832356Y1136650D01*
X-1845818Y1108964D01*
X-1846986Y1107186D01*
X-1848459Y1105916D01*
X-1850288Y1105154D01*
X-1852422Y1104900D01*
X-1856739Y1104900D01*
X-1856739Y1179576D01*
X-1869439Y1179576D01*
X-1869439Y1104900D01*
X-1873757Y1104900D01*
X-1877415Y1104493D01*
X-1880057Y1103325D01*
X-1881632Y1101344D01*
X-1882139Y1098550D01*
X-1881632Y1095756D01*
X-1880057Y1093774D01*
X-1877415Y1092606D01*
X-1873757Y1092200D01*
X-1852930Y1092200D01*
X-1846935Y1092860D01*
X-1841906Y1094841D01*
X-1837791Y1098194D01*
X-1834642Y1102868D01*
X-1821688Y1129030D01*
X-1820367Y1132128D01*
X-1819402Y1135430D01*
X-1818843Y1138885D01*
X-1818639Y1142492D01*
X-1818843Y1145692D01*
X-1819402Y1148892D01*
X-1820367Y1152144D01*
X-1821688Y1155446D01*
X-1834388Y1181100D01*
X-1837588Y1185976D01*
X-1841500Y1189482D01*
X-1846224Y1191564D01*
X-1851660Y1192276D01*
G37*
G36*
X-3249168Y-839724D02*
G01*
X-3249168Y-852424D01*
X-3205988Y-852424D01*
X-3202533Y-852881D01*
X-3200095Y-854303D01*
X-3198622Y-856691D01*
X-3198114Y-860044D01*
X-3198114Y-880871D01*
X-3198571Y-884428D01*
X-3199942Y-886968D01*
X-3202279Y-888492D01*
X-3205480Y-889000D01*
X-3236468Y-889000D01*
X-3236468Y-852424D01*
X-3249168Y-852424D01*
X-3249066Y-934364D01*
X-3248710Y-935685D01*
X-3247390Y-937768D01*
X-3245358Y-939088D01*
X-3244138Y-939444D01*
X-3242818Y-939546D01*
X-3240024Y-939037D01*
X-3238042Y-937463D01*
X-3236874Y-934821D01*
X-3236468Y-931164D01*
X-3236468Y-901953D01*
X-3206496Y-901953D01*
X-3201822Y-901598D01*
X-3197656Y-900582D01*
X-3194050Y-898804D01*
X-3191002Y-896366D01*
X-3188563Y-893318D01*
X-3186836Y-889711D01*
X-3185769Y-885545D01*
X-3185414Y-880871D01*
X-3185414Y-860044D01*
X-3185769Y-855675D01*
X-3186734Y-851814D01*
X-3188411Y-848309D01*
X-3190748Y-845312D01*
X-3193643Y-842873D01*
X-3196894Y-841146D01*
X-3200603Y-840079D01*
X-3204718Y-839724D01*
G37*
G36*
X-3143504Y-839724D02*
G01*
X-3145942Y-839978D01*
X-3148279Y-840689D01*
X-3150412Y-841857D01*
X-3152394Y-843534D01*
X-3154070Y-845515D01*
X-3155238Y-847648D01*
X-3155950Y-849985D01*
X-3156204Y-852424D01*
X-3105404Y-852424D01*
X-3105404Y-927100D01*
X-3143504Y-927100D01*
X-3143504Y-852424D01*
X-3156204Y-852424D01*
X-3156204Y-927100D01*
X-3155950Y-929538D01*
X-3155238Y-931875D01*
X-3154070Y-934008D01*
X-3152394Y-935990D01*
X-3150514Y-937666D01*
X-3148533Y-938834D01*
X-3146348Y-939546D01*
X-3144012Y-939800D01*
X-3105404Y-939800D01*
X-3102965Y-939596D01*
X-3100628Y-938936D01*
X-3098495Y-937818D01*
X-3096514Y-936244D01*
X-3094837Y-934364D01*
X-3093669Y-932383D01*
X-3092958Y-930198D01*
X-3092704Y-927862D01*
X-3092704Y-853186D01*
X-3092907Y-850392D01*
X-3093618Y-847852D01*
X-3094685Y-845566D01*
X-3096260Y-843534D01*
X-3098139Y-841857D01*
X-3100324Y-840689D01*
X-3102762Y-839978D01*
X-3105404Y-839724D01*
G37*
G36*
X-3056382Y-839724D02*
G01*
X-3059379Y-840130D01*
X-3061512Y-841349D01*
X-3062833Y-843432D01*
X-3063240Y-846328D01*
X-3063240Y-852424D01*
X-3012440Y-852424D01*
X-3012440Y-872744D01*
X-3050540Y-872744D01*
X-3050540Y-852424D01*
X-3063240Y-852424D01*
X-3063240Y-878586D01*
X-3062884Y-881583D01*
X-3061716Y-883716D01*
X-3059785Y-885037D01*
X-3057144Y-885444D01*
X-3012440Y-885444D01*
X-3012440Y-927100D01*
X-3015234Y-927760D01*
X-3017215Y-929081D01*
X-3018383Y-930960D01*
X-3018790Y-933450D01*
X-3018688Y-934669D01*
X-3017774Y-936955D01*
X-3017012Y-938021D01*
X-3014878Y-939342D01*
X-3012440Y-939800D01*
X-3004616Y-939698D01*
X-3002432Y-938784D01*
X-3000654Y-937107D01*
X-2999587Y-934923D01*
X-2999587Y-844956D01*
X-3000654Y-842568D01*
X-3001518Y-841502D01*
X-3003550Y-840181D01*
X-3004769Y-839825D01*
G37*
G36*
X-3249117Y-585724D02*
G01*
X-3249117Y-598424D01*
X-3205937Y-598424D01*
X-3202533Y-598932D01*
X-3200044Y-600354D01*
X-3198571Y-602742D01*
X-3198063Y-606044D01*
X-3198063Y-626872D01*
X-3198520Y-630428D01*
X-3199942Y-632968D01*
X-3202228Y-634492D01*
X-3205429Y-635000D01*
X-3236417Y-635000D01*
X-3236417Y-598424D01*
X-3249117Y-598424D01*
X-3249015Y-680415D01*
X-3248710Y-681685D01*
X-3248152Y-682802D01*
X-3246424Y-684530D01*
X-3244138Y-685444D01*
X-3242767Y-685546D01*
X-3240024Y-685038D01*
X-3238042Y-683463D01*
X-3236823Y-680821D01*
X-3236417Y-677164D01*
X-3236417Y-647954D01*
X-3206445Y-647954D01*
X-3201771Y-647598D01*
X-3197656Y-646582D01*
X-3194050Y-644804D01*
X-3190951Y-642366D01*
X-3188512Y-639318D01*
X-3186785Y-635711D01*
X-3185718Y-631545D01*
X-3185363Y-626872D01*
X-3185363Y-606044D01*
X-3185718Y-601726D01*
X-3186734Y-597814D01*
X-3188360Y-594360D01*
X-3190697Y-591312D01*
X-3193592Y-588873D01*
X-3196894Y-587146D01*
X-3200552Y-586079D01*
X-3204667Y-585724D01*
G37*
G36*
X-3147517Y-585724D02*
G01*
X-3151225Y-586130D01*
X-3153816Y-587298D01*
X-3155391Y-589280D01*
X-3155899Y-592074D01*
X-3155391Y-594868D01*
X-3153816Y-596849D01*
X-3151225Y-598017D01*
X-3147517Y-598424D01*
X-3130753Y-598424D01*
X-3130753Y-673100D01*
X-3147517Y-673100D01*
X-3151225Y-673506D01*
X-3153816Y-674674D01*
X-3155391Y-676656D01*
X-3155899Y-679450D01*
X-3155391Y-682244D01*
X-3153816Y-684225D01*
X-3151225Y-685393D01*
X-3147517Y-685800D01*
X-3098495Y-685800D01*
X-3095853Y-685393D01*
X-3093923Y-684072D01*
X-3092805Y-681939D01*
X-3092399Y-678942D01*
X-3092399Y-648970D01*
X-3092805Y-645312D01*
X-3094024Y-642670D01*
X-3096006Y-641096D01*
X-3098749Y-640588D01*
X-3101543Y-641096D01*
X-3103524Y-642670D01*
X-3104743Y-645312D01*
X-3105099Y-648970D01*
X-3105099Y-673100D01*
X-3117799Y-673100D01*
X-3117799Y-585724D01*
G37*
G36*
X-3050489Y-585724D02*
G01*
X-3052978Y-585978D01*
X-3055264Y-586689D01*
X-3057398Y-587857D01*
X-3059379Y-589534D01*
X-3061055Y-591515D01*
X-3062274Y-593648D01*
X-3062986Y-595985D01*
X-3063189Y-598424D01*
X-3012389Y-598424D01*
X-3012389Y-673100D01*
X-3050489Y-673100D01*
X-3050489Y-598424D01*
X-3063189Y-598424D01*
X-3063189Y-673100D01*
X-3062986Y-675589D01*
X-3062274Y-677875D01*
X-3061055Y-680008D01*
X-3059379Y-681990D01*
X-3057550Y-683666D01*
X-3055518Y-684834D01*
X-3053334Y-685546D01*
X-3050997Y-685800D01*
X-3012389Y-685800D01*
X-3009950Y-685596D01*
X-3007664Y-684936D01*
X-3005480Y-683818D01*
X-3003499Y-682244D01*
X-3001873Y-680415D01*
X-3000654Y-678383D01*
X-2999943Y-676198D01*
X-2999689Y-673862D01*
X-2999689Y-599186D01*
X-2999943Y-596392D01*
X-3000603Y-593852D01*
X-3001721Y-591566D01*
X-3003245Y-589534D01*
X-3005175Y-587857D01*
X-3007309Y-586689D01*
X-3009747Y-585978D01*
X-3012389Y-585724D01*
G37*
G36*
X-3249117Y-331724D02*
G01*
X-3249117Y-344424D01*
X-3205937Y-344424D01*
X-3202533Y-344881D01*
X-3200044Y-346303D01*
X-3198571Y-348691D01*
X-3198063Y-352044D01*
X-3198063Y-372872D01*
X-3198520Y-376428D01*
X-3199942Y-378968D01*
X-3202228Y-380492D01*
X-3205429Y-381000D01*
X-3236417Y-381000D01*
X-3236417Y-344424D01*
X-3249117Y-344424D01*
X-3249015Y-426364D01*
X-3248710Y-427634D01*
X-3248152Y-428802D01*
X-3246424Y-430530D01*
X-3245307Y-431088D01*
X-3242767Y-431546D01*
X-3240024Y-430987D01*
X-3238042Y-429412D01*
X-3236823Y-426821D01*
X-3236417Y-423164D01*
X-3236417Y-393954D01*
X-3206445Y-393954D01*
X-3201771Y-393598D01*
X-3197656Y-392531D01*
X-3194050Y-390804D01*
X-3190951Y-388366D01*
X-3188512Y-385267D01*
X-3186785Y-381660D01*
X-3185718Y-377545D01*
X-3185363Y-372872D01*
X-3185363Y-352044D01*
X-3185718Y-347675D01*
X-3186734Y-343763D01*
X-3188360Y-340309D01*
X-3190697Y-337312D01*
X-3193592Y-334873D01*
X-3196894Y-333095D01*
X-3200552Y-332079D01*
X-3204667Y-331724D01*
G37*
G36*
X-3147517Y-331724D02*
G01*
X-3151225Y-332079D01*
X-3153816Y-333298D01*
X-3155391Y-335280D01*
X-3155899Y-338074D01*
X-3155391Y-340817D01*
X-3153816Y-342798D01*
X-3151225Y-344017D01*
X-3147517Y-344424D01*
X-3130753Y-344424D01*
X-3130753Y-419100D01*
X-3147517Y-419100D01*
X-3151225Y-419455D01*
X-3153816Y-420674D01*
X-3155391Y-422656D01*
X-3155899Y-425450D01*
X-3155391Y-428193D01*
X-3153816Y-430174D01*
X-3151225Y-431393D01*
X-3147517Y-431800D01*
X-3098495Y-431800D01*
X-3095853Y-431342D01*
X-3093923Y-430072D01*
X-3092805Y-427939D01*
X-3092399Y-424942D01*
X-3092399Y-394970D01*
X-3092805Y-391261D01*
X-3094024Y-388670D01*
X-3096006Y-387096D01*
X-3098749Y-386588D01*
X-3101543Y-387096D01*
X-3103524Y-388670D01*
X-3104743Y-391261D01*
X-3105099Y-394970D01*
X-3105099Y-419100D01*
X-3117799Y-419100D01*
X-3117799Y-331724D01*
G37*
G36*
X-3054553Y-331724D02*
G01*
X-3058261Y-332079D01*
X-3060852Y-333298D01*
X-3062427Y-335280D01*
X-3062935Y-338074D01*
X-3062427Y-340817D01*
X-3060852Y-342798D01*
X-3058261Y-344017D01*
X-3054553Y-344424D01*
X-3037789Y-344424D01*
X-3037789Y-419100D01*
X-3054553Y-419100D01*
X-3058261Y-419455D01*
X-3060852Y-420674D01*
X-3062427Y-422656D01*
X-3062935Y-425450D01*
X-3062427Y-428193D01*
X-3060852Y-430174D01*
X-3058261Y-431393D01*
X-3054553Y-431800D01*
X-3005531Y-431800D01*
X-3002889Y-431342D01*
X-3000959Y-430072D01*
X-2999841Y-427939D01*
X-2999435Y-424942D01*
X-2999435Y-394970D01*
X-2999841Y-391261D01*
X-3001060Y-388670D01*
X-3003042Y-387096D01*
X-3005785Y-386588D01*
X-3008579Y-387096D01*
X-3010560Y-388670D01*
X-3011779Y-391261D01*
X-3012135Y-394970D01*
X-3012135Y-419100D01*
X-3024835Y-419100D01*
X-3024835Y-331724D01*
G37*
G36*
X-3249117Y-77724D02*
G01*
X-3249117Y-90424D01*
X-3205937Y-90424D01*
X-3202533Y-90932D01*
X-3200044Y-92354D01*
X-3198571Y-94742D01*
X-3198063Y-98044D01*
X-3198063Y-118872D01*
X-3198520Y-122428D01*
X-3199942Y-124968D01*
X-3202228Y-126492D01*
X-3205429Y-127000D01*
X-3236417Y-127000D01*
X-3236417Y-90424D01*
X-3249117Y-90424D01*
X-3249015Y-172415D01*
X-3248710Y-173685D01*
X-3248152Y-174802D01*
X-3246424Y-176580D01*
X-3244138Y-177444D01*
X-3242767Y-177546D01*
X-3240024Y-177038D01*
X-3238042Y-175463D01*
X-3236823Y-172821D01*
X-3236417Y-169164D01*
X-3236417Y-139954D01*
X-3206445Y-139954D01*
X-3201771Y-139598D01*
X-3197656Y-138582D01*
X-3194050Y-136804D01*
X-3190951Y-134366D01*
X-3188512Y-131318D01*
X-3186785Y-127711D01*
X-3185718Y-123545D01*
X-3185363Y-118872D01*
X-3185363Y-98044D01*
X-3185718Y-93726D01*
X-3186734Y-89814D01*
X-3188360Y-86360D01*
X-3190697Y-83312D01*
X-3193592Y-80873D01*
X-3196894Y-79146D01*
X-3200552Y-78079D01*
X-3204667Y-77724D01*
G37*
G36*
X-3147517Y-77724D02*
G01*
X-3151225Y-78130D01*
X-3153816Y-79298D01*
X-3155391Y-81330D01*
X-3155899Y-84074D01*
X-3155391Y-86868D01*
X-3153816Y-88849D01*
X-3151225Y-90017D01*
X-3147517Y-90424D01*
X-3130753Y-90424D01*
X-3130753Y-165100D01*
X-3147517Y-165100D01*
X-3151225Y-165506D01*
X-3153816Y-166674D01*
X-3155391Y-168706D01*
X-3155899Y-171450D01*
X-3155391Y-174244D01*
X-3153816Y-176225D01*
X-3151225Y-177393D01*
X-3147517Y-177800D01*
X-3098495Y-177800D01*
X-3095853Y-177393D01*
X-3093923Y-176072D01*
X-3092805Y-173939D01*
X-3092399Y-170942D01*
X-3092399Y-140970D01*
X-3092805Y-137312D01*
X-3094024Y-134670D01*
X-3096006Y-133146D01*
X-3098749Y-132588D01*
X-3101543Y-133146D01*
X-3103524Y-134670D01*
X-3104743Y-137312D01*
X-3105099Y-140970D01*
X-3105099Y-165100D01*
X-3117799Y-165100D01*
X-3117799Y-77724D01*
G37*
G36*
X-3054553Y-77724D02*
G01*
X-3058363Y-78130D01*
X-3061055Y-79298D01*
X-3062681Y-81330D01*
X-3063189Y-84074D01*
X-3062681Y-86868D01*
X-3061055Y-88849D01*
X-3058363Y-90017D01*
X-3054553Y-90424D01*
X-3012389Y-90424D01*
X-3012389Y-121412D01*
X-3050235Y-121412D01*
X-3052927Y-121666D01*
X-3055315Y-122326D01*
X-3057499Y-123444D01*
X-3059379Y-124968D01*
X-3061055Y-127000D01*
X-3062274Y-129235D01*
X-3062986Y-131673D01*
X-3063189Y-134366D01*
X-3063189Y-177800D01*
X-3008071Y-177800D01*
X-3004413Y-177393D01*
X-3001822Y-176225D01*
X-3000248Y-174244D01*
X-2999689Y-171450D01*
X-3000248Y-168706D01*
X-3001822Y-166674D01*
X-3004413Y-165506D01*
X-3008071Y-165100D01*
X-3050235Y-165100D01*
X-3050235Y-134366D01*
X-3012389Y-134366D01*
X-3009747Y-134162D01*
X-3007309Y-133400D01*
X-3005175Y-132232D01*
X-3003245Y-130556D01*
X-3001721Y-128676D01*
X-3000603Y-126492D01*
X-2999943Y-124104D01*
X-2999689Y-121412D01*
X-2999689Y-91186D01*
X-2999943Y-88392D01*
X-3000603Y-85852D01*
X-3001721Y-83566D01*
X-3003245Y-81534D01*
X-3005175Y-79857D01*
X-3007309Y-78689D01*
X-3009747Y-77978D01*
X-3012389Y-77724D01*
G37*
G36*
X-3249117Y188976D02*
G01*
X-3249117Y176276D01*
X-3205937Y176276D01*
X-3202533Y175818D01*
X-3200044Y174396D01*
X-3198571Y172008D01*
X-3198063Y168656D01*
X-3198063Y147828D01*
X-3198520Y144272D01*
X-3199942Y141732D01*
X-3202228Y140208D01*
X-3205429Y139700D01*
X-3236417Y139700D01*
X-3236417Y176276D01*
X-3249117Y176276D01*
X-3249015Y94335D01*
X-3248710Y93014D01*
X-3248152Y91897D01*
X-3246424Y90170D01*
X-3244138Y89255D01*
X-3242767Y89154D01*
X-3240024Y89662D01*
X-3238042Y91236D01*
X-3236823Y93878D01*
X-3236417Y97536D01*
X-3236417Y126746D01*
X-3206445Y126746D01*
X-3201771Y127101D01*
X-3197656Y128117D01*
X-3194050Y129895D01*
X-3190951Y132334D01*
X-3188512Y135382D01*
X-3186785Y138988D01*
X-3185718Y143154D01*
X-3185363Y147828D01*
X-3185363Y168656D01*
X-3185718Y173024D01*
X-3186734Y176885D01*
X-3188360Y180390D01*
X-3190697Y183388D01*
X-3193592Y185826D01*
X-3196894Y187553D01*
X-3200552Y188620D01*
X-3204667Y188976D01*
G37*
G36*
X-3147517Y188976D02*
G01*
X-3151225Y188569D01*
X-3153816Y187401D01*
X-3155391Y185420D01*
X-3155899Y182626D01*
X-3155391Y179832D01*
X-3153816Y177850D01*
X-3151225Y176682D01*
X-3147517Y176276D01*
X-3130753Y176276D01*
X-3130753Y101600D01*
X-3147517Y101600D01*
X-3151225Y101193D01*
X-3153816Y100025D01*
X-3155391Y98044D01*
X-3155899Y95250D01*
X-3155391Y92456D01*
X-3153816Y90474D01*
X-3151225Y89306D01*
X-3147517Y88900D01*
X-3098495Y88900D01*
X-3095853Y89306D01*
X-3093923Y90627D01*
X-3092805Y92760D01*
X-3092399Y95758D01*
X-3092399Y125730D01*
X-3092805Y129387D01*
X-3094024Y132029D01*
X-3096006Y133604D01*
X-3098749Y134112D01*
X-3101543Y133604D01*
X-3103524Y132029D01*
X-3104743Y129387D01*
X-3105099Y125730D01*
X-3105099Y101600D01*
X-3117799Y101600D01*
X-3117799Y188976D01*
G37*
G36*
X-3054807Y188976D02*
G01*
X-3058617Y188569D01*
X-3061309Y187401D01*
X-3062935Y185420D01*
X-3063443Y182626D01*
X-3062935Y179832D01*
X-3061309Y177850D01*
X-3058617Y176682D01*
X-3054807Y176276D01*
X-3012897Y176276D01*
X-3012897Y153162D01*
X-3013303Y149606D01*
X-3014573Y147066D01*
X-3016605Y145542D01*
X-3019501Y145034D01*
X-3042107Y145034D01*
X-3045815Y144627D01*
X-3048406Y143459D01*
X-3049981Y141478D01*
X-3050489Y138684D01*
X-3049981Y135890D01*
X-3048406Y133908D01*
X-3045815Y132740D01*
X-3042107Y132334D01*
X-3019501Y132334D01*
X-3016504Y131876D01*
X-3014370Y130454D01*
X-3013100Y128066D01*
X-3012643Y124714D01*
X-3012643Y101600D01*
X-3054807Y101600D01*
X-3058617Y101193D01*
X-3061309Y100025D01*
X-3062935Y98044D01*
X-3063443Y95250D01*
X-3062935Y92456D01*
X-3061309Y90474D01*
X-3058617Y89306D01*
X-3054807Y88900D01*
X-3012643Y88900D01*
X-3010103Y89103D01*
X-3007715Y89763D01*
X-3005531Y90881D01*
X-3003499Y92456D01*
X-3001873Y94437D01*
X-3000654Y96621D01*
X-2999943Y99009D01*
X-2999689Y101600D01*
X-2999689Y125730D01*
X-3000044Y129438D01*
X-3000959Y132842D01*
X-3002584Y135991D01*
X-3004769Y138938D01*
X-3002686Y141325D01*
X-3001162Y143967D01*
X-3000248Y146812D01*
X-2999943Y149860D01*
X-2999943Y177800D01*
X-3000197Y179984D01*
X-3000908Y182067D01*
X-3002127Y183946D01*
X-3003753Y185674D01*
X-3005734Y187096D01*
X-3007918Y188163D01*
X-3010204Y188772D01*
X-3012643Y188976D01*
G37*
G36*
X-3249168Y430276D02*
G01*
X-3249168Y417576D01*
X-3205988Y417576D01*
X-3202533Y417118D01*
X-3200095Y415696D01*
X-3198622Y413308D01*
X-3198114Y409956D01*
X-3198114Y389128D01*
X-3198571Y385572D01*
X-3199942Y383032D01*
X-3202279Y381508D01*
X-3205480Y381000D01*
X-3236468Y381000D01*
X-3236468Y417576D01*
X-3249168Y417576D01*
X-3249066Y335635D01*
X-3248710Y334314D01*
X-3247390Y332232D01*
X-3245358Y330911D01*
X-3244138Y330555D01*
X-3242818Y330454D01*
X-3240024Y330962D01*
X-3238042Y332536D01*
X-3236874Y335178D01*
X-3236468Y338836D01*
X-3236468Y368046D01*
X-3206496Y368046D01*
X-3201822Y368401D01*
X-3197656Y369417D01*
X-3194050Y371195D01*
X-3191002Y373634D01*
X-3188563Y376682D01*
X-3186836Y380288D01*
X-3185769Y384454D01*
X-3185414Y389128D01*
X-3185414Y409956D01*
X-3185769Y414324D01*
X-3186734Y418185D01*
X-3188411Y421690D01*
X-3190748Y424688D01*
X-3193643Y427126D01*
X-3196894Y428853D01*
X-3200603Y429920D01*
X-3204718Y430276D01*
G37*
G36*
X-3147568Y430276D02*
G01*
X-3151225Y429869D01*
X-3153867Y428701D01*
X-3155442Y426720D01*
X-3155950Y423926D01*
X-3155442Y421132D01*
X-3153867Y419150D01*
X-3151225Y417982D01*
X-3147568Y417576D01*
X-3130804Y417576D01*
X-3130804Y342900D01*
X-3147568Y342900D01*
X-3151225Y342493D01*
X-3153867Y341325D01*
X-3155442Y339344D01*
X-3155950Y336550D01*
X-3155442Y333756D01*
X-3153867Y331774D01*
X-3151225Y330606D01*
X-3147568Y330200D01*
X-3098546Y330200D01*
X-3095853Y330606D01*
X-3093974Y331927D01*
X-3092805Y334060D01*
X-3092450Y337058D01*
X-3092450Y367030D01*
X-3092856Y370687D01*
X-3094024Y373329D01*
X-3096006Y374904D01*
X-3098800Y375412D01*
X-3101594Y374904D01*
X-3103575Y373329D01*
X-3104743Y370687D01*
X-3105150Y367030D01*
X-3105150Y342900D01*
X-3117850Y342900D01*
X-3117850Y430276D01*
G37*
G36*
X-3050286Y430276D02*
G01*
X-3053080Y429717D01*
X-3055061Y428142D01*
X-3056229Y425399D01*
X-3056636Y421640D01*
X-3056636Y362966D01*
X-3018536Y362966D01*
X-3018536Y338836D01*
X-3018129Y335076D01*
X-3016910Y332384D01*
X-3014827Y330758D01*
X-3011932Y330200D01*
X-3009290Y330758D01*
X-3007360Y332384D01*
X-3006242Y335076D01*
X-3005836Y338836D01*
X-3005836Y362966D01*
X-3003956Y363067D01*
X-3001924Y363982D01*
X-3001010Y364744D01*
X-2999689Y366928D01*
X-2999333Y368096D01*
X-2999232Y369316D01*
X-2999638Y371703D01*
X-3000857Y373583D01*
X-3002940Y374904D01*
X-3005836Y375666D01*
X-3005836Y410718D01*
X-3006242Y414375D01*
X-3007360Y417017D01*
X-3009290Y418592D01*
X-3011932Y419100D01*
X-3014827Y418592D01*
X-3016910Y417017D01*
X-3018129Y414375D01*
X-3018536Y410718D01*
X-3018536Y375666D01*
X-3043936Y375666D01*
X-3043936Y421640D01*
X-3044342Y425399D01*
X-3045510Y428142D01*
X-3047492Y429717D01*
G37*
G36*
X-3249117Y684174D02*
G01*
X-3249117Y671474D01*
X-3205937Y671474D01*
X-3202533Y670966D01*
X-3200044Y669544D01*
X-3198571Y667156D01*
X-3198063Y663854D01*
X-3198063Y643280D01*
X-3198520Y639622D01*
X-3199942Y636981D01*
X-3202228Y635406D01*
X-3205429Y634898D01*
X-3236417Y634898D01*
X-3236417Y671474D01*
X-3249117Y671474D01*
X-3249015Y589737D01*
X-3248710Y588416D01*
X-3248152Y587197D01*
X-3246424Y585317D01*
X-3244138Y584454D01*
X-3242767Y584352D01*
X-3240024Y584860D01*
X-3238042Y586435D01*
X-3236823Y589076D01*
X-3236417Y592734D01*
X-3236417Y622198D01*
X-3206445Y622198D01*
X-3201771Y622554D01*
X-3197656Y623570D01*
X-3194050Y625348D01*
X-3190951Y627786D01*
X-3188512Y630834D01*
X-3186785Y634441D01*
X-3185718Y638606D01*
X-3185363Y643280D01*
X-3185363Y663854D01*
X-3185718Y668274D01*
X-3186734Y672236D01*
X-3188360Y675640D01*
X-3190697Y678586D01*
X-3193592Y681024D01*
X-3196894Y682752D01*
X-3200552Y683818D01*
X-3204667Y684174D01*
G37*
G36*
X-3147517Y684174D02*
G01*
X-3151225Y683768D01*
X-3153816Y682650D01*
X-3155391Y680720D01*
X-3155899Y678078D01*
X-3155391Y675182D01*
X-3153816Y673100D01*
X-3151225Y671880D01*
X-3147517Y671474D01*
X-3130753Y671474D01*
X-3130753Y597052D01*
X-3147517Y597052D01*
X-3151225Y596646D01*
X-3153816Y595477D01*
X-3155391Y593445D01*
X-3155899Y590702D01*
X-3155391Y587806D01*
X-3153816Y585724D01*
X-3151225Y584504D01*
X-3147517Y584098D01*
X-3098495Y584098D01*
X-3095853Y584504D01*
X-3093923Y585876D01*
X-3092805Y588060D01*
X-3092399Y591210D01*
X-3092399Y621182D01*
X-3092805Y624840D01*
X-3094024Y627430D01*
X-3096006Y629005D01*
X-3098749Y629564D01*
X-3101543Y629005D01*
X-3103524Y627430D01*
X-3104743Y624840D01*
X-3105099Y621182D01*
X-3105099Y597052D01*
X-3117799Y597052D01*
X-3117799Y684174D01*
G37*
G36*
X-3050489Y684174D02*
G01*
X-3050489Y627786D01*
X-3012389Y627786D01*
X-3012389Y597052D01*
X-3041802Y597103D01*
X-3044342Y597458D01*
X-3052267Y600862D01*
X-3055162Y601827D01*
X-3057093Y602132D01*
X-3058312Y602030D01*
X-3060496Y601116D01*
X-3062325Y599389D01*
X-3063341Y597255D01*
X-3063443Y596036D01*
X-3063087Y594106D01*
X-3062020Y592328D01*
X-3060192Y590804D01*
X-3057601Y589432D01*
X-3047847Y585063D01*
X-3043885Y584200D01*
X-3012389Y584098D01*
X-3009950Y584301D01*
X-3007664Y585063D01*
X-3005480Y586232D01*
X-3003499Y587908D01*
X-3001873Y589889D01*
X-3000654Y592074D01*
X-2999943Y594461D01*
X-2999689Y597052D01*
X-2999689Y627786D01*
X-2999943Y630326D01*
X-3000654Y632663D01*
X-3001873Y634796D01*
X-3003499Y636676D01*
X-3005429Y638352D01*
X-3007512Y639521D01*
X-3009849Y640232D01*
X-3012389Y640486D01*
X-3037789Y640486D01*
X-3037789Y671474D01*
X-3008325Y671474D01*
X-3004566Y671880D01*
X-3001873Y673100D01*
X-3000248Y675182D01*
X-2999689Y678078D01*
X-3000248Y680720D01*
X-3001873Y682650D01*
X-3004566Y683768D01*
X-3008325Y684174D01*
G37*
G36*
X-2976372Y-1044956D02*
G01*
X-2980486Y-1045718D01*
X-2983433Y-1048054D01*
X-2985211Y-1051966D01*
X-2985770Y-1057402D01*
X-2985770Y-1081532D01*
X-3005074Y-1065022D01*
X-3007512Y-1063142D01*
X-3009696Y-1061770D01*
X-3011678Y-1060958D01*
X-3013456Y-1060704D01*
X-3015386Y-1060856D01*
X-3017164Y-1061313D01*
X-3018688Y-1062126D01*
X-3020060Y-1063244D01*
X-3021279Y-1064717D01*
X-3022142Y-1066393D01*
X-3022701Y-1068273D01*
X-3022854Y-1070356D01*
X-3022498Y-1072235D01*
X-3021482Y-1074267D01*
X-3019704Y-1076553D01*
X-3017266Y-1078992D01*
X-2990850Y-1101852D01*
X-3017266Y-1124458D01*
X-3019704Y-1126845D01*
X-3021482Y-1129080D01*
X-3022498Y-1131265D01*
X-3022854Y-1133348D01*
X-3022701Y-1135278D01*
X-3022142Y-1137107D01*
X-3021279Y-1138732D01*
X-3020060Y-1140206D01*
X-3018688Y-1141425D01*
X-3017164Y-1142288D01*
X-3015386Y-1142847D01*
X-3013456Y-1143000D01*
X-3011678Y-1142746D01*
X-3009696Y-1141933D01*
X-3007512Y-1140561D01*
X-3005074Y-1138682D01*
X-2985770Y-1122172D01*
X-2985770Y-1146810D01*
X-2985211Y-1152245D01*
X-2983433Y-1156157D01*
X-2980486Y-1158494D01*
X-2976372Y-1159256D01*
X-2972257Y-1158494D01*
X-2969310Y-1156157D01*
X-2967583Y-1152245D01*
X-2966974Y-1146810D01*
X-2966974Y-1122172D01*
X-2947670Y-1138682D01*
X-2945231Y-1140561D01*
X-2943047Y-1141933D01*
X-2941066Y-1142746D01*
X-2939288Y-1143000D01*
X-2937459Y-1142847D01*
X-2935732Y-1142339D01*
X-2934157Y-1141577D01*
X-2932684Y-1140460D01*
X-2931464Y-1138986D01*
X-2930601Y-1137259D01*
X-2930042Y-1135430D01*
X-2929890Y-1133348D01*
X-2930245Y-1131265D01*
X-2931312Y-1129080D01*
X-2933039Y-1126845D01*
X-2935478Y-1124458D01*
X-2961894Y-1101852D01*
X-2935478Y-1078992D01*
X-2933039Y-1076553D01*
X-2931312Y-1074267D01*
X-2930245Y-1072235D01*
X-2929890Y-1070356D01*
X-2930042Y-1068273D01*
X-2930601Y-1066393D01*
X-2931464Y-1064717D01*
X-2932684Y-1063244D01*
X-2934157Y-1062126D01*
X-2935732Y-1061313D01*
X-2937459Y-1060856D01*
X-2939288Y-1060704D01*
X-2941066Y-1060958D01*
X-2943047Y-1061770D01*
X-2945231Y-1063142D01*
X-2947670Y-1065022D01*
X-2966974Y-1081532D01*
X-2966974Y-1057402D01*
X-2967583Y-1051966D01*
X-2969310Y-1048054D01*
X-2972257Y-1045718D01*
G37*
G36*
X-2963672Y-778256D02*
G01*
X-2967786Y-779018D01*
X-2970733Y-781354D01*
X-2972511Y-785266D01*
X-2973070Y-790702D01*
X-2973070Y-814832D01*
X-2992374Y-798322D01*
X-2994812Y-796442D01*
X-2996996Y-795070D01*
X-2998978Y-794258D01*
X-3000756Y-794004D01*
X-3002686Y-794156D01*
X-3004464Y-794613D01*
X-3005988Y-795426D01*
X-3007360Y-796544D01*
X-3008579Y-798017D01*
X-3009442Y-799693D01*
X-3010001Y-801573D01*
X-3010154Y-803656D01*
X-3009798Y-805535D01*
X-3008782Y-807567D01*
X-3007004Y-809853D01*
X-3004566Y-812292D01*
X-2978150Y-835152D01*
X-3004566Y-857758D01*
X-3007004Y-860145D01*
X-3008782Y-862380D01*
X-3009798Y-864565D01*
X-3010154Y-866648D01*
X-3010001Y-868578D01*
X-3009442Y-870407D01*
X-3008579Y-872032D01*
X-3007360Y-873506D01*
X-3005988Y-874725D01*
X-3004464Y-875588D01*
X-3002686Y-876147D01*
X-3000756Y-876300D01*
X-2998978Y-876046D01*
X-2996996Y-875233D01*
X-2994812Y-873861D01*
X-2992374Y-871982D01*
X-2973070Y-855471D01*
X-2973070Y-880110D01*
X-2972511Y-885545D01*
X-2970733Y-889457D01*
X-2967786Y-891794D01*
X-2963672Y-892556D01*
X-2959557Y-891794D01*
X-2956610Y-889457D01*
X-2954883Y-885545D01*
X-2954274Y-880110D01*
X-2954274Y-855471D01*
X-2934970Y-871982D01*
X-2932531Y-873861D01*
X-2930347Y-875233D01*
X-2928366Y-876046D01*
X-2926588Y-876300D01*
X-2924759Y-876147D01*
X-2923032Y-875639D01*
X-2921457Y-874877D01*
X-2919984Y-873760D01*
X-2918764Y-872286D01*
X-2917901Y-870559D01*
X-2917342Y-868730D01*
X-2917190Y-866648D01*
X-2917545Y-864565D01*
X-2918612Y-862380D01*
X-2920339Y-860145D01*
X-2922778Y-857758D01*
X-2949194Y-835152D01*
X-2922778Y-812292D01*
X-2920339Y-809853D01*
X-2918612Y-807567D01*
X-2917545Y-805535D01*
X-2917190Y-803656D01*
X-2917342Y-801573D01*
X-2917901Y-799693D01*
X-2918764Y-798017D01*
X-2919984Y-796544D01*
X-2921457Y-795426D01*
X-2923032Y-794613D01*
X-2924759Y-794156D01*
X-2926588Y-794004D01*
X-2928366Y-794258D01*
X-2930347Y-795070D01*
X-2932531Y-796442D01*
X-2934970Y-798322D01*
X-2954274Y-814832D01*
X-2954274Y-790702D01*
X-2954883Y-785266D01*
X-2956610Y-781354D01*
X-2959557Y-779018D01*
G37*
G36*
X-2963672Y-524256D02*
G01*
X-2967786Y-525018D01*
X-2970733Y-527354D01*
X-2972511Y-531266D01*
X-2973070Y-536702D01*
X-2973070Y-560832D01*
X-2992374Y-544322D01*
X-2994812Y-542442D01*
X-2996996Y-541070D01*
X-2998978Y-540258D01*
X-3000756Y-540004D01*
X-3002686Y-540156D01*
X-3004464Y-540664D01*
X-3005988Y-541426D01*
X-3007360Y-542544D01*
X-3008579Y-544017D01*
X-3009442Y-545744D01*
X-3010001Y-547573D01*
X-3010154Y-549656D01*
X-3009798Y-551535D01*
X-3008782Y-553618D01*
X-3007004Y-555853D01*
X-3004566Y-558292D01*
X-2978150Y-581152D01*
X-3004566Y-603758D01*
X-3007004Y-606145D01*
X-3008782Y-608380D01*
X-3009798Y-610565D01*
X-3010154Y-612648D01*
X-3010001Y-614578D01*
X-3009442Y-616407D01*
X-3008579Y-618032D01*
X-3007360Y-619506D01*
X-3005988Y-620725D01*
X-3004464Y-621588D01*
X-3002686Y-622147D01*
X-3000756Y-622300D01*
X-2998978Y-622046D01*
X-2996996Y-621233D01*
X-2994812Y-619861D01*
X-2992374Y-617982D01*
X-2973070Y-601472D01*
X-2973070Y-626110D01*
X-2972511Y-631545D01*
X-2970733Y-635457D01*
X-2967786Y-637794D01*
X-2963672Y-638556D01*
X-2959557Y-637794D01*
X-2956610Y-635457D01*
X-2954883Y-631545D01*
X-2954274Y-626110D01*
X-2954274Y-601472D01*
X-2934970Y-617982D01*
X-2932531Y-619861D01*
X-2930347Y-621233D01*
X-2928366Y-622046D01*
X-2926588Y-622300D01*
X-2924759Y-622147D01*
X-2923032Y-621639D01*
X-2921457Y-620877D01*
X-2919984Y-619760D01*
X-2918764Y-618286D01*
X-2917901Y-616610D01*
X-2917342Y-614730D01*
X-2917190Y-612648D01*
X-2917545Y-610565D01*
X-2918612Y-608380D01*
X-2920339Y-606145D01*
X-2922778Y-603758D01*
X-2949194Y-581152D01*
X-2922778Y-558292D01*
X-2920339Y-555853D01*
X-2918612Y-553618D01*
X-2917545Y-551535D01*
X-2917190Y-549656D01*
X-2917342Y-547573D01*
X-2917901Y-545693D01*
X-2918764Y-544017D01*
X-2919984Y-542544D01*
X-2921457Y-541426D01*
X-2923032Y-540664D01*
X-2924759Y-540156D01*
X-2926588Y-540004D01*
X-2928366Y-540258D01*
X-2930347Y-541070D01*
X-2932531Y-542442D01*
X-2934970Y-544322D01*
X-2954274Y-560832D01*
X-2954274Y-536702D01*
X-2954883Y-531266D01*
X-2956610Y-527354D01*
X-2959557Y-525018D01*
G37*
G36*
X-2963672Y-270256D02*
G01*
X-2967786Y-271018D01*
X-2970733Y-273354D01*
X-2972511Y-277266D01*
X-2973070Y-282702D01*
X-2973070Y-306832D01*
X-2992374Y-290322D01*
X-2994812Y-288442D01*
X-2996996Y-287070D01*
X-2998978Y-286258D01*
X-3000756Y-286004D01*
X-3002686Y-286156D01*
X-3004464Y-286664D01*
X-3005988Y-287426D01*
X-3007360Y-288544D01*
X-3008579Y-290017D01*
X-3009442Y-291744D01*
X-3010001Y-293573D01*
X-3010154Y-295656D01*
X-3009798Y-297535D01*
X-3008782Y-299618D01*
X-3007004Y-301853D01*
X-3004566Y-304292D01*
X-2978150Y-327152D01*
X-3004566Y-349758D01*
X-3007004Y-352145D01*
X-3008782Y-354380D01*
X-3009798Y-356565D01*
X-3010154Y-358648D01*
X-3010001Y-360578D01*
X-3009442Y-362407D01*
X-3008579Y-364032D01*
X-3007360Y-365506D01*
X-3005988Y-366725D01*
X-3004464Y-367588D01*
X-3002686Y-368147D01*
X-3000756Y-368300D01*
X-2998978Y-368046D01*
X-2996996Y-367233D01*
X-2994812Y-365861D01*
X-2992374Y-363982D01*
X-2973070Y-347472D01*
X-2973070Y-372110D01*
X-2972511Y-377545D01*
X-2970733Y-381457D01*
X-2967786Y-383794D01*
X-2963672Y-384556D01*
X-2959557Y-383794D01*
X-2956610Y-381457D01*
X-2954883Y-377545D01*
X-2954274Y-372110D01*
X-2954274Y-347472D01*
X-2934970Y-363982D01*
X-2932531Y-365861D01*
X-2930347Y-367233D01*
X-2928366Y-368046D01*
X-2926588Y-368300D01*
X-2924759Y-368147D01*
X-2923032Y-367639D01*
X-2921457Y-366877D01*
X-2919984Y-365760D01*
X-2918764Y-364286D01*
X-2917901Y-362610D01*
X-2917342Y-360730D01*
X-2917190Y-358648D01*
X-2917545Y-356565D01*
X-2918612Y-354380D01*
X-2920339Y-352145D01*
X-2922778Y-349758D01*
X-2949194Y-327152D01*
X-2922778Y-304292D01*
X-2920339Y-301853D01*
X-2918612Y-299618D01*
X-2917545Y-297535D01*
X-2917190Y-295656D01*
X-2917342Y-293573D01*
X-2917901Y-291693D01*
X-2918764Y-290017D01*
X-2919984Y-288544D01*
X-2921457Y-287426D01*
X-2923032Y-286664D01*
X-2924759Y-286156D01*
X-2926588Y-286004D01*
X-2928366Y-286258D01*
X-2930347Y-287070D01*
X-2932531Y-288442D01*
X-2934970Y-290322D01*
X-2954274Y-306832D01*
X-2954274Y-282702D01*
X-2954883Y-277266D01*
X-2956610Y-273354D01*
X-2959557Y-271018D01*
G37*
G36*
X-2963672Y-16256D02*
G01*
X-2967786Y-17018D01*
X-2970733Y-19354D01*
X-2972511Y-23266D01*
X-2973070Y-28702D01*
X-2973070Y-52832D01*
X-2992374Y-36322D01*
X-2994812Y-34442D01*
X-2996996Y-33070D01*
X-2998978Y-32258D01*
X-3000756Y-32004D01*
X-3002686Y-32156D01*
X-3004464Y-32664D01*
X-3005988Y-33426D01*
X-3007360Y-34544D01*
X-3008579Y-36017D01*
X-3009442Y-37744D01*
X-3010001Y-39573D01*
X-3010154Y-41656D01*
X-3009798Y-43535D01*
X-3008782Y-45618D01*
X-3007004Y-47853D01*
X-3004566Y-50292D01*
X-2978150Y-73152D01*
X-3004566Y-95758D01*
X-3007004Y-98145D01*
X-3008782Y-100380D01*
X-3009798Y-102565D01*
X-3010154Y-104648D01*
X-3010001Y-106578D01*
X-3009442Y-108407D01*
X-3008579Y-110032D01*
X-3007360Y-111506D01*
X-3005988Y-112725D01*
X-3004464Y-113588D01*
X-3002686Y-114147D01*
X-3000756Y-114300D01*
X-2998978Y-114046D01*
X-2996996Y-113233D01*
X-2994812Y-111861D01*
X-2992374Y-109982D01*
X-2973070Y-93472D01*
X-2973070Y-118110D01*
X-2972511Y-123545D01*
X-2970733Y-127457D01*
X-2967786Y-129794D01*
X-2963672Y-130556D01*
X-2959557Y-129794D01*
X-2956610Y-127457D01*
X-2954883Y-123545D01*
X-2954274Y-118110D01*
X-2954274Y-93472D01*
X-2934970Y-109982D01*
X-2932531Y-111861D01*
X-2930347Y-113233D01*
X-2928366Y-114046D01*
X-2926588Y-114300D01*
X-2924759Y-114147D01*
X-2923032Y-113639D01*
X-2921457Y-112877D01*
X-2919984Y-111760D01*
X-2918764Y-110286D01*
X-2917901Y-108610D01*
X-2917342Y-106730D01*
X-2917190Y-104648D01*
X-2917545Y-102565D01*
X-2918612Y-100380D01*
X-2920339Y-98145D01*
X-2922778Y-95758D01*
X-2949194Y-73152D01*
X-2922778Y-50292D01*
X-2920339Y-47853D01*
X-2918612Y-45618D01*
X-2917545Y-43535D01*
X-2917190Y-41656D01*
X-2917342Y-39573D01*
X-2917901Y-37693D01*
X-2918764Y-36017D01*
X-2919984Y-34544D01*
X-2921457Y-33426D01*
X-2923032Y-32664D01*
X-2924759Y-32156D01*
X-2926588Y-32004D01*
X-2928366Y-32258D01*
X-2930347Y-33070D01*
X-2932531Y-34442D01*
X-2934970Y-36322D01*
X-2954274Y-52832D01*
X-2954274Y-28702D01*
X-2954883Y-23266D01*
X-2956610Y-19354D01*
X-2959557Y-17018D01*
G37*
G36*
X-1737868Y1801875D02*
G01*
X-1737868Y1789175D01*
X-1700784Y1789175D01*
X-1690319Y1785366D01*
X-1686814Y1773936D01*
X-1690319Y1761947D01*
X-1700784Y1757934D01*
X-1724914Y1757934D01*
X-1724914Y1789175D01*
X-1737868Y1789175D01*
X-1737868Y1745234D01*
X-1701038Y1745234D01*
X-1690370Y1741424D01*
X-1686814Y1729993D01*
X-1690319Y1718360D01*
X-1700784Y1714500D01*
X-1724914Y1714500D01*
X-1724914Y1745234D01*
X-1737868Y1745234D01*
X-1737868Y1701800D01*
X-1700275Y1701800D01*
X-1694789Y1702257D01*
X-1689862Y1703679D01*
X-1685391Y1706067D01*
X-1681480Y1709420D01*
X-1678279Y1713382D01*
X-1675942Y1717852D01*
X-1674571Y1722882D01*
X-1674114Y1728470D01*
X-1674215Y1732534D01*
X-1674571Y1736140D01*
X-1675130Y1739290D01*
X-1675892Y1741932D01*
X-1677009Y1744370D01*
X-1678482Y1746757D01*
X-1680413Y1749145D01*
X-1682750Y1751584D01*
X-1676247Y1760829D01*
X-1674114Y1773428D01*
X-1674571Y1779473D01*
X-1675892Y1784908D01*
X-1678127Y1789785D01*
X-1681225Y1794002D01*
X-1684934Y1797456D01*
X-1689303Y1799894D01*
X-1694230Y1801368D01*
X-1699768Y1801875D01*
G37*
G36*
X-1535938Y1801875D02*
G01*
X-1539341Y1801622D01*
X-1542338Y1800860D01*
X-1545031Y1799589D01*
X-1547368Y1797812D01*
X-1549349Y1795627D01*
X-1550771Y1793189D01*
X-1551635Y1790446D01*
X-1551940Y1787398D01*
X-1551736Y1784908D01*
X-1551127Y1782521D01*
X-1550060Y1780184D01*
X-1548638Y1778000D01*
X-1502003Y1717751D01*
X-1501241Y1716481D01*
X-1501292Y1715363D01*
X-1501851Y1714855D01*
X-1503934Y1714500D01*
X-1534922Y1714500D01*
X-1536496Y1714703D01*
X-1537716Y1715312D01*
X-1538528Y1716379D01*
X-1539748Y1721002D01*
X-1541018Y1723339D01*
X-1542796Y1724710D01*
X-1545082Y1725168D01*
X-1547977Y1724710D01*
X-1550060Y1723339D01*
X-1551279Y1721002D01*
X-1551686Y1717802D01*
X-1551381Y1714703D01*
X-1550416Y1711858D01*
X-1548841Y1709115D01*
X-1546606Y1706625D01*
X-1543862Y1704492D01*
X-1540865Y1703019D01*
X-1537766Y1702104D01*
X-1534414Y1701800D01*
X-1502918Y1701800D01*
X-1499971Y1702054D01*
X-1497279Y1702866D01*
X-1494790Y1704238D01*
X-1492504Y1706118D01*
X-1490624Y1708302D01*
X-1489252Y1710689D01*
X-1488440Y1713331D01*
X-1488186Y1716278D01*
X-1488440Y1718665D01*
X-1489151Y1721053D01*
X-1490319Y1723389D01*
X-1537970Y1785112D01*
X-1538732Y1786331D01*
X-1538986Y1787398D01*
X-1538833Y1788160D01*
X-1538274Y1788718D01*
X-1537411Y1789074D01*
X-1505966Y1789175D01*
X-1504035Y1788922D01*
X-1502613Y1788160D01*
X-1501648Y1786889D01*
X-1500479Y1782013D01*
X-1499158Y1779778D01*
X-1497279Y1778457D01*
X-1494790Y1778000D01*
X-1491996Y1778457D01*
X-1490014Y1779828D01*
X-1488846Y1782165D01*
X-1488440Y1785366D01*
X-1488744Y1788464D01*
X-1489710Y1791411D01*
X-1491284Y1794154D01*
X-1493520Y1796796D01*
X-1496263Y1799031D01*
X-1499158Y1800606D01*
X-1502257Y1801571D01*
X-1505458Y1801875D01*
G37*
G36*
X-1638554Y1801622D02*
G01*
X-1641348Y1801114D01*
X-1643329Y1799539D01*
X-1644497Y1796897D01*
X-1644904Y1793239D01*
X-1644904Y1721357D01*
X-1644548Y1717344D01*
X-1643532Y1713687D01*
X-1641754Y1710334D01*
X-1639316Y1707388D01*
X-1636471Y1704949D01*
X-1633270Y1703171D01*
X-1629765Y1702155D01*
X-1625854Y1701800D01*
X-1600708Y1701800D01*
X-1596694Y1702155D01*
X-1593037Y1703171D01*
X-1589684Y1704949D01*
X-1586738Y1707388D01*
X-1584401Y1710486D01*
X-1582724Y1713992D01*
X-1581759Y1717852D01*
X-1581404Y1722120D01*
X-1581404Y1793239D01*
X-1581810Y1796897D01*
X-1582928Y1799539D01*
X-1584807Y1801114D01*
X-1587500Y1801622D01*
X-1590395Y1801114D01*
X-1592478Y1799539D01*
X-1593697Y1796897D01*
X-1594104Y1793239D01*
X-1594104Y1721357D01*
X-1594561Y1718360D01*
X-1595932Y1716227D01*
X-1598269Y1714906D01*
X-1601470Y1714500D01*
X-1624838Y1714500D01*
X-1628038Y1714957D01*
X-1630375Y1716379D01*
X-1631746Y1718767D01*
X-1632204Y1722120D01*
X-1632204Y1793239D01*
X-1632610Y1796897D01*
X-1633778Y1799539D01*
X-1635760Y1801114D01*
G37*
G36*
X-1731518Y1674875D02*
G01*
X-1734312Y1674317D01*
X-1736293Y1672742D01*
X-1737461Y1669999D01*
X-1737868Y1666239D01*
X-1737817Y1647139D01*
X-1737461Y1644599D01*
X-1712214Y1579118D01*
X-1711147Y1577238D01*
X-1709724Y1575866D01*
X-1707997Y1575054D01*
X-1705864Y1574800D01*
X-1703882Y1575054D01*
X-1702257Y1575866D01*
X-1700936Y1577238D01*
X-1700022Y1579118D01*
X-1674926Y1643888D01*
X-1674418Y1647088D01*
X-1674368Y1666493D01*
X-1674774Y1670151D01*
X-1675942Y1672793D01*
X-1677924Y1674368D01*
X-1680718Y1674875D01*
X-1683512Y1674368D01*
X-1685493Y1672793D01*
X-1686661Y1670151D01*
X-1687068Y1666493D01*
X-1687068Y1647952D01*
X-1706118Y1598676D01*
X-1725168Y1647952D01*
X-1725168Y1666239D01*
X-1725574Y1669999D01*
X-1726742Y1672742D01*
X-1728724Y1674317D01*
G37*
G36*
X-1611376Y1674875D02*
G01*
X-1617065Y1674215D01*
X-1621840Y1672132D01*
X-1625803Y1668729D01*
X-1628901Y1663954D01*
X-1642110Y1637283D01*
X-1643329Y1634388D01*
X-1644192Y1631391D01*
X-1644751Y1628190D01*
X-1644904Y1624838D01*
X-1644751Y1621485D01*
X-1644192Y1618284D01*
X-1643329Y1615287D01*
X-1642110Y1612392D01*
X-1628901Y1585722D01*
X-1625854Y1580946D01*
X-1622044Y1577543D01*
X-1617472Y1575460D01*
X-1612138Y1574800D01*
X-1589786Y1574800D01*
X-1586128Y1575206D01*
X-1583486Y1576374D01*
X-1581912Y1578356D01*
X-1581404Y1581150D01*
X-1581912Y1583944D01*
X-1583486Y1585925D01*
X-1586128Y1587093D01*
X-1589786Y1587500D01*
X-1610360Y1587500D01*
X-1612747Y1587754D01*
X-1614728Y1588566D01*
X-1616405Y1589938D01*
X-1617726Y1591818D01*
X-1630172Y1616964D01*
X-1631492Y1620774D01*
X-1631950Y1624584D01*
X-1631492Y1628851D01*
X-1630172Y1632966D01*
X-1617472Y1658112D01*
X-1616303Y1659889D01*
X-1614779Y1661160D01*
X-1613001Y1661922D01*
X-1610868Y1662175D01*
X-1589786Y1662175D01*
X-1586128Y1662582D01*
X-1583486Y1663750D01*
X-1581912Y1665732D01*
X-1581404Y1668525D01*
X-1581912Y1671320D01*
X-1583486Y1673301D01*
X-1586128Y1674469D01*
X-1589786Y1674875D01*
G37*
G36*
X-1518412Y1674875D02*
G01*
X-1524000Y1674215D01*
X-1528775Y1672132D01*
X-1532737Y1668729D01*
X-1535938Y1663954D01*
X-1549146Y1637283D01*
X-1550365Y1634388D01*
X-1551228Y1631391D01*
X-1551787Y1628190D01*
X-1551940Y1624838D01*
X-1551787Y1621485D01*
X-1551228Y1618284D01*
X-1550365Y1615287D01*
X-1549146Y1612392D01*
X-1535938Y1585722D01*
X-1532788Y1580946D01*
X-1528927Y1577543D01*
X-1524406Y1575460D01*
X-1519174Y1574800D01*
X-1496822Y1574800D01*
X-1493062Y1575206D01*
X-1490370Y1576374D01*
X-1488744Y1578356D01*
X-1488186Y1581150D01*
X-1488744Y1583944D01*
X-1490370Y1585925D01*
X-1493062Y1587093D01*
X-1496822Y1587500D01*
X-1517396Y1587500D01*
X-1519783Y1587754D01*
X-1521764Y1588566D01*
X-1523441Y1589938D01*
X-1524762Y1591818D01*
X-1537868Y1618843D01*
X-1538884Y1622704D01*
X-1538884Y1626717D01*
X-1537868Y1630933D01*
X-1524508Y1658112D01*
X-1523339Y1659889D01*
X-1521815Y1661160D01*
X-1520037Y1661922D01*
X-1517904Y1662175D01*
X-1496822Y1662175D01*
X-1493062Y1662582D01*
X-1490370Y1663750D01*
X-1488744Y1665732D01*
X-1488186Y1668525D01*
X-1488744Y1671320D01*
X-1490370Y1673301D01*
X-1493062Y1674469D01*
X-1496822Y1674875D01*
G37*
D10*
X-2412994Y1803397D02*
G01*
X-1854197Y1803397D01*
X-1854197Y1549397D01*
X-2412994Y1549397D01*
X-2412994Y1803397D01*
X-1452999Y-1978997D02*
G01*
X-833005Y-1978997D01*
X-833005Y-2339002D02*
G01*
X-1452999Y-2339002D01*
X-1447802Y-2286000D02*
G01*
X-1397002Y-2336800D01*
X-1447802Y-2032000D02*
G01*
X-1397002Y-1981200D01*
X-889002Y-1981200D02*
G01*
X-838202Y-2032000D01*
X-889002Y-2336800D02*
G01*
X-838202Y-2286000D01*
X-833005Y-1978997D02*
G01*
X-833005Y-2060884D01*
X-833005Y-2257112D02*
G01*
X-833005Y-2339002D01*
X-1452999Y-1978997D02*
G01*
X-1452999Y-2060884D01*
X-1452999Y-2257112D02*
G01*
X-1452999Y-2339002D01*
X832995Y-1978997D02*
G01*
X1452989Y-1978997D01*
X1452989Y-2339002D02*
G01*
X832995Y-2339002D01*
X838192Y-2286000D02*
G01*
X888992Y-2336800D01*
X838192Y-2032000D02*
G01*
X888992Y-1981200D01*
X1396992Y-1981200D02*
G01*
X1447792Y-2032000D01*
X1396992Y-2336800D02*
G01*
X1447792Y-2286000D01*
X1452989Y-1978997D02*
G01*
X1452989Y-2060884D01*
X1452989Y-2257112D02*
G01*
X1452989Y-2339002D01*
X832995Y-1978997D02*
G01*
X832995Y-2060884D01*
X832995Y-2257112D02*
G01*
X832995Y-2339002D01*
D11*
X-2920994Y2382004D02*
G01*
X-2920994Y1682003D01*
X-2570998Y2032005D02*
G01*
X-3270994Y2032005D01*
X2920994Y2382004D02*
G01*
X2920994Y1682003D01*
X3270991Y2032005D02*
G01*
X2570995Y2032005D01*
X-2920994Y-1681987D02*
G01*
X-2920994Y-2381989D01*
X-2570998Y-2031987D02*
G01*
X-3270994Y-2031987D01*
X2920994Y-1681987D02*
G01*
X2920994Y-2381989D01*
X3270991Y-2031987D02*
G01*
X2570995Y-2031987D01*
D10*
X1179995Y635000D02*
G01*
X1250515Y635000D01*
X1179995Y-635000D02*
G01*
X1250515Y-635000D01*
X1449473Y635000D02*
G01*
X1519994Y635000D01*
X1519994Y-635000D02*
G01*
X1519994Y635000D01*
X1179995Y-635000D02*
G01*
X1179995Y635000D01*
X1322473Y635000D02*
G01*
X1377515Y635000D01*
X1449473Y-635000D02*
G01*
X1519994Y-635000D01*
X1322473Y-635000D02*
G01*
X1377515Y-635000D01*
X-1519999Y635000D02*
G01*
X-1449478Y635000D01*
X-1519999Y-635000D02*
G01*
X-1449478Y-635000D01*
X-1250520Y635000D02*
G01*
X-1180000Y635000D01*
X-1180000Y-635000D02*
G01*
X-1180000Y635000D01*
X-1519999Y-635000D02*
G01*
X-1519999Y635000D01*
X-1377520Y635000D02*
G01*
X-1322478Y635000D01*
X-1250520Y-635000D02*
G01*
X-1180000Y-635000D01*
X-1377520Y-635000D02*
G01*
X-1322478Y-635000D01*
X-2793400Y1270000D02*
G01*
X-2285400Y1270000D01*
X-2285400Y1229611D02*
G01*
X-2285989Y1270000D01*
X-2793989Y1270000D02*
G01*
X-2793400Y1229611D01*
X-2793400Y-1270000D02*
G01*
X-2285400Y-1270000D01*
X-2285400Y975611D02*
G01*
X-2285400Y1056388D01*
X-2285400Y721611D02*
G01*
X-2285400Y802388D01*
X-2285400Y467611D02*
G01*
X-2285400Y548388D01*
X-2285400Y213611D02*
G01*
X-2285400Y294388D01*
X-2285400Y-40388D02*
G01*
X-2285400Y40388D01*
X-2285400Y-294388D02*
G01*
X-2285400Y-213611D01*
X-2285400Y-548388D02*
G01*
X-2285400Y-467611D01*
X-2285400Y-802388D02*
G01*
X-2285400Y-721611D01*
X-2285400Y-1056388D02*
G01*
X-2285400Y-975611D01*
X-2285400Y-1270000D02*
G01*
X-2285400Y-1229611D01*
X-2793400Y40388D02*
G01*
X-2793400Y-40388D01*
X-2793400Y-1229611D02*
G01*
X-2793400Y-1268623D01*
X-2793400Y-975611D02*
G01*
X-2793400Y-1056388D01*
X-2793400Y-721611D02*
G01*
X-2793400Y-802388D01*
X-2793400Y-467611D02*
G01*
X-2793400Y-548388D01*
X-2793400Y-213611D02*
G01*
X-2793400Y-294388D01*
X-2793400Y294388D02*
G01*
X-2793400Y213611D01*
X-2793400Y548388D02*
G01*
X-2793400Y467611D01*
X-2793400Y802388D02*
G01*
X-2793400Y721611D01*
X-2793400Y1056388D02*
G01*
X-2793400Y975611D01*
X2286579Y1270002D02*
G01*
X2794579Y1270002D01*
X2794579Y1229613D02*
G01*
X2793989Y1270002D01*
X2285989Y1270002D02*
G01*
X2286579Y1229613D01*
X2286579Y-1269997D02*
G01*
X2794579Y-1269997D01*
X2794579Y975613D02*
G01*
X2794579Y1056391D01*
X2794579Y721613D02*
G01*
X2794579Y802391D01*
X2794579Y467613D02*
G01*
X2794579Y548391D01*
X2794579Y213613D02*
G01*
X2794579Y294391D01*
X2794579Y-40386D02*
G01*
X2794579Y40391D01*
X2794579Y-294386D02*
G01*
X2794579Y-213608D01*
X2794579Y-548386D02*
G01*
X2794579Y-467608D01*
X2794579Y-802386D02*
G01*
X2794579Y-721608D01*
X2794579Y-1056386D02*
G01*
X2794579Y-975608D01*
X2794579Y-1269997D02*
G01*
X2794579Y-1229608D01*
X2286579Y40391D02*
G01*
X2286579Y-40386D01*
X2286579Y-1229608D02*
G01*
X2286579Y-1268620D01*
X2286579Y-975608D02*
G01*
X2286579Y-1056386D01*
X2286579Y-721608D02*
G01*
X2286579Y-802386D01*
X2286579Y-467608D02*
G01*
X2286579Y-548386D01*
X2286579Y-213608D02*
G01*
X2286579Y-294386D01*
X2286579Y294391D02*
G01*
X2286579Y213613D01*
X2286579Y548391D02*
G01*
X2286579Y467613D01*
X2286579Y802391D02*
G01*
X2286579Y721613D01*
X2286579Y1056391D02*
G01*
X2286579Y975613D01*
D12*
G75*
G01*
X-2652001Y2058406D02*
G03*
X-2891998Y2298405I-268190J-28190D01*
G75*
G01*
X-2700002Y2058406D02*
G03*
X-2893398Y2251804I-220470J-27071D01*
G75*
G01*
X-2741597Y2055205D02*
G03*
X-2895664Y2209272I-179262J-25195D01*
G75*
G01*
X-3232249Y2004776D02*
G03*
X-2948229Y1720751I311252J27226D01*
G75*
G01*
X-3189186Y2003819D02*
G03*
X-2949189Y1763814I268190J28184D01*
G75*
G01*
X-3141464Y2004776D02*
G03*
X-2948064Y1811378I220469J27072D01*
G75*
G01*
X-3100258Y2005383D02*
G03*
X-2946189Y1851317I179259J25194D01*
G75*
G01*
X-2610399Y2058406D02*
G03*
X-2894419Y2342426I-311249J-27229D01*
G75*
G01*
X3189989Y2058406D02*
G03*
X2949992Y2298405I-268190J-28190D01*
G75*
G01*
X3141988Y2058406D02*
G03*
X2948592Y2251804I-220470J-27071D01*
G75*
G01*
X3100393Y2055205D02*
G03*
X2946326Y2209272I-179262J-25195D01*
G75*
G01*
X2609741Y2004776D02*
G03*
X2893761Y1720751I311252J27226D01*
G75*
G01*
X2652804Y2003819D02*
G03*
X2892801Y1763814I268190J28184D01*
G75*
G01*
X2700525Y2004776D02*
G03*
X2893926Y1811378I220470J27072D01*
G75*
G01*
X2741732Y2005383D02*
G03*
X2895801Y1851317I179259J25194D01*
G75*
G01*
X3231591Y2058406D02*
G03*
X2947571Y2342426I-311249J-27229D01*
G75*
G01*
X-2652001Y-2005587D02*
G03*
X-2891998Y-1765587I-268190J-28189D01*
G75*
G01*
X-2700002Y-2005587D02*
G03*
X-2893398Y-1812188I-220470J-27071D01*
G75*
G01*
X-2741597Y-2008787D02*
G03*
X-2895664Y-1854721I-179262J-25195D01*
G75*
G01*
X-3232249Y-2059216D02*
G03*
X-2948229Y-2343241I311252J27226D01*
G75*
G01*
X-3189186Y-2060174D02*
G03*
X-2949189Y-2300178I268190J28185D01*
G75*
G01*
X-3141464Y-2059216D02*
G03*
X-2948064Y-2252614I220469J27072D01*
G75*
G01*
X-3100258Y-2058609D02*
G03*
X-2946189Y-2212675I179259J25193D01*
G75*
G01*
X-2610399Y-2005587D02*
G03*
X-2894419Y-1721566I-311249J-27228D01*
G75*
G01*
X3189989Y-2005587D02*
G03*
X2949992Y-1765587I-268190J-28189D01*
G75*
G01*
X3141988Y-2005587D02*
G03*
X2948592Y-1812188I-220470J-27071D01*
G75*
G01*
X3100393Y-2008787D02*
G03*
X2946326Y-1854721I-179262J-25195D01*
G75*
G01*
X2609741Y-2059216D02*
G03*
X2893761Y-2343241I311252J27226D01*
G75*
G01*
X2652804Y-2060174D02*
G03*
X2892801Y-2300178I268190J28185D01*
G75*
G01*
X2700525Y-2059216D02*
G03*
X2893926Y-2252614I220470J27072D01*
G75*
G01*
X2741732Y-2058609D02*
G03*
X2895801Y-2212675I179259J25193D01*
G75*
G01*
X3231591Y-2005587D02*
G03*
X2947571Y-1721566I-311249J-27228D01*
D11*
G75*
G01
X1850009Y0D02*
G03X1850009Y0I-1850009J0D01*
D10*
G75*
G01
X-1086206Y-2159000D02*
G03X-1086206Y-2159000I-56794J0D01*
G75*
G01
X-1041400Y-2159000D02*
G03X-1041400Y-2159000I-101600J0D01*
G75*
G01
X-883006Y-2159000D02*
G03X-883006Y-2159000I-56794J0D01*
G75*
G01
X-1289406Y-2159000D02*
G03X-1289406Y-2159000I-56794J0D01*
G75*
G01
X1199794Y-2159000D02*
G03X1199794Y-2159000I-56794J0D01*
G75*
G01
X1244600Y-2159000D02*
G03X1244600Y-2159000I-101600J0D01*
G75*
G01
X1402994Y-2159000D02*
G03X1402994Y-2159000I-56794J0D01*
G75*
G01
X996594Y-2159000D02*
G03X996594Y-2159000I-56794J0D01*
D11*
G75*
G01
X-2570988Y2032000D02*
G03X-2570988Y2032000I-350012J0D01*
G75*
G01
X3271012Y2032000D02*
G03X3271012Y2032000I-350012J0D01*
G75*
G01
X-2570988Y-2032000D02*
G03X-2570988Y-2032000I-350012J0D01*
G75*
G01
X3271012Y-2032000D02*
G03X3271012Y-2032000I-350012J0D01*
D10*
G75*
G01
X-2209800Y-1257300D02*
G03X-2209800Y-1257300I-12700J0D01*
G75*
G01
X2870200Y-1257300D02*
G03X2870200Y-1257300I-12700J0D01*
M02*
