G04 Layer: TopSolderMaskLayer*
G04 EasyEDA v6.5.44, 2024-09-01 09:52:19*
G04 b4576de5f8ba4d03ab64208176f03f1d,a54f91b67bf74260adec70c9c35cfc8e,10*
G04 Gerber Generator version 0.2*
G04 Scale: 100 percent, Rotated: No, Reflected: No *
G04 Dimensions in millimeters *
G04 leading zeros omitted , absolute positions ,4 integer and 5 decimal *
%FSLAX45Y45*%
%MOMM*%

%AMMACRO1*4,1,8,-0.7211,-0.8008,-0.7508,-0.771,-0.7508,0.7711,-0.7211,0.8008,0.721,0.8008,0.7508,0.7711,0.7508,-0.771,0.721,-0.8008,-0.7211,-0.8008,0*%
%ADD10MACRO1*%
%ADD11C,1.1000*%
%ADD12O,2.9015944X1.3716000000000002*%
%ADD13O,2.9015944X0.9015984*%
%ADD14C,1.6016*%
%ADD15C,1.9032*%

%LPD*%
D10*
G01*
X-1522989Y-2158998D03*
G01*
X-763003Y-2158998D03*
G01*
X763005Y-2158998D03*
G01*
X1522991Y-2158998D03*
D11*
G01*
X1286510Y190500D03*
G01*
X1413510Y190500D03*
G01*
X1286510Y63500D03*
G01*
X1413510Y63500D03*
G01*
X1286510Y-63500D03*
G01*
X1413510Y-63500D03*
G01*
X1286510Y-190500D03*
G01*
X1413510Y-190500D03*
G01*
X1286510Y-317500D03*
G01*
X1413510Y-317500D03*
G01*
X1286510Y-444500D03*
G01*
X1413510Y-444500D03*
G01*
X1286510Y-571500D03*
G01*
X1413510Y-571500D03*
G01*
X1413510Y317500D03*
G01*
X1286510Y317500D03*
G01*
X1413510Y444500D03*
G01*
X1286510Y444500D03*
G01*
X1286510Y571500D03*
G01*
X1413510Y571500D03*
G01*
X-1413484Y190500D03*
G01*
X-1286484Y190500D03*
G01*
X-1413484Y63500D03*
G01*
X-1286484Y63500D03*
G01*
X-1413484Y-63500D03*
G01*
X-1286484Y-63500D03*
G01*
X-1413484Y-190500D03*
G01*
X-1286484Y-190500D03*
G01*
X-1413484Y-317500D03*
G01*
X-1286484Y-317500D03*
G01*
X-1413484Y-444500D03*
G01*
X-1286484Y-444500D03*
G01*
X-1413484Y-571500D03*
G01*
X-1286484Y-571500D03*
G01*
X-1286484Y317500D03*
G01*
X-1413484Y317500D03*
G01*
X-1286484Y444500D03*
G01*
X-1413484Y444500D03*
G01*
X-1413484Y571500D03*
G01*
X-1286484Y571500D03*
D12*
G01*
X-2820009Y1143000D03*
G01*
X-2260015Y1143000D03*
G01*
X-2820009Y889000D03*
G01*
X-2260015Y889000D03*
G01*
X-2820009Y635000D03*
G01*
X-2260015Y635000D03*
G01*
X-2820009Y381000D03*
G01*
X-2260015Y381000D03*
G01*
X-2820009Y127000D03*
G01*
X-2260015Y127000D03*
G01*
X-2820009Y-127000D03*
G01*
X-2260015Y-127000D03*
G01*
X-2820009Y-381000D03*
G01*
X-2260015Y-381000D03*
G01*
X-2820009Y-635000D03*
G01*
X-2260015Y-635000D03*
G01*
X-2820009Y-889000D03*
G01*
X-2260015Y-889000D03*
G01*
X-2820009Y-1143000D03*
G01*
X-2260015Y-1143000D03*
G01*
X2259990Y1143000D03*
G01*
X2819984Y1143000D03*
G01*
X2259990Y889000D03*
G01*
X2819984Y889000D03*
G01*
X2259990Y635000D03*
G01*
X2819984Y635000D03*
G01*
X2259990Y381000D03*
G01*
X2819984Y381000D03*
G01*
X2259990Y127000D03*
G01*
X2819984Y127000D03*
G01*
X2259990Y-127000D03*
G01*
X2819984Y-127000D03*
G01*
X2259990Y-381000D03*
G01*
X2819984Y-381000D03*
G01*
X2259990Y-635000D03*
G01*
X2819984Y-635000D03*
G01*
X2259990Y-889000D03*
G01*
X2819984Y-889000D03*
G01*
X2259990Y-1143000D03*
G01*
X2819984Y-1143000D03*
D13*
G01*
X-1099997Y63500D03*
G01*
X-1099997Y-571500D03*
G01*
X-1599996Y-571500D03*
G01*
X-1599996Y63500D03*
G01*
X-1099997Y-444500D03*
G01*
X-1099997Y190500D03*
G01*
X-1599996Y-444500D03*
G01*
X-1599996Y190500D03*
G01*
X-1099997Y-317500D03*
G01*
X-1099997Y317500D03*
G01*
X-1599996Y-317500D03*
G01*
X-1599996Y317500D03*
G01*
X-1099997Y-190500D03*
G01*
X-1099997Y444500D03*
G01*
X-1599996Y-190500D03*
G01*
X-1599996Y444500D03*
G01*
X-1099997Y-63500D03*
G01*
X-1099997Y571500D03*
G01*
X-1599996Y-63500D03*
G01*
X-1599996Y571500D03*
G01*
X1099997Y-63500D03*
G01*
X1099997Y571500D03*
G01*
X1599996Y-63500D03*
G01*
X1599996Y571500D03*
G01*
X1099997Y-190500D03*
G01*
X1099997Y444500D03*
G01*
X1599996Y-190500D03*
G01*
X1599996Y444500D03*
G01*
X1099997Y-317500D03*
G01*
X1099997Y317500D03*
G01*
X1599996Y-317500D03*
G01*
X1599996Y317500D03*
G01*
X1099997Y-444500D03*
G01*
X1099997Y190500D03*
G01*
X1599996Y-444500D03*
G01*
X1599996Y190500D03*
G01*
X1099997Y-571500D03*
G01*
X1099997Y63500D03*
G01*
X1599996Y63500D03*
G01*
X1599996Y-571500D03*
D14*
G01*
X-2667000Y1142974D03*
G01*
X-2413000Y1143000D03*
G01*
X-2413000Y889000D03*
G01*
X-2667000Y889000D03*
G01*
X-2667000Y635000D03*
G01*
X-2413000Y635000D03*
G01*
X-2667000Y381000D03*
G01*
X-2413000Y381000D03*
G01*
X-2413000Y127000D03*
G01*
X-2667000Y127000D03*
G01*
X-2667000Y-127000D03*
G01*
X-2413000Y-127000D03*
G01*
X-2413000Y-381000D03*
G01*
X-2667000Y-381000D03*
G01*
X-2667000Y-635000D03*
G01*
X-2667000Y-889000D03*
G01*
X-2667000Y-1143000D03*
G01*
X-2413000Y-1143000D03*
G01*
X-2413000Y-889000D03*
G01*
X-2413000Y-635000D03*
G01*
X2413000Y1143000D03*
G01*
X2667000Y1143000D03*
G01*
X2413000Y889000D03*
G01*
X2667000Y889000D03*
G01*
X2667000Y635000D03*
G01*
X2413000Y635000D03*
G01*
X2413000Y381000D03*
G01*
X2667000Y381000D03*
G01*
X2667000Y127000D03*
G01*
X2413000Y127000D03*
G01*
X2413000Y-127000D03*
G01*
X2667000Y-127000D03*
G01*
X2413000Y-381000D03*
G01*
X2667000Y-381000D03*
G01*
X2413000Y-635000D03*
G01*
X2667000Y-635000D03*
G01*
X2413000Y-889000D03*
G01*
X2667000Y-889000D03*
G01*
X2413000Y-1143000D03*
G01*
X2667000Y-1143000D03*
D15*
G01*
X-2260600Y2286000D03*
G01*
X-2006600Y2286000D03*
G01*
X-2260600Y2032000D03*
G01*
X-2006600Y2032000D03*
G01*
X-2260600Y-2286000D03*
G01*
X-2260600Y-2032000D03*
G01*
X-2006600Y-2032000D03*
G01*
X-2006600Y-2286000D03*
G01*
X2311400Y-2032000D03*
G01*
X2057400Y2286000D03*
G01*
X2311400Y2286000D03*
G01*
X2311400Y2032000D03*
G01*
X2057400Y2032000D03*
G01*
X2057400Y-2032000D03*
G01*
X2057400Y-2286000D03*
G01*
X-2260600Y1676400D03*
G01*
X-2006600Y1676400D03*
G01*
X2311400Y-2286000D03*
M02*
