G04 Layer: TopPasteMaskLayer*
G04 EasyEDA v6.5.44, 2024-09-01 09:52:19*
G04 b4576de5f8ba4d03ab64208176f03f1d,a54f91b67bf74260adec70c9c35cfc8e,10*
G04 Gerber Generator version 0.2*
G04 Scale: 100 percent, Rotated: No, Reflected: No *
G04 Dimensions in millimeters *
G04 leading zeros omitted , absolute positions ,4 integer and 5 decimal *
%FSLAX45Y45*%
%MOMM*%

%ADD10R,1.4000X1.5000*%
%ADD11O,2.7999944X1.27*%
%ADD12O,2.7999944X0.7999984*%

%LPD*%
D10*
G01*
X-1522984Y-2159000D03*
G01*
X-762990Y-2159000D03*
G01*
X763015Y-2159000D03*
G01*
X1522984Y-2159000D03*
D11*
G01*
X-2820009Y1143000D03*
G01*
X-2260015Y1143000D03*
G01*
X-2820009Y889000D03*
G01*
X-2260015Y889000D03*
G01*
X-2820009Y635000D03*
G01*
X-2260015Y635000D03*
G01*
X-2820009Y381000D03*
G01*
X-2260015Y381000D03*
G01*
X-2820009Y127000D03*
G01*
X-2260015Y127000D03*
G01*
X-2820009Y-127000D03*
G01*
X-2260015Y-127000D03*
G01*
X-2820009Y-381000D03*
G01*
X-2260015Y-381000D03*
G01*
X-2820009Y-635000D03*
G01*
X-2260015Y-635000D03*
G01*
X-2820009Y-889000D03*
G01*
X-2260015Y-889000D03*
G01*
X-2820009Y-1143000D03*
G01*
X-2260015Y-1143000D03*
G01*
X2259990Y1143000D03*
G01*
X2819984Y1143000D03*
G01*
X2259990Y889000D03*
G01*
X2819984Y889000D03*
G01*
X2259990Y635000D03*
G01*
X2819984Y635000D03*
G01*
X2259990Y381000D03*
G01*
X2819984Y381000D03*
G01*
X2259990Y127000D03*
G01*
X2819984Y127000D03*
G01*
X2259990Y-127000D03*
G01*
X2819984Y-127000D03*
G01*
X2259990Y-381000D03*
G01*
X2819984Y-381000D03*
G01*
X2259990Y-635000D03*
G01*
X2819984Y-635000D03*
G01*
X2259990Y-889000D03*
G01*
X2819984Y-889000D03*
G01*
X2259990Y-1143000D03*
G01*
X2819984Y-1143000D03*
D12*
G01*
X-1099997Y63500D03*
G01*
X-1099997Y-571500D03*
G01*
X-1599996Y-571500D03*
G01*
X-1599996Y63500D03*
G01*
X-1099997Y-444500D03*
G01*
X-1099997Y190500D03*
G01*
X-1599996Y-444500D03*
G01*
X-1599996Y190500D03*
G01*
X-1099997Y-317500D03*
G01*
X-1099997Y317500D03*
G01*
X-1599996Y-317500D03*
G01*
X-1599996Y317500D03*
G01*
X-1099997Y-190500D03*
G01*
X-1099997Y444500D03*
G01*
X-1599996Y-190500D03*
G01*
X-1599996Y444500D03*
G01*
X-1099997Y-63500D03*
G01*
X-1099997Y571500D03*
G01*
X-1599996Y-63500D03*
G01*
X-1599996Y571500D03*
G01*
X1099997Y-63500D03*
G01*
X1099997Y571500D03*
G01*
X1599996Y-63500D03*
G01*
X1599996Y571500D03*
G01*
X1099997Y-190500D03*
G01*
X1099997Y444500D03*
G01*
X1599996Y-190500D03*
G01*
X1599996Y444500D03*
G01*
X1099997Y-317500D03*
G01*
X1099997Y317500D03*
G01*
X1599996Y-317500D03*
G01*
X1599996Y317500D03*
G01*
X1099997Y-444500D03*
G01*
X1099997Y190500D03*
G01*
X1599996Y-444500D03*
G01*
X1599996Y190500D03*
G01*
X1099997Y-571500D03*
G01*
X1099997Y63500D03*
G01*
X1599996Y63500D03*
G01*
X1599996Y-571500D03*
M02*
